G04 #@! TF.GenerationSoftware,KiCad,Pcbnew,7.0.8-7.0.8~ubuntu22.04.1*
G04 #@! TF.CreationDate,2023-10-11T15:45:23+02:00*
G04 #@! TF.ProjectId,Pico_PCB,5069636f-5f50-4434-922e-6b696361645f,rev?*
G04 #@! TF.SameCoordinates,Original*
G04 #@! TF.FileFunction,Legend,Bot*
G04 #@! TF.FilePolarity,Positive*
%FSLAX46Y46*%
G04 Gerber Fmt 4.6, Leading zero omitted, Abs format (unit mm)*
G04 Created by KiCad (PCBNEW 7.0.8-7.0.8~ubuntu22.04.1) date 2023-10-11 15:45:23*
%MOMM*%
%LPD*%
G01*
G04 APERTURE LIST*
G04 Aperture macros list*
%AMRoundRect*
0 Rectangle with rounded corners*
0 $1 Rounding radius*
0 $2 $3 $4 $5 $6 $7 $8 $9 X,Y pos of 4 corners*
0 Add a 4 corners polygon primitive as box body*
4,1,4,$2,$3,$4,$5,$6,$7,$8,$9,$2,$3,0*
0 Add four circle primitives for the rounded corners*
1,1,$1+$1,$2,$3*
1,1,$1+$1,$4,$5*
1,1,$1+$1,$6,$7*
1,1,$1+$1,$8,$9*
0 Add four rect primitives between the rounded corners*
20,1,$1+$1,$2,$3,$4,$5,0*
20,1,$1+$1,$4,$5,$6,$7,0*
20,1,$1+$1,$6,$7,$8,$9,0*
20,1,$1+$1,$8,$9,$2,$3,0*%
G04 Aperture macros list end*
%ADD10C,1.500000*%
%ADD11RoundRect,0.250000X0.600000X0.600000X-0.600000X0.600000X-0.600000X-0.600000X0.600000X-0.600000X0*%
%ADD12C,1.700000*%
%ADD13C,3.530600*%
G04 APERTURE END LIST*
%LPC*%
D10*
X263238000Y-42160000D03*
X251200000Y-42400000D03*
X248700000Y-31100000D03*
X266000000Y-47700000D03*
X266032000Y-42160000D03*
X255250000Y-17300000D03*
X252400000Y-19350000D03*
X258000000Y-20000000D03*
X248850000Y-39700000D03*
X248850000Y-37000000D03*
D11*
X242550000Y-49170000D03*
D12*
X240010000Y-49170000D03*
X242550000Y-46630000D03*
X240010000Y-46630000D03*
X242550000Y-44090000D03*
X240010000Y-44090000D03*
X242550000Y-41550000D03*
X240010000Y-41550000D03*
D10*
X268050000Y-17750000D03*
X272500000Y-24400000D03*
X266700000Y-20000000D03*
X263100000Y-16400000D03*
X271050000Y-43700000D03*
X255300000Y-20000000D03*
X260700000Y-17300000D03*
X269400000Y-20000000D03*
X249650000Y-16650000D03*
X270500000Y-25900000D03*
X249700000Y-19350000D03*
X257950000Y-17300000D03*
X265300000Y-45050000D03*
X270600000Y-46750000D03*
X252350000Y-16650000D03*
X253600000Y-41450000D03*
X272600000Y-27500000D03*
X270200000Y-23100000D03*
X248550000Y-42400000D03*
X272250000Y-41300000D03*
X260700000Y-20000000D03*
D13*
X233190000Y-21836520D03*
X233190000Y-34968320D03*
D10*
X270300000Y-28800000D03*
X268826000Y-42160000D03*
X268100000Y-45000000D03*
%LPD*%
M02*
