%TF.GenerationSoftware,KiCad,Pcbnew,7.0.8-7.0.8~ubuntu22.04.1*%
%TF.CreationDate,2023-10-11T15:45:36+02:00*%
%TF.ProjectId,Pico_PCB,5069636f-5f50-4434-922e-6b696361645f,rev?*%
%TF.SameCoordinates,Original*%
%TF.FileFunction,Drillmap*%
%TF.FilePolarity,Positive*%
%FSLAX45Y45*%
G04 Gerber Fmt 4.5, Leading zero omitted, Abs format (unit mm)*
G04 Created by KiCad (PCBNEW 7.0.8-7.0.8~ubuntu22.04.1) date 2023-10-11 15:45:36*
%MOMM*%
%LPD*%
G01*
G04 APERTURE LIST*
%ADD10C,0.100000*%
%ADD11C,0.200000*%
%ADD12C,0.040000*%
%ADD13C,0.070000*%
%ADD14C,0.231140*%
G04 APERTURE END LIST*
D10*
X23045000Y-1460000D02*
X28305000Y-1460000D01*
X28305000Y-5660000D01*
X23045000Y-5660000D01*
X23045000Y-1460000D01*
D11*
D12*
X23205000Y-5385000D02*
X23245000Y-5425000D01*
X23245000Y-5385000D02*
X23205000Y-5425000D01*
X23550000Y-1640000D02*
X23590000Y-1680000D01*
X23590000Y-1640000D02*
X23550000Y-1680000D01*
X23820000Y-2200000D02*
X23860000Y-2240000D01*
X23860000Y-2200000D02*
X23820000Y-2240000D01*
X23890000Y-5430000D02*
X23930000Y-5470000D01*
X23930000Y-5430000D02*
X23890000Y-5470000D01*
X23900000Y-2600000D02*
X23940000Y-2640000D01*
X23940000Y-2600000D02*
X23900000Y-2640000D01*
X24090000Y-5035000D02*
X24130000Y-5075000D01*
X24130000Y-5035000D02*
X24090000Y-5075000D01*
X24320000Y-1640000D02*
X24360000Y-1680000D01*
X24360000Y-1640000D02*
X24320000Y-1680000D01*
X24350000Y-2225000D02*
X24390000Y-2265000D01*
X24390000Y-2225000D02*
X24350000Y-2265000D01*
X24400000Y-5055000D02*
X24440000Y-5095000D01*
X24440000Y-5055000D02*
X24400000Y-5095000D01*
X24405000Y-4900000D02*
X24445000Y-4940000D01*
X24445000Y-4900000D02*
X24405000Y-4940000D01*
X24420000Y-3090000D02*
X24460000Y-3130000D01*
X24460000Y-3090000D02*
X24420000Y-3130000D01*
X24480000Y-2595000D02*
X24520000Y-2635000D01*
X24520000Y-2595000D02*
X24480000Y-2635000D01*
X24575000Y-4905000D02*
X24615000Y-4945000D01*
X24615000Y-4905000D02*
X24575000Y-4945000D01*
X24755000Y-4845000D02*
X24795000Y-4885000D01*
X24795000Y-4845000D02*
X24755000Y-4885000D01*
X24880000Y-2880000D02*
X24920000Y-2920000D01*
X24920000Y-2880000D02*
X24880000Y-2920000D01*
X24890000Y-5430000D02*
X24930000Y-5470000D01*
X24930000Y-5430000D02*
X24890000Y-5470000D01*
X25050000Y-2320000D02*
X25090000Y-2360000D01*
X25090000Y-2320000D02*
X25050000Y-2360000D01*
X25150000Y-4400000D02*
X25190000Y-4440000D01*
X25190000Y-4400000D02*
X25150000Y-4440000D01*
X25200000Y-4890000D02*
X25240000Y-4930000D01*
X25240000Y-4890000D02*
X25200000Y-4930000D01*
X25310000Y-5100000D02*
X25350000Y-5140000D01*
X25350000Y-5100000D02*
X25310000Y-5140000D01*
X25580000Y-5100000D02*
X25620000Y-5140000D01*
X25620000Y-5100000D02*
X25580000Y-5140000D01*
X25610000Y-2520000D02*
X25650000Y-2560000D01*
X25650000Y-2520000D02*
X25610000Y-2560000D01*
X25680000Y-4490000D02*
X25720000Y-4530000D01*
X25720000Y-4490000D02*
X25680000Y-4530000D01*
X25720000Y-5390000D02*
X25760000Y-5430000D01*
X25760000Y-5390000D02*
X25720000Y-5430000D01*
X25755000Y-4315000D02*
X25795000Y-4355000D01*
X25795000Y-4315000D02*
X25755000Y-4355000D01*
X25840000Y-5100000D02*
X25880000Y-5140000D01*
X25880000Y-5100000D02*
X25840000Y-5140000D01*
X25930000Y-4490000D02*
X25970000Y-4530000D01*
X25970000Y-4490000D02*
X25930000Y-4530000D01*
X25935000Y-4880000D02*
X25975000Y-4920000D01*
X25975000Y-4880000D02*
X25935000Y-4920000D01*
X25970000Y-4005000D02*
X26010000Y-4045000D01*
X26010000Y-4005000D02*
X25970000Y-4045000D01*
X26000000Y-2940000D02*
X26040000Y-2980000D01*
X26040000Y-2940000D02*
X26000000Y-2980000D01*
X26000000Y-3310000D02*
X26040000Y-3350000D01*
X26040000Y-3310000D02*
X26000000Y-3350000D01*
X26035000Y-4300000D02*
X26075000Y-4340000D01*
X26075000Y-4300000D02*
X26035000Y-4340000D01*
X26090000Y-5100000D02*
X26130000Y-5140000D01*
X26130000Y-5100000D02*
X26090000Y-5140000D01*
X26265000Y-4585000D02*
X26305000Y-4625000D01*
X26305000Y-4585000D02*
X26265000Y-4625000D01*
X26310000Y-5030000D02*
X26350000Y-5070000D01*
X26350000Y-5030000D02*
X26310000Y-5070000D01*
X26320000Y-4780000D02*
X26360000Y-4820000D01*
X26360000Y-4780000D02*
X26320000Y-4820000D01*
X26335000Y-1895000D02*
X26375000Y-1935000D01*
X26375000Y-1895000D02*
X26335000Y-1935000D01*
X26380000Y-1760000D02*
X26420000Y-1800000D01*
X26420000Y-1760000D02*
X26380000Y-1800000D01*
X26390000Y-3310000D02*
X26430000Y-3350000D01*
X26430000Y-3310000D02*
X26390000Y-3350000D01*
X26410000Y-2940000D02*
X26450000Y-2980000D01*
X26450000Y-2940000D02*
X26410000Y-2980000D01*
X26490000Y-5390000D02*
X26530000Y-5430000D01*
X26530000Y-5390000D02*
X26490000Y-5430000D01*
X27190000Y-5390000D02*
X27230000Y-5430000D01*
X27230000Y-5390000D02*
X27190000Y-5430000D01*
X27370000Y-1640000D02*
X27410000Y-1680000D01*
X27410000Y-1640000D02*
X27370000Y-1680000D01*
X28010000Y-5390000D02*
X28050000Y-5430000D01*
X28050000Y-5390000D02*
X28010000Y-5430000D01*
X28030000Y-1640000D02*
X28070000Y-1680000D01*
X28070000Y-1640000D02*
X28030000Y-1680000D01*
X28100000Y-2140000D02*
X28140000Y-2180000D01*
X28140000Y-2140000D02*
X28100000Y-2180000D01*
D13*
X24890000Y-4240000D02*
G75*
G03*
X24890000Y-4240000I-35000J0D01*
G01*
X24905000Y-3110000D02*
G75*
G03*
X24905000Y-3110000I-35000J0D01*
G01*
X24920000Y-3700000D02*
G75*
G03*
X24920000Y-3700000I-35000J0D01*
G01*
X24920000Y-3970000D02*
G75*
G03*
X24920000Y-3970000I-35000J0D01*
G01*
X25000000Y-1665000D02*
G75*
G03*
X25000000Y-1665000I-35000J0D01*
G01*
X25005000Y-1935000D02*
G75*
G03*
X25005000Y-1935000I-35000J0D01*
G01*
X25155000Y-4240000D02*
G75*
G03*
X25155000Y-4240000I-35000J0D01*
G01*
X25270000Y-1665000D02*
G75*
G03*
X25270000Y-1665000I-35000J0D01*
G01*
X25275000Y-1935000D02*
G75*
G03*
X25275000Y-1935000I-35000J0D01*
G01*
X25395000Y-4145000D02*
G75*
G03*
X25395000Y-4145000I-35000J0D01*
G01*
X25560000Y-1730000D02*
G75*
G03*
X25560000Y-1730000I-35000J0D01*
G01*
X25565000Y-2000000D02*
G75*
G03*
X25565000Y-2000000I-35000J0D01*
G01*
X25830000Y-1730000D02*
G75*
G03*
X25830000Y-1730000I-35000J0D01*
G01*
X25835000Y-2000000D02*
G75*
G03*
X25835000Y-2000000I-35000J0D01*
G01*
X26105000Y-1730000D02*
G75*
G03*
X26105000Y-1730000I-35000J0D01*
G01*
X26105000Y-2000000D02*
G75*
G03*
X26105000Y-2000000I-35000J0D01*
G01*
X26345000Y-1640000D02*
G75*
G03*
X26345000Y-1640000I-35000J0D01*
G01*
X26358800Y-4216000D02*
G75*
G03*
X26358800Y-4216000I-35000J0D01*
G01*
X26565000Y-4505000D02*
G75*
G03*
X26565000Y-4505000I-35000J0D01*
G01*
X26635000Y-4770000D02*
G75*
G03*
X26635000Y-4770000I-35000J0D01*
G01*
X26638200Y-4216000D02*
G75*
G03*
X26638200Y-4216000I-35000J0D01*
G01*
X26705000Y-2000000D02*
G75*
G03*
X26705000Y-2000000I-35000J0D01*
G01*
X26840000Y-1775000D02*
G75*
G03*
X26840000Y-1775000I-35000J0D01*
G01*
X26845000Y-4500000D02*
G75*
G03*
X26845000Y-4500000I-35000J0D01*
G01*
X26917600Y-4216000D02*
G75*
G03*
X26917600Y-4216000I-35000J0D01*
G01*
X26975000Y-2000000D02*
G75*
G03*
X26975000Y-2000000I-35000J0D01*
G01*
X27055000Y-2310000D02*
G75*
G03*
X27055000Y-2310000I-35000J0D01*
G01*
X27065000Y-2880000D02*
G75*
G03*
X27065000Y-2880000I-35000J0D01*
G01*
X27085000Y-2590000D02*
G75*
G03*
X27085000Y-2590000I-35000J0D01*
G01*
X27095000Y-4675000D02*
G75*
G03*
X27095000Y-4675000I-35000J0D01*
G01*
X27140000Y-4370000D02*
G75*
G03*
X27140000Y-4370000I-35000J0D01*
G01*
X27260000Y-4130000D02*
G75*
G03*
X27260000Y-4130000I-35000J0D01*
G01*
X27285000Y-2440000D02*
G75*
G03*
X27285000Y-2440000I-35000J0D01*
G01*
X27295000Y-2750000D02*
G75*
G03*
X27295000Y-2750000I-35000J0D01*
G01*
D10*
X24001000Y-4105000D02*
X24001000Y-4205000D01*
X23951000Y-4155000D02*
X24051000Y-4155000D01*
X24001000Y-4359000D02*
X24001000Y-4459000D01*
X23951000Y-4409000D02*
X24051000Y-4409000D01*
X24001000Y-4613000D02*
X24001000Y-4713000D01*
X23951000Y-4663000D02*
X24051000Y-4663000D01*
X24001000Y-4867000D02*
X24001000Y-4967000D01*
X23951000Y-4917000D02*
X24051000Y-4917000D01*
X24255000Y-4105000D02*
X24255000Y-4205000D01*
X24205000Y-4155000D02*
X24305000Y-4155000D01*
X24255000Y-4359000D02*
X24255000Y-4459000D01*
X24205000Y-4409000D02*
X24305000Y-4409000D01*
X24255000Y-4613000D02*
X24255000Y-4713000D01*
X24205000Y-4663000D02*
X24305000Y-4663000D01*
X24255000Y-4867000D02*
X24255000Y-4967000D01*
X24205000Y-4917000D02*
X24305000Y-4917000D01*
D14*
X23400721Y-2265373D02*
X23400721Y-2101931D01*
X23237279Y-2101931D01*
X23237279Y-2265373D01*
X23400721Y-2265373D01*
X23400721Y-3578553D02*
X23400721Y-3415111D01*
X23237279Y-3415111D01*
X23237279Y-3578553D01*
X23400721Y-3578553D01*
D11*
X23300777Y-5976484D02*
X23300777Y-5776484D01*
X23300777Y-5776484D02*
X23348396Y-5776484D01*
X23348396Y-5776484D02*
X23376967Y-5786008D01*
X23376967Y-5786008D02*
X23396015Y-5805055D01*
X23396015Y-5805055D02*
X23405539Y-5824103D01*
X23405539Y-5824103D02*
X23415062Y-5862198D01*
X23415062Y-5862198D02*
X23415062Y-5890769D01*
X23415062Y-5890769D02*
X23405539Y-5928865D01*
X23405539Y-5928865D02*
X23396015Y-5947912D01*
X23396015Y-5947912D02*
X23376967Y-5966960D01*
X23376967Y-5966960D02*
X23348396Y-5976484D01*
X23348396Y-5976484D02*
X23300777Y-5976484D01*
X23500777Y-5976484D02*
X23500777Y-5843150D01*
X23500777Y-5881246D02*
X23510301Y-5862198D01*
X23510301Y-5862198D02*
X23519824Y-5852674D01*
X23519824Y-5852674D02*
X23538872Y-5843150D01*
X23538872Y-5843150D02*
X23557920Y-5843150D01*
X23624586Y-5976484D02*
X23624586Y-5843150D01*
X23624586Y-5776484D02*
X23615062Y-5786008D01*
X23615062Y-5786008D02*
X23624586Y-5795531D01*
X23624586Y-5795531D02*
X23634110Y-5786008D01*
X23634110Y-5786008D02*
X23624586Y-5776484D01*
X23624586Y-5776484D02*
X23624586Y-5795531D01*
X23748396Y-5976484D02*
X23729348Y-5966960D01*
X23729348Y-5966960D02*
X23719824Y-5947912D01*
X23719824Y-5947912D02*
X23719824Y-5776484D01*
X23853158Y-5976484D02*
X23834110Y-5966960D01*
X23834110Y-5966960D02*
X23824586Y-5947912D01*
X23824586Y-5947912D02*
X23824586Y-5776484D01*
X24081729Y-5976484D02*
X24081729Y-5776484D01*
X24081729Y-5776484D02*
X24148396Y-5919341D01*
X24148396Y-5919341D02*
X24215062Y-5776484D01*
X24215062Y-5776484D02*
X24215062Y-5976484D01*
X24396015Y-5976484D02*
X24396015Y-5871722D01*
X24396015Y-5871722D02*
X24386491Y-5852674D01*
X24386491Y-5852674D02*
X24367443Y-5843150D01*
X24367443Y-5843150D02*
X24329348Y-5843150D01*
X24329348Y-5843150D02*
X24310301Y-5852674D01*
X24396015Y-5966960D02*
X24376967Y-5976484D01*
X24376967Y-5976484D02*
X24329348Y-5976484D01*
X24329348Y-5976484D02*
X24310301Y-5966960D01*
X24310301Y-5966960D02*
X24300777Y-5947912D01*
X24300777Y-5947912D02*
X24300777Y-5928865D01*
X24300777Y-5928865D02*
X24310301Y-5909817D01*
X24310301Y-5909817D02*
X24329348Y-5900293D01*
X24329348Y-5900293D02*
X24376967Y-5900293D01*
X24376967Y-5900293D02*
X24396015Y-5890769D01*
X24491253Y-5843150D02*
X24491253Y-6043150D01*
X24491253Y-5852674D02*
X24510301Y-5843150D01*
X24510301Y-5843150D02*
X24548396Y-5843150D01*
X24548396Y-5843150D02*
X24567443Y-5852674D01*
X24567443Y-5852674D02*
X24576967Y-5862198D01*
X24576967Y-5862198D02*
X24586491Y-5881246D01*
X24586491Y-5881246D02*
X24586491Y-5938388D01*
X24586491Y-5938388D02*
X24576967Y-5957436D01*
X24576967Y-5957436D02*
X24567443Y-5966960D01*
X24567443Y-5966960D02*
X24548396Y-5976484D01*
X24548396Y-5976484D02*
X24510301Y-5976484D01*
X24510301Y-5976484D02*
X24491253Y-5966960D01*
X24672205Y-5957436D02*
X24681729Y-5966960D01*
X24681729Y-5966960D02*
X24672205Y-5976484D01*
X24672205Y-5976484D02*
X24662682Y-5966960D01*
X24662682Y-5966960D02*
X24672205Y-5957436D01*
X24672205Y-5957436D02*
X24672205Y-5976484D01*
X24672205Y-5852674D02*
X24681729Y-5862198D01*
X24681729Y-5862198D02*
X24672205Y-5871722D01*
X24672205Y-5871722D02*
X24662682Y-5862198D01*
X24662682Y-5862198D02*
X24672205Y-5852674D01*
X24672205Y-5852674D02*
X24672205Y-5871722D01*
D12*
X23000000Y-6285000D02*
X23040000Y-6325000D01*
X23040000Y-6285000D02*
X23000000Y-6325000D01*
D11*
X23338872Y-6196484D02*
X23357920Y-6196484D01*
X23357920Y-6196484D02*
X23376967Y-6206008D01*
X23376967Y-6206008D02*
X23386491Y-6215531D01*
X23386491Y-6215531D02*
X23396015Y-6234579D01*
X23396015Y-6234579D02*
X23405539Y-6272674D01*
X23405539Y-6272674D02*
X23405539Y-6320293D01*
X23405539Y-6320293D02*
X23396015Y-6358388D01*
X23396015Y-6358388D02*
X23386491Y-6377436D01*
X23386491Y-6377436D02*
X23376967Y-6386960D01*
X23376967Y-6386960D02*
X23357920Y-6396484D01*
X23357920Y-6396484D02*
X23338872Y-6396484D01*
X23338872Y-6396484D02*
X23319824Y-6386960D01*
X23319824Y-6386960D02*
X23310301Y-6377436D01*
X23310301Y-6377436D02*
X23300777Y-6358388D01*
X23300777Y-6358388D02*
X23291253Y-6320293D01*
X23291253Y-6320293D02*
X23291253Y-6272674D01*
X23291253Y-6272674D02*
X23300777Y-6234579D01*
X23300777Y-6234579D02*
X23310301Y-6215531D01*
X23310301Y-6215531D02*
X23319824Y-6206008D01*
X23319824Y-6206008D02*
X23338872Y-6196484D01*
X23491253Y-6377436D02*
X23500777Y-6386960D01*
X23500777Y-6386960D02*
X23491253Y-6396484D01*
X23491253Y-6396484D02*
X23481729Y-6386960D01*
X23481729Y-6386960D02*
X23491253Y-6377436D01*
X23491253Y-6377436D02*
X23491253Y-6396484D01*
X23672205Y-6263150D02*
X23672205Y-6396484D01*
X23624586Y-6186960D02*
X23576967Y-6329817D01*
X23576967Y-6329817D02*
X23700777Y-6329817D01*
X23815062Y-6196484D02*
X23834110Y-6196484D01*
X23834110Y-6196484D02*
X23853158Y-6206008D01*
X23853158Y-6206008D02*
X23862682Y-6215531D01*
X23862682Y-6215531D02*
X23872205Y-6234579D01*
X23872205Y-6234579D02*
X23881729Y-6272674D01*
X23881729Y-6272674D02*
X23881729Y-6320293D01*
X23881729Y-6320293D02*
X23872205Y-6358388D01*
X23872205Y-6358388D02*
X23862682Y-6377436D01*
X23862682Y-6377436D02*
X23853158Y-6386960D01*
X23853158Y-6386960D02*
X23834110Y-6396484D01*
X23834110Y-6396484D02*
X23815062Y-6396484D01*
X23815062Y-6396484D02*
X23796015Y-6386960D01*
X23796015Y-6386960D02*
X23786491Y-6377436D01*
X23786491Y-6377436D02*
X23776967Y-6358388D01*
X23776967Y-6358388D02*
X23767443Y-6320293D01*
X23767443Y-6320293D02*
X23767443Y-6272674D01*
X23767443Y-6272674D02*
X23776967Y-6234579D01*
X23776967Y-6234579D02*
X23786491Y-6215531D01*
X23786491Y-6215531D02*
X23796015Y-6206008D01*
X23796015Y-6206008D02*
X23815062Y-6196484D01*
X24005539Y-6196484D02*
X24024586Y-6196484D01*
X24024586Y-6196484D02*
X24043634Y-6206008D01*
X24043634Y-6206008D02*
X24053158Y-6215531D01*
X24053158Y-6215531D02*
X24062682Y-6234579D01*
X24062682Y-6234579D02*
X24072205Y-6272674D01*
X24072205Y-6272674D02*
X24072205Y-6320293D01*
X24072205Y-6320293D02*
X24062682Y-6358388D01*
X24062682Y-6358388D02*
X24053158Y-6377436D01*
X24053158Y-6377436D02*
X24043634Y-6386960D01*
X24043634Y-6386960D02*
X24024586Y-6396484D01*
X24024586Y-6396484D02*
X24005539Y-6396484D01*
X24005539Y-6396484D02*
X23986491Y-6386960D01*
X23986491Y-6386960D02*
X23976967Y-6377436D01*
X23976967Y-6377436D02*
X23967443Y-6358388D01*
X23967443Y-6358388D02*
X23957920Y-6320293D01*
X23957920Y-6320293D02*
X23957920Y-6272674D01*
X23957920Y-6272674D02*
X23967443Y-6234579D01*
X23967443Y-6234579D02*
X23976967Y-6215531D01*
X23976967Y-6215531D02*
X23986491Y-6206008D01*
X23986491Y-6206008D02*
X24005539Y-6196484D01*
X24157920Y-6396484D02*
X24157920Y-6263150D01*
X24157920Y-6282198D02*
X24167443Y-6272674D01*
X24167443Y-6272674D02*
X24186491Y-6263150D01*
X24186491Y-6263150D02*
X24215063Y-6263150D01*
X24215063Y-6263150D02*
X24234110Y-6272674D01*
X24234110Y-6272674D02*
X24243634Y-6291722D01*
X24243634Y-6291722D02*
X24243634Y-6396484D01*
X24243634Y-6291722D02*
X24253158Y-6272674D01*
X24253158Y-6272674D02*
X24272205Y-6263150D01*
X24272205Y-6263150D02*
X24300777Y-6263150D01*
X24300777Y-6263150D02*
X24319824Y-6272674D01*
X24319824Y-6272674D02*
X24329348Y-6291722D01*
X24329348Y-6291722D02*
X24329348Y-6396484D01*
X24424586Y-6396484D02*
X24424586Y-6263150D01*
X24424586Y-6282198D02*
X24434110Y-6272674D01*
X24434110Y-6272674D02*
X24453158Y-6263150D01*
X24453158Y-6263150D02*
X24481729Y-6263150D01*
X24481729Y-6263150D02*
X24500777Y-6272674D01*
X24500777Y-6272674D02*
X24510301Y-6291722D01*
X24510301Y-6291722D02*
X24510301Y-6396484D01*
X24510301Y-6291722D02*
X24519824Y-6272674D01*
X24519824Y-6272674D02*
X24538872Y-6263150D01*
X24538872Y-6263150D02*
X24567443Y-6263150D01*
X24567443Y-6263150D02*
X24586491Y-6272674D01*
X24586491Y-6272674D02*
X24596015Y-6291722D01*
X24596015Y-6291722D02*
X24596015Y-6396484D01*
X24986491Y-6186960D02*
X24815063Y-6444103D01*
X25243634Y-6196484D02*
X25262682Y-6196484D01*
X25262682Y-6196484D02*
X25281729Y-6206008D01*
X25281729Y-6206008D02*
X25291253Y-6215531D01*
X25291253Y-6215531D02*
X25300777Y-6234579D01*
X25300777Y-6234579D02*
X25310301Y-6272674D01*
X25310301Y-6272674D02*
X25310301Y-6320293D01*
X25310301Y-6320293D02*
X25300777Y-6358388D01*
X25300777Y-6358388D02*
X25291253Y-6377436D01*
X25291253Y-6377436D02*
X25281729Y-6386960D01*
X25281729Y-6386960D02*
X25262682Y-6396484D01*
X25262682Y-6396484D02*
X25243634Y-6396484D01*
X25243634Y-6396484D02*
X25224586Y-6386960D01*
X25224586Y-6386960D02*
X25215063Y-6377436D01*
X25215063Y-6377436D02*
X25205539Y-6358388D01*
X25205539Y-6358388D02*
X25196015Y-6320293D01*
X25196015Y-6320293D02*
X25196015Y-6272674D01*
X25196015Y-6272674D02*
X25205539Y-6234579D01*
X25205539Y-6234579D02*
X25215063Y-6215531D01*
X25215063Y-6215531D02*
X25224586Y-6206008D01*
X25224586Y-6206008D02*
X25243634Y-6196484D01*
X25396015Y-6377436D02*
X25405539Y-6386960D01*
X25405539Y-6386960D02*
X25396015Y-6396484D01*
X25396015Y-6396484D02*
X25386491Y-6386960D01*
X25386491Y-6386960D02*
X25396015Y-6377436D01*
X25396015Y-6377436D02*
X25396015Y-6396484D01*
X25529348Y-6196484D02*
X25548396Y-6196484D01*
X25548396Y-6196484D02*
X25567444Y-6206008D01*
X25567444Y-6206008D02*
X25576967Y-6215531D01*
X25576967Y-6215531D02*
X25586491Y-6234579D01*
X25586491Y-6234579D02*
X25596015Y-6272674D01*
X25596015Y-6272674D02*
X25596015Y-6320293D01*
X25596015Y-6320293D02*
X25586491Y-6358388D01*
X25586491Y-6358388D02*
X25576967Y-6377436D01*
X25576967Y-6377436D02*
X25567444Y-6386960D01*
X25567444Y-6386960D02*
X25548396Y-6396484D01*
X25548396Y-6396484D02*
X25529348Y-6396484D01*
X25529348Y-6396484D02*
X25510301Y-6386960D01*
X25510301Y-6386960D02*
X25500777Y-6377436D01*
X25500777Y-6377436D02*
X25491253Y-6358388D01*
X25491253Y-6358388D02*
X25481729Y-6320293D01*
X25481729Y-6320293D02*
X25481729Y-6272674D01*
X25481729Y-6272674D02*
X25491253Y-6234579D01*
X25491253Y-6234579D02*
X25500777Y-6215531D01*
X25500777Y-6215531D02*
X25510301Y-6206008D01*
X25510301Y-6206008D02*
X25529348Y-6196484D01*
X25786491Y-6396484D02*
X25672206Y-6396484D01*
X25729348Y-6396484D02*
X25729348Y-6196484D01*
X25729348Y-6196484D02*
X25710301Y-6225055D01*
X25710301Y-6225055D02*
X25691253Y-6244103D01*
X25691253Y-6244103D02*
X25672206Y-6253627D01*
X25967444Y-6196484D02*
X25872206Y-6196484D01*
X25872206Y-6196484D02*
X25862682Y-6291722D01*
X25862682Y-6291722D02*
X25872206Y-6282198D01*
X25872206Y-6282198D02*
X25891253Y-6272674D01*
X25891253Y-6272674D02*
X25938872Y-6272674D01*
X25938872Y-6272674D02*
X25957920Y-6282198D01*
X25957920Y-6282198D02*
X25967444Y-6291722D01*
X25967444Y-6291722D02*
X25976967Y-6310769D01*
X25976967Y-6310769D02*
X25976967Y-6358388D01*
X25976967Y-6358388D02*
X25967444Y-6377436D01*
X25967444Y-6377436D02*
X25957920Y-6386960D01*
X25957920Y-6386960D02*
X25938872Y-6396484D01*
X25938872Y-6396484D02*
X25891253Y-6396484D01*
X25891253Y-6396484D02*
X25872206Y-6386960D01*
X25872206Y-6386960D02*
X25862682Y-6377436D01*
X26043634Y-6196484D02*
X26176967Y-6196484D01*
X26176967Y-6196484D02*
X26091253Y-6396484D01*
X26243634Y-6196484D02*
X26243634Y-6234579D01*
X26319825Y-6196484D02*
X26319825Y-6234579D01*
X26615063Y-6472674D02*
X26605539Y-6463150D01*
X26605539Y-6463150D02*
X26586491Y-6434579D01*
X26586491Y-6434579D02*
X26576968Y-6415531D01*
X26576968Y-6415531D02*
X26567444Y-6386960D01*
X26567444Y-6386960D02*
X26557920Y-6339341D01*
X26557920Y-6339341D02*
X26557920Y-6301246D01*
X26557920Y-6301246D02*
X26567444Y-6253627D01*
X26567444Y-6253627D02*
X26576968Y-6225055D01*
X26576968Y-6225055D02*
X26586491Y-6206008D01*
X26586491Y-6206008D02*
X26605539Y-6177436D01*
X26605539Y-6177436D02*
X26615063Y-6167912D01*
X26776968Y-6263150D02*
X26776968Y-6396484D01*
X26729348Y-6186960D02*
X26681729Y-6329817D01*
X26681729Y-6329817D02*
X26805539Y-6329817D01*
X26967444Y-6196484D02*
X26929348Y-6196484D01*
X26929348Y-6196484D02*
X26910301Y-6206008D01*
X26910301Y-6206008D02*
X26900777Y-6215531D01*
X26900777Y-6215531D02*
X26881729Y-6244103D01*
X26881729Y-6244103D02*
X26872206Y-6282198D01*
X26872206Y-6282198D02*
X26872206Y-6358388D01*
X26872206Y-6358388D02*
X26881729Y-6377436D01*
X26881729Y-6377436D02*
X26891253Y-6386960D01*
X26891253Y-6386960D02*
X26910301Y-6396484D01*
X26910301Y-6396484D02*
X26948396Y-6396484D01*
X26948396Y-6396484D02*
X26967444Y-6386960D01*
X26967444Y-6386960D02*
X26976968Y-6377436D01*
X26976968Y-6377436D02*
X26986491Y-6358388D01*
X26986491Y-6358388D02*
X26986491Y-6310769D01*
X26986491Y-6310769D02*
X26976968Y-6291722D01*
X26976968Y-6291722D02*
X26967444Y-6282198D01*
X26967444Y-6282198D02*
X26948396Y-6272674D01*
X26948396Y-6272674D02*
X26910301Y-6272674D01*
X26910301Y-6272674D02*
X26891253Y-6282198D01*
X26891253Y-6282198D02*
X26881729Y-6291722D01*
X26881729Y-6291722D02*
X26872206Y-6310769D01*
X27224587Y-6396484D02*
X27224587Y-6196484D01*
X27310301Y-6396484D02*
X27310301Y-6291722D01*
X27310301Y-6291722D02*
X27300777Y-6272674D01*
X27300777Y-6272674D02*
X27281730Y-6263150D01*
X27281730Y-6263150D02*
X27253158Y-6263150D01*
X27253158Y-6263150D02*
X27234110Y-6272674D01*
X27234110Y-6272674D02*
X27224587Y-6282198D01*
X27434110Y-6396484D02*
X27415063Y-6386960D01*
X27415063Y-6386960D02*
X27405539Y-6377436D01*
X27405539Y-6377436D02*
X27396015Y-6358388D01*
X27396015Y-6358388D02*
X27396015Y-6301246D01*
X27396015Y-6301246D02*
X27405539Y-6282198D01*
X27405539Y-6282198D02*
X27415063Y-6272674D01*
X27415063Y-6272674D02*
X27434110Y-6263150D01*
X27434110Y-6263150D02*
X27462682Y-6263150D01*
X27462682Y-6263150D02*
X27481730Y-6272674D01*
X27481730Y-6272674D02*
X27491253Y-6282198D01*
X27491253Y-6282198D02*
X27500777Y-6301246D01*
X27500777Y-6301246D02*
X27500777Y-6358388D01*
X27500777Y-6358388D02*
X27491253Y-6377436D01*
X27491253Y-6377436D02*
X27481730Y-6386960D01*
X27481730Y-6386960D02*
X27462682Y-6396484D01*
X27462682Y-6396484D02*
X27434110Y-6396484D01*
X27615063Y-6396484D02*
X27596015Y-6386960D01*
X27596015Y-6386960D02*
X27586491Y-6367912D01*
X27586491Y-6367912D02*
X27586491Y-6196484D01*
X27767444Y-6386960D02*
X27748396Y-6396484D01*
X27748396Y-6396484D02*
X27710301Y-6396484D01*
X27710301Y-6396484D02*
X27691253Y-6386960D01*
X27691253Y-6386960D02*
X27681730Y-6367912D01*
X27681730Y-6367912D02*
X27681730Y-6291722D01*
X27681730Y-6291722D02*
X27691253Y-6272674D01*
X27691253Y-6272674D02*
X27710301Y-6263150D01*
X27710301Y-6263150D02*
X27748396Y-6263150D01*
X27748396Y-6263150D02*
X27767444Y-6272674D01*
X27767444Y-6272674D02*
X27776968Y-6291722D01*
X27776968Y-6291722D02*
X27776968Y-6310769D01*
X27776968Y-6310769D02*
X27681730Y-6329817D01*
X27853158Y-6386960D02*
X27872206Y-6396484D01*
X27872206Y-6396484D02*
X27910301Y-6396484D01*
X27910301Y-6396484D02*
X27929349Y-6386960D01*
X27929349Y-6386960D02*
X27938872Y-6367912D01*
X27938872Y-6367912D02*
X27938872Y-6358388D01*
X27938872Y-6358388D02*
X27929349Y-6339341D01*
X27929349Y-6339341D02*
X27910301Y-6329817D01*
X27910301Y-6329817D02*
X27881730Y-6329817D01*
X27881730Y-6329817D02*
X27862682Y-6320293D01*
X27862682Y-6320293D02*
X27853158Y-6301246D01*
X27853158Y-6301246D02*
X27853158Y-6291722D01*
X27853158Y-6291722D02*
X27862682Y-6272674D01*
X27862682Y-6272674D02*
X27881730Y-6263150D01*
X27881730Y-6263150D02*
X27910301Y-6263150D01*
X27910301Y-6263150D02*
X27929349Y-6272674D01*
X28005539Y-6472674D02*
X28015063Y-6463150D01*
X28015063Y-6463150D02*
X28034111Y-6434579D01*
X28034111Y-6434579D02*
X28043634Y-6415531D01*
X28043634Y-6415531D02*
X28053158Y-6386960D01*
X28053158Y-6386960D02*
X28062682Y-6339341D01*
X28062682Y-6339341D02*
X28062682Y-6301246D01*
X28062682Y-6301246D02*
X28053158Y-6253627D01*
X28053158Y-6253627D02*
X28043634Y-6225055D01*
X28043634Y-6225055D02*
X28034111Y-6206008D01*
X28034111Y-6206008D02*
X28015063Y-6177436D01*
X28015063Y-6177436D02*
X28005539Y-6167912D01*
D13*
X23040000Y-6569000D02*
G75*
G03*
X23040000Y-6569000I-35000J0D01*
G01*
D11*
X23338872Y-6460484D02*
X23357920Y-6460484D01*
X23357920Y-6460484D02*
X23376967Y-6470008D01*
X23376967Y-6470008D02*
X23386491Y-6479531D01*
X23386491Y-6479531D02*
X23396015Y-6498579D01*
X23396015Y-6498579D02*
X23405539Y-6536674D01*
X23405539Y-6536674D02*
X23405539Y-6584293D01*
X23405539Y-6584293D02*
X23396015Y-6622388D01*
X23396015Y-6622388D02*
X23386491Y-6641436D01*
X23386491Y-6641436D02*
X23376967Y-6650960D01*
X23376967Y-6650960D02*
X23357920Y-6660484D01*
X23357920Y-6660484D02*
X23338872Y-6660484D01*
X23338872Y-6660484D02*
X23319824Y-6650960D01*
X23319824Y-6650960D02*
X23310301Y-6641436D01*
X23310301Y-6641436D02*
X23300777Y-6622388D01*
X23300777Y-6622388D02*
X23291253Y-6584293D01*
X23291253Y-6584293D02*
X23291253Y-6536674D01*
X23291253Y-6536674D02*
X23300777Y-6498579D01*
X23300777Y-6498579D02*
X23310301Y-6479531D01*
X23310301Y-6479531D02*
X23319824Y-6470008D01*
X23319824Y-6470008D02*
X23338872Y-6460484D01*
X23491253Y-6641436D02*
X23500777Y-6650960D01*
X23500777Y-6650960D02*
X23491253Y-6660484D01*
X23491253Y-6660484D02*
X23481729Y-6650960D01*
X23481729Y-6650960D02*
X23491253Y-6641436D01*
X23491253Y-6641436D02*
X23491253Y-6660484D01*
X23567443Y-6460484D02*
X23700777Y-6460484D01*
X23700777Y-6460484D02*
X23615062Y-6660484D01*
X23815062Y-6460484D02*
X23834110Y-6460484D01*
X23834110Y-6460484D02*
X23853158Y-6470008D01*
X23853158Y-6470008D02*
X23862682Y-6479531D01*
X23862682Y-6479531D02*
X23872205Y-6498579D01*
X23872205Y-6498579D02*
X23881729Y-6536674D01*
X23881729Y-6536674D02*
X23881729Y-6584293D01*
X23881729Y-6584293D02*
X23872205Y-6622388D01*
X23872205Y-6622388D02*
X23862682Y-6641436D01*
X23862682Y-6641436D02*
X23853158Y-6650960D01*
X23853158Y-6650960D02*
X23834110Y-6660484D01*
X23834110Y-6660484D02*
X23815062Y-6660484D01*
X23815062Y-6660484D02*
X23796015Y-6650960D01*
X23796015Y-6650960D02*
X23786491Y-6641436D01*
X23786491Y-6641436D02*
X23776967Y-6622388D01*
X23776967Y-6622388D02*
X23767443Y-6584293D01*
X23767443Y-6584293D02*
X23767443Y-6536674D01*
X23767443Y-6536674D02*
X23776967Y-6498579D01*
X23776967Y-6498579D02*
X23786491Y-6479531D01*
X23786491Y-6479531D02*
X23796015Y-6470008D01*
X23796015Y-6470008D02*
X23815062Y-6460484D01*
X24005539Y-6460484D02*
X24024586Y-6460484D01*
X24024586Y-6460484D02*
X24043634Y-6470008D01*
X24043634Y-6470008D02*
X24053158Y-6479531D01*
X24053158Y-6479531D02*
X24062682Y-6498579D01*
X24062682Y-6498579D02*
X24072205Y-6536674D01*
X24072205Y-6536674D02*
X24072205Y-6584293D01*
X24072205Y-6584293D02*
X24062682Y-6622388D01*
X24062682Y-6622388D02*
X24053158Y-6641436D01*
X24053158Y-6641436D02*
X24043634Y-6650960D01*
X24043634Y-6650960D02*
X24024586Y-6660484D01*
X24024586Y-6660484D02*
X24005539Y-6660484D01*
X24005539Y-6660484D02*
X23986491Y-6650960D01*
X23986491Y-6650960D02*
X23976967Y-6641436D01*
X23976967Y-6641436D02*
X23967443Y-6622388D01*
X23967443Y-6622388D02*
X23957920Y-6584293D01*
X23957920Y-6584293D02*
X23957920Y-6536674D01*
X23957920Y-6536674D02*
X23967443Y-6498579D01*
X23967443Y-6498579D02*
X23976967Y-6479531D01*
X23976967Y-6479531D02*
X23986491Y-6470008D01*
X23986491Y-6470008D02*
X24005539Y-6460484D01*
X24157920Y-6660484D02*
X24157920Y-6527150D01*
X24157920Y-6546198D02*
X24167443Y-6536674D01*
X24167443Y-6536674D02*
X24186491Y-6527150D01*
X24186491Y-6527150D02*
X24215063Y-6527150D01*
X24215063Y-6527150D02*
X24234110Y-6536674D01*
X24234110Y-6536674D02*
X24243634Y-6555722D01*
X24243634Y-6555722D02*
X24243634Y-6660484D01*
X24243634Y-6555722D02*
X24253158Y-6536674D01*
X24253158Y-6536674D02*
X24272205Y-6527150D01*
X24272205Y-6527150D02*
X24300777Y-6527150D01*
X24300777Y-6527150D02*
X24319824Y-6536674D01*
X24319824Y-6536674D02*
X24329348Y-6555722D01*
X24329348Y-6555722D02*
X24329348Y-6660484D01*
X24424586Y-6660484D02*
X24424586Y-6527150D01*
X24424586Y-6546198D02*
X24434110Y-6536674D01*
X24434110Y-6536674D02*
X24453158Y-6527150D01*
X24453158Y-6527150D02*
X24481729Y-6527150D01*
X24481729Y-6527150D02*
X24500777Y-6536674D01*
X24500777Y-6536674D02*
X24510301Y-6555722D01*
X24510301Y-6555722D02*
X24510301Y-6660484D01*
X24510301Y-6555722D02*
X24519824Y-6536674D01*
X24519824Y-6536674D02*
X24538872Y-6527150D01*
X24538872Y-6527150D02*
X24567443Y-6527150D01*
X24567443Y-6527150D02*
X24586491Y-6536674D01*
X24586491Y-6536674D02*
X24596015Y-6555722D01*
X24596015Y-6555722D02*
X24596015Y-6660484D01*
X24986491Y-6450960D02*
X24815063Y-6708103D01*
X25243634Y-6460484D02*
X25262682Y-6460484D01*
X25262682Y-6460484D02*
X25281729Y-6470008D01*
X25281729Y-6470008D02*
X25291253Y-6479531D01*
X25291253Y-6479531D02*
X25300777Y-6498579D01*
X25300777Y-6498579D02*
X25310301Y-6536674D01*
X25310301Y-6536674D02*
X25310301Y-6584293D01*
X25310301Y-6584293D02*
X25300777Y-6622388D01*
X25300777Y-6622388D02*
X25291253Y-6641436D01*
X25291253Y-6641436D02*
X25281729Y-6650960D01*
X25281729Y-6650960D02*
X25262682Y-6660484D01*
X25262682Y-6660484D02*
X25243634Y-6660484D01*
X25243634Y-6660484D02*
X25224586Y-6650960D01*
X25224586Y-6650960D02*
X25215063Y-6641436D01*
X25215063Y-6641436D02*
X25205539Y-6622388D01*
X25205539Y-6622388D02*
X25196015Y-6584293D01*
X25196015Y-6584293D02*
X25196015Y-6536674D01*
X25196015Y-6536674D02*
X25205539Y-6498579D01*
X25205539Y-6498579D02*
X25215063Y-6479531D01*
X25215063Y-6479531D02*
X25224586Y-6470008D01*
X25224586Y-6470008D02*
X25243634Y-6460484D01*
X25396015Y-6641436D02*
X25405539Y-6650960D01*
X25405539Y-6650960D02*
X25396015Y-6660484D01*
X25396015Y-6660484D02*
X25386491Y-6650960D01*
X25386491Y-6650960D02*
X25396015Y-6641436D01*
X25396015Y-6641436D02*
X25396015Y-6660484D01*
X25529348Y-6460484D02*
X25548396Y-6460484D01*
X25548396Y-6460484D02*
X25567444Y-6470008D01*
X25567444Y-6470008D02*
X25576967Y-6479531D01*
X25576967Y-6479531D02*
X25586491Y-6498579D01*
X25586491Y-6498579D02*
X25596015Y-6536674D01*
X25596015Y-6536674D02*
X25596015Y-6584293D01*
X25596015Y-6584293D02*
X25586491Y-6622388D01*
X25586491Y-6622388D02*
X25576967Y-6641436D01*
X25576967Y-6641436D02*
X25567444Y-6650960D01*
X25567444Y-6650960D02*
X25548396Y-6660484D01*
X25548396Y-6660484D02*
X25529348Y-6660484D01*
X25529348Y-6660484D02*
X25510301Y-6650960D01*
X25510301Y-6650960D02*
X25500777Y-6641436D01*
X25500777Y-6641436D02*
X25491253Y-6622388D01*
X25491253Y-6622388D02*
X25481729Y-6584293D01*
X25481729Y-6584293D02*
X25481729Y-6536674D01*
X25481729Y-6536674D02*
X25491253Y-6498579D01*
X25491253Y-6498579D02*
X25500777Y-6479531D01*
X25500777Y-6479531D02*
X25510301Y-6470008D01*
X25510301Y-6470008D02*
X25529348Y-6460484D01*
X25672206Y-6479531D02*
X25681729Y-6470008D01*
X25681729Y-6470008D02*
X25700777Y-6460484D01*
X25700777Y-6460484D02*
X25748396Y-6460484D01*
X25748396Y-6460484D02*
X25767444Y-6470008D01*
X25767444Y-6470008D02*
X25776967Y-6479531D01*
X25776967Y-6479531D02*
X25786491Y-6498579D01*
X25786491Y-6498579D02*
X25786491Y-6517627D01*
X25786491Y-6517627D02*
X25776967Y-6546198D01*
X25776967Y-6546198D02*
X25662682Y-6660484D01*
X25662682Y-6660484D02*
X25786491Y-6660484D01*
X25853158Y-6460484D02*
X25986491Y-6460484D01*
X25986491Y-6460484D02*
X25900777Y-6660484D01*
X26148396Y-6460484D02*
X26110301Y-6460484D01*
X26110301Y-6460484D02*
X26091253Y-6470008D01*
X26091253Y-6470008D02*
X26081729Y-6479531D01*
X26081729Y-6479531D02*
X26062682Y-6508103D01*
X26062682Y-6508103D02*
X26053158Y-6546198D01*
X26053158Y-6546198D02*
X26053158Y-6622388D01*
X26053158Y-6622388D02*
X26062682Y-6641436D01*
X26062682Y-6641436D02*
X26072206Y-6650960D01*
X26072206Y-6650960D02*
X26091253Y-6660484D01*
X26091253Y-6660484D02*
X26129348Y-6660484D01*
X26129348Y-6660484D02*
X26148396Y-6650960D01*
X26148396Y-6650960D02*
X26157920Y-6641436D01*
X26157920Y-6641436D02*
X26167444Y-6622388D01*
X26167444Y-6622388D02*
X26167444Y-6574769D01*
X26167444Y-6574769D02*
X26157920Y-6555722D01*
X26157920Y-6555722D02*
X26148396Y-6546198D01*
X26148396Y-6546198D02*
X26129348Y-6536674D01*
X26129348Y-6536674D02*
X26091253Y-6536674D01*
X26091253Y-6536674D02*
X26072206Y-6546198D01*
X26072206Y-6546198D02*
X26062682Y-6555722D01*
X26062682Y-6555722D02*
X26053158Y-6574769D01*
X26243634Y-6460484D02*
X26243634Y-6498579D01*
X26319825Y-6460484D02*
X26319825Y-6498579D01*
X26615063Y-6736674D02*
X26605539Y-6727150D01*
X26605539Y-6727150D02*
X26586491Y-6698579D01*
X26586491Y-6698579D02*
X26576968Y-6679531D01*
X26576968Y-6679531D02*
X26567444Y-6650960D01*
X26567444Y-6650960D02*
X26557920Y-6603341D01*
X26557920Y-6603341D02*
X26557920Y-6565246D01*
X26557920Y-6565246D02*
X26567444Y-6517627D01*
X26567444Y-6517627D02*
X26576968Y-6489055D01*
X26576968Y-6489055D02*
X26586491Y-6470008D01*
X26586491Y-6470008D02*
X26605539Y-6441436D01*
X26605539Y-6441436D02*
X26615063Y-6431912D01*
X26672206Y-6460484D02*
X26796015Y-6460484D01*
X26796015Y-6460484D02*
X26729348Y-6536674D01*
X26729348Y-6536674D02*
X26757920Y-6536674D01*
X26757920Y-6536674D02*
X26776968Y-6546198D01*
X26776968Y-6546198D02*
X26786491Y-6555722D01*
X26786491Y-6555722D02*
X26796015Y-6574769D01*
X26796015Y-6574769D02*
X26796015Y-6622388D01*
X26796015Y-6622388D02*
X26786491Y-6641436D01*
X26786491Y-6641436D02*
X26776968Y-6650960D01*
X26776968Y-6650960D02*
X26757920Y-6660484D01*
X26757920Y-6660484D02*
X26700777Y-6660484D01*
X26700777Y-6660484D02*
X26681729Y-6650960D01*
X26681729Y-6650960D02*
X26672206Y-6641436D01*
X26967444Y-6527150D02*
X26967444Y-6660484D01*
X26919825Y-6450960D02*
X26872206Y-6593817D01*
X26872206Y-6593817D02*
X26996015Y-6593817D01*
X27224587Y-6660484D02*
X27224587Y-6460484D01*
X27310301Y-6660484D02*
X27310301Y-6555722D01*
X27310301Y-6555722D02*
X27300777Y-6536674D01*
X27300777Y-6536674D02*
X27281730Y-6527150D01*
X27281730Y-6527150D02*
X27253158Y-6527150D01*
X27253158Y-6527150D02*
X27234110Y-6536674D01*
X27234110Y-6536674D02*
X27224587Y-6546198D01*
X27434110Y-6660484D02*
X27415063Y-6650960D01*
X27415063Y-6650960D02*
X27405539Y-6641436D01*
X27405539Y-6641436D02*
X27396015Y-6622388D01*
X27396015Y-6622388D02*
X27396015Y-6565246D01*
X27396015Y-6565246D02*
X27405539Y-6546198D01*
X27405539Y-6546198D02*
X27415063Y-6536674D01*
X27415063Y-6536674D02*
X27434110Y-6527150D01*
X27434110Y-6527150D02*
X27462682Y-6527150D01*
X27462682Y-6527150D02*
X27481730Y-6536674D01*
X27481730Y-6536674D02*
X27491253Y-6546198D01*
X27491253Y-6546198D02*
X27500777Y-6565246D01*
X27500777Y-6565246D02*
X27500777Y-6622388D01*
X27500777Y-6622388D02*
X27491253Y-6641436D01*
X27491253Y-6641436D02*
X27481730Y-6650960D01*
X27481730Y-6650960D02*
X27462682Y-6660484D01*
X27462682Y-6660484D02*
X27434110Y-6660484D01*
X27615063Y-6660484D02*
X27596015Y-6650960D01*
X27596015Y-6650960D02*
X27586491Y-6631912D01*
X27586491Y-6631912D02*
X27586491Y-6460484D01*
X27767444Y-6650960D02*
X27748396Y-6660484D01*
X27748396Y-6660484D02*
X27710301Y-6660484D01*
X27710301Y-6660484D02*
X27691253Y-6650960D01*
X27691253Y-6650960D02*
X27681730Y-6631912D01*
X27681730Y-6631912D02*
X27681730Y-6555722D01*
X27681730Y-6555722D02*
X27691253Y-6536674D01*
X27691253Y-6536674D02*
X27710301Y-6527150D01*
X27710301Y-6527150D02*
X27748396Y-6527150D01*
X27748396Y-6527150D02*
X27767444Y-6536674D01*
X27767444Y-6536674D02*
X27776968Y-6555722D01*
X27776968Y-6555722D02*
X27776968Y-6574769D01*
X27776968Y-6574769D02*
X27681730Y-6593817D01*
X27853158Y-6650960D02*
X27872206Y-6660484D01*
X27872206Y-6660484D02*
X27910301Y-6660484D01*
X27910301Y-6660484D02*
X27929349Y-6650960D01*
X27929349Y-6650960D02*
X27938872Y-6631912D01*
X27938872Y-6631912D02*
X27938872Y-6622388D01*
X27938872Y-6622388D02*
X27929349Y-6603341D01*
X27929349Y-6603341D02*
X27910301Y-6593817D01*
X27910301Y-6593817D02*
X27881730Y-6593817D01*
X27881730Y-6593817D02*
X27862682Y-6584293D01*
X27862682Y-6584293D02*
X27853158Y-6565246D01*
X27853158Y-6565246D02*
X27853158Y-6555722D01*
X27853158Y-6555722D02*
X27862682Y-6536674D01*
X27862682Y-6536674D02*
X27881730Y-6527150D01*
X27881730Y-6527150D02*
X27910301Y-6527150D01*
X27910301Y-6527150D02*
X27929349Y-6536674D01*
X28005539Y-6736674D02*
X28015063Y-6727150D01*
X28015063Y-6727150D02*
X28034111Y-6698579D01*
X28034111Y-6698579D02*
X28043634Y-6679531D01*
X28043634Y-6679531D02*
X28053158Y-6650960D01*
X28053158Y-6650960D02*
X28062682Y-6603341D01*
X28062682Y-6603341D02*
X28062682Y-6565246D01*
X28062682Y-6565246D02*
X28053158Y-6517627D01*
X28053158Y-6517627D02*
X28043634Y-6489055D01*
X28043634Y-6489055D02*
X28034111Y-6470008D01*
X28034111Y-6470008D02*
X28015063Y-6441436D01*
X28015063Y-6441436D02*
X28005539Y-6431912D01*
D10*
X22990000Y-6783000D02*
X22990000Y-6883000D01*
X22940000Y-6833000D02*
X23040000Y-6833000D01*
D11*
X23405539Y-6924484D02*
X23291253Y-6924484D01*
X23348396Y-6924484D02*
X23348396Y-6724484D01*
X23348396Y-6724484D02*
X23329348Y-6753055D01*
X23329348Y-6753055D02*
X23310301Y-6772103D01*
X23310301Y-6772103D02*
X23291253Y-6781627D01*
X23491253Y-6905436D02*
X23500777Y-6914960D01*
X23500777Y-6914960D02*
X23491253Y-6924484D01*
X23491253Y-6924484D02*
X23481729Y-6914960D01*
X23481729Y-6914960D02*
X23491253Y-6905436D01*
X23491253Y-6905436D02*
X23491253Y-6924484D01*
X23624586Y-6724484D02*
X23643634Y-6724484D01*
X23643634Y-6724484D02*
X23662682Y-6734008D01*
X23662682Y-6734008D02*
X23672205Y-6743531D01*
X23672205Y-6743531D02*
X23681729Y-6762579D01*
X23681729Y-6762579D02*
X23691253Y-6800674D01*
X23691253Y-6800674D02*
X23691253Y-6848293D01*
X23691253Y-6848293D02*
X23681729Y-6886388D01*
X23681729Y-6886388D02*
X23672205Y-6905436D01*
X23672205Y-6905436D02*
X23662682Y-6914960D01*
X23662682Y-6914960D02*
X23643634Y-6924484D01*
X23643634Y-6924484D02*
X23624586Y-6924484D01*
X23624586Y-6924484D02*
X23605539Y-6914960D01*
X23605539Y-6914960D02*
X23596015Y-6905436D01*
X23596015Y-6905436D02*
X23586491Y-6886388D01*
X23586491Y-6886388D02*
X23576967Y-6848293D01*
X23576967Y-6848293D02*
X23576967Y-6800674D01*
X23576967Y-6800674D02*
X23586491Y-6762579D01*
X23586491Y-6762579D02*
X23596015Y-6743531D01*
X23596015Y-6743531D02*
X23605539Y-6734008D01*
X23605539Y-6734008D02*
X23624586Y-6724484D01*
X23815062Y-6724484D02*
X23834110Y-6724484D01*
X23834110Y-6724484D02*
X23853158Y-6734008D01*
X23853158Y-6734008D02*
X23862682Y-6743531D01*
X23862682Y-6743531D02*
X23872205Y-6762579D01*
X23872205Y-6762579D02*
X23881729Y-6800674D01*
X23881729Y-6800674D02*
X23881729Y-6848293D01*
X23881729Y-6848293D02*
X23872205Y-6886388D01*
X23872205Y-6886388D02*
X23862682Y-6905436D01*
X23862682Y-6905436D02*
X23853158Y-6914960D01*
X23853158Y-6914960D02*
X23834110Y-6924484D01*
X23834110Y-6924484D02*
X23815062Y-6924484D01*
X23815062Y-6924484D02*
X23796015Y-6914960D01*
X23796015Y-6914960D02*
X23786491Y-6905436D01*
X23786491Y-6905436D02*
X23776967Y-6886388D01*
X23776967Y-6886388D02*
X23767443Y-6848293D01*
X23767443Y-6848293D02*
X23767443Y-6800674D01*
X23767443Y-6800674D02*
X23776967Y-6762579D01*
X23776967Y-6762579D02*
X23786491Y-6743531D01*
X23786491Y-6743531D02*
X23796015Y-6734008D01*
X23796015Y-6734008D02*
X23815062Y-6724484D01*
X24005539Y-6724484D02*
X24024586Y-6724484D01*
X24024586Y-6724484D02*
X24043634Y-6734008D01*
X24043634Y-6734008D02*
X24053158Y-6743531D01*
X24053158Y-6743531D02*
X24062682Y-6762579D01*
X24062682Y-6762579D02*
X24072205Y-6800674D01*
X24072205Y-6800674D02*
X24072205Y-6848293D01*
X24072205Y-6848293D02*
X24062682Y-6886388D01*
X24062682Y-6886388D02*
X24053158Y-6905436D01*
X24053158Y-6905436D02*
X24043634Y-6914960D01*
X24043634Y-6914960D02*
X24024586Y-6924484D01*
X24024586Y-6924484D02*
X24005539Y-6924484D01*
X24005539Y-6924484D02*
X23986491Y-6914960D01*
X23986491Y-6914960D02*
X23976967Y-6905436D01*
X23976967Y-6905436D02*
X23967443Y-6886388D01*
X23967443Y-6886388D02*
X23957920Y-6848293D01*
X23957920Y-6848293D02*
X23957920Y-6800674D01*
X23957920Y-6800674D02*
X23967443Y-6762579D01*
X23967443Y-6762579D02*
X23976967Y-6743531D01*
X23976967Y-6743531D02*
X23986491Y-6734008D01*
X23986491Y-6734008D02*
X24005539Y-6724484D01*
X24157920Y-6924484D02*
X24157920Y-6791150D01*
X24157920Y-6810198D02*
X24167443Y-6800674D01*
X24167443Y-6800674D02*
X24186491Y-6791150D01*
X24186491Y-6791150D02*
X24215063Y-6791150D01*
X24215063Y-6791150D02*
X24234110Y-6800674D01*
X24234110Y-6800674D02*
X24243634Y-6819722D01*
X24243634Y-6819722D02*
X24243634Y-6924484D01*
X24243634Y-6819722D02*
X24253158Y-6800674D01*
X24253158Y-6800674D02*
X24272205Y-6791150D01*
X24272205Y-6791150D02*
X24300777Y-6791150D01*
X24300777Y-6791150D02*
X24319824Y-6800674D01*
X24319824Y-6800674D02*
X24329348Y-6819722D01*
X24329348Y-6819722D02*
X24329348Y-6924484D01*
X24424586Y-6924484D02*
X24424586Y-6791150D01*
X24424586Y-6810198D02*
X24434110Y-6800674D01*
X24434110Y-6800674D02*
X24453158Y-6791150D01*
X24453158Y-6791150D02*
X24481729Y-6791150D01*
X24481729Y-6791150D02*
X24500777Y-6800674D01*
X24500777Y-6800674D02*
X24510301Y-6819722D01*
X24510301Y-6819722D02*
X24510301Y-6924484D01*
X24510301Y-6819722D02*
X24519824Y-6800674D01*
X24519824Y-6800674D02*
X24538872Y-6791150D01*
X24538872Y-6791150D02*
X24567443Y-6791150D01*
X24567443Y-6791150D02*
X24586491Y-6800674D01*
X24586491Y-6800674D02*
X24596015Y-6819722D01*
X24596015Y-6819722D02*
X24596015Y-6924484D01*
X24986491Y-6714960D02*
X24815063Y-6972103D01*
X25243634Y-6724484D02*
X25262682Y-6724484D01*
X25262682Y-6724484D02*
X25281729Y-6734008D01*
X25281729Y-6734008D02*
X25291253Y-6743531D01*
X25291253Y-6743531D02*
X25300777Y-6762579D01*
X25300777Y-6762579D02*
X25310301Y-6800674D01*
X25310301Y-6800674D02*
X25310301Y-6848293D01*
X25310301Y-6848293D02*
X25300777Y-6886388D01*
X25300777Y-6886388D02*
X25291253Y-6905436D01*
X25291253Y-6905436D02*
X25281729Y-6914960D01*
X25281729Y-6914960D02*
X25262682Y-6924484D01*
X25262682Y-6924484D02*
X25243634Y-6924484D01*
X25243634Y-6924484D02*
X25224586Y-6914960D01*
X25224586Y-6914960D02*
X25215063Y-6905436D01*
X25215063Y-6905436D02*
X25205539Y-6886388D01*
X25205539Y-6886388D02*
X25196015Y-6848293D01*
X25196015Y-6848293D02*
X25196015Y-6800674D01*
X25196015Y-6800674D02*
X25205539Y-6762579D01*
X25205539Y-6762579D02*
X25215063Y-6743531D01*
X25215063Y-6743531D02*
X25224586Y-6734008D01*
X25224586Y-6734008D02*
X25243634Y-6724484D01*
X25396015Y-6905436D02*
X25405539Y-6914960D01*
X25405539Y-6914960D02*
X25396015Y-6924484D01*
X25396015Y-6924484D02*
X25386491Y-6914960D01*
X25386491Y-6914960D02*
X25396015Y-6905436D01*
X25396015Y-6905436D02*
X25396015Y-6924484D01*
X25529348Y-6724484D02*
X25548396Y-6724484D01*
X25548396Y-6724484D02*
X25567444Y-6734008D01*
X25567444Y-6734008D02*
X25576967Y-6743531D01*
X25576967Y-6743531D02*
X25586491Y-6762579D01*
X25586491Y-6762579D02*
X25596015Y-6800674D01*
X25596015Y-6800674D02*
X25596015Y-6848293D01*
X25596015Y-6848293D02*
X25586491Y-6886388D01*
X25586491Y-6886388D02*
X25576967Y-6905436D01*
X25576967Y-6905436D02*
X25567444Y-6914960D01*
X25567444Y-6914960D02*
X25548396Y-6924484D01*
X25548396Y-6924484D02*
X25529348Y-6924484D01*
X25529348Y-6924484D02*
X25510301Y-6914960D01*
X25510301Y-6914960D02*
X25500777Y-6905436D01*
X25500777Y-6905436D02*
X25491253Y-6886388D01*
X25491253Y-6886388D02*
X25481729Y-6848293D01*
X25481729Y-6848293D02*
X25481729Y-6800674D01*
X25481729Y-6800674D02*
X25491253Y-6762579D01*
X25491253Y-6762579D02*
X25500777Y-6743531D01*
X25500777Y-6743531D02*
X25510301Y-6734008D01*
X25510301Y-6734008D02*
X25529348Y-6724484D01*
X25662682Y-6724484D02*
X25786491Y-6724484D01*
X25786491Y-6724484D02*
X25719825Y-6800674D01*
X25719825Y-6800674D02*
X25748396Y-6800674D01*
X25748396Y-6800674D02*
X25767444Y-6810198D01*
X25767444Y-6810198D02*
X25776967Y-6819722D01*
X25776967Y-6819722D02*
X25786491Y-6838769D01*
X25786491Y-6838769D02*
X25786491Y-6886388D01*
X25786491Y-6886388D02*
X25776967Y-6905436D01*
X25776967Y-6905436D02*
X25767444Y-6914960D01*
X25767444Y-6914960D02*
X25748396Y-6924484D01*
X25748396Y-6924484D02*
X25691253Y-6924484D01*
X25691253Y-6924484D02*
X25672206Y-6914960D01*
X25672206Y-6914960D02*
X25662682Y-6905436D01*
X25881729Y-6924484D02*
X25919825Y-6924484D01*
X25919825Y-6924484D02*
X25938872Y-6914960D01*
X25938872Y-6914960D02*
X25948396Y-6905436D01*
X25948396Y-6905436D02*
X25967444Y-6876865D01*
X25967444Y-6876865D02*
X25976967Y-6838769D01*
X25976967Y-6838769D02*
X25976967Y-6762579D01*
X25976967Y-6762579D02*
X25967444Y-6743531D01*
X25967444Y-6743531D02*
X25957920Y-6734008D01*
X25957920Y-6734008D02*
X25938872Y-6724484D01*
X25938872Y-6724484D02*
X25900777Y-6724484D01*
X25900777Y-6724484D02*
X25881729Y-6734008D01*
X25881729Y-6734008D02*
X25872206Y-6743531D01*
X25872206Y-6743531D02*
X25862682Y-6762579D01*
X25862682Y-6762579D02*
X25862682Y-6810198D01*
X25862682Y-6810198D02*
X25872206Y-6829246D01*
X25872206Y-6829246D02*
X25881729Y-6838769D01*
X25881729Y-6838769D02*
X25900777Y-6848293D01*
X25900777Y-6848293D02*
X25938872Y-6848293D01*
X25938872Y-6848293D02*
X25957920Y-6838769D01*
X25957920Y-6838769D02*
X25967444Y-6829246D01*
X25967444Y-6829246D02*
X25976967Y-6810198D01*
X26148396Y-6791150D02*
X26148396Y-6924484D01*
X26100777Y-6714960D02*
X26053158Y-6857817D01*
X26053158Y-6857817D02*
X26176967Y-6857817D01*
X26243634Y-6724484D02*
X26243634Y-6762579D01*
X26319825Y-6724484D02*
X26319825Y-6762579D01*
X26615063Y-7000674D02*
X26605539Y-6991150D01*
X26605539Y-6991150D02*
X26586491Y-6962579D01*
X26586491Y-6962579D02*
X26576968Y-6943531D01*
X26576968Y-6943531D02*
X26567444Y-6914960D01*
X26567444Y-6914960D02*
X26557920Y-6867341D01*
X26557920Y-6867341D02*
X26557920Y-6829246D01*
X26557920Y-6829246D02*
X26567444Y-6781627D01*
X26567444Y-6781627D02*
X26576968Y-6753055D01*
X26576968Y-6753055D02*
X26586491Y-6734008D01*
X26586491Y-6734008D02*
X26605539Y-6705436D01*
X26605539Y-6705436D02*
X26615063Y-6695912D01*
X26719825Y-6810198D02*
X26700777Y-6800674D01*
X26700777Y-6800674D02*
X26691253Y-6791150D01*
X26691253Y-6791150D02*
X26681729Y-6772103D01*
X26681729Y-6772103D02*
X26681729Y-6762579D01*
X26681729Y-6762579D02*
X26691253Y-6743531D01*
X26691253Y-6743531D02*
X26700777Y-6734008D01*
X26700777Y-6734008D02*
X26719825Y-6724484D01*
X26719825Y-6724484D02*
X26757920Y-6724484D01*
X26757920Y-6724484D02*
X26776968Y-6734008D01*
X26776968Y-6734008D02*
X26786491Y-6743531D01*
X26786491Y-6743531D02*
X26796015Y-6762579D01*
X26796015Y-6762579D02*
X26796015Y-6772103D01*
X26796015Y-6772103D02*
X26786491Y-6791150D01*
X26786491Y-6791150D02*
X26776968Y-6800674D01*
X26776968Y-6800674D02*
X26757920Y-6810198D01*
X26757920Y-6810198D02*
X26719825Y-6810198D01*
X26719825Y-6810198D02*
X26700777Y-6819722D01*
X26700777Y-6819722D02*
X26691253Y-6829246D01*
X26691253Y-6829246D02*
X26681729Y-6848293D01*
X26681729Y-6848293D02*
X26681729Y-6886388D01*
X26681729Y-6886388D02*
X26691253Y-6905436D01*
X26691253Y-6905436D02*
X26700777Y-6914960D01*
X26700777Y-6914960D02*
X26719825Y-6924484D01*
X26719825Y-6924484D02*
X26757920Y-6924484D01*
X26757920Y-6924484D02*
X26776968Y-6914960D01*
X26776968Y-6914960D02*
X26786491Y-6905436D01*
X26786491Y-6905436D02*
X26796015Y-6886388D01*
X26796015Y-6886388D02*
X26796015Y-6848293D01*
X26796015Y-6848293D02*
X26786491Y-6829246D01*
X26786491Y-6829246D02*
X26776968Y-6819722D01*
X26776968Y-6819722D02*
X26757920Y-6810198D01*
X27034110Y-6924484D02*
X27034110Y-6724484D01*
X27119825Y-6924484D02*
X27119825Y-6819722D01*
X27119825Y-6819722D02*
X27110301Y-6800674D01*
X27110301Y-6800674D02*
X27091253Y-6791150D01*
X27091253Y-6791150D02*
X27062682Y-6791150D01*
X27062682Y-6791150D02*
X27043634Y-6800674D01*
X27043634Y-6800674D02*
X27034110Y-6810198D01*
X27243634Y-6924484D02*
X27224587Y-6914960D01*
X27224587Y-6914960D02*
X27215063Y-6905436D01*
X27215063Y-6905436D02*
X27205539Y-6886388D01*
X27205539Y-6886388D02*
X27205539Y-6829246D01*
X27205539Y-6829246D02*
X27215063Y-6810198D01*
X27215063Y-6810198D02*
X27224587Y-6800674D01*
X27224587Y-6800674D02*
X27243634Y-6791150D01*
X27243634Y-6791150D02*
X27272206Y-6791150D01*
X27272206Y-6791150D02*
X27291253Y-6800674D01*
X27291253Y-6800674D02*
X27300777Y-6810198D01*
X27300777Y-6810198D02*
X27310301Y-6829246D01*
X27310301Y-6829246D02*
X27310301Y-6886388D01*
X27310301Y-6886388D02*
X27300777Y-6905436D01*
X27300777Y-6905436D02*
X27291253Y-6914960D01*
X27291253Y-6914960D02*
X27272206Y-6924484D01*
X27272206Y-6924484D02*
X27243634Y-6924484D01*
X27424587Y-6924484D02*
X27405539Y-6914960D01*
X27405539Y-6914960D02*
X27396015Y-6895912D01*
X27396015Y-6895912D02*
X27396015Y-6724484D01*
X27576968Y-6914960D02*
X27557920Y-6924484D01*
X27557920Y-6924484D02*
X27519825Y-6924484D01*
X27519825Y-6924484D02*
X27500777Y-6914960D01*
X27500777Y-6914960D02*
X27491253Y-6895912D01*
X27491253Y-6895912D02*
X27491253Y-6819722D01*
X27491253Y-6819722D02*
X27500777Y-6800674D01*
X27500777Y-6800674D02*
X27519825Y-6791150D01*
X27519825Y-6791150D02*
X27557920Y-6791150D01*
X27557920Y-6791150D02*
X27576968Y-6800674D01*
X27576968Y-6800674D02*
X27586491Y-6819722D01*
X27586491Y-6819722D02*
X27586491Y-6838769D01*
X27586491Y-6838769D02*
X27491253Y-6857817D01*
X27662682Y-6914960D02*
X27681730Y-6924484D01*
X27681730Y-6924484D02*
X27719825Y-6924484D01*
X27719825Y-6924484D02*
X27738872Y-6914960D01*
X27738872Y-6914960D02*
X27748396Y-6895912D01*
X27748396Y-6895912D02*
X27748396Y-6886388D01*
X27748396Y-6886388D02*
X27738872Y-6867341D01*
X27738872Y-6867341D02*
X27719825Y-6857817D01*
X27719825Y-6857817D02*
X27691253Y-6857817D01*
X27691253Y-6857817D02*
X27672206Y-6848293D01*
X27672206Y-6848293D02*
X27662682Y-6829246D01*
X27662682Y-6829246D02*
X27662682Y-6819722D01*
X27662682Y-6819722D02*
X27672206Y-6800674D01*
X27672206Y-6800674D02*
X27691253Y-6791150D01*
X27691253Y-6791150D02*
X27719825Y-6791150D01*
X27719825Y-6791150D02*
X27738872Y-6800674D01*
X27815063Y-7000674D02*
X27824587Y-6991150D01*
X27824587Y-6991150D02*
X27843634Y-6962579D01*
X27843634Y-6962579D02*
X27853158Y-6943531D01*
X27853158Y-6943531D02*
X27862682Y-6914960D01*
X27862682Y-6914960D02*
X27872206Y-6867341D01*
X27872206Y-6867341D02*
X27872206Y-6829246D01*
X27872206Y-6829246D02*
X27862682Y-6781627D01*
X27862682Y-6781627D02*
X27853158Y-6753055D01*
X27853158Y-6753055D02*
X27843634Y-6734008D01*
X27843634Y-6734008D02*
X27824587Y-6705436D01*
X27824587Y-6705436D02*
X27815063Y-6695912D01*
X23010711Y-7167711D02*
X23010711Y-7026289D01*
X22869289Y-7026289D01*
X22869289Y-7167711D01*
X23010711Y-7167711D01*
X23291253Y-7007531D02*
X23300777Y-6998008D01*
X23300777Y-6998008D02*
X23319824Y-6988484D01*
X23319824Y-6988484D02*
X23367443Y-6988484D01*
X23367443Y-6988484D02*
X23386491Y-6998008D01*
X23386491Y-6998008D02*
X23396015Y-7007531D01*
X23396015Y-7007531D02*
X23405539Y-7026579D01*
X23405539Y-7026579D02*
X23405539Y-7045627D01*
X23405539Y-7045627D02*
X23396015Y-7074198D01*
X23396015Y-7074198D02*
X23281729Y-7188484D01*
X23281729Y-7188484D02*
X23405539Y-7188484D01*
X23491253Y-7169436D02*
X23500777Y-7178960D01*
X23500777Y-7178960D02*
X23491253Y-7188484D01*
X23491253Y-7188484D02*
X23481729Y-7178960D01*
X23481729Y-7178960D02*
X23491253Y-7169436D01*
X23491253Y-7169436D02*
X23491253Y-7188484D01*
X23567443Y-6988484D02*
X23691253Y-6988484D01*
X23691253Y-6988484D02*
X23624586Y-7064674D01*
X23624586Y-7064674D02*
X23653158Y-7064674D01*
X23653158Y-7064674D02*
X23672205Y-7074198D01*
X23672205Y-7074198D02*
X23681729Y-7083722D01*
X23681729Y-7083722D02*
X23691253Y-7102769D01*
X23691253Y-7102769D02*
X23691253Y-7150388D01*
X23691253Y-7150388D02*
X23681729Y-7169436D01*
X23681729Y-7169436D02*
X23672205Y-7178960D01*
X23672205Y-7178960D02*
X23653158Y-7188484D01*
X23653158Y-7188484D02*
X23596015Y-7188484D01*
X23596015Y-7188484D02*
X23576967Y-7178960D01*
X23576967Y-7178960D02*
X23567443Y-7169436D01*
X23881729Y-7188484D02*
X23767443Y-7188484D01*
X23824586Y-7188484D02*
X23824586Y-6988484D01*
X23824586Y-6988484D02*
X23805539Y-7017055D01*
X23805539Y-7017055D02*
X23786491Y-7036103D01*
X23786491Y-7036103D02*
X23767443Y-7045627D01*
X24072205Y-7188484D02*
X23957920Y-7188484D01*
X24015062Y-7188484D02*
X24015062Y-6988484D01*
X24015062Y-6988484D02*
X23996015Y-7017055D01*
X23996015Y-7017055D02*
X23976967Y-7036103D01*
X23976967Y-7036103D02*
X23957920Y-7045627D01*
X24157920Y-7188484D02*
X24157920Y-7055150D01*
X24157920Y-7074198D02*
X24167443Y-7064674D01*
X24167443Y-7064674D02*
X24186491Y-7055150D01*
X24186491Y-7055150D02*
X24215063Y-7055150D01*
X24215063Y-7055150D02*
X24234110Y-7064674D01*
X24234110Y-7064674D02*
X24243634Y-7083722D01*
X24243634Y-7083722D02*
X24243634Y-7188484D01*
X24243634Y-7083722D02*
X24253158Y-7064674D01*
X24253158Y-7064674D02*
X24272205Y-7055150D01*
X24272205Y-7055150D02*
X24300777Y-7055150D01*
X24300777Y-7055150D02*
X24319824Y-7064674D01*
X24319824Y-7064674D02*
X24329348Y-7083722D01*
X24329348Y-7083722D02*
X24329348Y-7188484D01*
X24424586Y-7188484D02*
X24424586Y-7055150D01*
X24424586Y-7074198D02*
X24434110Y-7064674D01*
X24434110Y-7064674D02*
X24453158Y-7055150D01*
X24453158Y-7055150D02*
X24481729Y-7055150D01*
X24481729Y-7055150D02*
X24500777Y-7064674D01*
X24500777Y-7064674D02*
X24510301Y-7083722D01*
X24510301Y-7083722D02*
X24510301Y-7188484D01*
X24510301Y-7083722D02*
X24519824Y-7064674D01*
X24519824Y-7064674D02*
X24538872Y-7055150D01*
X24538872Y-7055150D02*
X24567443Y-7055150D01*
X24567443Y-7055150D02*
X24586491Y-7064674D01*
X24586491Y-7064674D02*
X24596015Y-7083722D01*
X24596015Y-7083722D02*
X24596015Y-7188484D01*
X24986491Y-6978960D02*
X24815063Y-7236103D01*
X25243634Y-6988484D02*
X25262682Y-6988484D01*
X25262682Y-6988484D02*
X25281729Y-6998008D01*
X25281729Y-6998008D02*
X25291253Y-7007531D01*
X25291253Y-7007531D02*
X25300777Y-7026579D01*
X25300777Y-7026579D02*
X25310301Y-7064674D01*
X25310301Y-7064674D02*
X25310301Y-7112293D01*
X25310301Y-7112293D02*
X25300777Y-7150388D01*
X25300777Y-7150388D02*
X25291253Y-7169436D01*
X25291253Y-7169436D02*
X25281729Y-7178960D01*
X25281729Y-7178960D02*
X25262682Y-7188484D01*
X25262682Y-7188484D02*
X25243634Y-7188484D01*
X25243634Y-7188484D02*
X25224586Y-7178960D01*
X25224586Y-7178960D02*
X25215063Y-7169436D01*
X25215063Y-7169436D02*
X25205539Y-7150388D01*
X25205539Y-7150388D02*
X25196015Y-7112293D01*
X25196015Y-7112293D02*
X25196015Y-7064674D01*
X25196015Y-7064674D02*
X25205539Y-7026579D01*
X25205539Y-7026579D02*
X25215063Y-7007531D01*
X25215063Y-7007531D02*
X25224586Y-6998008D01*
X25224586Y-6998008D02*
X25243634Y-6988484D01*
X25396015Y-7169436D02*
X25405539Y-7178960D01*
X25405539Y-7178960D02*
X25396015Y-7188484D01*
X25396015Y-7188484D02*
X25386491Y-7178960D01*
X25386491Y-7178960D02*
X25396015Y-7169436D01*
X25396015Y-7169436D02*
X25396015Y-7188484D01*
X25529348Y-6988484D02*
X25548396Y-6988484D01*
X25548396Y-6988484D02*
X25567444Y-6998008D01*
X25567444Y-6998008D02*
X25576967Y-7007531D01*
X25576967Y-7007531D02*
X25586491Y-7026579D01*
X25586491Y-7026579D02*
X25596015Y-7064674D01*
X25596015Y-7064674D02*
X25596015Y-7112293D01*
X25596015Y-7112293D02*
X25586491Y-7150388D01*
X25586491Y-7150388D02*
X25576967Y-7169436D01*
X25576967Y-7169436D02*
X25567444Y-7178960D01*
X25567444Y-7178960D02*
X25548396Y-7188484D01*
X25548396Y-7188484D02*
X25529348Y-7188484D01*
X25529348Y-7188484D02*
X25510301Y-7178960D01*
X25510301Y-7178960D02*
X25500777Y-7169436D01*
X25500777Y-7169436D02*
X25491253Y-7150388D01*
X25491253Y-7150388D02*
X25481729Y-7112293D01*
X25481729Y-7112293D02*
X25481729Y-7064674D01*
X25481729Y-7064674D02*
X25491253Y-7026579D01*
X25491253Y-7026579D02*
X25500777Y-7007531D01*
X25500777Y-7007531D02*
X25510301Y-6998008D01*
X25510301Y-6998008D02*
X25529348Y-6988484D01*
X25691253Y-7188484D02*
X25729348Y-7188484D01*
X25729348Y-7188484D02*
X25748396Y-7178960D01*
X25748396Y-7178960D02*
X25757920Y-7169436D01*
X25757920Y-7169436D02*
X25776967Y-7140865D01*
X25776967Y-7140865D02*
X25786491Y-7102769D01*
X25786491Y-7102769D02*
X25786491Y-7026579D01*
X25786491Y-7026579D02*
X25776967Y-7007531D01*
X25776967Y-7007531D02*
X25767444Y-6998008D01*
X25767444Y-6998008D02*
X25748396Y-6988484D01*
X25748396Y-6988484D02*
X25710301Y-6988484D01*
X25710301Y-6988484D02*
X25691253Y-6998008D01*
X25691253Y-6998008D02*
X25681729Y-7007531D01*
X25681729Y-7007531D02*
X25672206Y-7026579D01*
X25672206Y-7026579D02*
X25672206Y-7074198D01*
X25672206Y-7074198D02*
X25681729Y-7093246D01*
X25681729Y-7093246D02*
X25691253Y-7102769D01*
X25691253Y-7102769D02*
X25710301Y-7112293D01*
X25710301Y-7112293D02*
X25748396Y-7112293D01*
X25748396Y-7112293D02*
X25767444Y-7102769D01*
X25767444Y-7102769D02*
X25776967Y-7093246D01*
X25776967Y-7093246D02*
X25786491Y-7074198D01*
X25976967Y-7188484D02*
X25862682Y-7188484D01*
X25919825Y-7188484D02*
X25919825Y-6988484D01*
X25919825Y-6988484D02*
X25900777Y-7017055D01*
X25900777Y-7017055D02*
X25881729Y-7036103D01*
X25881729Y-7036103D02*
X25862682Y-7045627D01*
X26100777Y-6988484D02*
X26119825Y-6988484D01*
X26119825Y-6988484D02*
X26138872Y-6998008D01*
X26138872Y-6998008D02*
X26148396Y-7007531D01*
X26148396Y-7007531D02*
X26157920Y-7026579D01*
X26157920Y-7026579D02*
X26167444Y-7064674D01*
X26167444Y-7064674D02*
X26167444Y-7112293D01*
X26167444Y-7112293D02*
X26157920Y-7150388D01*
X26157920Y-7150388D02*
X26148396Y-7169436D01*
X26148396Y-7169436D02*
X26138872Y-7178960D01*
X26138872Y-7178960D02*
X26119825Y-7188484D01*
X26119825Y-7188484D02*
X26100777Y-7188484D01*
X26100777Y-7188484D02*
X26081729Y-7178960D01*
X26081729Y-7178960D02*
X26072206Y-7169436D01*
X26072206Y-7169436D02*
X26062682Y-7150388D01*
X26062682Y-7150388D02*
X26053158Y-7112293D01*
X26053158Y-7112293D02*
X26053158Y-7064674D01*
X26053158Y-7064674D02*
X26062682Y-7026579D01*
X26062682Y-7026579D02*
X26072206Y-7007531D01*
X26072206Y-7007531D02*
X26081729Y-6998008D01*
X26081729Y-6998008D02*
X26100777Y-6988484D01*
X26243634Y-6988484D02*
X26243634Y-7026579D01*
X26319825Y-6988484D02*
X26319825Y-7026579D01*
X26615063Y-7264674D02*
X26605539Y-7255150D01*
X26605539Y-7255150D02*
X26586491Y-7226579D01*
X26586491Y-7226579D02*
X26576968Y-7207531D01*
X26576968Y-7207531D02*
X26567444Y-7178960D01*
X26567444Y-7178960D02*
X26557920Y-7131341D01*
X26557920Y-7131341D02*
X26557920Y-7093246D01*
X26557920Y-7093246D02*
X26567444Y-7045627D01*
X26567444Y-7045627D02*
X26576968Y-7017055D01*
X26576968Y-7017055D02*
X26586491Y-6998008D01*
X26586491Y-6998008D02*
X26605539Y-6969436D01*
X26605539Y-6969436D02*
X26615063Y-6959912D01*
X26681729Y-7007531D02*
X26691253Y-6998008D01*
X26691253Y-6998008D02*
X26710301Y-6988484D01*
X26710301Y-6988484D02*
X26757920Y-6988484D01*
X26757920Y-6988484D02*
X26776968Y-6998008D01*
X26776968Y-6998008D02*
X26786491Y-7007531D01*
X26786491Y-7007531D02*
X26796015Y-7026579D01*
X26796015Y-7026579D02*
X26796015Y-7045627D01*
X26796015Y-7045627D02*
X26786491Y-7074198D01*
X26786491Y-7074198D02*
X26672206Y-7188484D01*
X26672206Y-7188484D02*
X26796015Y-7188484D01*
X27034110Y-7188484D02*
X27034110Y-6988484D01*
X27119825Y-7188484D02*
X27119825Y-7083722D01*
X27119825Y-7083722D02*
X27110301Y-7064674D01*
X27110301Y-7064674D02*
X27091253Y-7055150D01*
X27091253Y-7055150D02*
X27062682Y-7055150D01*
X27062682Y-7055150D02*
X27043634Y-7064674D01*
X27043634Y-7064674D02*
X27034110Y-7074198D01*
X27243634Y-7188484D02*
X27224587Y-7178960D01*
X27224587Y-7178960D02*
X27215063Y-7169436D01*
X27215063Y-7169436D02*
X27205539Y-7150388D01*
X27205539Y-7150388D02*
X27205539Y-7093246D01*
X27205539Y-7093246D02*
X27215063Y-7074198D01*
X27215063Y-7074198D02*
X27224587Y-7064674D01*
X27224587Y-7064674D02*
X27243634Y-7055150D01*
X27243634Y-7055150D02*
X27272206Y-7055150D01*
X27272206Y-7055150D02*
X27291253Y-7064674D01*
X27291253Y-7064674D02*
X27300777Y-7074198D01*
X27300777Y-7074198D02*
X27310301Y-7093246D01*
X27310301Y-7093246D02*
X27310301Y-7150388D01*
X27310301Y-7150388D02*
X27300777Y-7169436D01*
X27300777Y-7169436D02*
X27291253Y-7178960D01*
X27291253Y-7178960D02*
X27272206Y-7188484D01*
X27272206Y-7188484D02*
X27243634Y-7188484D01*
X27424587Y-7188484D02*
X27405539Y-7178960D01*
X27405539Y-7178960D02*
X27396015Y-7159912D01*
X27396015Y-7159912D02*
X27396015Y-6988484D01*
X27576968Y-7178960D02*
X27557920Y-7188484D01*
X27557920Y-7188484D02*
X27519825Y-7188484D01*
X27519825Y-7188484D02*
X27500777Y-7178960D01*
X27500777Y-7178960D02*
X27491253Y-7159912D01*
X27491253Y-7159912D02*
X27491253Y-7083722D01*
X27491253Y-7083722D02*
X27500777Y-7064674D01*
X27500777Y-7064674D02*
X27519825Y-7055150D01*
X27519825Y-7055150D02*
X27557920Y-7055150D01*
X27557920Y-7055150D02*
X27576968Y-7064674D01*
X27576968Y-7064674D02*
X27586491Y-7083722D01*
X27586491Y-7083722D02*
X27586491Y-7102769D01*
X27586491Y-7102769D02*
X27491253Y-7121817D01*
X27662682Y-7178960D02*
X27681730Y-7188484D01*
X27681730Y-7188484D02*
X27719825Y-7188484D01*
X27719825Y-7188484D02*
X27738872Y-7178960D01*
X27738872Y-7178960D02*
X27748396Y-7159912D01*
X27748396Y-7159912D02*
X27748396Y-7150388D01*
X27748396Y-7150388D02*
X27738872Y-7131341D01*
X27738872Y-7131341D02*
X27719825Y-7121817D01*
X27719825Y-7121817D02*
X27691253Y-7121817D01*
X27691253Y-7121817D02*
X27672206Y-7112293D01*
X27672206Y-7112293D02*
X27662682Y-7093246D01*
X27662682Y-7093246D02*
X27662682Y-7083722D01*
X27662682Y-7083722D02*
X27672206Y-7064674D01*
X27672206Y-7064674D02*
X27691253Y-7055150D01*
X27691253Y-7055150D02*
X27719825Y-7055150D01*
X27719825Y-7055150D02*
X27738872Y-7064674D01*
X27815063Y-7264674D02*
X27824587Y-7255150D01*
X27824587Y-7255150D02*
X27843634Y-7226579D01*
X27843634Y-7226579D02*
X27853158Y-7207531D01*
X27853158Y-7207531D02*
X27862682Y-7178960D01*
X27862682Y-7178960D02*
X27872206Y-7131341D01*
X27872206Y-7131341D02*
X27872206Y-7093246D01*
X27872206Y-7093246D02*
X27862682Y-7045627D01*
X27862682Y-7045627D02*
X27853158Y-7017055D01*
X27853158Y-7017055D02*
X27843634Y-6998008D01*
X27843634Y-6998008D02*
X27824587Y-6969436D01*
X27824587Y-6969436D02*
X27815063Y-6959912D01*
M02*
