G04 #@! TF.GenerationSoftware,KiCad,Pcbnew,7.0.8-7.0.8~ubuntu22.04.1*
G04 #@! TF.CreationDate,2023-10-11T15:45:23+02:00*
G04 #@! TF.ProjectId,Pico_PCB,5069636f-5f50-4434-922e-6b696361645f,rev?*
G04 #@! TF.SameCoordinates,Original*
G04 #@! TF.FileFunction,Copper,L2,Bot*
G04 #@! TF.FilePolarity,Positive*
%FSLAX46Y46*%
G04 Gerber Fmt 4.6, Leading zero omitted, Abs format (unit mm)*
G04 Created by KiCad (PCBNEW 7.0.8-7.0.8~ubuntu22.04.1) date 2023-10-11 15:45:23*
%MOMM*%
%LPD*%
G01*
G04 APERTURE LIST*
G04 Aperture macros list*
%AMRoundRect*
0 Rectangle with rounded corners*
0 $1 Rounding radius*
0 $2 $3 $4 $5 $6 $7 $8 $9 X,Y pos of 4 corners*
0 Add a 4 corners polygon primitive as box body*
4,1,4,$2,$3,$4,$5,$6,$7,$8,$9,$2,$3,0*
0 Add four circle primitives for the rounded corners*
1,1,$1+$1,$2,$3*
1,1,$1+$1,$4,$5*
1,1,$1+$1,$6,$7*
1,1,$1+$1,$8,$9*
0 Add four rect primitives between the rounded corners*
20,1,$1+$1,$2,$3,$4,$5,0*
20,1,$1+$1,$4,$5,$6,$7,0*
20,1,$1+$1,$6,$7,$8,$9,0*
20,1,$1+$1,$8,$9,$2,$3,0*%
G04 Aperture macros list end*
G04 #@! TA.AperFunction,ComponentPad*
%ADD10C,1.500000*%
G04 #@! TD*
G04 #@! TA.AperFunction,ComponentPad*
%ADD11RoundRect,0.250000X0.600000X0.600000X-0.600000X0.600000X-0.600000X-0.600000X0.600000X-0.600000X0*%
G04 #@! TD*
G04 #@! TA.AperFunction,ComponentPad*
%ADD12C,1.700000*%
G04 #@! TD*
G04 #@! TA.AperFunction,ComponentPad*
%ADD13C,3.327400*%
G04 #@! TD*
G04 #@! TA.AperFunction,ViaPad*
%ADD14C,0.800000*%
G04 #@! TD*
G04 #@! TA.AperFunction,Conductor*
%ADD15C,0.250000*%
G04 #@! TD*
G04 APERTURE END LIST*
D10*
X263238000Y-42160000D03*
X251200000Y-42400000D03*
X248700000Y-31100000D03*
X266000000Y-47700000D03*
X266032000Y-42160000D03*
X255250000Y-17300000D03*
X252400000Y-19350000D03*
X258000000Y-20000000D03*
X248850000Y-39700000D03*
X248850000Y-37000000D03*
D11*
X242550000Y-49170000D03*
D12*
X240010000Y-49170000D03*
X242550000Y-46630000D03*
X240010000Y-46630000D03*
X242550000Y-44090000D03*
X240010000Y-44090000D03*
X242550000Y-41550000D03*
X240010000Y-41550000D03*
D10*
X268050000Y-17750000D03*
X272500000Y-24400000D03*
X266700000Y-20000000D03*
X263100000Y-16400000D03*
X271050000Y-43700000D03*
X255300000Y-20000000D03*
X260700000Y-17300000D03*
X269400000Y-20000000D03*
X249650000Y-16650000D03*
X270500000Y-25900000D03*
X249700000Y-19350000D03*
X257950000Y-17300000D03*
X265300000Y-45050000D03*
X270600000Y-46750000D03*
X252350000Y-16650000D03*
X253600000Y-41450000D03*
X272600000Y-27500000D03*
X270200000Y-23100000D03*
X248550000Y-42400000D03*
X272250000Y-41300000D03*
X260700000Y-20000000D03*
D13*
X233190000Y-21836520D03*
X233190000Y-34968320D03*
D10*
X270300000Y-28800000D03*
X268826000Y-42160000D03*
X268100000Y-45000000D03*
D14*
X243400000Y-16600000D03*
X280300000Y-54100000D03*
X244200000Y-50750000D03*
X257400000Y-54100000D03*
X280500000Y-16600000D03*
X257750000Y-43350000D03*
X238400000Y-22200000D03*
X260200000Y-33300000D03*
X235700000Y-16600000D03*
X253300000Y-51200000D03*
X244250000Y-49200000D03*
X252200000Y-49100000D03*
X259900000Y-40250000D03*
X243700000Y-22450000D03*
X244400000Y-31100000D03*
X256000000Y-51200000D03*
X239200000Y-26200000D03*
X249100000Y-54500000D03*
X257000000Y-45100000D03*
X272100000Y-54100000D03*
X265100000Y-54100000D03*
X247750000Y-48650000D03*
X245950000Y-49250000D03*
X250700000Y-23400000D03*
X273900000Y-16600000D03*
X281200000Y-21600000D03*
X258600000Y-51200000D03*
X261100000Y-51200000D03*
X264000000Y-17800000D03*
X256300000Y-25400000D03*
X263400000Y-48000000D03*
X259550000Y-49000000D03*
X264300000Y-29600000D03*
X245000000Y-26150000D03*
X249000000Y-29000000D03*
X239100000Y-54500000D03*
X232250000Y-54050000D03*
X260550000Y-43200000D03*
X262850000Y-46050000D03*
X263550000Y-19150000D03*
X259500000Y-45100000D03*
X263300000Y-50500000D03*
X260200000Y-29600000D03*
X264100000Y-33300000D03*
X241100000Y-50550000D03*
X251700000Y-44200000D03*
D15*
X251700000Y-44200000D02*
X250550000Y-45350000D01*
X241270000Y-45350000D02*
X240010000Y-44090000D01*
X250550000Y-45350000D02*
X241270000Y-45350000D01*
G04 #@! TA.AperFunction,Conductor*
G36*
X282842441Y-14820014D02*
G01*
X282888497Y-14872555D01*
X282900000Y-14924712D01*
X282900000Y-56276708D01*
X282880315Y-56343747D01*
X282827511Y-56389502D01*
X282776711Y-56400706D01*
X248087250Y-56599500D01*
X230674000Y-56599500D01*
X230606961Y-56579815D01*
X230561206Y-56527011D01*
X230550000Y-56475500D01*
X230550000Y-49170000D01*
X238954417Y-49170000D01*
X238974699Y-49375932D01*
X238974700Y-49375934D01*
X239034768Y-49573954D01*
X239132315Y-49756450D01*
X239132316Y-49756451D01*
X239132317Y-49756452D01*
X239263589Y-49916410D01*
X239360209Y-49995702D01*
X239423550Y-50047685D01*
X239606046Y-50145232D01*
X239804066Y-50205300D01*
X239804065Y-50205300D01*
X239822529Y-50207118D01*
X240010000Y-50225583D01*
X240215934Y-50205300D01*
X240413954Y-50145232D01*
X240596450Y-50047685D01*
X240756410Y-49916410D01*
X240887685Y-49756450D01*
X240966643Y-49608730D01*
X241015604Y-49558887D01*
X241083742Y-49543427D01*
X241149422Y-49567259D01*
X241191790Y-49622816D01*
X241200000Y-49667184D01*
X241200000Y-49819970D01*
X241200001Y-49819987D01*
X241210494Y-49922697D01*
X241265641Y-50089119D01*
X241265643Y-50089124D01*
X241357684Y-50238345D01*
X241481654Y-50362315D01*
X241630875Y-50454356D01*
X241630880Y-50454358D01*
X241797302Y-50509505D01*
X241797309Y-50509506D01*
X241900019Y-50519999D01*
X242299999Y-50519999D01*
X242300000Y-50519998D01*
X242300000Y-49605501D01*
X242407685Y-49654680D01*
X242514237Y-49670000D01*
X242585763Y-49670000D01*
X242692315Y-49654680D01*
X242800000Y-49605501D01*
X242800000Y-50519999D01*
X243199972Y-50519999D01*
X243199986Y-50519998D01*
X243302697Y-50509505D01*
X243469119Y-50454358D01*
X243469124Y-50454356D01*
X243618345Y-50362315D01*
X243742315Y-50238345D01*
X243834356Y-50089124D01*
X243834358Y-50089119D01*
X243889505Y-49922697D01*
X243889506Y-49922690D01*
X243899999Y-49819986D01*
X243900000Y-49819973D01*
X243900000Y-49420000D01*
X242983686Y-49420000D01*
X243009493Y-49379844D01*
X243050000Y-49241889D01*
X243050000Y-49098111D01*
X243009493Y-48960156D01*
X242983686Y-48920000D01*
X243899999Y-48920000D01*
X243899999Y-48520028D01*
X243899998Y-48520013D01*
X243889505Y-48417302D01*
X243834358Y-48250880D01*
X243834356Y-48250875D01*
X243742315Y-48101654D01*
X243618345Y-47977684D01*
X243469124Y-47885643D01*
X243469119Y-47885641D01*
X243302697Y-47830494D01*
X243302690Y-47830493D01*
X243199986Y-47820000D01*
X243047186Y-47820000D01*
X242980147Y-47800315D01*
X242934392Y-47747511D01*
X242927561Y-47700000D01*
X265044901Y-47700000D01*
X265063252Y-47886331D01*
X265063253Y-47886333D01*
X265117604Y-48065502D01*
X265205862Y-48230623D01*
X265205864Y-48230626D01*
X265324642Y-48375357D01*
X265469373Y-48494135D01*
X265469376Y-48494137D01*
X265634497Y-48582395D01*
X265634499Y-48582396D01*
X265813666Y-48636746D01*
X265813668Y-48636747D01*
X265830374Y-48638392D01*
X266000000Y-48655099D01*
X266186331Y-48636747D01*
X266365501Y-48582396D01*
X266530625Y-48494136D01*
X266675357Y-48375357D01*
X266794136Y-48230625D01*
X266882396Y-48065501D01*
X266936747Y-47886331D01*
X266955099Y-47700000D01*
X266936747Y-47513669D01*
X266882396Y-47334499D01*
X266882395Y-47334497D01*
X266794137Y-47169376D01*
X266794135Y-47169373D01*
X266675357Y-47024642D01*
X266530626Y-46905864D01*
X266530623Y-46905862D01*
X266365502Y-46817604D01*
X266186333Y-46763253D01*
X266186331Y-46763252D01*
X266051774Y-46750000D01*
X269644901Y-46750000D01*
X269663252Y-46936331D01*
X269663253Y-46936333D01*
X269717604Y-47115502D01*
X269805862Y-47280623D01*
X269805864Y-47280626D01*
X269924642Y-47425357D01*
X270069373Y-47544135D01*
X270069376Y-47544137D01*
X270183678Y-47605232D01*
X270234499Y-47632396D01*
X270385998Y-47678353D01*
X270413666Y-47686746D01*
X270413668Y-47686747D01*
X270430374Y-47688392D01*
X270600000Y-47705099D01*
X270786331Y-47686747D01*
X270965501Y-47632396D01*
X271130625Y-47544136D01*
X271275357Y-47425357D01*
X271394136Y-47280625D01*
X271482396Y-47115501D01*
X271536747Y-46936331D01*
X271555099Y-46750000D01*
X271536747Y-46563669D01*
X271482396Y-46384499D01*
X271397702Y-46226046D01*
X271394137Y-46219376D01*
X271394135Y-46219373D01*
X271275357Y-46074642D01*
X271130626Y-45955864D01*
X271130623Y-45955862D01*
X270965502Y-45867604D01*
X270786333Y-45813253D01*
X270786331Y-45813252D01*
X270600000Y-45794901D01*
X270413668Y-45813252D01*
X270413666Y-45813253D01*
X270234497Y-45867604D01*
X270069376Y-45955862D01*
X270069373Y-45955864D01*
X269924642Y-46074642D01*
X269805864Y-46219373D01*
X269805862Y-46219376D01*
X269717604Y-46384497D01*
X269663253Y-46563666D01*
X269663252Y-46563668D01*
X269644901Y-46750000D01*
X266051774Y-46750000D01*
X266000000Y-46744901D01*
X265813668Y-46763252D01*
X265813666Y-46763253D01*
X265634497Y-46817604D01*
X265469376Y-46905862D01*
X265469373Y-46905864D01*
X265324642Y-47024642D01*
X265205864Y-47169373D01*
X265205862Y-47169376D01*
X265117604Y-47334497D01*
X265063253Y-47513666D01*
X265063252Y-47513668D01*
X265044901Y-47700000D01*
X242927561Y-47700000D01*
X242924448Y-47678353D01*
X242953473Y-47614797D01*
X242988729Y-47586643D01*
X243136450Y-47507685D01*
X243296410Y-47376410D01*
X243427685Y-47216450D01*
X243525232Y-47033954D01*
X243585300Y-46835934D01*
X243605583Y-46630000D01*
X243585300Y-46424066D01*
X243525232Y-46226046D01*
X243427685Y-46043550D01*
X243296410Y-45883590D01*
X243296411Y-45883590D01*
X243292545Y-45878880D01*
X243294564Y-45877222D01*
X243266517Y-45825858D01*
X243271501Y-45756166D01*
X243313373Y-45700233D01*
X243378837Y-45675816D01*
X243387683Y-45675500D01*
X250533078Y-45675500D01*
X250538481Y-45675735D01*
X250578807Y-45679264D01*
X250617940Y-45668777D01*
X250623162Y-45667619D01*
X250663045Y-45660588D01*
X250663050Y-45660584D01*
X250668099Y-45658747D01*
X250684824Y-45651819D01*
X250689681Y-45649554D01*
X250689684Y-45649554D01*
X250722841Y-45626335D01*
X250727390Y-45623438D01*
X250762455Y-45603194D01*
X250762459Y-45603190D01*
X250788476Y-45572182D01*
X250792122Y-45568202D01*
X251310324Y-45050000D01*
X264344901Y-45050000D01*
X264363252Y-45236331D01*
X264363253Y-45236333D01*
X264417604Y-45415502D01*
X264505862Y-45580623D01*
X264505864Y-45580626D01*
X264624642Y-45725357D01*
X264769373Y-45844135D01*
X264769376Y-45844137D01*
X264934497Y-45932395D01*
X264934499Y-45932396D01*
X265113666Y-45986746D01*
X265113668Y-45986747D01*
X265130374Y-45988392D01*
X265300000Y-46005099D01*
X265486331Y-45986747D01*
X265665501Y-45932396D01*
X265830625Y-45844136D01*
X265975357Y-45725357D01*
X266094136Y-45580625D01*
X266182396Y-45415501D01*
X266236747Y-45236331D01*
X266255099Y-45050000D01*
X266250174Y-45000000D01*
X267144901Y-45000000D01*
X267163252Y-45186331D01*
X267163253Y-45186333D01*
X267217604Y-45365502D01*
X267305862Y-45530623D01*
X267305864Y-45530626D01*
X267424642Y-45675357D01*
X267569373Y-45794135D01*
X267569376Y-45794137D01*
X267734497Y-45882395D01*
X267734499Y-45882396D01*
X267899326Y-45932396D01*
X267913666Y-45936746D01*
X267913668Y-45936747D01*
X267930374Y-45938392D01*
X268100000Y-45955099D01*
X268286331Y-45936747D01*
X268465501Y-45882396D01*
X268630625Y-45794136D01*
X268775357Y-45675357D01*
X268894136Y-45530625D01*
X268982396Y-45365501D01*
X269036747Y-45186331D01*
X269055099Y-45000000D01*
X269036747Y-44813669D01*
X268982396Y-44634499D01*
X268979073Y-44628282D01*
X268894137Y-44469376D01*
X268894135Y-44469373D01*
X268775357Y-44324642D01*
X268630626Y-44205864D01*
X268630623Y-44205862D01*
X268465502Y-44117604D01*
X268286333Y-44063253D01*
X268286331Y-44063252D01*
X268100000Y-44044901D01*
X267913668Y-44063252D01*
X267913666Y-44063253D01*
X267734497Y-44117604D01*
X267569376Y-44205862D01*
X267569373Y-44205864D01*
X267424642Y-44324642D01*
X267305864Y-44469373D01*
X267305862Y-44469376D01*
X267217604Y-44634497D01*
X267163253Y-44813666D01*
X267163252Y-44813668D01*
X267144901Y-45000000D01*
X266250174Y-45000000D01*
X266236747Y-44863669D01*
X266182396Y-44684499D01*
X266178094Y-44676450D01*
X266094137Y-44519376D01*
X266094135Y-44519373D01*
X265975357Y-44374642D01*
X265830626Y-44255864D01*
X265830623Y-44255862D01*
X265665502Y-44167604D01*
X265486333Y-44113253D01*
X265486331Y-44113252D01*
X265300000Y-44094901D01*
X265113668Y-44113252D01*
X265113666Y-44113253D01*
X264934497Y-44167604D01*
X264769376Y-44255862D01*
X264769373Y-44255864D01*
X264624642Y-44374642D01*
X264505864Y-44519373D01*
X264505862Y-44519376D01*
X264417604Y-44684497D01*
X264363253Y-44863666D01*
X264363252Y-44863668D01*
X264344901Y-45050000D01*
X251310324Y-45050000D01*
X251528315Y-44832009D01*
X251589636Y-44798526D01*
X251632180Y-44796753D01*
X251699999Y-44805682D01*
X251700000Y-44805682D01*
X251700001Y-44805682D01*
X251752254Y-44798802D01*
X251856762Y-44785044D01*
X252002841Y-44724536D01*
X252128282Y-44628282D01*
X252224536Y-44502841D01*
X252285044Y-44356762D01*
X252305682Y-44200000D01*
X252294261Y-44113252D01*
X252285044Y-44043239D01*
X252285044Y-44043238D01*
X252224536Y-43897159D01*
X252128282Y-43771718D01*
X252034817Y-43700000D01*
X270094901Y-43700000D01*
X270113252Y-43886331D01*
X270113253Y-43886333D01*
X270167604Y-44065502D01*
X270255862Y-44230623D01*
X270255864Y-44230626D01*
X270374642Y-44375357D01*
X270519373Y-44494135D01*
X270519376Y-44494137D01*
X270660694Y-44569672D01*
X270684499Y-44582396D01*
X270863666Y-44636746D01*
X270863668Y-44636747D01*
X270880374Y-44638392D01*
X271050000Y-44655099D01*
X271236331Y-44636747D01*
X271415501Y-44582396D01*
X271580625Y-44494136D01*
X271725357Y-44375357D01*
X271844136Y-44230625D01*
X271932396Y-44065501D01*
X271986747Y-43886331D01*
X272005099Y-43700000D01*
X271986747Y-43513669D01*
X271932396Y-43334499D01*
X271867088Y-43212315D01*
X271844137Y-43169376D01*
X271844135Y-43169373D01*
X271725357Y-43024642D01*
X271580626Y-42905864D01*
X271580623Y-42905862D01*
X271415502Y-42817604D01*
X271236333Y-42763253D01*
X271236331Y-42763252D01*
X271050000Y-42744901D01*
X270863668Y-42763252D01*
X270863666Y-42763253D01*
X270684497Y-42817604D01*
X270519376Y-42905862D01*
X270519373Y-42905864D01*
X270374642Y-43024642D01*
X270255864Y-43169373D01*
X270255862Y-43169376D01*
X270167604Y-43334497D01*
X270113253Y-43513666D01*
X270113252Y-43513668D01*
X270094901Y-43700000D01*
X252034817Y-43700000D01*
X252002841Y-43675464D01*
X251856762Y-43614956D01*
X251856760Y-43614955D01*
X251700001Y-43594318D01*
X251699999Y-43594318D01*
X251543239Y-43614955D01*
X251543237Y-43614956D01*
X251397160Y-43675463D01*
X251271718Y-43771718D01*
X251175463Y-43897160D01*
X251114956Y-44043237D01*
X251114955Y-44043239D01*
X251094318Y-44199998D01*
X251094318Y-44200001D01*
X251103246Y-44267818D01*
X251092480Y-44336853D01*
X251067988Y-44371684D01*
X250451493Y-44988181D01*
X250390170Y-45021666D01*
X250363812Y-45024500D01*
X243404225Y-45024500D01*
X243337186Y-45004815D01*
X243291431Y-44952011D01*
X243281487Y-44882853D01*
X243308371Y-44821836D01*
X243340387Y-44782822D01*
X243427685Y-44676450D01*
X243525232Y-44493954D01*
X243585300Y-44295934D01*
X243605583Y-44090000D01*
X243585300Y-43884066D01*
X243525232Y-43686046D01*
X243427685Y-43503550D01*
X243375702Y-43440209D01*
X243296410Y-43343589D01*
X243136452Y-43212317D01*
X243136453Y-43212317D01*
X243136450Y-43212315D01*
X242954573Y-43115099D01*
X242953956Y-43114769D01*
X242953955Y-43114768D01*
X242953954Y-43114768D01*
X242755934Y-43054700D01*
X242755932Y-43054699D01*
X242755934Y-43054699D01*
X242550000Y-43034417D01*
X242344067Y-43054699D01*
X242146043Y-43114769D01*
X242035898Y-43173643D01*
X241963550Y-43212315D01*
X241963548Y-43212316D01*
X241963547Y-43212317D01*
X241803589Y-43343589D01*
X241672317Y-43503547D01*
X241672315Y-43503550D01*
X241633643Y-43575898D01*
X241574769Y-43686043D01*
X241514699Y-43884067D01*
X241494417Y-44090000D01*
X241514699Y-44295932D01*
X241538576Y-44374643D01*
X241574768Y-44493954D01*
X241672315Y-44676450D01*
X241672317Y-44676452D01*
X241791629Y-44821836D01*
X241818941Y-44886146D01*
X241807150Y-44955013D01*
X241759997Y-45006573D01*
X241695775Y-45024500D01*
X241456188Y-45024500D01*
X241389149Y-45004815D01*
X241368507Y-44988181D01*
X241011321Y-44630995D01*
X240977836Y-44569672D01*
X240982820Y-44499980D01*
X240984446Y-44495850D01*
X240985227Y-44493962D01*
X240985232Y-44493954D01*
X241045300Y-44295934D01*
X241065583Y-44090000D01*
X241045300Y-43884066D01*
X240985232Y-43686046D01*
X240887685Y-43503550D01*
X240835702Y-43440209D01*
X240756410Y-43343589D01*
X240596452Y-43212317D01*
X240596453Y-43212317D01*
X240596450Y-43212315D01*
X240414573Y-43115099D01*
X240413956Y-43114769D01*
X240413955Y-43114768D01*
X240413954Y-43114768D01*
X240215934Y-43054700D01*
X240215932Y-43054699D01*
X240215934Y-43054699D01*
X240010000Y-43034417D01*
X239804067Y-43054699D01*
X239606043Y-43114769D01*
X239495898Y-43173643D01*
X239423550Y-43212315D01*
X239423548Y-43212316D01*
X239423547Y-43212317D01*
X239263589Y-43343589D01*
X239132317Y-43503547D01*
X239132315Y-43503550D01*
X239093643Y-43575898D01*
X239034769Y-43686043D01*
X238974699Y-43884067D01*
X238954417Y-44090000D01*
X238974699Y-44295932D01*
X238998576Y-44374643D01*
X239034768Y-44493954D01*
X239132315Y-44676450D01*
X239132317Y-44676452D01*
X239263589Y-44836410D01*
X239360209Y-44915702D01*
X239423550Y-44967685D01*
X239606046Y-45065232D01*
X239804066Y-45125300D01*
X239804065Y-45125300D01*
X239822529Y-45127118D01*
X240010000Y-45145583D01*
X240215934Y-45125300D01*
X240413954Y-45065232D01*
X240413962Y-45065227D01*
X240415850Y-45064446D01*
X240416924Y-45064330D01*
X240419784Y-45063463D01*
X240419948Y-45064004D01*
X240485318Y-45056970D01*
X240547801Y-45088238D01*
X240550995Y-45091321D01*
X241027863Y-45568189D01*
X241031518Y-45572178D01*
X241057541Y-45603190D01*
X241057543Y-45603191D01*
X241057545Y-45603194D01*
X241057547Y-45603195D01*
X241057548Y-45603196D01*
X241092599Y-45623433D01*
X241097162Y-45626339D01*
X241130316Y-45649554D01*
X241130319Y-45649554D01*
X241135176Y-45651820D01*
X241151933Y-45658760D01*
X241156950Y-45660586D01*
X241156952Y-45660586D01*
X241156955Y-45660588D01*
X241196818Y-45667616D01*
X241202076Y-45668782D01*
X241241193Y-45679264D01*
X241281518Y-45675735D01*
X241286922Y-45675500D01*
X241712317Y-45675500D01*
X241779356Y-45695185D01*
X241825111Y-45747989D01*
X241835055Y-45817147D01*
X241807024Y-45878526D01*
X241807455Y-45878880D01*
X241806119Y-45880507D01*
X241806030Y-45880703D01*
X241805430Y-45881346D01*
X241672317Y-46043547D01*
X241672315Y-46043550D01*
X241633643Y-46115898D01*
X241574769Y-46226043D01*
X241514699Y-46424067D01*
X241494417Y-46630000D01*
X241514699Y-46835932D01*
X241514700Y-46835934D01*
X241574768Y-47033954D01*
X241672315Y-47216450D01*
X241672317Y-47216452D01*
X241803589Y-47376410D01*
X241863232Y-47425357D01*
X241963550Y-47507685D01*
X242111269Y-47586643D01*
X242161112Y-47635605D01*
X242176572Y-47703742D01*
X242152740Y-47769422D01*
X242097182Y-47811791D01*
X242052815Y-47820000D01*
X241900029Y-47820000D01*
X241900012Y-47820001D01*
X241797302Y-47830494D01*
X241630880Y-47885641D01*
X241630875Y-47885643D01*
X241481654Y-47977684D01*
X241357684Y-48101654D01*
X241265643Y-48250875D01*
X241265641Y-48250880D01*
X241210494Y-48417302D01*
X241210493Y-48417309D01*
X241200000Y-48520013D01*
X241200000Y-48672813D01*
X241180315Y-48739852D01*
X241127511Y-48785607D01*
X241058353Y-48795551D01*
X240994797Y-48766526D01*
X240966642Y-48731267D01*
X240887685Y-48583550D01*
X240814305Y-48494136D01*
X240756410Y-48423589D01*
X240596452Y-48292317D01*
X240596453Y-48292317D01*
X240596450Y-48292315D01*
X240413954Y-48194768D01*
X240215934Y-48134700D01*
X240215932Y-48134699D01*
X240215934Y-48134699D01*
X240010000Y-48114417D01*
X239804067Y-48134699D01*
X239606043Y-48194769D01*
X239538961Y-48230626D01*
X239423550Y-48292315D01*
X239423548Y-48292316D01*
X239423547Y-48292317D01*
X239263589Y-48423589D01*
X239132317Y-48583547D01*
X239034769Y-48766043D01*
X238974699Y-48964067D01*
X238954417Y-49170000D01*
X230550000Y-49170000D01*
X230550000Y-46630000D01*
X238954417Y-46630000D01*
X238974699Y-46835932D01*
X238974700Y-46835934D01*
X239034768Y-47033954D01*
X239132315Y-47216450D01*
X239132317Y-47216452D01*
X239263589Y-47376410D01*
X239323232Y-47425357D01*
X239423550Y-47507685D01*
X239606046Y-47605232D01*
X239804066Y-47665300D01*
X239804065Y-47665300D01*
X239822529Y-47667118D01*
X240010000Y-47685583D01*
X240215934Y-47665300D01*
X240413954Y-47605232D01*
X240596450Y-47507685D01*
X240756410Y-47376410D01*
X240887685Y-47216450D01*
X240985232Y-47033954D01*
X241045300Y-46835934D01*
X241065583Y-46630000D01*
X241045300Y-46424066D01*
X240985232Y-46226046D01*
X240887685Y-46043550D01*
X240835702Y-45980209D01*
X240756410Y-45883589D01*
X240596452Y-45752317D01*
X240596453Y-45752317D01*
X240596450Y-45752315D01*
X240413954Y-45654768D01*
X240215934Y-45594700D01*
X240215932Y-45594699D01*
X240215934Y-45594699D01*
X240010000Y-45574417D01*
X239804067Y-45594699D01*
X239628692Y-45647898D01*
X239610830Y-45653317D01*
X239606043Y-45654769D01*
X239495898Y-45713643D01*
X239423550Y-45752315D01*
X239423548Y-45752316D01*
X239423547Y-45752317D01*
X239263589Y-45883589D01*
X239132317Y-46043547D01*
X239132315Y-46043550D01*
X239093643Y-46115898D01*
X239034769Y-46226043D01*
X238974699Y-46424067D01*
X238954417Y-46630000D01*
X230550000Y-46630000D01*
X230550000Y-41550000D01*
X238954417Y-41550000D01*
X238974699Y-41755932D01*
X238997356Y-41830623D01*
X239034768Y-41953954D01*
X239132315Y-42136450D01*
X239132317Y-42136452D01*
X239263589Y-42296410D01*
X239360209Y-42375702D01*
X239423550Y-42427685D01*
X239606046Y-42525232D01*
X239804066Y-42585300D01*
X239804065Y-42585300D01*
X239814554Y-42586333D01*
X240010000Y-42605583D01*
X240215934Y-42585300D01*
X240413954Y-42525232D01*
X240596450Y-42427685D01*
X240756410Y-42296410D01*
X240887685Y-42136450D01*
X240985232Y-41953954D01*
X241045300Y-41755934D01*
X241065583Y-41550000D01*
X241494417Y-41550000D01*
X241514699Y-41755932D01*
X241537356Y-41830623D01*
X241574768Y-41953954D01*
X241672315Y-42136450D01*
X241672317Y-42136452D01*
X241803589Y-42296410D01*
X241900209Y-42375702D01*
X241963550Y-42427685D01*
X242146046Y-42525232D01*
X242344066Y-42585300D01*
X242344065Y-42585300D01*
X242354554Y-42586333D01*
X242550000Y-42605583D01*
X242755934Y-42585300D01*
X242953954Y-42525232D01*
X243136450Y-42427685D01*
X243170184Y-42400000D01*
X247594901Y-42400000D01*
X247613252Y-42586331D01*
X247613253Y-42586333D01*
X247667604Y-42765502D01*
X247755862Y-42930623D01*
X247755864Y-42930626D01*
X247874642Y-43075357D01*
X248019373Y-43194135D01*
X248019376Y-43194137D01*
X248053389Y-43212317D01*
X248184499Y-43282396D01*
X248363666Y-43336746D01*
X248363668Y-43336747D01*
X248380374Y-43338392D01*
X248550000Y-43355099D01*
X248736331Y-43336747D01*
X248915501Y-43282396D01*
X249080625Y-43194136D01*
X249225357Y-43075357D01*
X249344136Y-42930625D01*
X249432396Y-42765501D01*
X249486747Y-42586331D01*
X249505099Y-42400000D01*
X250244901Y-42400000D01*
X250263252Y-42586331D01*
X250263253Y-42586333D01*
X250317604Y-42765502D01*
X250405862Y-42930623D01*
X250405864Y-42930626D01*
X250524642Y-43075357D01*
X250669373Y-43194135D01*
X250669376Y-43194137D01*
X250703389Y-43212317D01*
X250834499Y-43282396D01*
X251013666Y-43336746D01*
X251013668Y-43336747D01*
X251030374Y-43338392D01*
X251200000Y-43355099D01*
X251386331Y-43336747D01*
X251565501Y-43282396D01*
X251730625Y-43194136D01*
X251875357Y-43075357D01*
X251994136Y-42930625D01*
X252082396Y-42765501D01*
X252136747Y-42586331D01*
X252155099Y-42400000D01*
X252136747Y-42213669D01*
X252082396Y-42034499D01*
X252082395Y-42034497D01*
X251994137Y-41869376D01*
X251994135Y-41869373D01*
X251875357Y-41724642D01*
X251730626Y-41605864D01*
X251730623Y-41605862D01*
X251565502Y-41517604D01*
X251386333Y-41463253D01*
X251386331Y-41463252D01*
X251251774Y-41450000D01*
X252644901Y-41450000D01*
X252663252Y-41636331D01*
X252663253Y-41636333D01*
X252717604Y-41815502D01*
X252805862Y-41980623D01*
X252805864Y-41980626D01*
X252924642Y-42125357D01*
X253069373Y-42244135D01*
X253069376Y-42244137D01*
X253089885Y-42255099D01*
X253234499Y-42332396D01*
X253413666Y-42386746D01*
X253413668Y-42386747D01*
X253430374Y-42388392D01*
X253600000Y-42405099D01*
X253786331Y-42386747D01*
X253965501Y-42332396D01*
X254130625Y-42244136D01*
X254233145Y-42160000D01*
X262282901Y-42160000D01*
X262301252Y-42346331D01*
X262301253Y-42346333D01*
X262355604Y-42525502D01*
X262443862Y-42690623D01*
X262443864Y-42690626D01*
X262562642Y-42835357D01*
X262707373Y-42954135D01*
X262707376Y-42954137D01*
X262839283Y-43024642D01*
X262872499Y-43042396D01*
X263051666Y-43096746D01*
X263051668Y-43096747D01*
X263068374Y-43098392D01*
X263238000Y-43115099D01*
X263424331Y-43096747D01*
X263603501Y-43042396D01*
X263768625Y-42954136D01*
X263913357Y-42835357D01*
X264032136Y-42690625D01*
X264120396Y-42525501D01*
X264174747Y-42346331D01*
X264193099Y-42160000D01*
X265076901Y-42160000D01*
X265095252Y-42346331D01*
X265095253Y-42346333D01*
X265149604Y-42525502D01*
X265237862Y-42690623D01*
X265237864Y-42690626D01*
X265356642Y-42835357D01*
X265501373Y-42954135D01*
X265501376Y-42954137D01*
X265633283Y-43024642D01*
X265666499Y-43042396D01*
X265845666Y-43096746D01*
X265845668Y-43096747D01*
X265862374Y-43098392D01*
X266032000Y-43115099D01*
X266218331Y-43096747D01*
X266397501Y-43042396D01*
X266562625Y-42954136D01*
X266707357Y-42835357D01*
X266826136Y-42690625D01*
X266914396Y-42525501D01*
X266968747Y-42346331D01*
X266987099Y-42160000D01*
X267870901Y-42160000D01*
X267889252Y-42346331D01*
X267889253Y-42346333D01*
X267943604Y-42525502D01*
X268031862Y-42690623D01*
X268031864Y-42690626D01*
X268150642Y-42835357D01*
X268295373Y-42954135D01*
X268295376Y-42954137D01*
X268427283Y-43024642D01*
X268460499Y-43042396D01*
X268639666Y-43096746D01*
X268639668Y-43096747D01*
X268656374Y-43098392D01*
X268826000Y-43115099D01*
X269012331Y-43096747D01*
X269191501Y-43042396D01*
X269356625Y-42954136D01*
X269501357Y-42835357D01*
X269620136Y-42690625D01*
X269708396Y-42525501D01*
X269762747Y-42346331D01*
X269781099Y-42160000D01*
X269762747Y-41973669D01*
X269708396Y-41794499D01*
X269687782Y-41755932D01*
X269620137Y-41629376D01*
X269620135Y-41629373D01*
X269501357Y-41484642D01*
X269356626Y-41365864D01*
X269356623Y-41365862D01*
X269233402Y-41300000D01*
X271294901Y-41300000D01*
X271313252Y-41486331D01*
X271313253Y-41486333D01*
X271367604Y-41665502D01*
X271455862Y-41830623D01*
X271455864Y-41830626D01*
X271574642Y-41975357D01*
X271719373Y-42094135D01*
X271719376Y-42094137D01*
X271884497Y-42182395D01*
X271884499Y-42182396D01*
X271987592Y-42213669D01*
X272063666Y-42236746D01*
X272063668Y-42236747D01*
X272080374Y-42238392D01*
X272250000Y-42255099D01*
X272436331Y-42236747D01*
X272615501Y-42182396D01*
X272780625Y-42094136D01*
X272925357Y-41975357D01*
X273044136Y-41830625D01*
X273132396Y-41665501D01*
X273186747Y-41486331D01*
X273205099Y-41300000D01*
X273186747Y-41113669D01*
X273132396Y-40934499D01*
X273124311Y-40919373D01*
X273044137Y-40769376D01*
X273044135Y-40769373D01*
X272925357Y-40624642D01*
X272780626Y-40505864D01*
X272780623Y-40505862D01*
X272615502Y-40417604D01*
X272436333Y-40363253D01*
X272436331Y-40363252D01*
X272250000Y-40344901D01*
X272063668Y-40363252D01*
X272063666Y-40363253D01*
X271884497Y-40417604D01*
X271719376Y-40505862D01*
X271719373Y-40505864D01*
X271574642Y-40624642D01*
X271455864Y-40769373D01*
X271455862Y-40769376D01*
X271367604Y-40934497D01*
X271313253Y-41113666D01*
X271313252Y-41113668D01*
X271294901Y-41300000D01*
X269233402Y-41300000D01*
X269191502Y-41277604D01*
X269012333Y-41223253D01*
X269012331Y-41223252D01*
X268826000Y-41204901D01*
X268639668Y-41223252D01*
X268639666Y-41223253D01*
X268460497Y-41277604D01*
X268295376Y-41365862D01*
X268295373Y-41365864D01*
X268150642Y-41484642D01*
X268031864Y-41629373D01*
X268031862Y-41629376D01*
X267943604Y-41794497D01*
X267889253Y-41973666D01*
X267889252Y-41973668D01*
X267870901Y-42160000D01*
X266987099Y-42160000D01*
X266968747Y-41973669D01*
X266914396Y-41794499D01*
X266893782Y-41755932D01*
X266826137Y-41629376D01*
X266826135Y-41629373D01*
X266707357Y-41484642D01*
X266562626Y-41365864D01*
X266562623Y-41365862D01*
X266397502Y-41277604D01*
X266218333Y-41223253D01*
X266218331Y-41223252D01*
X266032000Y-41204901D01*
X265845668Y-41223252D01*
X265845666Y-41223253D01*
X265666497Y-41277604D01*
X265501376Y-41365862D01*
X265501373Y-41365864D01*
X265356642Y-41484642D01*
X265237864Y-41629373D01*
X265237862Y-41629376D01*
X265149604Y-41794497D01*
X265095253Y-41973666D01*
X265095252Y-41973668D01*
X265076901Y-42160000D01*
X264193099Y-42160000D01*
X264174747Y-41973669D01*
X264120396Y-41794499D01*
X264099782Y-41755932D01*
X264032137Y-41629376D01*
X264032135Y-41629373D01*
X263913357Y-41484642D01*
X263768626Y-41365864D01*
X263768623Y-41365862D01*
X263603502Y-41277604D01*
X263424333Y-41223253D01*
X263424331Y-41223252D01*
X263238000Y-41204901D01*
X263051668Y-41223252D01*
X263051666Y-41223253D01*
X262872497Y-41277604D01*
X262707376Y-41365862D01*
X262707373Y-41365864D01*
X262562642Y-41484642D01*
X262443864Y-41629373D01*
X262443862Y-41629376D01*
X262355604Y-41794497D01*
X262301253Y-41973666D01*
X262301252Y-41973668D01*
X262282901Y-42160000D01*
X254233145Y-42160000D01*
X254275357Y-42125357D01*
X254394136Y-41980625D01*
X254482396Y-41815501D01*
X254536747Y-41636331D01*
X254555099Y-41450000D01*
X254536747Y-41263669D01*
X254482396Y-41084499D01*
X254417748Y-40963550D01*
X254394137Y-40919376D01*
X254394135Y-40919373D01*
X254275357Y-40774642D01*
X254130626Y-40655864D01*
X254130623Y-40655862D01*
X253965502Y-40567604D01*
X253786333Y-40513253D01*
X253786331Y-40513252D01*
X253600000Y-40494901D01*
X253413668Y-40513252D01*
X253413666Y-40513253D01*
X253234497Y-40567604D01*
X253069376Y-40655862D01*
X253069373Y-40655864D01*
X252924642Y-40774642D01*
X252805864Y-40919373D01*
X252805862Y-40919376D01*
X252717604Y-41084497D01*
X252663253Y-41263666D01*
X252663252Y-41263668D01*
X252644901Y-41450000D01*
X251251774Y-41450000D01*
X251200000Y-41444901D01*
X251013668Y-41463252D01*
X251013666Y-41463253D01*
X250834497Y-41517604D01*
X250669376Y-41605862D01*
X250669373Y-41605864D01*
X250524642Y-41724642D01*
X250405864Y-41869373D01*
X250405862Y-41869376D01*
X250317604Y-42034497D01*
X250263253Y-42213666D01*
X250263252Y-42213668D01*
X250244901Y-42400000D01*
X249505099Y-42400000D01*
X249486747Y-42213669D01*
X249432396Y-42034499D01*
X249432395Y-42034497D01*
X249344137Y-41869376D01*
X249344135Y-41869373D01*
X249225357Y-41724642D01*
X249080626Y-41605864D01*
X249080623Y-41605862D01*
X248915502Y-41517604D01*
X248736333Y-41463253D01*
X248736331Y-41463252D01*
X248550000Y-41444901D01*
X248363668Y-41463252D01*
X248363666Y-41463253D01*
X248184497Y-41517604D01*
X248019376Y-41605862D01*
X248019373Y-41605864D01*
X247874642Y-41724642D01*
X247755864Y-41869373D01*
X247755862Y-41869376D01*
X247667604Y-42034497D01*
X247613253Y-42213666D01*
X247613252Y-42213668D01*
X247594901Y-42400000D01*
X243170184Y-42400000D01*
X243296410Y-42296410D01*
X243427685Y-42136450D01*
X243525232Y-41953954D01*
X243585300Y-41755934D01*
X243605583Y-41550000D01*
X243585300Y-41344066D01*
X243525232Y-41146046D01*
X243427685Y-40963550D01*
X243375702Y-40900209D01*
X243296410Y-40803589D01*
X243136452Y-40672317D01*
X243136453Y-40672317D01*
X243136450Y-40672315D01*
X242953954Y-40574768D01*
X242755934Y-40514700D01*
X242755932Y-40514699D01*
X242755934Y-40514699D01*
X242550000Y-40494417D01*
X242344067Y-40514699D01*
X242146043Y-40574769D01*
X242052739Y-40624642D01*
X241963550Y-40672315D01*
X241963548Y-40672316D01*
X241963547Y-40672317D01*
X241803589Y-40803589D01*
X241672317Y-40963547D01*
X241574769Y-41146043D01*
X241514699Y-41344067D01*
X241494417Y-41550000D01*
X241065583Y-41550000D01*
X241045300Y-41344066D01*
X240985232Y-41146046D01*
X240887685Y-40963550D01*
X240835702Y-40900209D01*
X240756410Y-40803589D01*
X240596452Y-40672317D01*
X240596453Y-40672317D01*
X240596450Y-40672315D01*
X240413954Y-40574768D01*
X240215934Y-40514700D01*
X240215932Y-40514699D01*
X240215934Y-40514699D01*
X240010000Y-40494417D01*
X239804067Y-40514699D01*
X239606043Y-40574769D01*
X239512739Y-40624642D01*
X239423550Y-40672315D01*
X239423548Y-40672316D01*
X239423547Y-40672317D01*
X239263589Y-40803589D01*
X239132317Y-40963547D01*
X239034769Y-41146043D01*
X238974699Y-41344067D01*
X238954417Y-41550000D01*
X230550000Y-41550000D01*
X230550000Y-39700000D01*
X247894901Y-39700000D01*
X247913252Y-39886331D01*
X247913253Y-39886333D01*
X247967604Y-40065502D01*
X248055862Y-40230623D01*
X248055864Y-40230626D01*
X248174642Y-40375357D01*
X248319373Y-40494135D01*
X248319376Y-40494137D01*
X248456825Y-40567604D01*
X248484499Y-40582396D01*
X248623768Y-40624643D01*
X248663666Y-40636746D01*
X248663668Y-40636747D01*
X248680374Y-40638392D01*
X248850000Y-40655099D01*
X249036331Y-40636747D01*
X249215501Y-40582396D01*
X249380625Y-40494136D01*
X249525357Y-40375357D01*
X249644136Y-40230625D01*
X249732396Y-40065501D01*
X249786747Y-39886331D01*
X249805099Y-39700000D01*
X249786747Y-39513669D01*
X249732396Y-39334499D01*
X249644136Y-39169375D01*
X249644135Y-39169373D01*
X249525357Y-39024642D01*
X249380626Y-38905864D01*
X249380623Y-38905862D01*
X249215502Y-38817604D01*
X249036333Y-38763253D01*
X249036331Y-38763252D01*
X248850000Y-38744901D01*
X248663668Y-38763252D01*
X248663666Y-38763253D01*
X248484497Y-38817604D01*
X248319376Y-38905862D01*
X248319373Y-38905864D01*
X248174642Y-39024642D01*
X248055864Y-39169373D01*
X248055862Y-39169376D01*
X247967604Y-39334497D01*
X247913253Y-39513666D01*
X247913252Y-39513668D01*
X247894901Y-39700000D01*
X230550000Y-39700000D01*
X230550000Y-37000000D01*
X247894901Y-37000000D01*
X247913252Y-37186331D01*
X247913253Y-37186333D01*
X247967604Y-37365502D01*
X248055862Y-37530623D01*
X248055864Y-37530626D01*
X248174642Y-37675357D01*
X248319373Y-37794135D01*
X248319376Y-37794137D01*
X248484497Y-37882395D01*
X248484499Y-37882396D01*
X248663666Y-37936746D01*
X248663668Y-37936747D01*
X248680374Y-37938392D01*
X248850000Y-37955099D01*
X249036331Y-37936747D01*
X249215501Y-37882396D01*
X249380625Y-37794136D01*
X249525357Y-37675357D01*
X249644136Y-37530625D01*
X249732396Y-37365501D01*
X249786747Y-37186331D01*
X249805099Y-37000000D01*
X249786747Y-36813669D01*
X249732396Y-36634499D01*
X249682203Y-36540594D01*
X249644137Y-36469376D01*
X249644135Y-36469373D01*
X249525357Y-36324642D01*
X249380626Y-36205864D01*
X249380623Y-36205862D01*
X249215502Y-36117604D01*
X249036333Y-36063253D01*
X249036331Y-36063252D01*
X248850000Y-36044901D01*
X248663668Y-36063252D01*
X248663666Y-36063253D01*
X248484497Y-36117604D01*
X248319376Y-36205862D01*
X248319373Y-36205864D01*
X248174642Y-36324642D01*
X248055864Y-36469373D01*
X248055862Y-36469376D01*
X247967604Y-36634497D01*
X247913253Y-36813666D01*
X247913252Y-36813668D01*
X247894901Y-37000000D01*
X230550000Y-37000000D01*
X230550000Y-34968321D01*
X231321038Y-34968321D01*
X231340061Y-35234306D01*
X231396742Y-35494860D01*
X231396744Y-35494867D01*
X231454602Y-35649993D01*
X231489932Y-35744716D01*
X231489934Y-35744720D01*
X231617725Y-35978751D01*
X231617730Y-35978759D01*
X231777526Y-36192222D01*
X231777542Y-36192240D01*
X231966079Y-36380777D01*
X231966097Y-36380793D01*
X232179560Y-36540589D01*
X232179568Y-36540594D01*
X232413599Y-36668385D01*
X232413603Y-36668387D01*
X232413605Y-36668388D01*
X232663453Y-36761576D01*
X232793736Y-36789917D01*
X232924013Y-36818258D01*
X232924015Y-36818258D01*
X232924019Y-36818259D01*
X233160386Y-36835164D01*
X233189999Y-36837282D01*
X233190000Y-36837282D01*
X233190001Y-36837282D01*
X233216647Y-36835376D01*
X233455981Y-36818259D01*
X233477086Y-36813668D01*
X233493413Y-36810115D01*
X233716547Y-36761576D01*
X233966395Y-36668388D01*
X234200437Y-36540591D01*
X234413910Y-36380787D01*
X234602467Y-36192230D01*
X234762271Y-35978757D01*
X234890068Y-35744715D01*
X234983256Y-35494867D01*
X235039939Y-35234301D01*
X235058962Y-34968320D01*
X235039939Y-34702339D01*
X234983256Y-34441773D01*
X234890068Y-34191925D01*
X234762271Y-33957883D01*
X234762269Y-33957880D01*
X234602473Y-33744417D01*
X234602457Y-33744399D01*
X234413920Y-33555862D01*
X234413902Y-33555846D01*
X234200439Y-33396050D01*
X234200431Y-33396045D01*
X233966400Y-33268254D01*
X233966396Y-33268252D01*
X233871673Y-33232922D01*
X233716547Y-33175064D01*
X233716543Y-33175063D01*
X233716540Y-33175062D01*
X233455986Y-33118381D01*
X233190001Y-33099358D01*
X233189999Y-33099358D01*
X232924013Y-33118381D01*
X232663459Y-33175062D01*
X232663454Y-33175063D01*
X232663453Y-33175064D01*
X232603048Y-33197593D01*
X232413603Y-33268252D01*
X232413599Y-33268254D01*
X232179568Y-33396045D01*
X232179560Y-33396050D01*
X231966097Y-33555846D01*
X231966079Y-33555862D01*
X231777542Y-33744399D01*
X231777526Y-33744417D01*
X231617730Y-33957880D01*
X231617725Y-33957888D01*
X231489934Y-34191919D01*
X231489932Y-34191923D01*
X231396742Y-34441779D01*
X231340061Y-34702333D01*
X231321038Y-34968318D01*
X231321038Y-34968321D01*
X230550000Y-34968321D01*
X230550000Y-31100000D01*
X247744901Y-31100000D01*
X247763252Y-31286331D01*
X247763253Y-31286333D01*
X247817604Y-31465502D01*
X247905862Y-31630623D01*
X247905864Y-31630626D01*
X248024642Y-31775357D01*
X248169373Y-31894135D01*
X248169376Y-31894137D01*
X248334497Y-31982395D01*
X248334499Y-31982396D01*
X248513666Y-32036746D01*
X248513668Y-32036747D01*
X248530374Y-32038392D01*
X248700000Y-32055099D01*
X248886331Y-32036747D01*
X249065501Y-31982396D01*
X249230625Y-31894136D01*
X249375357Y-31775357D01*
X249494136Y-31630625D01*
X249582396Y-31465501D01*
X249636747Y-31286331D01*
X249655099Y-31100000D01*
X249636747Y-30913669D01*
X249582396Y-30734499D01*
X249494136Y-30569375D01*
X249494135Y-30569373D01*
X249375357Y-30424642D01*
X249230626Y-30305864D01*
X249230623Y-30305862D01*
X249065502Y-30217604D01*
X248886333Y-30163253D01*
X248886331Y-30163252D01*
X248700000Y-30144901D01*
X248513668Y-30163252D01*
X248513666Y-30163253D01*
X248334497Y-30217604D01*
X248169376Y-30305862D01*
X248169373Y-30305864D01*
X248024642Y-30424642D01*
X247905864Y-30569373D01*
X247905862Y-30569376D01*
X247817604Y-30734497D01*
X247763253Y-30913666D01*
X247763252Y-30913668D01*
X247744901Y-31100000D01*
X230550000Y-31100000D01*
X230550000Y-28800000D01*
X269344901Y-28800000D01*
X269363252Y-28986331D01*
X269363253Y-28986333D01*
X269417604Y-29165502D01*
X269505862Y-29330623D01*
X269505864Y-29330626D01*
X269624642Y-29475357D01*
X269769373Y-29594135D01*
X269769376Y-29594137D01*
X269934497Y-29682395D01*
X269934499Y-29682396D01*
X270113666Y-29736746D01*
X270113668Y-29736747D01*
X270130374Y-29738392D01*
X270300000Y-29755099D01*
X270486331Y-29736747D01*
X270665501Y-29682396D01*
X270830625Y-29594136D01*
X270975357Y-29475357D01*
X271094136Y-29330625D01*
X271182396Y-29165501D01*
X271236747Y-28986331D01*
X271255099Y-28800000D01*
X271236747Y-28613669D01*
X271182396Y-28434499D01*
X271154546Y-28382395D01*
X271094137Y-28269376D01*
X271094135Y-28269373D01*
X270975357Y-28124642D01*
X270830626Y-28005864D01*
X270830623Y-28005862D01*
X270665502Y-27917604D01*
X270486333Y-27863253D01*
X270486331Y-27863252D01*
X270300000Y-27844901D01*
X270113668Y-27863252D01*
X270113666Y-27863253D01*
X269934497Y-27917604D01*
X269769376Y-28005862D01*
X269769373Y-28005864D01*
X269624642Y-28124642D01*
X269505864Y-28269373D01*
X269505862Y-28269376D01*
X269417604Y-28434497D01*
X269363253Y-28613666D01*
X269363252Y-28613668D01*
X269344901Y-28800000D01*
X230550000Y-28800000D01*
X230550000Y-27500000D01*
X271644901Y-27500000D01*
X271663252Y-27686331D01*
X271663253Y-27686333D01*
X271717604Y-27865502D01*
X271805862Y-28030623D01*
X271805864Y-28030626D01*
X271924642Y-28175357D01*
X272069373Y-28294135D01*
X272069376Y-28294137D01*
X272234497Y-28382395D01*
X272234499Y-28382396D01*
X272413666Y-28436746D01*
X272413668Y-28436747D01*
X272430374Y-28438392D01*
X272600000Y-28455099D01*
X272786331Y-28436747D01*
X272965501Y-28382396D01*
X273130625Y-28294136D01*
X273275357Y-28175357D01*
X273394136Y-28030625D01*
X273482396Y-27865501D01*
X273536747Y-27686331D01*
X273555099Y-27500000D01*
X273536747Y-27313669D01*
X273482396Y-27134499D01*
X273394136Y-26969375D01*
X273394135Y-26969373D01*
X273275357Y-26824642D01*
X273130626Y-26705864D01*
X273130623Y-26705862D01*
X272965502Y-26617604D01*
X272786333Y-26563253D01*
X272786331Y-26563252D01*
X272600000Y-26544901D01*
X272413668Y-26563252D01*
X272413666Y-26563253D01*
X272234497Y-26617604D01*
X272069376Y-26705862D01*
X272069373Y-26705864D01*
X271924642Y-26824642D01*
X271805864Y-26969373D01*
X271805862Y-26969376D01*
X271717604Y-27134497D01*
X271663253Y-27313666D01*
X271663252Y-27313668D01*
X271644901Y-27500000D01*
X230550000Y-27500000D01*
X230550000Y-25900000D01*
X269544901Y-25900000D01*
X269563252Y-26086331D01*
X269563253Y-26086333D01*
X269617604Y-26265502D01*
X269705862Y-26430623D01*
X269705864Y-26430626D01*
X269824642Y-26575357D01*
X269969373Y-26694135D01*
X269969376Y-26694137D01*
X270134497Y-26782395D01*
X270134499Y-26782396D01*
X270273768Y-26824643D01*
X270313666Y-26836746D01*
X270313668Y-26836747D01*
X270330374Y-26838392D01*
X270500000Y-26855099D01*
X270686331Y-26836747D01*
X270865501Y-26782396D01*
X271030625Y-26694136D01*
X271175357Y-26575357D01*
X271294136Y-26430625D01*
X271382396Y-26265501D01*
X271436747Y-26086331D01*
X271455099Y-25900000D01*
X271436747Y-25713669D01*
X271382396Y-25534499D01*
X271294136Y-25369375D01*
X271294135Y-25369373D01*
X271175357Y-25224642D01*
X271030626Y-25105864D01*
X271030623Y-25105862D01*
X270865502Y-25017604D01*
X270686333Y-24963253D01*
X270686331Y-24963252D01*
X270500000Y-24944901D01*
X270313668Y-24963252D01*
X270313666Y-24963253D01*
X270134497Y-25017604D01*
X269969376Y-25105862D01*
X269969373Y-25105864D01*
X269824642Y-25224642D01*
X269705864Y-25369373D01*
X269705862Y-25369376D01*
X269617604Y-25534497D01*
X269563253Y-25713666D01*
X269563252Y-25713668D01*
X269544901Y-25900000D01*
X230550000Y-25900000D01*
X230550000Y-24400000D01*
X271544901Y-24400000D01*
X271563252Y-24586331D01*
X271563253Y-24586333D01*
X271617604Y-24765502D01*
X271705862Y-24930623D01*
X271705864Y-24930626D01*
X271824642Y-25075357D01*
X271969373Y-25194135D01*
X271969376Y-25194137D01*
X272134497Y-25282395D01*
X272134499Y-25282396D01*
X272313666Y-25336746D01*
X272313668Y-25336747D01*
X272330374Y-25338392D01*
X272500000Y-25355099D01*
X272686331Y-25336747D01*
X272865501Y-25282396D01*
X273030625Y-25194136D01*
X273175357Y-25075357D01*
X273294136Y-24930625D01*
X273382396Y-24765501D01*
X273436747Y-24586331D01*
X273455099Y-24400000D01*
X273436747Y-24213669D01*
X273382396Y-24034499D01*
X273354546Y-23982395D01*
X273294137Y-23869376D01*
X273294135Y-23869373D01*
X273175357Y-23724642D01*
X273030626Y-23605864D01*
X273030623Y-23605862D01*
X272865502Y-23517604D01*
X272686333Y-23463253D01*
X272686331Y-23463252D01*
X272500000Y-23444901D01*
X272313668Y-23463252D01*
X272313666Y-23463253D01*
X272134497Y-23517604D01*
X271969376Y-23605862D01*
X271969373Y-23605864D01*
X271824642Y-23724642D01*
X271705864Y-23869373D01*
X271705862Y-23869376D01*
X271617604Y-24034497D01*
X271563253Y-24213666D01*
X271563252Y-24213668D01*
X271544901Y-24400000D01*
X230550000Y-24400000D01*
X230550000Y-21836521D01*
X231321038Y-21836521D01*
X231340061Y-22102506D01*
X231384300Y-22305864D01*
X231396744Y-22363067D01*
X231419711Y-22424643D01*
X231489932Y-22612916D01*
X231489934Y-22612920D01*
X231617725Y-22846951D01*
X231617730Y-22846959D01*
X231777526Y-23060422D01*
X231777542Y-23060440D01*
X231966079Y-23248977D01*
X231966097Y-23248993D01*
X232179560Y-23408789D01*
X232179568Y-23408794D01*
X232413599Y-23536585D01*
X232413603Y-23536587D01*
X232413605Y-23536588D01*
X232663453Y-23629776D01*
X232793736Y-23658117D01*
X232924013Y-23686458D01*
X232924015Y-23686458D01*
X232924019Y-23686459D01*
X233160386Y-23703364D01*
X233189999Y-23705482D01*
X233190000Y-23705482D01*
X233190001Y-23705482D01*
X233216647Y-23703576D01*
X233455981Y-23686459D01*
X233716547Y-23629776D01*
X233966395Y-23536588D01*
X234200437Y-23408791D01*
X234413910Y-23248987D01*
X234562897Y-23100000D01*
X269244901Y-23100000D01*
X269263252Y-23286331D01*
X269263253Y-23286333D01*
X269317604Y-23465502D01*
X269405862Y-23630623D01*
X269405864Y-23630626D01*
X269524642Y-23775357D01*
X269669373Y-23894135D01*
X269669376Y-23894137D01*
X269834497Y-23982395D01*
X269834499Y-23982396D01*
X270013666Y-24036746D01*
X270013668Y-24036747D01*
X270030374Y-24038392D01*
X270200000Y-24055099D01*
X270386331Y-24036747D01*
X270565501Y-23982396D01*
X270730625Y-23894136D01*
X270875357Y-23775357D01*
X270994136Y-23630625D01*
X271082396Y-23465501D01*
X271136747Y-23286331D01*
X271155099Y-23100000D01*
X271136747Y-22913669D01*
X271082396Y-22734499D01*
X271017409Y-22612916D01*
X270994137Y-22569376D01*
X270994135Y-22569373D01*
X270875357Y-22424642D01*
X270730626Y-22305864D01*
X270730623Y-22305862D01*
X270565502Y-22217604D01*
X270386333Y-22163253D01*
X270386331Y-22163252D01*
X270200000Y-22144901D01*
X270013668Y-22163252D01*
X270013666Y-22163253D01*
X269834497Y-22217604D01*
X269669376Y-22305862D01*
X269669373Y-22305864D01*
X269524642Y-22424642D01*
X269405864Y-22569373D01*
X269405862Y-22569376D01*
X269317604Y-22734497D01*
X269263253Y-22913666D01*
X269263252Y-22913668D01*
X269244901Y-23100000D01*
X234562897Y-23100000D01*
X234602467Y-23060430D01*
X234762271Y-22846957D01*
X234890068Y-22612915D01*
X234983256Y-22363067D01*
X235039939Y-22102501D01*
X235058962Y-21836520D01*
X235039939Y-21570539D01*
X234983256Y-21309973D01*
X234890068Y-21060125D01*
X234832719Y-20955099D01*
X234762274Y-20826088D01*
X234762269Y-20826080D01*
X234602473Y-20612617D01*
X234602457Y-20612599D01*
X234413920Y-20424062D01*
X234413902Y-20424046D01*
X234200439Y-20264250D01*
X234200431Y-20264245D01*
X233966400Y-20136454D01*
X233966396Y-20136452D01*
X233871673Y-20101122D01*
X233716547Y-20043264D01*
X233716543Y-20043263D01*
X233716540Y-20043262D01*
X233455986Y-19986581D01*
X233190001Y-19967558D01*
X233189999Y-19967558D01*
X232924013Y-19986581D01*
X232663459Y-20043262D01*
X232663454Y-20043263D01*
X232663453Y-20043264D01*
X232603048Y-20065793D01*
X232413603Y-20136452D01*
X232413599Y-20136454D01*
X232179568Y-20264245D01*
X232179560Y-20264250D01*
X231966097Y-20424046D01*
X231966079Y-20424062D01*
X231777542Y-20612599D01*
X231777526Y-20612617D01*
X231617730Y-20826080D01*
X231617725Y-20826088D01*
X231489934Y-21060119D01*
X231489932Y-21060123D01*
X231396742Y-21309979D01*
X231340061Y-21570533D01*
X231321038Y-21836518D01*
X231321038Y-21836521D01*
X230550000Y-21836521D01*
X230550000Y-19350000D01*
X248744901Y-19350000D01*
X248763252Y-19536331D01*
X248763253Y-19536333D01*
X248817604Y-19715502D01*
X248905862Y-19880623D01*
X248905864Y-19880626D01*
X249024642Y-20025357D01*
X249169373Y-20144135D01*
X249169376Y-20144137D01*
X249334497Y-20232395D01*
X249334499Y-20232396D01*
X249513666Y-20286746D01*
X249513668Y-20286747D01*
X249530374Y-20288392D01*
X249700000Y-20305099D01*
X249886331Y-20286747D01*
X250065501Y-20232396D01*
X250230625Y-20144136D01*
X250375357Y-20025357D01*
X250494136Y-19880625D01*
X250582396Y-19715501D01*
X250636747Y-19536331D01*
X250655099Y-19350000D01*
X251444901Y-19350000D01*
X251463252Y-19536331D01*
X251463253Y-19536333D01*
X251517604Y-19715502D01*
X251605862Y-19880623D01*
X251605864Y-19880626D01*
X251724642Y-20025357D01*
X251869373Y-20144135D01*
X251869376Y-20144137D01*
X252034497Y-20232395D01*
X252034499Y-20232396D01*
X252213666Y-20286746D01*
X252213668Y-20286747D01*
X252230374Y-20288392D01*
X252400000Y-20305099D01*
X252586331Y-20286747D01*
X252765501Y-20232396D01*
X252930625Y-20144136D01*
X253075357Y-20025357D01*
X253096167Y-20000000D01*
X254344901Y-20000000D01*
X254363252Y-20186331D01*
X254363253Y-20186333D01*
X254417604Y-20365502D01*
X254505862Y-20530623D01*
X254505864Y-20530626D01*
X254624642Y-20675357D01*
X254769373Y-20794135D01*
X254769376Y-20794137D01*
X254829153Y-20826088D01*
X254934499Y-20882396D01*
X255113666Y-20936746D01*
X255113668Y-20936747D01*
X255130374Y-20938392D01*
X255300000Y-20955099D01*
X255486331Y-20936747D01*
X255665501Y-20882396D01*
X255830625Y-20794136D01*
X255975357Y-20675357D01*
X256094136Y-20530625D01*
X256182396Y-20365501D01*
X256236747Y-20186331D01*
X256255099Y-20000000D01*
X257044901Y-20000000D01*
X257063252Y-20186331D01*
X257063253Y-20186333D01*
X257117604Y-20365502D01*
X257205862Y-20530623D01*
X257205864Y-20530626D01*
X257324642Y-20675357D01*
X257469373Y-20794135D01*
X257469376Y-20794137D01*
X257529153Y-20826088D01*
X257634499Y-20882396D01*
X257813666Y-20936746D01*
X257813668Y-20936747D01*
X257830374Y-20938392D01*
X258000000Y-20955099D01*
X258186331Y-20936747D01*
X258365501Y-20882396D01*
X258530625Y-20794136D01*
X258675357Y-20675357D01*
X258794136Y-20530625D01*
X258882396Y-20365501D01*
X258936747Y-20186331D01*
X258955099Y-20000000D01*
X259744901Y-20000000D01*
X259763252Y-20186331D01*
X259763253Y-20186333D01*
X259817604Y-20365502D01*
X259905862Y-20530623D01*
X259905864Y-20530626D01*
X260024642Y-20675357D01*
X260169373Y-20794135D01*
X260169376Y-20794137D01*
X260229153Y-20826088D01*
X260334499Y-20882396D01*
X260513666Y-20936746D01*
X260513668Y-20936747D01*
X260530374Y-20938392D01*
X260700000Y-20955099D01*
X260886331Y-20936747D01*
X261065501Y-20882396D01*
X261230625Y-20794136D01*
X261375357Y-20675357D01*
X261494136Y-20530625D01*
X261582396Y-20365501D01*
X261636747Y-20186331D01*
X261655099Y-20000000D01*
X265744901Y-20000000D01*
X265763252Y-20186331D01*
X265763253Y-20186333D01*
X265817604Y-20365502D01*
X265905862Y-20530623D01*
X265905864Y-20530626D01*
X266024642Y-20675357D01*
X266169373Y-20794135D01*
X266169376Y-20794137D01*
X266229153Y-20826088D01*
X266334499Y-20882396D01*
X266513666Y-20936746D01*
X266513668Y-20936747D01*
X266530374Y-20938392D01*
X266700000Y-20955099D01*
X266886331Y-20936747D01*
X267065501Y-20882396D01*
X267230625Y-20794136D01*
X267375357Y-20675357D01*
X267494136Y-20530625D01*
X267582396Y-20365501D01*
X267636747Y-20186331D01*
X267655099Y-20000000D01*
X268444901Y-20000000D01*
X268463252Y-20186331D01*
X268463253Y-20186333D01*
X268517604Y-20365502D01*
X268605862Y-20530623D01*
X268605864Y-20530626D01*
X268724642Y-20675357D01*
X268869373Y-20794135D01*
X268869376Y-20794137D01*
X268929153Y-20826088D01*
X269034499Y-20882396D01*
X269213666Y-20936746D01*
X269213668Y-20936747D01*
X269230374Y-20938392D01*
X269400000Y-20955099D01*
X269586331Y-20936747D01*
X269765501Y-20882396D01*
X269930625Y-20794136D01*
X270075357Y-20675357D01*
X270194136Y-20530625D01*
X270282396Y-20365501D01*
X270336747Y-20186331D01*
X270355099Y-20000000D01*
X270336747Y-19813669D01*
X270282396Y-19634499D01*
X270229926Y-19536333D01*
X270194137Y-19469376D01*
X270194135Y-19469373D01*
X270075357Y-19324642D01*
X269930626Y-19205864D01*
X269930623Y-19205862D01*
X269765502Y-19117604D01*
X269586333Y-19063253D01*
X269586331Y-19063252D01*
X269400000Y-19044901D01*
X269213668Y-19063252D01*
X269213666Y-19063253D01*
X269034497Y-19117604D01*
X268869376Y-19205862D01*
X268869373Y-19205864D01*
X268724642Y-19324642D01*
X268605864Y-19469373D01*
X268605862Y-19469376D01*
X268517604Y-19634497D01*
X268463253Y-19813666D01*
X268463252Y-19813668D01*
X268444901Y-20000000D01*
X267655099Y-20000000D01*
X267636747Y-19813669D01*
X267582396Y-19634499D01*
X267529926Y-19536333D01*
X267494137Y-19469376D01*
X267494135Y-19469373D01*
X267375357Y-19324642D01*
X267230626Y-19205864D01*
X267230623Y-19205862D01*
X267065502Y-19117604D01*
X266886333Y-19063253D01*
X266886331Y-19063252D01*
X266700000Y-19044901D01*
X266513668Y-19063252D01*
X266513666Y-19063253D01*
X266334497Y-19117604D01*
X266169376Y-19205862D01*
X266169373Y-19205864D01*
X266024642Y-19324642D01*
X265905864Y-19469373D01*
X265905862Y-19469376D01*
X265817604Y-19634497D01*
X265763253Y-19813666D01*
X265763252Y-19813668D01*
X265744901Y-20000000D01*
X261655099Y-20000000D01*
X261636747Y-19813669D01*
X261582396Y-19634499D01*
X261529926Y-19536333D01*
X261494137Y-19469376D01*
X261494135Y-19469373D01*
X261375357Y-19324642D01*
X261230626Y-19205864D01*
X261230623Y-19205862D01*
X261065502Y-19117604D01*
X260886333Y-19063253D01*
X260886331Y-19063252D01*
X260700000Y-19044901D01*
X260513668Y-19063252D01*
X260513666Y-19063253D01*
X260334497Y-19117604D01*
X260169376Y-19205862D01*
X260169373Y-19205864D01*
X260024642Y-19324642D01*
X259905864Y-19469373D01*
X259905862Y-19469376D01*
X259817604Y-19634497D01*
X259763253Y-19813666D01*
X259763252Y-19813668D01*
X259744901Y-20000000D01*
X258955099Y-20000000D01*
X258936747Y-19813669D01*
X258882396Y-19634499D01*
X258829926Y-19536333D01*
X258794137Y-19469376D01*
X258794135Y-19469373D01*
X258675357Y-19324642D01*
X258530626Y-19205864D01*
X258530623Y-19205862D01*
X258365502Y-19117604D01*
X258186333Y-19063253D01*
X258186331Y-19063252D01*
X258000000Y-19044901D01*
X257813668Y-19063252D01*
X257813666Y-19063253D01*
X257634497Y-19117604D01*
X257469376Y-19205862D01*
X257469373Y-19205864D01*
X257324642Y-19324642D01*
X257205864Y-19469373D01*
X257205862Y-19469376D01*
X257117604Y-19634497D01*
X257063253Y-19813666D01*
X257063252Y-19813668D01*
X257044901Y-20000000D01*
X256255099Y-20000000D01*
X256236747Y-19813669D01*
X256182396Y-19634499D01*
X256129926Y-19536333D01*
X256094137Y-19469376D01*
X256094135Y-19469373D01*
X255975357Y-19324642D01*
X255830626Y-19205864D01*
X255830623Y-19205862D01*
X255665502Y-19117604D01*
X255486333Y-19063253D01*
X255486331Y-19063252D01*
X255300000Y-19044901D01*
X255113668Y-19063252D01*
X255113666Y-19063253D01*
X254934497Y-19117604D01*
X254769376Y-19205862D01*
X254769373Y-19205864D01*
X254624642Y-19324642D01*
X254505864Y-19469373D01*
X254505862Y-19469376D01*
X254417604Y-19634497D01*
X254363253Y-19813666D01*
X254363252Y-19813668D01*
X254344901Y-20000000D01*
X253096167Y-20000000D01*
X253194136Y-19880625D01*
X253282396Y-19715501D01*
X253336747Y-19536331D01*
X253355099Y-19350000D01*
X253336747Y-19163669D01*
X253282396Y-18984499D01*
X253194136Y-18819375D01*
X253194135Y-18819373D01*
X253075357Y-18674642D01*
X252930626Y-18555864D01*
X252930623Y-18555862D01*
X252765502Y-18467604D01*
X252586333Y-18413253D01*
X252586331Y-18413252D01*
X252400000Y-18394901D01*
X252213668Y-18413252D01*
X252213666Y-18413253D01*
X252034497Y-18467604D01*
X251869376Y-18555862D01*
X251869373Y-18555864D01*
X251724642Y-18674642D01*
X251605864Y-18819373D01*
X251605862Y-18819376D01*
X251517604Y-18984497D01*
X251463253Y-19163666D01*
X251463252Y-19163668D01*
X251444901Y-19350000D01*
X250655099Y-19350000D01*
X250636747Y-19163669D01*
X250582396Y-18984499D01*
X250494136Y-18819375D01*
X250494135Y-18819373D01*
X250375357Y-18674642D01*
X250230626Y-18555864D01*
X250230623Y-18555862D01*
X250065502Y-18467604D01*
X249886333Y-18413253D01*
X249886331Y-18413252D01*
X249700000Y-18394901D01*
X249513668Y-18413252D01*
X249513666Y-18413253D01*
X249334497Y-18467604D01*
X249169376Y-18555862D01*
X249169373Y-18555864D01*
X249024642Y-18674642D01*
X248905864Y-18819373D01*
X248905862Y-18819376D01*
X248817604Y-18984497D01*
X248763253Y-19163666D01*
X248763252Y-19163668D01*
X248744901Y-19350000D01*
X230550000Y-19350000D01*
X230550000Y-16650000D01*
X248694901Y-16650000D01*
X248713252Y-16836331D01*
X248713253Y-16836333D01*
X248767604Y-17015502D01*
X248855862Y-17180623D01*
X248855864Y-17180626D01*
X248974642Y-17325357D01*
X249119373Y-17444135D01*
X249119376Y-17444137D01*
X249284497Y-17532395D01*
X249284499Y-17532396D01*
X249387592Y-17563669D01*
X249463666Y-17586746D01*
X249463668Y-17586747D01*
X249480374Y-17588392D01*
X249650000Y-17605099D01*
X249836331Y-17586747D01*
X250015501Y-17532396D01*
X250180625Y-17444136D01*
X250325357Y-17325357D01*
X250444136Y-17180625D01*
X250532396Y-17015501D01*
X250586747Y-16836331D01*
X250605099Y-16650000D01*
X251394901Y-16650000D01*
X251413252Y-16836331D01*
X251413253Y-16836333D01*
X251467604Y-17015502D01*
X251555862Y-17180623D01*
X251555864Y-17180626D01*
X251674642Y-17325357D01*
X251819373Y-17444135D01*
X251819376Y-17444137D01*
X251984497Y-17532395D01*
X251984499Y-17532396D01*
X252087592Y-17563669D01*
X252163666Y-17586746D01*
X252163668Y-17586747D01*
X252180374Y-17588392D01*
X252350000Y-17605099D01*
X252536331Y-17586747D01*
X252715501Y-17532396D01*
X252880625Y-17444136D01*
X253025357Y-17325357D01*
X253046167Y-17300000D01*
X254294901Y-17300000D01*
X254313252Y-17486331D01*
X254313253Y-17486333D01*
X254367604Y-17665502D01*
X254455862Y-17830623D01*
X254455864Y-17830626D01*
X254574642Y-17975357D01*
X254719373Y-18094135D01*
X254719376Y-18094137D01*
X254759346Y-18115501D01*
X254884499Y-18182396D01*
X255063666Y-18236746D01*
X255063668Y-18236747D01*
X255080374Y-18238392D01*
X255250000Y-18255099D01*
X255436331Y-18236747D01*
X255615501Y-18182396D01*
X255780625Y-18094136D01*
X255925357Y-17975357D01*
X256044136Y-17830625D01*
X256132396Y-17665501D01*
X256186747Y-17486331D01*
X256205099Y-17300000D01*
X256994901Y-17300000D01*
X257013252Y-17486331D01*
X257013253Y-17486333D01*
X257067604Y-17665502D01*
X257155862Y-17830623D01*
X257155864Y-17830626D01*
X257274642Y-17975357D01*
X257419373Y-18094135D01*
X257419376Y-18094137D01*
X257459346Y-18115501D01*
X257584499Y-18182396D01*
X257763666Y-18236746D01*
X257763668Y-18236747D01*
X257780374Y-18238392D01*
X257950000Y-18255099D01*
X258136331Y-18236747D01*
X258315501Y-18182396D01*
X258480625Y-18094136D01*
X258625357Y-17975357D01*
X258744136Y-17830625D01*
X258832396Y-17665501D01*
X258886747Y-17486331D01*
X258905099Y-17300000D01*
X259744901Y-17300000D01*
X259763252Y-17486331D01*
X259763253Y-17486333D01*
X259817604Y-17665502D01*
X259905862Y-17830623D01*
X259905864Y-17830626D01*
X260024642Y-17975357D01*
X260169373Y-18094135D01*
X260169376Y-18094137D01*
X260209346Y-18115501D01*
X260334499Y-18182396D01*
X260513666Y-18236746D01*
X260513668Y-18236747D01*
X260530374Y-18238392D01*
X260700000Y-18255099D01*
X260886331Y-18236747D01*
X261065501Y-18182396D01*
X261230625Y-18094136D01*
X261375357Y-17975357D01*
X261494136Y-17830625D01*
X261537231Y-17750000D01*
X267094901Y-17750000D01*
X267113252Y-17936331D01*
X267113253Y-17936333D01*
X267167604Y-18115502D01*
X267255862Y-18280623D01*
X267255864Y-18280626D01*
X267374642Y-18425357D01*
X267519373Y-18544135D01*
X267519376Y-18544137D01*
X267684497Y-18632395D01*
X267684499Y-18632396D01*
X267823768Y-18674643D01*
X267863666Y-18686746D01*
X267863668Y-18686747D01*
X267880374Y-18688392D01*
X268050000Y-18705099D01*
X268236331Y-18686747D01*
X268415501Y-18632396D01*
X268580625Y-18544136D01*
X268725357Y-18425357D01*
X268844136Y-18280625D01*
X268932396Y-18115501D01*
X268986747Y-17936331D01*
X269005099Y-17750000D01*
X268986747Y-17563669D01*
X268932396Y-17384499D01*
X268932395Y-17384497D01*
X268844137Y-17219376D01*
X268844135Y-17219373D01*
X268725357Y-17074642D01*
X268580626Y-16955864D01*
X268580623Y-16955862D01*
X268415502Y-16867604D01*
X268236333Y-16813253D01*
X268236331Y-16813252D01*
X268050000Y-16794901D01*
X267863668Y-16813252D01*
X267863666Y-16813253D01*
X267684497Y-16867604D01*
X267519376Y-16955862D01*
X267519373Y-16955864D01*
X267374642Y-17074642D01*
X267255864Y-17219373D01*
X267255862Y-17219376D01*
X267167604Y-17384497D01*
X267113253Y-17563666D01*
X267113252Y-17563668D01*
X267094901Y-17750000D01*
X261537231Y-17750000D01*
X261582396Y-17665501D01*
X261636747Y-17486331D01*
X261655099Y-17300000D01*
X261636747Y-17113669D01*
X261582396Y-16934499D01*
X261529926Y-16836333D01*
X261494137Y-16769376D01*
X261494135Y-16769373D01*
X261375357Y-16624642D01*
X261230626Y-16505864D01*
X261230623Y-16505862D01*
X261065502Y-16417604D01*
X261007470Y-16400000D01*
X262144901Y-16400000D01*
X262163252Y-16586331D01*
X262163253Y-16586333D01*
X262217604Y-16765502D01*
X262305862Y-16930623D01*
X262305864Y-16930626D01*
X262424642Y-17075357D01*
X262569373Y-17194135D01*
X262569376Y-17194137D01*
X262734497Y-17282395D01*
X262734499Y-17282396D01*
X262913666Y-17336746D01*
X262913668Y-17336747D01*
X262930374Y-17338392D01*
X263100000Y-17355099D01*
X263286331Y-17336747D01*
X263465501Y-17282396D01*
X263630625Y-17194136D01*
X263775357Y-17075357D01*
X263894136Y-16930625D01*
X263982396Y-16765501D01*
X264036747Y-16586331D01*
X264055099Y-16400000D01*
X264036747Y-16213669D01*
X263982396Y-16034499D01*
X263894136Y-15869375D01*
X263894135Y-15869373D01*
X263775357Y-15724642D01*
X263630626Y-15605864D01*
X263630623Y-15605862D01*
X263465502Y-15517604D01*
X263286333Y-15463253D01*
X263286331Y-15463252D01*
X263100000Y-15444901D01*
X262913668Y-15463252D01*
X262913666Y-15463253D01*
X262734497Y-15517604D01*
X262569376Y-15605862D01*
X262569373Y-15605864D01*
X262424642Y-15724642D01*
X262305864Y-15869373D01*
X262305862Y-15869376D01*
X262217604Y-16034497D01*
X262163253Y-16213666D01*
X262163252Y-16213668D01*
X262144901Y-16400000D01*
X261007470Y-16400000D01*
X260886333Y-16363253D01*
X260886331Y-16363252D01*
X260700000Y-16344901D01*
X260513668Y-16363252D01*
X260513666Y-16363253D01*
X260334497Y-16417604D01*
X260169376Y-16505862D01*
X260169373Y-16505864D01*
X260024642Y-16624642D01*
X259905864Y-16769373D01*
X259905862Y-16769376D01*
X259817604Y-16934497D01*
X259763253Y-17113666D01*
X259763252Y-17113668D01*
X259744901Y-17300000D01*
X258905099Y-17300000D01*
X258886747Y-17113669D01*
X258832396Y-16934499D01*
X258779926Y-16836333D01*
X258744137Y-16769376D01*
X258744135Y-16769373D01*
X258625357Y-16624642D01*
X258480626Y-16505864D01*
X258480623Y-16505862D01*
X258315502Y-16417604D01*
X258136333Y-16363253D01*
X258136331Y-16363252D01*
X257950000Y-16344901D01*
X257763668Y-16363252D01*
X257763666Y-16363253D01*
X257584497Y-16417604D01*
X257419376Y-16505862D01*
X257419373Y-16505864D01*
X257274642Y-16624642D01*
X257155864Y-16769373D01*
X257155862Y-16769376D01*
X257067604Y-16934497D01*
X257013253Y-17113666D01*
X257013252Y-17113668D01*
X256994901Y-17300000D01*
X256205099Y-17300000D01*
X256186747Y-17113669D01*
X256132396Y-16934499D01*
X256079926Y-16836333D01*
X256044137Y-16769376D01*
X256044135Y-16769373D01*
X255925357Y-16624642D01*
X255780626Y-16505864D01*
X255780623Y-16505862D01*
X255615502Y-16417604D01*
X255436333Y-16363253D01*
X255436331Y-16363252D01*
X255250000Y-16344901D01*
X255063668Y-16363252D01*
X255063666Y-16363253D01*
X254884497Y-16417604D01*
X254719376Y-16505862D01*
X254719373Y-16505864D01*
X254574642Y-16624642D01*
X254455864Y-16769373D01*
X254455862Y-16769376D01*
X254367604Y-16934497D01*
X254313253Y-17113666D01*
X254313252Y-17113668D01*
X254294901Y-17300000D01*
X253046167Y-17300000D01*
X253144136Y-17180625D01*
X253232396Y-17015501D01*
X253286747Y-16836331D01*
X253305099Y-16650000D01*
X253286747Y-16463669D01*
X253232396Y-16284499D01*
X253194537Y-16213669D01*
X253144137Y-16119376D01*
X253144135Y-16119373D01*
X253025357Y-15974642D01*
X252880626Y-15855864D01*
X252880623Y-15855862D01*
X252715502Y-15767604D01*
X252536333Y-15713253D01*
X252536331Y-15713252D01*
X252350000Y-15694901D01*
X252163668Y-15713252D01*
X252163666Y-15713253D01*
X251984497Y-15767604D01*
X251819376Y-15855862D01*
X251819373Y-15855864D01*
X251674642Y-15974642D01*
X251555864Y-16119373D01*
X251555862Y-16119376D01*
X251467604Y-16284497D01*
X251413253Y-16463666D01*
X251413252Y-16463668D01*
X251394901Y-16650000D01*
X250605099Y-16650000D01*
X250586747Y-16463669D01*
X250532396Y-16284499D01*
X250494537Y-16213669D01*
X250444137Y-16119376D01*
X250444135Y-16119373D01*
X250325357Y-15974642D01*
X250180626Y-15855864D01*
X250180623Y-15855862D01*
X250015502Y-15767604D01*
X249836333Y-15713253D01*
X249836331Y-15713252D01*
X249650000Y-15694901D01*
X249463668Y-15713252D01*
X249463666Y-15713253D01*
X249284497Y-15767604D01*
X249119376Y-15855862D01*
X249119373Y-15855864D01*
X248974642Y-15974642D01*
X248855864Y-16119373D01*
X248855862Y-16119376D01*
X248767604Y-16284497D01*
X248713253Y-16463666D01*
X248713252Y-16463668D01*
X248694901Y-16650000D01*
X230550000Y-16650000D01*
X230550000Y-15223291D01*
X230569685Y-15156252D01*
X230622489Y-15110497D01*
X230673286Y-15099293D01*
X282775291Y-14800714D01*
X282842441Y-14820014D01*
G37*
G04 #@! TD.AperFunction*
M02*
