M48
; DRILL file {KiCad 7.0.8-7.0.8~ubuntu22.04.1} date mer. 11 oct. 2023 15:45:34
; FORMAT={-:-/ absolute / metric / decimal}
; #@! TF.CreationDate,2023-10-11T15:45:34+02:00
; #@! TF.GenerationSoftware,Kicad,Pcbnew,7.0.8-7.0.8~ubuntu22.04.1
; #@! TF.FileFunction,Plated,1,2,PTH
FMAT,2
METRIC
; #@! TA.AperFunction,Plated,PTH,ViaDrill
T1C0.400
; #@! TA.AperFunction,Plated,PTH,ComponentDrill
T2C0.700
; #@! TA.AperFunction,Plated,PTH,ComponentDrill
T3C1.000
; #@! TA.AperFunction,Plated,PTH,ComponentDrill
T4C2.311
%
G90
G05
T1
X232.25Y-54.05
X235.7Y-16.6
X238.4Y-22.2
X239.1Y-54.5
X239.2Y-26.2
X241.1Y-50.55
X243.4Y-16.6
X243.7Y-22.45
X244.2Y-50.75
X244.25Y-49.2
X244.4Y-31.1
X245.0Y-26.15
X245.95Y-49.25
X247.75Y-48.65
X249.0Y-29.0
X249.1Y-54.5
X250.7Y-23.4
X251.7Y-44.2
X252.2Y-49.1
X253.3Y-51.2
X256.0Y-51.2
X256.3Y-25.4
X257.0Y-45.1
X257.4Y-54.1
X257.75Y-43.35
X258.6Y-51.2
X259.5Y-45.1
X259.55Y-49.0
X259.9Y-40.25
X260.2Y-29.6
X260.2Y-33.3
X260.55Y-43.2
X261.1Y-51.2
X262.85Y-46.05
X263.3Y-50.5
X263.4Y-48.0
X263.55Y-19.15
X264.0Y-17.8
X264.1Y-33.3
X264.3Y-29.6
X265.1Y-54.1
X272.1Y-54.1
X273.9Y-16.6
X280.3Y-54.1
X280.5Y-16.6
X281.2Y-21.6
T2
X248.55Y-42.4
X248.7Y-31.1
X248.85Y-37.0
X248.85Y-39.7
X249.65Y-16.65
X249.7Y-19.35
X251.2Y-42.4
X252.35Y-16.65
X252.4Y-19.35
X253.6Y-41.45
X255.25Y-17.3
X255.3Y-20.0
X257.95Y-17.3
X258.0Y-20.0
X260.7Y-17.3
X260.7Y-20.0
X263.1Y-16.4
X263.238Y-42.16
X265.3Y-45.05
X266.0Y-47.7
X266.032Y-42.16
X266.7Y-20.0
X268.05Y-17.75
X268.1Y-45.0
X268.826Y-42.16
X269.4Y-20.0
X270.2Y-23.1
X270.3Y-28.8
X270.5Y-25.9
X270.6Y-46.75
X271.05Y-43.7
X272.25Y-41.3
X272.5Y-24.4
X272.6Y-27.5
T3
X240.01Y-41.55
X240.01Y-44.09
X240.01Y-46.63
X240.01Y-49.17
X242.55Y-41.55
X242.55Y-44.09
X242.55Y-46.63
X242.55Y-49.17
T4
X233.19Y-21.837
X233.19Y-34.968
T0
M30
