G04 #@! TF.GenerationSoftware,KiCad,Pcbnew,7.0.8-7.0.8~ubuntu22.04.1*
G04 #@! TF.CreationDate,2023-10-11T15:45:23+02:00*
G04 #@! TF.ProjectId,Pico_PCB,5069636f-5f50-4434-922e-6b696361645f,rev?*
G04 #@! TF.SameCoordinates,Original*
G04 #@! TF.FileFunction,Paste,Top*
G04 #@! TF.FilePolarity,Positive*
%FSLAX46Y46*%
G04 Gerber Fmt 4.6, Leading zero omitted, Abs format (unit mm)*
G04 Created by KiCad (PCBNEW 7.0.8-7.0.8~ubuntu22.04.1) date 2023-10-11 15:45:23*
%MOMM*%
%LPD*%
G01*
G04 APERTURE LIST*
G04 Aperture macros list*
%AMRoundRect*
0 Rectangle with rounded corners*
0 $1 Rounding radius*
0 $2 $3 $4 $5 $6 $7 $8 $9 X,Y pos of 4 corners*
0 Add a 4 corners polygon primitive as box body*
4,1,4,$2,$3,$4,$5,$6,$7,$8,$9,$2,$3,0*
0 Add four circle primitives for the rounded corners*
1,1,$1+$1,$2,$3*
1,1,$1+$1,$4,$5*
1,1,$1+$1,$6,$7*
1,1,$1+$1,$8,$9*
0 Add four rect primitives between the rounded corners*
20,1,$1+$1,$2,$3,$4,$5,0*
20,1,$1+$1,$4,$5,$6,$7,0*
20,1,$1+$1,$6,$7,$8,$9,0*
20,1,$1+$1,$8,$9,$2,$3,0*%
G04 Aperture macros list end*
%ADD10RoundRect,0.237500X0.287500X0.237500X-0.287500X0.237500X-0.287500X-0.237500X0.287500X-0.237500X0*%
%ADD11RoundRect,0.237500X0.250000X0.237500X-0.250000X0.237500X-0.250000X-0.237500X0.250000X-0.237500X0*%
%ADD12RoundRect,0.237500X-0.287500X-0.237500X0.287500X-0.237500X0.287500X0.237500X-0.287500X0.237500X0*%
%ADD13RoundRect,0.237500X0.237500X-0.300000X0.237500X0.300000X-0.237500X0.300000X-0.237500X-0.300000X0*%
%ADD14RoundRect,0.237500X-0.250000X-0.237500X0.250000X-0.237500X0.250000X0.237500X-0.250000X0.237500X0*%
%ADD15RoundRect,0.237500X-0.237500X0.300000X-0.237500X-0.300000X0.237500X-0.300000X0.237500X0.300000X0*%
%ADD16R,1.524000X0.762000*%
%ADD17R,0.762000X1.524000*%
%ADD18RoundRect,0.237500X0.237500X-0.287500X0.237500X0.287500X-0.237500X0.287500X-0.237500X-0.287500X0*%
%ADD19R,2.100000X1.800000*%
%ADD20R,1.500000X0.550000*%
%ADD21R,0.550000X1.500000*%
%ADD22RoundRect,0.237500X0.237500X-0.250000X0.237500X0.250000X-0.237500X0.250000X-0.237500X-0.250000X0*%
%ADD23RoundRect,0.237500X0.300000X0.237500X-0.300000X0.237500X-0.300000X-0.237500X0.300000X-0.237500X0*%
%ADD24C,2.999740*%
%ADD25R,2.999740X0.899160*%
G04 APERTURE END LIST*
D10*
X281125000Y-43200000D03*
X279375000Y-43200000D03*
D11*
X242345345Y-29402420D03*
X240520345Y-29402420D03*
D10*
X281125000Y-36350000D03*
X279375000Y-36350000D03*
D12*
X240520345Y-31102420D03*
X242270345Y-31102420D03*
D10*
X281150000Y-32950000D03*
X279400000Y-32950000D03*
X281150000Y-34650000D03*
X279400000Y-34650000D03*
D12*
X240520345Y-25752420D03*
X242270345Y-25752420D03*
D11*
X255050000Y-44400000D03*
X253225000Y-44400000D03*
D10*
X281125000Y-41500000D03*
X279375000Y-41500000D03*
D13*
X254400000Y-49662500D03*
X254400000Y-47937500D03*
D14*
X272175000Y-21900000D03*
X274000000Y-21900000D03*
D13*
X263550000Y-20962500D03*
X263550000Y-19237500D03*
D15*
X246500000Y-29137500D03*
X246500000Y-30862500D03*
D13*
X246850000Y-24825000D03*
X246850000Y-23100000D03*
D14*
X275600000Y-41500000D03*
X277425000Y-41500000D03*
D11*
X259812500Y-41687500D03*
X257987500Y-41687500D03*
D14*
X275600000Y-43200000D03*
X277425000Y-43200000D03*
D15*
X256500000Y-40700000D03*
X256500000Y-42425000D03*
D14*
X275600000Y-38050000D03*
X277425000Y-38050000D03*
D10*
X281150000Y-31250000D03*
X279400000Y-31250000D03*
D16*
X281100000Y-29150000D03*
X275512000Y-29150000D03*
X281100000Y-25340000D03*
X275512000Y-25340000D03*
D10*
X281125000Y-38050000D03*
X279375000Y-38050000D03*
D14*
X275575000Y-36350000D03*
X277400000Y-36350000D03*
D17*
X248200000Y-52100000D03*
X248200000Y-46512000D03*
X252010000Y-52100000D03*
X252010000Y-46512000D03*
D18*
X242151320Y-23450000D03*
X242151320Y-21700000D03*
D14*
X275562500Y-31250000D03*
X277387500Y-31250000D03*
D15*
X261800000Y-47937500D03*
X261800000Y-49662500D03*
D14*
X275600000Y-39750000D03*
X277425000Y-39750000D03*
D11*
X242345345Y-27402420D03*
X240520345Y-27402420D03*
D19*
X259550000Y-46800000D03*
X256650000Y-46800000D03*
X256650000Y-49000000D03*
X259550000Y-49000000D03*
D20*
X251600000Y-25000000D03*
X251600000Y-25800000D03*
X251600000Y-26600000D03*
X251600000Y-27400000D03*
X251600000Y-28200000D03*
X251600000Y-29000000D03*
X251600000Y-29800000D03*
X251600000Y-30600000D03*
X251600000Y-31400000D03*
X251600000Y-32200000D03*
X251600000Y-33000000D03*
X251600000Y-33800000D03*
X251600000Y-34600000D03*
X251600000Y-35400000D03*
X251600000Y-36200000D03*
X251600000Y-37000000D03*
D21*
X253300000Y-38700000D03*
X254100000Y-38700000D03*
X254900000Y-38700000D03*
X255700000Y-38700000D03*
X256500000Y-38700000D03*
X257300000Y-38700000D03*
X258100000Y-38700000D03*
X258900000Y-38700000D03*
X259700000Y-38700000D03*
X260500000Y-38700000D03*
X261300000Y-38700000D03*
X262100000Y-38700000D03*
X262900000Y-38700000D03*
X263700000Y-38700000D03*
X264500000Y-38700000D03*
X265300000Y-38700000D03*
D20*
X267000000Y-37000000D03*
X267000000Y-36200000D03*
X267000000Y-35400000D03*
X267000000Y-34600000D03*
X267000000Y-33800000D03*
X267000000Y-33000000D03*
X267000000Y-32200000D03*
X267000000Y-31400000D03*
X267000000Y-30600000D03*
X267000000Y-29800000D03*
X267000000Y-29000000D03*
X267000000Y-28200000D03*
X267000000Y-27400000D03*
X267000000Y-26600000D03*
X267000000Y-25800000D03*
X267000000Y-25000000D03*
D21*
X265300000Y-23300000D03*
X264500000Y-23300000D03*
X263700000Y-23300000D03*
X262900000Y-23300000D03*
X262100000Y-23300000D03*
X261300000Y-23300000D03*
X260500000Y-23300000D03*
X259700000Y-23300000D03*
X258900000Y-23300000D03*
X258100000Y-23300000D03*
X257300000Y-23300000D03*
X256500000Y-23300000D03*
X255700000Y-23300000D03*
X254900000Y-23300000D03*
X254100000Y-23300000D03*
X253300000Y-23300000D03*
D14*
X275562500Y-32950000D03*
X277387500Y-32950000D03*
D22*
X240001320Y-23475000D03*
X240001320Y-21650000D03*
D23*
X251700000Y-21450000D03*
X249975000Y-21450000D03*
D24*
X237401320Y-24904840D03*
D25*
X237401320Y-27404200D03*
X237401320Y-29400640D03*
X237401320Y-31900000D03*
D14*
X275575000Y-34650000D03*
X277400000Y-34650000D03*
D10*
X281125000Y-39750000D03*
X279375000Y-39750000D03*
M02*
