%TF.GenerationSoftware,KiCad,Pcbnew,7.0.8-7.0.8~ubuntu22.04.1*%
%TF.CreationDate,2023-10-11T15:45:36+02:00*%
%TF.ProjectId,Pico_PCB,5069636f-5f50-4434-922e-6b696361645f,rev?*%
%TF.SameCoordinates,Original*%
%TF.FileFunction,Drillmap*%
%TF.FilePolarity,Positive*%
%FSLAX45Y45*%
G04 Gerber Fmt 4.5, Leading zero omitted, Abs format (unit mm)*
G04 Created by KiCad (PCBNEW 7.0.8-7.0.8~ubuntu22.04.1) date 2023-10-11 15:45:36*
%MOMM*%
%LPD*%
G01*
G04 APERTURE LIST*
%ADD10C,0.100000*%
%ADD11C,0.200000*%
G04 APERTURE END LIST*
D10*
X23045000Y-1460000D02*
X28305000Y-1460000D01*
X28305000Y-5660000D01*
X23045000Y-5660000D01*
X23045000Y-1460000D01*
D11*
X23300777Y-5976484D02*
X23300777Y-5776484D01*
X23300777Y-5776484D02*
X23348396Y-5776484D01*
X23348396Y-5776484D02*
X23376967Y-5786008D01*
X23376967Y-5786008D02*
X23396015Y-5805055D01*
X23396015Y-5805055D02*
X23405539Y-5824103D01*
X23405539Y-5824103D02*
X23415062Y-5862198D01*
X23415062Y-5862198D02*
X23415062Y-5890769D01*
X23415062Y-5890769D02*
X23405539Y-5928865D01*
X23405539Y-5928865D02*
X23396015Y-5947912D01*
X23396015Y-5947912D02*
X23376967Y-5966960D01*
X23376967Y-5966960D02*
X23348396Y-5976484D01*
X23348396Y-5976484D02*
X23300777Y-5976484D01*
X23500777Y-5976484D02*
X23500777Y-5843150D01*
X23500777Y-5881246D02*
X23510301Y-5862198D01*
X23510301Y-5862198D02*
X23519824Y-5852674D01*
X23519824Y-5852674D02*
X23538872Y-5843150D01*
X23538872Y-5843150D02*
X23557920Y-5843150D01*
X23624586Y-5976484D02*
X23624586Y-5843150D01*
X23624586Y-5776484D02*
X23615062Y-5786008D01*
X23615062Y-5786008D02*
X23624586Y-5795531D01*
X23624586Y-5795531D02*
X23634110Y-5786008D01*
X23634110Y-5786008D02*
X23624586Y-5776484D01*
X23624586Y-5776484D02*
X23624586Y-5795531D01*
X23748396Y-5976484D02*
X23729348Y-5966960D01*
X23729348Y-5966960D02*
X23719824Y-5947912D01*
X23719824Y-5947912D02*
X23719824Y-5776484D01*
X23853158Y-5976484D02*
X23834110Y-5966960D01*
X23834110Y-5966960D02*
X23824586Y-5947912D01*
X23824586Y-5947912D02*
X23824586Y-5776484D01*
X24081729Y-5976484D02*
X24081729Y-5776484D01*
X24081729Y-5776484D02*
X24148396Y-5919341D01*
X24148396Y-5919341D02*
X24215062Y-5776484D01*
X24215062Y-5776484D02*
X24215062Y-5976484D01*
X24396015Y-5976484D02*
X24396015Y-5871722D01*
X24396015Y-5871722D02*
X24386491Y-5852674D01*
X24386491Y-5852674D02*
X24367443Y-5843150D01*
X24367443Y-5843150D02*
X24329348Y-5843150D01*
X24329348Y-5843150D02*
X24310301Y-5852674D01*
X24396015Y-5966960D02*
X24376967Y-5976484D01*
X24376967Y-5976484D02*
X24329348Y-5976484D01*
X24329348Y-5976484D02*
X24310301Y-5966960D01*
X24310301Y-5966960D02*
X24300777Y-5947912D01*
X24300777Y-5947912D02*
X24300777Y-5928865D01*
X24300777Y-5928865D02*
X24310301Y-5909817D01*
X24310301Y-5909817D02*
X24329348Y-5900293D01*
X24329348Y-5900293D02*
X24376967Y-5900293D01*
X24376967Y-5900293D02*
X24396015Y-5890769D01*
X24491253Y-5843150D02*
X24491253Y-6043150D01*
X24491253Y-5852674D02*
X24510301Y-5843150D01*
X24510301Y-5843150D02*
X24548396Y-5843150D01*
X24548396Y-5843150D02*
X24567443Y-5852674D01*
X24567443Y-5852674D02*
X24576967Y-5862198D01*
X24576967Y-5862198D02*
X24586491Y-5881246D01*
X24586491Y-5881246D02*
X24586491Y-5938388D01*
X24586491Y-5938388D02*
X24576967Y-5957436D01*
X24576967Y-5957436D02*
X24567443Y-5966960D01*
X24567443Y-5966960D02*
X24548396Y-5976484D01*
X24548396Y-5976484D02*
X24510301Y-5976484D01*
X24510301Y-5976484D02*
X24491253Y-5966960D01*
X24672205Y-5957436D02*
X24681729Y-5966960D01*
X24681729Y-5966960D02*
X24672205Y-5976484D01*
X24672205Y-5976484D02*
X24662682Y-5966960D01*
X24662682Y-5966960D02*
X24672205Y-5957436D01*
X24672205Y-5957436D02*
X24672205Y-5976484D01*
X24672205Y-5852674D02*
X24681729Y-5862198D01*
X24681729Y-5862198D02*
X24672205Y-5871722D01*
X24672205Y-5871722D02*
X24662682Y-5862198D01*
X24662682Y-5862198D02*
X24672205Y-5852674D01*
X24672205Y-5852674D02*
X24672205Y-5871722D01*
M02*
