G04 #@! TF.GenerationSoftware,KiCad,Pcbnew,7.0.8-7.0.8~ubuntu22.04.1*
G04 #@! TF.CreationDate,2023-10-11T15:45:23+02:00*
G04 #@! TF.ProjectId,Pico_PCB,5069636f-5f50-4434-922e-6b696361645f,rev?*
G04 #@! TF.SameCoordinates,Original*
G04 #@! TF.FileFunction,Copper,L1,Top*
G04 #@! TF.FilePolarity,Positive*
%FSLAX46Y46*%
G04 Gerber Fmt 4.6, Leading zero omitted, Abs format (unit mm)*
G04 Created by KiCad (PCBNEW 7.0.8-7.0.8~ubuntu22.04.1) date 2023-10-11 15:45:23*
%MOMM*%
%LPD*%
G01*
G04 APERTURE LIST*
G04 Aperture macros list*
%AMRoundRect*
0 Rectangle with rounded corners*
0 $1 Rounding radius*
0 $2 $3 $4 $5 $6 $7 $8 $9 X,Y pos of 4 corners*
0 Add a 4 corners polygon primitive as box body*
4,1,4,$2,$3,$4,$5,$6,$7,$8,$9,$2,$3,0*
0 Add four circle primitives for the rounded corners*
1,1,$1+$1,$2,$3*
1,1,$1+$1,$4,$5*
1,1,$1+$1,$6,$7*
1,1,$1+$1,$8,$9*
0 Add four rect primitives between the rounded corners*
20,1,$1+$1,$2,$3,$4,$5,0*
20,1,$1+$1,$4,$5,$6,$7,0*
20,1,$1+$1,$6,$7,$8,$9,0*
20,1,$1+$1,$8,$9,$2,$3,0*%
G04 Aperture macros list end*
G04 #@! TA.AperFunction,SMDPad,CuDef*
%ADD10RoundRect,0.237500X0.287500X0.237500X-0.287500X0.237500X-0.287500X-0.237500X0.287500X-0.237500X0*%
G04 #@! TD*
G04 #@! TA.AperFunction,SMDPad,CuDef*
%ADD11RoundRect,0.237500X0.250000X0.237500X-0.250000X0.237500X-0.250000X-0.237500X0.250000X-0.237500X0*%
G04 #@! TD*
G04 #@! TA.AperFunction,ComponentPad*
%ADD12C,1.500000*%
G04 #@! TD*
G04 #@! TA.AperFunction,SMDPad,CuDef*
%ADD13RoundRect,0.237500X-0.287500X-0.237500X0.287500X-0.237500X0.287500X0.237500X-0.287500X0.237500X0*%
G04 #@! TD*
G04 #@! TA.AperFunction,SMDPad,CuDef*
%ADD14RoundRect,0.237500X0.237500X-0.300000X0.237500X0.300000X-0.237500X0.300000X-0.237500X-0.300000X0*%
G04 #@! TD*
G04 #@! TA.AperFunction,SMDPad,CuDef*
%ADD15RoundRect,0.237500X-0.250000X-0.237500X0.250000X-0.237500X0.250000X0.237500X-0.250000X0.237500X0*%
G04 #@! TD*
G04 #@! TA.AperFunction,ComponentPad*
%ADD16RoundRect,0.250000X0.600000X0.600000X-0.600000X0.600000X-0.600000X-0.600000X0.600000X-0.600000X0*%
G04 #@! TD*
G04 #@! TA.AperFunction,ComponentPad*
%ADD17C,1.700000*%
G04 #@! TD*
G04 #@! TA.AperFunction,SMDPad,CuDef*
%ADD18RoundRect,0.237500X-0.237500X0.300000X-0.237500X-0.300000X0.237500X-0.300000X0.237500X0.300000X0*%
G04 #@! TD*
G04 #@! TA.AperFunction,SMDPad,CuDef*
%ADD19R,1.524000X0.762000*%
G04 #@! TD*
G04 #@! TA.AperFunction,SMDPad,CuDef*
%ADD20R,0.762000X1.524000*%
G04 #@! TD*
G04 #@! TA.AperFunction,SMDPad,CuDef*
%ADD21RoundRect,0.237500X0.237500X-0.287500X0.237500X0.287500X-0.237500X0.287500X-0.237500X-0.287500X0*%
G04 #@! TD*
G04 #@! TA.AperFunction,SMDPad,CuDef*
%ADD22R,2.100000X1.800000*%
G04 #@! TD*
G04 #@! TA.AperFunction,SMDPad,CuDef*
%ADD23R,1.500000X0.550000*%
G04 #@! TD*
G04 #@! TA.AperFunction,SMDPad,CuDef*
%ADD24R,0.550000X1.500000*%
G04 #@! TD*
G04 #@! TA.AperFunction,SMDPad,CuDef*
%ADD25RoundRect,0.237500X0.237500X-0.250000X0.237500X0.250000X-0.237500X0.250000X-0.237500X-0.250000X0*%
G04 #@! TD*
G04 #@! TA.AperFunction,SMDPad,CuDef*
%ADD26RoundRect,0.237500X0.300000X0.237500X-0.300000X0.237500X-0.300000X-0.237500X0.300000X-0.237500X0*%
G04 #@! TD*
G04 #@! TA.AperFunction,SMDPad,CuDef*
%ADD27C,2.999740*%
G04 #@! TD*
G04 #@! TA.AperFunction,SMDPad,CuDef*
%ADD28R,2.999740X0.899160*%
G04 #@! TD*
G04 #@! TA.AperFunction,ComponentPad*
%ADD29C,3.327400*%
G04 #@! TD*
G04 #@! TA.AperFunction,ViaPad*
%ADD30C,0.800000*%
G04 #@! TD*
G04 #@! TA.AperFunction,Conductor*
%ADD31C,0.250000*%
G04 #@! TD*
G04 #@! TA.AperFunction,Conductor*
%ADD32C,0.381000*%
G04 #@! TD*
G04 #@! TA.AperFunction,Conductor*
%ADD33C,0.248920*%
G04 #@! TD*
G04 #@! TA.AperFunction,Conductor*
%ADD34C,0.200000*%
G04 #@! TD*
G04 APERTURE END LIST*
D10*
X281125000Y-43200000D03*
X279375000Y-43200000D03*
D11*
X242345345Y-29402420D03*
X240520345Y-29402420D03*
D12*
X263238000Y-42160000D03*
D10*
X281125000Y-36350000D03*
X279375000Y-36350000D03*
D12*
X251200000Y-42400000D03*
X248700000Y-31100000D03*
D13*
X240520345Y-31102420D03*
X242270345Y-31102420D03*
D10*
X281150000Y-32950000D03*
X279400000Y-32950000D03*
X281150000Y-34650000D03*
X279400000Y-34650000D03*
D12*
X266000000Y-47700000D03*
X266032000Y-42160000D03*
X255250000Y-17300000D03*
D13*
X240520345Y-25752420D03*
X242270345Y-25752420D03*
D11*
X255050000Y-44400000D03*
X253225000Y-44400000D03*
D10*
X281125000Y-41500000D03*
X279375000Y-41500000D03*
D12*
X252400000Y-19350000D03*
X258000000Y-20000000D03*
D14*
X254400000Y-49662500D03*
X254400000Y-47937500D03*
D12*
X248850000Y-39700000D03*
D15*
X272175000Y-21900000D03*
X274000000Y-21900000D03*
D12*
X248850000Y-37000000D03*
D14*
X263550000Y-20962500D03*
X263550000Y-19237500D03*
D16*
X242550000Y-49170000D03*
D17*
X240010000Y-49170000D03*
X242550000Y-46630000D03*
X240010000Y-46630000D03*
X242550000Y-44090000D03*
X240010000Y-44090000D03*
X242550000Y-41550000D03*
X240010000Y-41550000D03*
D12*
X268050000Y-17750000D03*
X272500000Y-24400000D03*
X266700000Y-20000000D03*
X263100000Y-16400000D03*
D18*
X246500000Y-29137500D03*
X246500000Y-30862500D03*
D14*
X246850000Y-24825000D03*
X246850000Y-23100000D03*
D15*
X275600000Y-41500000D03*
X277425000Y-41500000D03*
D11*
X259812500Y-41687500D03*
X257987500Y-41687500D03*
D15*
X275600000Y-43200000D03*
X277425000Y-43200000D03*
D18*
X256500000Y-40700000D03*
X256500000Y-42425000D03*
D15*
X275600000Y-38050000D03*
X277425000Y-38050000D03*
D12*
X271050000Y-43700000D03*
D10*
X281150000Y-31250000D03*
X279400000Y-31250000D03*
D19*
X281100000Y-29150000D03*
X275512000Y-29150000D03*
X281100000Y-25340000D03*
X275512000Y-25340000D03*
D10*
X281125000Y-38050000D03*
X279375000Y-38050000D03*
D12*
X255300000Y-20000000D03*
X260700000Y-17300000D03*
D15*
X275575000Y-36350000D03*
X277400000Y-36350000D03*
D20*
X248200000Y-52100000D03*
X248200000Y-46512000D03*
X252010000Y-52100000D03*
X252010000Y-46512000D03*
D12*
X269400000Y-20000000D03*
X249650000Y-16650000D03*
X270500000Y-25900000D03*
X249700000Y-19350000D03*
D21*
X242151320Y-23450000D03*
X242151320Y-21700000D03*
D12*
X257950000Y-17300000D03*
D15*
X275562500Y-31250000D03*
X277387500Y-31250000D03*
D18*
X261800000Y-47937500D03*
X261800000Y-49662500D03*
D12*
X265300000Y-45050000D03*
X270600000Y-46750000D03*
D15*
X275600000Y-39750000D03*
X277425000Y-39750000D03*
D11*
X242345345Y-27402420D03*
X240520345Y-27402420D03*
D22*
X259550000Y-46800000D03*
X256650000Y-46800000D03*
X256650000Y-49000000D03*
X259550000Y-49000000D03*
D12*
X252350000Y-16650000D03*
X253600000Y-41450000D03*
D23*
X251600000Y-25000000D03*
X251600000Y-25800000D03*
X251600000Y-26600000D03*
X251600000Y-27400000D03*
X251600000Y-28200000D03*
X251600000Y-29000000D03*
X251600000Y-29800000D03*
X251600000Y-30600000D03*
X251600000Y-31400000D03*
X251600000Y-32200000D03*
X251600000Y-33000000D03*
X251600000Y-33800000D03*
X251600000Y-34600000D03*
X251600000Y-35400000D03*
X251600000Y-36200000D03*
X251600000Y-37000000D03*
D24*
X253300000Y-38700000D03*
X254100000Y-38700000D03*
X254900000Y-38700000D03*
X255700000Y-38700000D03*
X256500000Y-38700000D03*
X257300000Y-38700000D03*
X258100000Y-38700000D03*
X258900000Y-38700000D03*
X259700000Y-38700000D03*
X260500000Y-38700000D03*
X261300000Y-38700000D03*
X262100000Y-38700000D03*
X262900000Y-38700000D03*
X263700000Y-38700000D03*
X264500000Y-38700000D03*
X265300000Y-38700000D03*
D23*
X267000000Y-37000000D03*
X267000000Y-36200000D03*
X267000000Y-35400000D03*
X267000000Y-34600000D03*
X267000000Y-33800000D03*
X267000000Y-33000000D03*
X267000000Y-32200000D03*
X267000000Y-31400000D03*
X267000000Y-30600000D03*
X267000000Y-29800000D03*
X267000000Y-29000000D03*
X267000000Y-28200000D03*
X267000000Y-27400000D03*
X267000000Y-26600000D03*
X267000000Y-25800000D03*
X267000000Y-25000000D03*
D24*
X265300000Y-23300000D03*
X264500000Y-23300000D03*
X263700000Y-23300000D03*
X262900000Y-23300000D03*
X262100000Y-23300000D03*
X261300000Y-23300000D03*
X260500000Y-23300000D03*
X259700000Y-23300000D03*
X258900000Y-23300000D03*
X258100000Y-23300000D03*
X257300000Y-23300000D03*
X256500000Y-23300000D03*
X255700000Y-23300000D03*
X254900000Y-23300000D03*
X254100000Y-23300000D03*
X253300000Y-23300000D03*
D12*
X272600000Y-27500000D03*
X270200000Y-23100000D03*
X248550000Y-42400000D03*
D15*
X275562500Y-32950000D03*
X277387500Y-32950000D03*
D12*
X272250000Y-41300000D03*
D25*
X240001320Y-23475000D03*
X240001320Y-21650000D03*
D12*
X260700000Y-20000000D03*
D26*
X251700000Y-21450000D03*
X249975000Y-21450000D03*
D27*
X237401320Y-24904840D03*
D28*
X237401320Y-27404200D03*
X237401320Y-29400640D03*
X237401320Y-31900000D03*
D29*
X233190000Y-21836520D03*
X233190000Y-34968320D03*
D12*
X270300000Y-28800000D03*
X268826000Y-42160000D03*
D15*
X275575000Y-34650000D03*
X277400000Y-34650000D03*
D10*
X281125000Y-39750000D03*
X279375000Y-39750000D03*
D12*
X268100000Y-45000000D03*
D30*
X243400000Y-16600000D03*
X280300000Y-54100000D03*
X244200000Y-50750000D03*
X257400000Y-54100000D03*
X280500000Y-16600000D03*
X257750000Y-43350000D03*
X238400000Y-22200000D03*
X260200000Y-33300000D03*
X235700000Y-16600000D03*
X253300000Y-51200000D03*
X244250000Y-49200000D03*
X252200000Y-49100000D03*
X259900000Y-40250000D03*
X243700000Y-22450000D03*
X244400000Y-31100000D03*
X256000000Y-51200000D03*
X239200000Y-26200000D03*
X249100000Y-54500000D03*
X257000000Y-45100000D03*
X272100000Y-54100000D03*
X265100000Y-54100000D03*
X247750000Y-48650000D03*
X245950000Y-49250000D03*
X250700000Y-23400000D03*
X273900000Y-16600000D03*
X281200000Y-21600000D03*
X258600000Y-51200000D03*
X261100000Y-51200000D03*
X264000000Y-17800000D03*
X256300000Y-25400000D03*
X263400000Y-48000000D03*
X259550000Y-49000000D03*
X264300000Y-29600000D03*
X245000000Y-26150000D03*
X249000000Y-29000000D03*
X239100000Y-54500000D03*
X232250000Y-54050000D03*
X260550000Y-43200000D03*
X262850000Y-46050000D03*
X263550000Y-19150000D03*
X259500000Y-45100000D03*
X263300000Y-50500000D03*
X260200000Y-29600000D03*
X264100000Y-33300000D03*
X241100000Y-50550000D03*
X251700000Y-44200000D03*
D31*
X247162500Y-29800000D02*
X246500000Y-29137500D01*
X251600000Y-29800000D02*
X247162500Y-29800000D01*
X255537500Y-46800000D02*
X256650000Y-46800000D01*
X254400000Y-47937500D02*
X254437500Y-47900000D01*
X254437500Y-47900000D02*
X254600000Y-47900000D01*
X249975000Y-21450000D02*
X249975000Y-21325000D01*
X254600000Y-47737500D02*
X255537500Y-46800000D01*
X254600000Y-47900000D02*
X254600000Y-47737500D01*
D32*
X249975000Y-21325000D02*
X251100000Y-20200000D01*
D31*
X261800000Y-46100000D02*
X261800000Y-47937500D01*
X259812500Y-41262500D02*
X259812500Y-41687500D01*
X261800000Y-47937500D02*
X261237500Y-47937500D01*
X259812500Y-41687500D02*
X259812500Y-44112500D01*
X258900000Y-40350000D02*
X259812500Y-41262500D01*
X258900000Y-38700000D02*
X258900000Y-40350000D01*
X260100000Y-46800000D02*
X259550000Y-46800000D01*
X258900000Y-47475000D02*
X258900000Y-47200000D01*
X261237500Y-47937500D02*
X260100000Y-46800000D01*
X259812500Y-44112500D02*
X261800000Y-46100000D01*
X258600000Y-43850000D02*
X258150000Y-44300000D01*
X258600000Y-42300000D02*
X258600000Y-43850000D01*
X258150000Y-44300000D02*
X256600000Y-44300000D01*
X254062500Y-49662500D02*
X254400000Y-49662500D01*
X256600000Y-44300000D02*
X253500000Y-47400000D01*
X258100000Y-41575000D02*
X258100000Y-38700000D01*
X255750000Y-49900000D02*
X256650000Y-49000000D01*
X253500000Y-47400000D02*
X253500000Y-49100000D01*
X253500000Y-49100000D02*
X254062500Y-49662500D01*
X257987500Y-41687500D02*
X258100000Y-41575000D01*
X257987500Y-41687500D02*
X258600000Y-42300000D01*
X254400000Y-49662500D02*
X254637500Y-49900000D01*
X254637500Y-49900000D02*
X255750000Y-49900000D01*
D32*
X255050000Y-44400000D02*
X255050000Y-42729028D01*
X256500000Y-38700000D02*
X256500000Y-40700000D01*
X244600000Y-21400000D02*
X243200000Y-20000000D01*
X238571480Y-24904840D02*
X240001320Y-23475000D01*
X237401320Y-21548680D02*
X237401320Y-24904840D01*
X261700000Y-26600000D02*
X262900000Y-25400000D01*
X238950000Y-20000000D02*
X237401320Y-21548680D01*
D33*
X271050000Y-16750000D02*
X270600000Y-16300000D01*
D32*
X251434500Y-45265500D02*
X250600000Y-46100000D01*
X237401320Y-24904840D02*
X238571480Y-24904840D01*
X240850000Y-51650000D02*
X240010000Y-50810000D01*
X256500000Y-27350000D02*
X257250000Y-26600000D01*
X254000000Y-26600000D02*
X253300000Y-25900000D01*
X255050000Y-44400000D02*
X255050000Y-45050000D01*
D33*
X270600000Y-16300000D02*
X265250000Y-16300000D01*
D32*
X262900000Y-25400000D02*
X262900000Y-23300000D01*
X244600000Y-23650000D02*
X244600000Y-21400000D01*
D33*
X264519684Y-20969684D02*
X264512500Y-20962500D01*
X264512500Y-20962500D02*
X263550000Y-20962500D01*
D32*
X253300000Y-23300000D02*
X253300000Y-25900000D01*
D33*
X271050000Y-21600000D02*
X271050000Y-16750000D01*
D32*
X250600000Y-46100000D02*
X250600000Y-46929028D01*
X252600000Y-26600000D02*
X251600000Y-26600000D01*
X255800000Y-40700000D02*
X256500000Y-40700000D01*
X256500000Y-31400000D02*
X256500000Y-38700000D01*
X245879028Y-51650000D02*
X240850000Y-51650000D01*
X255415500Y-42363528D02*
X255415500Y-41084500D01*
X246850000Y-24825000D02*
X245775000Y-24825000D01*
X253300000Y-23300000D02*
X253300000Y-21750000D01*
X262900000Y-21612500D02*
X263550000Y-20962500D01*
X253300000Y-21750000D02*
X253000000Y-21450000D01*
X243200000Y-20000000D02*
X238950000Y-20000000D01*
X255415500Y-41084500D02*
X255800000Y-40700000D01*
X246850000Y-25650000D02*
X247800000Y-26600000D01*
X253000000Y-21450000D02*
X251700000Y-21450000D01*
X256500000Y-27350000D02*
X256500000Y-29800000D01*
D33*
X272175000Y-21900000D02*
X271350000Y-21900000D01*
D32*
X255750000Y-26600000D02*
X254000000Y-26600000D01*
X250600000Y-46929028D02*
X245879028Y-51650000D01*
X245775000Y-24825000D02*
X244600000Y-23650000D01*
D33*
X271350000Y-21900000D02*
X271050000Y-21600000D01*
X264850540Y-16699460D02*
X264850540Y-20638828D01*
D32*
X254834500Y-45265500D02*
X251434500Y-45265500D01*
X255050000Y-45050000D02*
X254834500Y-45265500D01*
X262900000Y-23300000D02*
X262900000Y-21612500D01*
D33*
X265250000Y-16300000D02*
X264850540Y-16699460D01*
D32*
X240010000Y-50810000D02*
X240010000Y-49170000D01*
X257250000Y-26600000D02*
X261700000Y-26600000D01*
X247800000Y-26600000D02*
X251600000Y-26600000D01*
X253300000Y-25900000D02*
X252600000Y-26600000D01*
D33*
X264850540Y-20638828D02*
X264519684Y-20969684D01*
D32*
X256500000Y-27350000D02*
X255750000Y-26600000D01*
X255700000Y-30600000D02*
X251600000Y-30600000D01*
X255700000Y-30600000D02*
X256500000Y-31400000D01*
X256500000Y-29800000D02*
X255700000Y-30600000D01*
X255050000Y-42729028D02*
X255415500Y-42363528D01*
X246850000Y-24825000D02*
X246850000Y-25650000D01*
D31*
X240518565Y-29400640D02*
X240520345Y-29402420D01*
X237401320Y-29400640D02*
X240518565Y-29400640D01*
X240520345Y-29402420D02*
X240520345Y-31102420D01*
X240518565Y-27404200D02*
X240520345Y-27402420D01*
X237401320Y-27404200D02*
X240518565Y-27404200D01*
X240520345Y-27402420D02*
X240520345Y-25752420D01*
X277425000Y-43200000D02*
X279375000Y-43200000D01*
X277425000Y-41500000D02*
X279375000Y-41500000D01*
X240001320Y-21650000D02*
X242101320Y-21650000D01*
X242101320Y-21650000D02*
X242151320Y-21700000D01*
X277425000Y-39750000D02*
X279375000Y-39750000D01*
X277425000Y-38050000D02*
X279375000Y-38050000D01*
X277400000Y-36350000D02*
X279375000Y-36350000D01*
X277400000Y-34650000D02*
X279400000Y-34650000D01*
X277387500Y-32950000D02*
X279400000Y-32950000D01*
X277387500Y-31250000D02*
X279400000Y-31250000D01*
X239100000Y-42850000D02*
X243700000Y-42850000D01*
X239150000Y-45400000D02*
X238600000Y-44850000D01*
X244450000Y-35200000D02*
X245850000Y-33800000D01*
X245850000Y-33800000D02*
X251600000Y-33800000D01*
X240631701Y-45400000D02*
X239150000Y-45400000D01*
X242550000Y-46630000D02*
X241861701Y-46630000D01*
X238600000Y-44850000D02*
X238600000Y-43350000D01*
X243700000Y-42850000D02*
X244450000Y-42100000D01*
X238600000Y-43350000D02*
X239100000Y-42850000D01*
X244450000Y-42100000D02*
X244450000Y-35200000D01*
X241861701Y-46630000D02*
X240631701Y-45400000D01*
X246900000Y-36050000D02*
X246900000Y-43700000D01*
X248900000Y-47900000D02*
X241280000Y-47900000D01*
X247550000Y-35400000D02*
X246900000Y-36050000D01*
X249400000Y-45300000D02*
X249400000Y-47400000D01*
X246900000Y-43700000D02*
X247650000Y-44450000D01*
X241280000Y-47900000D02*
X240010000Y-46630000D01*
X249400000Y-47400000D02*
X248900000Y-47900000D01*
X248550000Y-44450000D02*
X249400000Y-45300000D01*
X251600000Y-35400000D02*
X247550000Y-35400000D01*
X247650000Y-44450000D02*
X248550000Y-44450000D01*
X244310000Y-44090000D02*
X245200000Y-43200000D01*
X242550000Y-44090000D02*
X244310000Y-44090000D01*
X246250000Y-34600000D02*
X251600000Y-34600000D01*
X245200000Y-43200000D02*
X245200000Y-35650000D01*
X245200000Y-35650000D02*
X246250000Y-34600000D01*
X240340000Y-44090000D02*
X241600000Y-45350000D01*
X254900000Y-40850000D02*
X254900000Y-42150000D01*
X255700000Y-38700000D02*
X255700000Y-40050000D01*
X254900000Y-42150000D02*
X253225000Y-43825000D01*
X241600000Y-45350000D02*
X247038000Y-45350000D01*
X240010000Y-44090000D02*
X240340000Y-44090000D01*
X253225000Y-43825000D02*
X253225000Y-44400000D01*
X251900000Y-44400000D02*
X251700000Y-44200000D01*
X255700000Y-40050000D02*
X254900000Y-40850000D01*
X247038000Y-45350000D02*
X248200000Y-46512000D01*
X253225000Y-44400000D02*
X251900000Y-44400000D01*
X251600000Y-33000000D02*
X250600000Y-33000000D01*
X250600000Y-33000000D02*
X250400000Y-33200000D01*
X242550000Y-33950000D02*
X242550000Y-41550000D01*
X243300000Y-33200000D02*
X242550000Y-33950000D01*
X250400000Y-33200000D02*
X243300000Y-33200000D01*
X250600000Y-32200000D02*
X250200000Y-32600000D01*
X251600000Y-32200000D02*
X250600000Y-32200000D01*
X250200000Y-32600000D02*
X241650000Y-32600000D01*
X240010000Y-34240000D02*
X240010000Y-41550000D01*
X241650000Y-32600000D02*
X240010000Y-34240000D01*
D34*
X251600000Y-27400000D02*
X242347765Y-27400000D01*
X242347765Y-27400000D02*
X242345345Y-27402420D01*
X244400000Y-29450000D02*
X242392925Y-29450000D01*
X251600000Y-28200000D02*
X245650000Y-28200000D01*
X242392925Y-29450000D02*
X242345345Y-29402420D01*
X245650000Y-28200000D02*
X244400000Y-29450000D01*
D31*
X274000000Y-25850000D02*
X274000000Y-21900000D01*
X273300000Y-29150000D02*
X275512000Y-29150000D01*
X267000000Y-29000000D02*
X267950000Y-29000000D01*
X275512000Y-29150000D02*
X275512000Y-27362000D01*
X275512000Y-27362000D02*
X274000000Y-25850000D01*
X269050000Y-30100000D02*
X272350000Y-30100000D01*
X272350000Y-30100000D02*
X273300000Y-29150000D01*
X267950000Y-29000000D02*
X269050000Y-30100000D01*
X267000000Y-35400000D02*
X268600000Y-35400000D01*
X268600000Y-35400000D02*
X273900000Y-40700000D01*
X273900000Y-40700000D02*
X273900000Y-42650000D01*
X273900000Y-42650000D02*
X274450000Y-43200000D01*
X274450000Y-43200000D02*
X275600000Y-43200000D01*
X275600000Y-41400000D02*
X275600000Y-41500000D01*
X267000000Y-34600000D02*
X268800000Y-34600000D01*
X268800000Y-34600000D02*
X275600000Y-41400000D01*
X267000000Y-33800000D02*
X269000000Y-33800000D01*
X274950000Y-39750000D02*
X275600000Y-39750000D01*
X269000000Y-33800000D02*
X274950000Y-39750000D01*
X269700000Y-33200000D02*
X274550000Y-38050000D01*
X268968020Y-33200000D02*
X269700000Y-33200000D01*
X274550000Y-38050000D02*
X275600000Y-38050000D01*
X267000000Y-33000000D02*
X268768020Y-33000000D01*
X268768020Y-33000000D02*
X268968020Y-33200000D01*
X267000000Y-32200000D02*
X268604416Y-32200000D01*
X274150000Y-36350000D02*
X275575000Y-36350000D01*
X270300000Y-32500000D02*
X274150000Y-36350000D01*
X268904416Y-32500000D02*
X270300000Y-32500000D01*
X268604416Y-32200000D02*
X268904416Y-32500000D01*
X268440812Y-31400000D02*
X268940812Y-31900000D01*
X271300000Y-31900000D02*
X274050000Y-34650000D01*
X274050000Y-34650000D02*
X275575000Y-34650000D01*
X268940812Y-31900000D02*
X271300000Y-31900000D01*
X267000000Y-31400000D02*
X268440812Y-31400000D01*
X274050000Y-32950000D02*
X275562500Y-32950000D01*
X268277208Y-30600000D02*
X268977208Y-31300000D01*
X267000000Y-30600000D02*
X268277208Y-30600000D01*
X268977208Y-31300000D02*
X272400000Y-31300000D01*
X272400000Y-31300000D02*
X274050000Y-32950000D01*
X275012500Y-30700000D02*
X275562500Y-31250000D01*
X268113604Y-29800000D02*
X269013604Y-30700000D01*
X267000000Y-29800000D02*
X268113604Y-29800000D01*
X269013604Y-30700000D02*
X275012500Y-30700000D01*
X264500000Y-23300000D02*
X264500000Y-22425000D01*
X266350000Y-21500000D02*
X266700000Y-21150000D01*
X266700000Y-21150000D02*
X266700000Y-20000000D01*
X265425000Y-21500000D02*
X266350000Y-21500000D01*
X264500000Y-22425000D02*
X265425000Y-21500000D01*
X269400000Y-21450000D02*
X269400000Y-20000000D01*
X265300000Y-22400000D02*
X265750000Y-21950000D01*
X265300000Y-23300000D02*
X265300000Y-22400000D01*
X265750000Y-21950000D02*
X268900000Y-21950000D01*
X268900000Y-21950000D02*
X269400000Y-21450000D01*
X268050000Y-25000000D02*
X269950000Y-23100000D01*
X267000000Y-25000000D02*
X268050000Y-25000000D01*
X269950000Y-23100000D02*
X270200000Y-23100000D01*
X268650000Y-25800000D02*
X270050000Y-24400000D01*
X270050000Y-24400000D02*
X272500000Y-24400000D01*
X267000000Y-25800000D02*
X268650000Y-25800000D01*
X269800000Y-26600000D02*
X270500000Y-25900000D01*
X267000000Y-26600000D02*
X269800000Y-26600000D01*
X267000000Y-27400000D02*
X272500000Y-27400000D01*
X272500000Y-27400000D02*
X272600000Y-27500000D01*
X267000000Y-28200000D02*
X268000000Y-28200000D01*
X268000000Y-28200000D02*
X268600000Y-28800000D01*
X268600000Y-28800000D02*
X270300000Y-28800000D01*
X249800000Y-37000000D02*
X248850000Y-37000000D01*
X251600000Y-36200000D02*
X250600000Y-36200000D01*
X250600000Y-36200000D02*
X249800000Y-37000000D01*
X248850000Y-39350000D02*
X248850000Y-39700000D01*
X251200000Y-37000000D02*
X248850000Y-39350000D01*
X251600000Y-37000000D02*
X251200000Y-37000000D01*
X253300000Y-38700000D02*
X252250000Y-38700000D01*
X252250000Y-38700000D02*
X248550000Y-42400000D01*
X261450000Y-40650000D02*
X261450000Y-43150000D01*
X261450000Y-43150000D02*
X266000000Y-47700000D01*
X260500000Y-39700000D02*
X261450000Y-40650000D01*
X260500000Y-38700000D02*
X260500000Y-39700000D01*
X261300000Y-38700000D02*
X261300000Y-39786396D01*
X261900000Y-40386396D02*
X261900000Y-42950000D01*
X261300000Y-39786396D02*
X261900000Y-40386396D01*
X263904000Y-44954000D02*
X264511720Y-44954000D01*
X261900000Y-42950000D02*
X263904000Y-44954000D01*
X262100000Y-38700000D02*
X262100000Y-39950000D01*
X263238000Y-41088000D02*
X263238000Y-42160000D01*
X262100000Y-39950000D02*
X263238000Y-41088000D01*
X264650000Y-41450000D02*
X264650000Y-42800000D01*
X262900000Y-38700000D02*
X262900000Y-39700000D01*
X264650000Y-42800000D02*
X265450000Y-43600000D01*
X267050000Y-43600000D02*
X268100000Y-44650000D01*
X268100000Y-44650000D02*
X268100000Y-45000000D01*
X262900000Y-39700000D02*
X264650000Y-41450000D01*
X265450000Y-43600000D02*
X267050000Y-43600000D01*
X265700000Y-40600000D02*
X266032000Y-40932000D01*
X263700000Y-38700000D02*
X263700000Y-39700000D01*
X263700000Y-39700000D02*
X264600000Y-40600000D01*
X264600000Y-40600000D02*
X265700000Y-40600000D01*
X266032000Y-40932000D02*
X266032000Y-42160000D01*
X266350000Y-40000000D02*
X267450000Y-41100000D01*
X267450000Y-43050000D02*
X267950000Y-43550000D01*
X264500000Y-38700000D02*
X264500000Y-39700000D01*
X267450000Y-41100000D02*
X267450000Y-43050000D01*
X268850000Y-43550000D02*
X270600000Y-45300000D01*
X264500000Y-39700000D02*
X264800000Y-40000000D01*
X270600000Y-45300000D02*
X270600000Y-46750000D01*
X264800000Y-40000000D02*
X266350000Y-40000000D01*
X267950000Y-43550000D02*
X268850000Y-43550000D01*
X265900000Y-38700000D02*
X268826000Y-41626000D01*
X268826000Y-41626000D02*
X268826000Y-42160000D01*
X265300000Y-38700000D02*
X265900000Y-38700000D01*
X261300000Y-23300000D02*
X261300000Y-22136396D01*
X261300000Y-22136396D02*
X262750000Y-20686396D01*
X262750000Y-20686396D02*
X262750000Y-16750000D01*
X262750000Y-16750000D02*
X263100000Y-16400000D01*
X260500000Y-22300000D02*
X262150000Y-20650000D01*
X260500000Y-23300000D02*
X260500000Y-22300000D01*
X262150000Y-20650000D02*
X262150000Y-18750000D01*
X262150000Y-18750000D02*
X260700000Y-17300000D01*
X252400000Y-19672792D02*
X252400000Y-19350000D01*
X254900000Y-23300000D02*
X254900000Y-22172792D01*
X254900000Y-22172792D02*
X252400000Y-19672792D01*
X270750000Y-43400000D02*
X271050000Y-43700000D01*
X267000000Y-37000000D02*
X270750000Y-40750000D01*
X270750000Y-40750000D02*
X270750000Y-43400000D01*
X249000000Y-31400000D02*
X248700000Y-31100000D01*
X251600000Y-31400000D02*
X249000000Y-31400000D01*
X254100000Y-38700000D02*
X254100000Y-39700000D01*
X253700000Y-40100000D02*
X252300000Y-40100000D01*
X252300000Y-40100000D02*
X251200000Y-41200000D01*
X254100000Y-39700000D02*
X253700000Y-40100000D01*
X251200000Y-41200000D02*
X251200000Y-42400000D01*
X254900000Y-40150000D02*
X254900000Y-38700000D01*
X253600000Y-41450000D02*
X254900000Y-40150000D01*
X251600000Y-25000000D02*
X250550000Y-25000000D01*
X250550000Y-25000000D02*
X248650000Y-23100000D01*
X248650000Y-23100000D02*
X248650000Y-20400000D01*
X248650000Y-20400000D02*
X249700000Y-19350000D01*
X255700000Y-22336396D02*
X253750000Y-20386396D01*
X253750000Y-18050000D02*
X252350000Y-16650000D01*
X253750000Y-20386396D02*
X253750000Y-18050000D01*
X255700000Y-23300000D02*
X255700000Y-22336396D01*
X256500000Y-22100000D02*
X256150000Y-21750000D01*
X256150000Y-21750000D02*
X255750000Y-21750000D01*
X256500000Y-23300000D02*
X256500000Y-22100000D01*
X255300000Y-21300000D02*
X255300000Y-20000000D01*
X255750000Y-21750000D02*
X255300000Y-21300000D01*
X257300000Y-23300000D02*
X257300000Y-21900000D01*
X257300000Y-21900000D02*
X256650000Y-21250000D01*
X256650000Y-21250000D02*
X256650000Y-18700000D01*
X256650000Y-18700000D02*
X255250000Y-17300000D01*
X258100000Y-20100000D02*
X258000000Y-20000000D01*
X258100000Y-23300000D02*
X258100000Y-20100000D01*
X258900000Y-23300000D02*
X258900000Y-21750000D01*
X259350000Y-21300000D02*
X259350000Y-18700000D01*
X258900000Y-21750000D02*
X259350000Y-21300000D01*
X259350000Y-18700000D02*
X257950000Y-17300000D01*
X259700000Y-22250000D02*
X260700000Y-21250000D01*
X259700000Y-23300000D02*
X259700000Y-22250000D01*
X260700000Y-21250000D02*
X260700000Y-20000000D01*
X263700000Y-23300000D02*
X263700000Y-22425000D01*
X265300000Y-18100000D02*
X265650000Y-17750000D01*
X265300000Y-20825000D02*
X265300000Y-18100000D01*
X265650000Y-17750000D02*
X268050000Y-17750000D01*
X263700000Y-22425000D02*
X265300000Y-20825000D01*
X251600000Y-25800000D02*
X250600000Y-25800000D01*
X250600000Y-25800000D02*
X248150000Y-23350000D01*
X248150000Y-23350000D02*
X248150000Y-18150000D01*
X248150000Y-18150000D02*
X249650000Y-16650000D01*
X268300000Y-36200000D02*
X272250000Y-40150000D01*
X267000000Y-36200000D02*
X268300000Y-36200000D01*
X272250000Y-40150000D02*
X272250000Y-41300000D01*
G04 #@! TA.AperFunction,Conductor*
G36*
X248518247Y-48245185D02*
G01*
X248564002Y-48297989D01*
X248573946Y-48367147D01*
X248544921Y-48430703D01*
X248538889Y-48437181D01*
X245753390Y-51222681D01*
X245692067Y-51256166D01*
X245665709Y-51259000D01*
X241063320Y-51259000D01*
X240996281Y-51239315D01*
X240975639Y-51222681D01*
X240437319Y-50684361D01*
X240403834Y-50623038D01*
X240401000Y-50596680D01*
X240401000Y-50226478D01*
X240420685Y-50159439D01*
X240466547Y-50117120D01*
X240487177Y-50106093D01*
X240596450Y-50047685D01*
X240756410Y-49916410D01*
X240887685Y-49756450D01*
X240966643Y-49608730D01*
X241015604Y-49558887D01*
X241083742Y-49543427D01*
X241149422Y-49567259D01*
X241191790Y-49622816D01*
X241200000Y-49667184D01*
X241200000Y-49819970D01*
X241200001Y-49819987D01*
X241210494Y-49922697D01*
X241265641Y-50089119D01*
X241265643Y-50089124D01*
X241357684Y-50238345D01*
X241481654Y-50362315D01*
X241630875Y-50454356D01*
X241630880Y-50454358D01*
X241797302Y-50509505D01*
X241797309Y-50509506D01*
X241900019Y-50519999D01*
X242299999Y-50519999D01*
X242300000Y-50519998D01*
X242300000Y-49605501D01*
X242407685Y-49654680D01*
X242514237Y-49670000D01*
X242585763Y-49670000D01*
X242692315Y-49654680D01*
X242800000Y-49605501D01*
X242800000Y-50519999D01*
X243199972Y-50519999D01*
X243199986Y-50519998D01*
X243302697Y-50509505D01*
X243469119Y-50454358D01*
X243469124Y-50454356D01*
X243618345Y-50362315D01*
X243742315Y-50238345D01*
X243834356Y-50089124D01*
X243834358Y-50089119D01*
X243889505Y-49922697D01*
X243889506Y-49922690D01*
X243899999Y-49819986D01*
X243900000Y-49819973D01*
X243900000Y-49420000D01*
X242983686Y-49420000D01*
X243009493Y-49379844D01*
X243050000Y-49241889D01*
X243050000Y-49098111D01*
X243009493Y-48960156D01*
X242983686Y-48920000D01*
X243899999Y-48920000D01*
X243899999Y-48520028D01*
X243899998Y-48520013D01*
X243889505Y-48417302D01*
X243879963Y-48388504D01*
X243877561Y-48318675D01*
X243913293Y-48258634D01*
X243975814Y-48227441D01*
X243997669Y-48225500D01*
X248451208Y-48225500D01*
X248518247Y-48245185D01*
G37*
G04 #@! TD.AperFunction*
G04 #@! TA.AperFunction,Conductor*
G36*
X258630703Y-40545686D02*
G01*
X258644492Y-40559696D01*
X258646803Y-40562449D01*
X258646806Y-40562455D01*
X258658895Y-40572599D01*
X258677815Y-40588475D01*
X258681805Y-40592131D01*
X259164140Y-41074466D01*
X259197625Y-41135789D01*
X259192641Y-41205481D01*
X259176233Y-41235775D01*
X259170888Y-41243017D01*
X259170883Y-41243026D01*
X259127274Y-41367650D01*
X259124500Y-41397239D01*
X259124500Y-41977760D01*
X259127274Y-42007349D01*
X259170884Y-42131976D01*
X259249288Y-42238210D01*
X259249289Y-42238211D01*
X259348610Y-42311513D01*
X259355525Y-42316616D01*
X259403957Y-42333563D01*
X259460730Y-42374282D01*
X259486478Y-42439235D01*
X259487000Y-42450603D01*
X259487000Y-44095578D01*
X259486764Y-44100985D01*
X259483235Y-44141308D01*
X259493712Y-44180410D01*
X259494883Y-44185690D01*
X259501911Y-44225543D01*
X259503735Y-44230555D01*
X259510697Y-44247361D01*
X259512945Y-44252181D01*
X259512946Y-44252184D01*
X259515523Y-44255864D01*
X259536155Y-44285331D01*
X259539061Y-44289892D01*
X259559306Y-44324955D01*
X259590315Y-44350975D01*
X259594305Y-44354631D01*
X260729442Y-45489768D01*
X260762927Y-45551091D01*
X260757943Y-45620783D01*
X260716071Y-45676716D01*
X260650607Y-45701133D01*
X260625863Y-45699585D01*
X260625813Y-45700097D01*
X260619751Y-45699500D01*
X260619748Y-45699500D01*
X258480252Y-45699500D01*
X258480247Y-45699500D01*
X258421770Y-45711131D01*
X258421769Y-45711132D01*
X258345293Y-45762233D01*
X258342823Y-45758536D01*
X258302244Y-45780550D01*
X258232567Y-45775374D01*
X258176749Y-45733349D01*
X258160038Y-45702645D01*
X258143354Y-45657913D01*
X258143350Y-45657906D01*
X258057190Y-45542812D01*
X258057187Y-45542809D01*
X257942093Y-45456649D01*
X257942086Y-45456645D01*
X257807379Y-45406403D01*
X257807372Y-45406401D01*
X257747844Y-45400000D01*
X256900000Y-45400000D01*
X256900000Y-46926000D01*
X256880315Y-46993039D01*
X256827511Y-47038794D01*
X256776000Y-47050000D01*
X255125010Y-47050000D01*
X255059913Y-47031539D01*
X254951305Y-46964548D01*
X254951300Y-46964546D01*
X254787652Y-46910319D01*
X254740898Y-46905542D01*
X254676207Y-46879145D01*
X254636056Y-46821964D01*
X254633194Y-46752153D01*
X254665818Y-46694507D01*
X254888321Y-46472004D01*
X254949642Y-46438521D01*
X255019334Y-46443505D01*
X255075267Y-46485377D01*
X255098995Y-46548995D01*
X255100000Y-46550000D01*
X256400000Y-46550000D01*
X256400000Y-45400000D01*
X256259688Y-45400000D01*
X256192649Y-45380315D01*
X256146894Y-45327511D01*
X256136950Y-45258353D01*
X256165975Y-45194797D01*
X256172007Y-45188319D01*
X256698507Y-44661819D01*
X256759830Y-44628334D01*
X256786188Y-44625500D01*
X258133078Y-44625500D01*
X258138481Y-44625735D01*
X258178807Y-44629264D01*
X258217940Y-44618777D01*
X258223162Y-44617619D01*
X258263045Y-44610588D01*
X258263050Y-44610584D01*
X258268099Y-44608747D01*
X258284824Y-44601819D01*
X258289681Y-44599554D01*
X258289684Y-44599554D01*
X258322841Y-44576335D01*
X258327390Y-44573438D01*
X258362455Y-44553194D01*
X258388481Y-44522176D01*
X258392122Y-44518202D01*
X258818204Y-44092120D01*
X258822166Y-44088489D01*
X258853194Y-44062455D01*
X258873438Y-44027390D01*
X258876335Y-44022841D01*
X258899554Y-43989684D01*
X258899554Y-43989681D01*
X258901819Y-43984824D01*
X258908747Y-43968099D01*
X258910587Y-43963046D01*
X258910588Y-43963045D01*
X258917621Y-43923150D01*
X258918777Y-43917937D01*
X258929263Y-43878807D01*
X258925735Y-43838489D01*
X258925500Y-43833086D01*
X258925500Y-42316920D01*
X258925736Y-42311513D01*
X258926604Y-42301600D01*
X258929264Y-42271193D01*
X258918782Y-42232076D01*
X258917616Y-42226818D01*
X258910588Y-42186955D01*
X258910586Y-42186952D01*
X258910586Y-42186950D01*
X258908760Y-42181933D01*
X258901820Y-42165176D01*
X258899554Y-42160319D01*
X258899554Y-42160316D01*
X258876339Y-42127162D01*
X258873433Y-42122599D01*
X258853196Y-42087548D01*
X258853195Y-42087547D01*
X258853194Y-42087545D01*
X258822177Y-42061518D01*
X258818193Y-42057867D01*
X258711819Y-41951493D01*
X258678334Y-41890170D01*
X258675500Y-41863812D01*
X258675500Y-41397239D01*
X258672725Y-41367650D01*
X258645993Y-41291257D01*
X258629116Y-41243025D01*
X258629110Y-41243017D01*
X258550712Y-41136790D01*
X258550709Y-41136788D01*
X258497464Y-41097491D01*
X258475866Y-41081551D01*
X258433615Y-41025903D01*
X258425500Y-40981781D01*
X258425500Y-40639399D01*
X258445185Y-40572360D01*
X258497989Y-40526605D01*
X258567147Y-40516661D01*
X258630703Y-40545686D01*
G37*
G04 #@! TD.AperFunction*
G04 #@! TA.AperFunction,Conductor*
G36*
X257382078Y-42194685D02*
G01*
X257414808Y-42225365D01*
X257424289Y-42238211D01*
X257530523Y-42316615D01*
X257530524Y-42316615D01*
X257530525Y-42316616D01*
X257655151Y-42360225D01*
X257655150Y-42360225D01*
X257684740Y-42363000D01*
X257684744Y-42363000D01*
X258150500Y-42363000D01*
X258217539Y-42382685D01*
X258263294Y-42435489D01*
X258274500Y-42487000D01*
X258274500Y-43663812D01*
X258254815Y-43730851D01*
X258238181Y-43751493D01*
X258051493Y-43938181D01*
X257990170Y-43971666D01*
X257963812Y-43974500D01*
X256616922Y-43974500D01*
X256611518Y-43974264D01*
X256606107Y-43973790D01*
X256571192Y-43970735D01*
X256571191Y-43970735D01*
X256532091Y-43981212D01*
X256526811Y-43982383D01*
X256486959Y-43989410D01*
X256481961Y-43991229D01*
X256465117Y-43998206D01*
X256460313Y-44000446D01*
X256427166Y-44023656D01*
X256422606Y-44026562D01*
X256390844Y-44044901D01*
X256387545Y-44046806D01*
X256387543Y-44046808D01*
X256387541Y-44046810D01*
X256361524Y-44077815D01*
X256357869Y-44081804D01*
X255949681Y-44489992D01*
X255888358Y-44523477D01*
X255818667Y-44518493D01*
X255762733Y-44476622D01*
X255738316Y-44411157D01*
X255738000Y-44402311D01*
X255738000Y-44109739D01*
X255735225Y-44080150D01*
X255704189Y-43991456D01*
X255691616Y-43955525D01*
X255689508Y-43952669D01*
X255613211Y-43849289D01*
X255613210Y-43849288D01*
X255499499Y-43765366D01*
X255500269Y-43764321D01*
X255456985Y-43722198D01*
X255441000Y-43661298D01*
X255441000Y-43235206D01*
X255460685Y-43168167D01*
X255513489Y-43122412D01*
X255582647Y-43112468D01*
X255646203Y-43141493D01*
X255670539Y-43170110D01*
X255680054Y-43185537D01*
X255801961Y-43307444D01*
X255801965Y-43307447D01*
X255948688Y-43397948D01*
X255948699Y-43397953D01*
X256112347Y-43452180D01*
X256213352Y-43462499D01*
X256250000Y-43462499D01*
X256250000Y-42675000D01*
X256750000Y-42675000D01*
X256750000Y-43462499D01*
X256786640Y-43462499D01*
X256786654Y-43462498D01*
X256887652Y-43452180D01*
X257051300Y-43397953D01*
X257051311Y-43397948D01*
X257198034Y-43307447D01*
X257198038Y-43307444D01*
X257319944Y-43185538D01*
X257319947Y-43185534D01*
X257410448Y-43038811D01*
X257410453Y-43038800D01*
X257464680Y-42875152D01*
X257474999Y-42774154D01*
X257475000Y-42774141D01*
X257475000Y-42675000D01*
X256750000Y-42675000D01*
X256250000Y-42675000D01*
X256250000Y-42299000D01*
X256269685Y-42231961D01*
X256322489Y-42186206D01*
X256374000Y-42175000D01*
X257315039Y-42175000D01*
X257382078Y-42194685D01*
G37*
G04 #@! TD.AperFunction*
G04 #@! TA.AperFunction,Conductor*
G36*
X245746846Y-28630638D02*
G01*
X245802779Y-28672510D01*
X245827196Y-28737974D01*
X245826970Y-28758396D01*
X245824500Y-28784738D01*
X245824500Y-29490260D01*
X245827274Y-29519849D01*
X245870883Y-29644474D01*
X245939494Y-29737439D01*
X245963464Y-29803068D01*
X245948148Y-29871238D01*
X245904821Y-29916610D01*
X245801962Y-29980054D01*
X245680055Y-30101961D01*
X245680052Y-30101965D01*
X245589551Y-30248688D01*
X245589546Y-30248699D01*
X245535319Y-30412347D01*
X245525000Y-30513345D01*
X245525000Y-30612500D01*
X247474999Y-30612500D01*
X247474999Y-30513360D01*
X247474998Y-30513345D01*
X247464680Y-30412347D01*
X247423643Y-30288504D01*
X247421241Y-30218676D01*
X247456973Y-30158634D01*
X247519493Y-30127441D01*
X247541349Y-30125500D01*
X248042592Y-30125500D01*
X248109631Y-30145185D01*
X248155386Y-30197989D01*
X248165330Y-30267147D01*
X248136305Y-30330703D01*
X248121257Y-30345353D01*
X248024642Y-30424642D01*
X247905864Y-30569373D01*
X247905862Y-30569376D01*
X247817604Y-30734497D01*
X247763253Y-30913666D01*
X247763252Y-30913668D01*
X247744901Y-31100000D01*
X247763252Y-31286331D01*
X247763253Y-31286333D01*
X247817604Y-31465502D01*
X247905862Y-31630623D01*
X247905864Y-31630626D01*
X248024642Y-31775357D01*
X248169373Y-31894135D01*
X248169376Y-31894137D01*
X248270219Y-31948038D01*
X248334499Y-31982396D01*
X248400600Y-32002447D01*
X248497491Y-32031840D01*
X248555929Y-32070137D01*
X248584386Y-32133950D01*
X248573825Y-32203017D01*
X248527600Y-32255410D01*
X248461495Y-32274500D01*
X242850533Y-32274500D01*
X242783494Y-32254815D01*
X242737739Y-32202011D01*
X242727795Y-32132853D01*
X242756820Y-32069297D01*
X242811529Y-32032794D01*
X242871645Y-32012873D01*
X242871656Y-32012868D01*
X243018379Y-31922367D01*
X243018383Y-31922364D01*
X243140289Y-31800458D01*
X243140292Y-31800454D01*
X243230793Y-31653731D01*
X243230798Y-31653720D01*
X243285025Y-31490072D01*
X243295344Y-31389074D01*
X243295345Y-31389061D01*
X243295345Y-31352420D01*
X242144345Y-31352420D01*
X242077306Y-31332735D01*
X242031551Y-31279931D01*
X242020345Y-31228420D01*
X242020345Y-31112500D01*
X245525001Y-31112500D01*
X245525001Y-31211654D01*
X245535319Y-31312652D01*
X245589546Y-31476300D01*
X245589551Y-31476311D01*
X245680052Y-31623034D01*
X245680055Y-31623038D01*
X245801961Y-31744944D01*
X245801965Y-31744947D01*
X245948688Y-31835448D01*
X245948699Y-31835453D01*
X246112347Y-31889680D01*
X246213352Y-31899999D01*
X246250000Y-31899999D01*
X246250000Y-31112500D01*
X246750000Y-31112500D01*
X246750000Y-31899999D01*
X246786640Y-31899999D01*
X246786654Y-31899998D01*
X246887652Y-31889680D01*
X247051300Y-31835453D01*
X247051311Y-31835448D01*
X247198034Y-31744947D01*
X247198038Y-31744944D01*
X247319944Y-31623038D01*
X247319947Y-31623034D01*
X247410448Y-31476311D01*
X247410453Y-31476300D01*
X247464680Y-31312652D01*
X247474999Y-31211654D01*
X247475000Y-31211641D01*
X247475000Y-31112500D01*
X246750000Y-31112500D01*
X246250000Y-31112500D01*
X245525001Y-31112500D01*
X242020345Y-31112500D01*
X242020345Y-30976420D01*
X242040030Y-30909381D01*
X242092834Y-30863626D01*
X242144345Y-30852420D01*
X243295344Y-30852420D01*
X243295344Y-30815780D01*
X243295343Y-30815765D01*
X243285025Y-30714767D01*
X243230798Y-30551119D01*
X243230793Y-30551108D01*
X243140292Y-30404385D01*
X243140289Y-30404381D01*
X243018382Y-30282474D01*
X242871655Y-30191971D01*
X242824931Y-30140023D01*
X242813710Y-30071060D01*
X242841553Y-30006978D01*
X242863110Y-29986671D01*
X242908556Y-29953131D01*
X242986961Y-29846895D01*
X242991632Y-29833543D01*
X243032353Y-29776770D01*
X243097305Y-29751022D01*
X243108673Y-29750500D01*
X244337159Y-29750500D01*
X244345733Y-29751095D01*
X244357761Y-29752772D01*
X244357761Y-29752771D01*
X244357765Y-29752773D01*
X244402371Y-29750711D01*
X244405510Y-29750566D01*
X244408373Y-29750500D01*
X244427843Y-29750500D01*
X244427844Y-29750500D01*
X244430469Y-29750009D01*
X244439021Y-29749016D01*
X244440245Y-29748959D01*
X244469992Y-29747585D01*
X244476322Y-29744789D01*
X244503629Y-29736332D01*
X244510433Y-29735061D01*
X244536797Y-29718736D01*
X244544392Y-29714733D01*
X244572765Y-29702206D01*
X244577661Y-29697309D01*
X244600069Y-29679561D01*
X244605952Y-29675919D01*
X244624649Y-29651158D01*
X244630266Y-29644703D01*
X245615832Y-28659137D01*
X245677154Y-28625654D01*
X245746846Y-28630638D01*
G37*
G04 #@! TD.AperFunction*
G04 #@! TA.AperFunction,Conductor*
G36*
X253343333Y-26512136D02*
G01*
X253387679Y-26540636D01*
X253679730Y-26832688D01*
X253679731Y-26832689D01*
X253767311Y-26920269D01*
X253784965Y-26929264D01*
X253786374Y-26929982D01*
X253802961Y-26940147D01*
X253820271Y-26952723D01*
X253820273Y-26952724D01*
X253820276Y-26952726D01*
X253840626Y-26959338D01*
X253858590Y-26966778D01*
X253877668Y-26976499D01*
X253898805Y-26979846D01*
X253917719Y-26984387D01*
X253938071Y-26991000D01*
X253969226Y-26991000D01*
X255536681Y-26991000D01*
X255603720Y-27010685D01*
X255624362Y-27027319D01*
X256072681Y-27475638D01*
X256106166Y-27536961D01*
X256109000Y-27563319D01*
X256109000Y-29586681D01*
X256089315Y-29653720D01*
X256072681Y-29674362D01*
X255574362Y-30172681D01*
X255513039Y-30206166D01*
X255486681Y-30209000D01*
X252674500Y-30209000D01*
X252607461Y-30189315D01*
X252561706Y-30136511D01*
X252550500Y-30085000D01*
X252550500Y-29811556D01*
X252570185Y-29744517D01*
X252600189Y-29712290D01*
X252707187Y-29632190D01*
X252707190Y-29632187D01*
X252793350Y-29517093D01*
X252793354Y-29517086D01*
X252843596Y-29382379D01*
X252843598Y-29382372D01*
X252849999Y-29322844D01*
X252850000Y-29322827D01*
X252850000Y-29250000D01*
X250350000Y-29250000D01*
X250350000Y-29322828D01*
X250351550Y-29337245D01*
X250339144Y-29406004D01*
X250291534Y-29457142D01*
X250228260Y-29474500D01*
X247348689Y-29474500D01*
X247281650Y-29454815D01*
X247261008Y-29438181D01*
X247211819Y-29388992D01*
X247178334Y-29327669D01*
X247175500Y-29301311D01*
X247175500Y-28784739D01*
X247172725Y-28755150D01*
X247141339Y-28665456D01*
X247137776Y-28595677D01*
X247172505Y-28535049D01*
X247234498Y-28502822D01*
X247258380Y-28500500D01*
X250230948Y-28500500D01*
X250297987Y-28520185D01*
X250343742Y-28572989D01*
X250354237Y-28637756D01*
X250350000Y-28677155D01*
X250350000Y-28750000D01*
X252850000Y-28750000D01*
X252850000Y-28677172D01*
X252849999Y-28677155D01*
X252843598Y-28617627D01*
X252843596Y-28617620D01*
X252793354Y-28482913D01*
X252793350Y-28482906D01*
X252707190Y-28367812D01*
X252600188Y-28287709D01*
X252558318Y-28231775D01*
X252550500Y-28188443D01*
X252550500Y-27905249D01*
X252550499Y-27905247D01*
X252536485Y-27834790D01*
X252537762Y-27834535D01*
X252531680Y-27777991D01*
X252538694Y-27754100D01*
X252540467Y-27745185D01*
X252550500Y-27694748D01*
X252550500Y-27114554D01*
X252570185Y-27047515D01*
X252622989Y-27001760D01*
X252655108Y-26992080D01*
X252661928Y-26991000D01*
X252682276Y-26984388D01*
X252701187Y-26979847D01*
X252722332Y-26976499D01*
X252741396Y-26966784D01*
X252759371Y-26959339D01*
X252779723Y-26952727D01*
X252797031Y-26940150D01*
X252813620Y-26929984D01*
X252832689Y-26920269D01*
X252920269Y-26832689D01*
X252920269Y-26832688D01*
X252937707Y-26815250D01*
X252937708Y-26815247D01*
X253212321Y-26540634D01*
X253273641Y-26507152D01*
X253343333Y-26512136D01*
G37*
G04 #@! TD.AperFunction*
G04 #@! TA.AperFunction,Conductor*
G36*
X243053720Y-20410685D02*
G01*
X243074362Y-20427319D01*
X244172681Y-21525638D01*
X244206166Y-21586961D01*
X244209000Y-21613319D01*
X244209000Y-23588072D01*
X244209000Y-23711928D01*
X244215613Y-23732284D01*
X244220152Y-23751189D01*
X244223501Y-23772330D01*
X244223502Y-23772335D01*
X244233213Y-23791394D01*
X244240657Y-23809364D01*
X244247272Y-23829721D01*
X244247272Y-23829722D01*
X244259849Y-23847032D01*
X244270014Y-23863620D01*
X244279729Y-23882686D01*
X244279731Y-23882689D01*
X244367311Y-23970269D01*
X244367312Y-23970269D01*
X244374379Y-23977336D01*
X244374378Y-23977336D01*
X244374382Y-23977339D01*
X245452388Y-25055345D01*
X245452398Y-25055356D01*
X245454730Y-25057688D01*
X245454731Y-25057689D01*
X245542311Y-25145269D01*
X245561369Y-25154979D01*
X245577964Y-25165148D01*
X245595276Y-25177726D01*
X245595277Y-25177727D01*
X245615628Y-25184339D01*
X245633596Y-25191781D01*
X245652668Y-25201499D01*
X245673808Y-25204847D01*
X245692714Y-25209385D01*
X245713072Y-25216000D01*
X245744226Y-25216000D01*
X246092320Y-25216000D01*
X246159359Y-25235685D01*
X246205114Y-25288489D01*
X246209361Y-25299045D01*
X246220884Y-25331975D01*
X246220884Y-25331976D01*
X246299288Y-25438210D01*
X246299289Y-25438211D01*
X246408633Y-25518910D01*
X246450884Y-25574557D01*
X246459000Y-25618680D01*
X246459000Y-25711928D01*
X246465613Y-25732284D01*
X246470152Y-25751189D01*
X246473501Y-25772330D01*
X246473502Y-25772335D01*
X246483213Y-25791394D01*
X246490657Y-25809364D01*
X246497272Y-25829721D01*
X246497272Y-25829722D01*
X246509849Y-25847032D01*
X246520014Y-25863620D01*
X246529729Y-25882686D01*
X246529731Y-25882689D01*
X246617311Y-25970269D01*
X246617312Y-25970269D01*
X246624379Y-25977336D01*
X246624378Y-25977336D01*
X246624382Y-25977339D01*
X247477388Y-26830345D01*
X247477398Y-26830356D01*
X247479730Y-26832688D01*
X247479731Y-26832689D01*
X247534862Y-26887820D01*
X247568346Y-26949141D01*
X247563362Y-27018833D01*
X247521491Y-27074766D01*
X247456027Y-27099184D01*
X247447180Y-27099500D01*
X243124476Y-27099500D01*
X243057437Y-27079815D01*
X243011682Y-27027011D01*
X243007435Y-27016455D01*
X242998905Y-26992080D01*
X242986961Y-26957945D01*
X242984566Y-26954700D01*
X242908556Y-26851709D01*
X242908554Y-26851707D01*
X242900022Y-26845410D01*
X242857773Y-26789762D01*
X242852316Y-26720106D01*
X242885385Y-26658557D01*
X242908561Y-26640103D01*
X243018384Y-26572363D01*
X243140289Y-26450458D01*
X243140292Y-26450454D01*
X243230793Y-26303731D01*
X243230798Y-26303720D01*
X243285025Y-26140072D01*
X243295344Y-26039074D01*
X243295345Y-26039061D01*
X243295345Y-26002420D01*
X242144345Y-26002420D01*
X242077306Y-25982735D01*
X242031551Y-25929931D01*
X242020345Y-25878420D01*
X242020345Y-24777420D01*
X242520345Y-24777420D01*
X242520345Y-25502420D01*
X243295344Y-25502420D01*
X243295344Y-25465780D01*
X243295343Y-25465765D01*
X243285025Y-25364767D01*
X243230798Y-25201119D01*
X243230793Y-25201108D01*
X243140292Y-25054385D01*
X243140289Y-25054381D01*
X243018383Y-24932475D01*
X243018379Y-24932472D01*
X242871656Y-24841971D01*
X242871645Y-24841966D01*
X242707997Y-24787739D01*
X242606999Y-24777420D01*
X242520345Y-24777420D01*
X242020345Y-24777420D01*
X242020344Y-24777419D01*
X241933705Y-24777420D01*
X241933688Y-24777421D01*
X241832692Y-24787739D01*
X241669044Y-24841966D01*
X241669033Y-24841971D01*
X241522310Y-24932472D01*
X241522306Y-24932475D01*
X241400399Y-25054382D01*
X241319953Y-25184804D01*
X241268005Y-25231528D01*
X241199042Y-25242749D01*
X241134960Y-25214905D01*
X241126734Y-25207387D01*
X241121055Y-25201708D01*
X241014821Y-25123304D01*
X240890193Y-25079694D01*
X240890194Y-25079694D01*
X240860605Y-25076920D01*
X240860601Y-25076920D01*
X240180089Y-25076920D01*
X240180085Y-25076920D01*
X240150495Y-25079694D01*
X240025868Y-25123304D01*
X239919634Y-25201708D01*
X239919633Y-25201709D01*
X239841229Y-25307943D01*
X239797619Y-25432570D01*
X239794845Y-25462159D01*
X239794845Y-26042680D01*
X239797619Y-26072269D01*
X239841229Y-26196896D01*
X239902364Y-26279731D01*
X239919634Y-26303131D01*
X240025870Y-26381536D01*
X240076011Y-26399081D01*
X240111800Y-26411605D01*
X240168576Y-26452327D01*
X240194323Y-26517280D01*
X240194845Y-26528646D01*
X240194845Y-26639316D01*
X240175160Y-26706355D01*
X240122356Y-26752110D01*
X240111801Y-26756357D01*
X240063368Y-26773304D01*
X239957134Y-26851708D01*
X239957133Y-26851709D01*
X239878729Y-26957943D01*
X239865533Y-26995656D01*
X239824811Y-27052432D01*
X239759858Y-27078178D01*
X239748492Y-27078700D01*
X239225690Y-27078700D01*
X239158651Y-27059015D01*
X239112896Y-27006211D01*
X239101690Y-26954700D01*
X239101690Y-26934869D01*
X239101689Y-26934867D01*
X239090058Y-26876390D01*
X239090057Y-26876389D01*
X239045742Y-26810067D01*
X238979420Y-26765752D01*
X238979419Y-26765751D01*
X238920942Y-26754120D01*
X238920938Y-26754120D01*
X237997541Y-26754120D01*
X237930502Y-26734435D01*
X237884747Y-26681631D01*
X237874803Y-26612473D01*
X237903828Y-26548917D01*
X237960990Y-26511629D01*
X238024277Y-26492108D01*
X238253889Y-26381533D01*
X238464456Y-26237971D01*
X238640326Y-26074787D01*
X238651271Y-26064632D01*
X238651271Y-26064630D01*
X238651275Y-26064628D01*
X238810171Y-25865378D01*
X238937596Y-25644672D01*
X239030704Y-25407438D01*
X239087413Y-25158978D01*
X239101562Y-24970154D01*
X239126200Y-24904776D01*
X239137527Y-24891748D01*
X239829958Y-24199319D01*
X239891281Y-24165834D01*
X239917639Y-24163000D01*
X240291580Y-24163000D01*
X240321169Y-24160225D01*
X240346192Y-24151469D01*
X240445795Y-24116616D01*
X240552031Y-24038211D01*
X240630436Y-23931975D01*
X240674045Y-23807349D01*
X240676820Y-23777756D01*
X240676820Y-23700000D01*
X241176321Y-23700000D01*
X241176321Y-23786654D01*
X241186639Y-23887652D01*
X241240866Y-24051300D01*
X241240871Y-24051311D01*
X241331372Y-24198034D01*
X241331375Y-24198038D01*
X241453281Y-24319944D01*
X241453285Y-24319947D01*
X241600008Y-24410448D01*
X241600019Y-24410453D01*
X241763667Y-24464680D01*
X241864672Y-24474999D01*
X241901320Y-24474999D01*
X241901320Y-23700000D01*
X242401320Y-23700000D01*
X242401320Y-24474999D01*
X242437960Y-24474999D01*
X242437974Y-24474998D01*
X242538972Y-24464680D01*
X242702620Y-24410453D01*
X242702631Y-24410448D01*
X242849354Y-24319947D01*
X242849358Y-24319944D01*
X242971264Y-24198038D01*
X242971267Y-24198034D01*
X243061768Y-24051311D01*
X243061773Y-24051300D01*
X243116000Y-23887652D01*
X243126319Y-23786654D01*
X243126320Y-23786641D01*
X243126320Y-23700000D01*
X242401320Y-23700000D01*
X241901320Y-23700000D01*
X241176321Y-23700000D01*
X240676820Y-23700000D01*
X240676820Y-23172244D01*
X240674045Y-23142651D01*
X240630436Y-23018025D01*
X240626245Y-23012347D01*
X240552031Y-22911789D01*
X240552030Y-22911788D01*
X240445796Y-22833384D01*
X240321168Y-22789774D01*
X240321169Y-22789774D01*
X240291580Y-22787000D01*
X240291576Y-22787000D01*
X239711064Y-22787000D01*
X239711060Y-22787000D01*
X239681470Y-22789774D01*
X239556843Y-22833384D01*
X239450609Y-22911788D01*
X239450608Y-22911789D01*
X239372204Y-23018023D01*
X239328594Y-23142650D01*
X239325820Y-23172239D01*
X239325820Y-23546180D01*
X239306135Y-23613219D01*
X239289501Y-23633861D01*
X238983216Y-23940145D01*
X238921893Y-23973630D01*
X238852201Y-23968646D01*
X238798588Y-23929777D01*
X238651271Y-23745047D01*
X238464456Y-23571709D01*
X238450883Y-23562455D01*
X238253889Y-23428147D01*
X238253885Y-23428145D01*
X238253882Y-23428143D01*
X238253881Y-23428142D01*
X238024279Y-23317573D01*
X238024281Y-23317573D01*
X237879770Y-23272997D01*
X237821511Y-23234426D01*
X237793353Y-23170481D01*
X237792320Y-23154506D01*
X237792320Y-21952760D01*
X239325820Y-21952760D01*
X239328594Y-21982349D01*
X239372204Y-22106976D01*
X239450608Y-22213210D01*
X239450609Y-22213211D01*
X239556843Y-22291615D01*
X239556844Y-22291615D01*
X239556845Y-22291616D01*
X239681471Y-22335225D01*
X239681470Y-22335225D01*
X239711060Y-22338000D01*
X239711064Y-22338000D01*
X240291580Y-22338000D01*
X240321169Y-22335225D01*
X240348864Y-22325534D01*
X240445795Y-22291616D01*
X240552031Y-22213211D01*
X240630436Y-22106975D01*
X240647383Y-22058544D01*
X240688105Y-22001769D01*
X240753058Y-21976022D01*
X240764424Y-21975500D01*
X241358148Y-21975500D01*
X241425187Y-21995185D01*
X241470942Y-22047989D01*
X241475879Y-22062803D01*
X241476102Y-22062726D01*
X241522204Y-22194476D01*
X241600608Y-22300710D01*
X241606287Y-22306389D01*
X241639772Y-22367712D01*
X241634788Y-22437404D01*
X241592916Y-22493337D01*
X241583704Y-22499608D01*
X241453282Y-22580054D01*
X241331375Y-22701961D01*
X241331372Y-22701965D01*
X241240871Y-22848688D01*
X241240866Y-22848699D01*
X241186639Y-23012347D01*
X241176320Y-23113345D01*
X241176320Y-23200000D01*
X243126319Y-23200000D01*
X243126319Y-23113360D01*
X243126318Y-23113345D01*
X243116000Y-23012347D01*
X243061773Y-22848699D01*
X243061768Y-22848688D01*
X242971267Y-22701965D01*
X242971264Y-22701961D01*
X242849357Y-22580054D01*
X242718935Y-22499608D01*
X242672211Y-22447660D01*
X242660990Y-22378697D01*
X242688833Y-22314615D01*
X242696355Y-22306385D01*
X242702023Y-22300716D01*
X242702031Y-22300711D01*
X242780436Y-22194475D01*
X242824045Y-22069849D01*
X242825105Y-22058544D01*
X242826820Y-22040260D01*
X242826820Y-21359739D01*
X242824045Y-21330150D01*
X242788444Y-21228411D01*
X242780436Y-21205525D01*
X242777460Y-21201493D01*
X242702031Y-21099289D01*
X242702030Y-21099288D01*
X242595796Y-21020884D01*
X242471168Y-20977274D01*
X242471169Y-20977274D01*
X242441580Y-20974500D01*
X242441576Y-20974500D01*
X241861064Y-20974500D01*
X241861060Y-20974500D01*
X241831470Y-20977274D01*
X241706843Y-21020884D01*
X241600609Y-21099288D01*
X241600608Y-21099289D01*
X241522204Y-21205523D01*
X241509631Y-21241456D01*
X241468909Y-21298231D01*
X241403956Y-21323978D01*
X241392590Y-21324500D01*
X240764424Y-21324500D01*
X240697385Y-21304815D01*
X240651630Y-21252011D01*
X240647383Y-21241456D01*
X240633399Y-21201492D01*
X240630436Y-21193025D01*
X240615078Y-21172216D01*
X240552031Y-21086789D01*
X240552030Y-21086788D01*
X240445796Y-21008384D01*
X240321168Y-20964774D01*
X240321169Y-20964774D01*
X240291580Y-20962000D01*
X240291576Y-20962000D01*
X239711064Y-20962000D01*
X239711060Y-20962000D01*
X239681470Y-20964774D01*
X239556843Y-21008384D01*
X239450609Y-21086788D01*
X239450608Y-21086789D01*
X239372204Y-21193023D01*
X239328594Y-21317650D01*
X239325820Y-21347239D01*
X239325820Y-21952760D01*
X237792320Y-21952760D01*
X237792320Y-21761999D01*
X237812005Y-21694960D01*
X237828639Y-21674318D01*
X239075638Y-20427319D01*
X239136961Y-20393834D01*
X239163319Y-20391000D01*
X242986681Y-20391000D01*
X243053720Y-20410685D01*
G37*
G04 #@! TD.AperFunction*
G04 #@! TA.AperFunction,Conductor*
G36*
X262428334Y-21570902D02*
G01*
X262484267Y-21612774D01*
X262508684Y-21678238D01*
X262509000Y-21687084D01*
X262509000Y-21926000D01*
X262489315Y-21993039D01*
X262436511Y-22038794D01*
X262385000Y-22050000D01*
X262350000Y-22050000D01*
X262350000Y-24550000D01*
X262385000Y-24550000D01*
X262452039Y-24569685D01*
X262497794Y-24622489D01*
X262509000Y-24674000D01*
X262509000Y-25186681D01*
X262489315Y-25253720D01*
X262472681Y-25274362D01*
X261574362Y-26172681D01*
X261513039Y-26206166D01*
X261486681Y-26209000D01*
X257311928Y-26209000D01*
X257188071Y-26209000D01*
X257188069Y-26209000D01*
X257188065Y-26209001D01*
X257167722Y-26215611D01*
X257148803Y-26220153D01*
X257127668Y-26223500D01*
X257108606Y-26233213D01*
X257090634Y-26240658D01*
X257070279Y-26247272D01*
X257070274Y-26247274D01*
X257052957Y-26259855D01*
X257036381Y-26270013D01*
X257017310Y-26279731D01*
X256929731Y-26367311D01*
X256929729Y-26367313D01*
X256587680Y-26709361D01*
X256526357Y-26742846D01*
X256456665Y-26737862D01*
X256412318Y-26709361D01*
X256077339Y-26374382D01*
X256077336Y-26374378D01*
X256077336Y-26374379D01*
X256070269Y-26367312D01*
X256070269Y-26367311D01*
X255982689Y-26279731D01*
X255982687Y-26279730D01*
X255982686Y-26279729D01*
X255963620Y-26270014D01*
X255947032Y-26259849D01*
X255929722Y-26247272D01*
X255909364Y-26240657D01*
X255891394Y-26233213D01*
X255872335Y-26223502D01*
X255872333Y-26223501D01*
X255872332Y-26223501D01*
X255851186Y-26220151D01*
X255832284Y-26215613D01*
X255811928Y-26209000D01*
X255811926Y-26209000D01*
X254213320Y-26209000D01*
X254146281Y-26189315D01*
X254125639Y-26172681D01*
X253727319Y-25774361D01*
X253693834Y-25713038D01*
X253691000Y-25686680D01*
X253691000Y-24674000D01*
X253710685Y-24606961D01*
X253763489Y-24561206D01*
X253815000Y-24550000D01*
X253850000Y-24550000D01*
X253850000Y-22050000D01*
X253815000Y-22050000D01*
X253747961Y-22030315D01*
X253702206Y-21977511D01*
X253691000Y-21926000D01*
X253691000Y-21723480D01*
X253710685Y-21656441D01*
X253763489Y-21610686D01*
X253832647Y-21600742D01*
X253896203Y-21629767D01*
X253902681Y-21635799D01*
X254313681Y-22046799D01*
X254347166Y-22108122D01*
X254350000Y-22134480D01*
X254350000Y-24550000D01*
X254422828Y-24550000D01*
X254422844Y-24549999D01*
X254482372Y-24543598D01*
X254482379Y-24543596D01*
X254617086Y-24493354D01*
X254617093Y-24493350D01*
X254732187Y-24407190D01*
X254732190Y-24407187D01*
X254812290Y-24300189D01*
X254868223Y-24258318D01*
X254911556Y-24250500D01*
X255194750Y-24250500D01*
X255194751Y-24250499D01*
X255209485Y-24247568D01*
X255265210Y-24236485D01*
X255265464Y-24237762D01*
X255322009Y-24231680D01*
X255345899Y-24238694D01*
X255405247Y-24250499D01*
X255405250Y-24250500D01*
X255405252Y-24250500D01*
X255994750Y-24250500D01*
X255994751Y-24250499D01*
X256009485Y-24247568D01*
X256065210Y-24236485D01*
X256065464Y-24237762D01*
X256122009Y-24231680D01*
X256145899Y-24238694D01*
X256205247Y-24250499D01*
X256205250Y-24250500D01*
X256205252Y-24250500D01*
X256794750Y-24250500D01*
X256794751Y-24250499D01*
X256809485Y-24247568D01*
X256865210Y-24236485D01*
X256865464Y-24237762D01*
X256922009Y-24231680D01*
X256945899Y-24238694D01*
X257005247Y-24250499D01*
X257005250Y-24250500D01*
X257005252Y-24250500D01*
X257594750Y-24250500D01*
X257594751Y-24250499D01*
X257609485Y-24247568D01*
X257665210Y-24236485D01*
X257665464Y-24237762D01*
X257722009Y-24231680D01*
X257745899Y-24238694D01*
X257805247Y-24250499D01*
X257805250Y-24250500D01*
X257805252Y-24250500D01*
X258394750Y-24250500D01*
X258394751Y-24250499D01*
X258409485Y-24247568D01*
X258465210Y-24236485D01*
X258465464Y-24237762D01*
X258522009Y-24231680D01*
X258545899Y-24238694D01*
X258605247Y-24250499D01*
X258605250Y-24250500D01*
X258605252Y-24250500D01*
X259194750Y-24250500D01*
X259194751Y-24250499D01*
X259209485Y-24247568D01*
X259265210Y-24236485D01*
X259265464Y-24237762D01*
X259322009Y-24231680D01*
X259345899Y-24238694D01*
X259405247Y-24250499D01*
X259405250Y-24250500D01*
X259405252Y-24250500D01*
X259994750Y-24250500D01*
X259994751Y-24250499D01*
X260009485Y-24247568D01*
X260065210Y-24236485D01*
X260065464Y-24237762D01*
X260122009Y-24231680D01*
X260145899Y-24238694D01*
X260205247Y-24250499D01*
X260205250Y-24250500D01*
X260205252Y-24250500D01*
X260794750Y-24250500D01*
X260794751Y-24250499D01*
X260809485Y-24247568D01*
X260865210Y-24236485D01*
X260865464Y-24237762D01*
X260922009Y-24231680D01*
X260945899Y-24238694D01*
X261005247Y-24250499D01*
X261005250Y-24250500D01*
X261288444Y-24250500D01*
X261355483Y-24270185D01*
X261387710Y-24300189D01*
X261467809Y-24407187D01*
X261467812Y-24407190D01*
X261582906Y-24493350D01*
X261582913Y-24493354D01*
X261717620Y-24543596D01*
X261717627Y-24543598D01*
X261777155Y-24549999D01*
X261777172Y-24550000D01*
X261850000Y-24550000D01*
X261850000Y-22098084D01*
X261869685Y-22031045D01*
X261886319Y-22010403D01*
X262297319Y-21599403D01*
X262358642Y-21565918D01*
X262428334Y-21570902D01*
G37*
G04 #@! TD.AperFunction*
G04 #@! TA.AperFunction,Conductor*
G36*
X250168039Y-21219685D02*
G01*
X250213794Y-21272489D01*
X250225000Y-21324000D01*
X250225000Y-22424999D01*
X250324140Y-22424999D01*
X250324154Y-22424998D01*
X250425152Y-22414680D01*
X250588800Y-22360453D01*
X250588811Y-22360448D01*
X250735534Y-22269947D01*
X250735538Y-22269944D01*
X250857445Y-22148037D01*
X250920888Y-22045180D01*
X250972836Y-21998455D01*
X251041798Y-21987232D01*
X251100058Y-22010504D01*
X251180469Y-22069849D01*
X251193025Y-22079116D01*
X251317651Y-22122725D01*
X251317650Y-22122725D01*
X251347240Y-22125500D01*
X251347244Y-22125500D01*
X252052760Y-22125500D01*
X252082349Y-22122725D01*
X252096352Y-22117825D01*
X252206975Y-22079116D01*
X252313211Y-22000711D01*
X252378714Y-21911957D01*
X252393910Y-21891367D01*
X252449557Y-21849116D01*
X252493680Y-21841000D01*
X252785000Y-21841000D01*
X252852039Y-21860685D01*
X252897794Y-21913489D01*
X252909000Y-21965000D01*
X252909000Y-22325534D01*
X252889315Y-22392573D01*
X252887160Y-22395247D01*
X252887232Y-22395295D01*
X252836132Y-22471768D01*
X252836131Y-22471770D01*
X252824500Y-22530247D01*
X252824500Y-24069752D01*
X252836131Y-24128229D01*
X252836132Y-24128230D01*
X252887233Y-24204707D01*
X252883735Y-24207043D01*
X252906151Y-24248038D01*
X252909000Y-24274466D01*
X252909000Y-25686680D01*
X252889315Y-25753719D01*
X252872681Y-25774361D01*
X252762181Y-25884861D01*
X252700858Y-25918346D01*
X252631166Y-25913362D01*
X252575233Y-25871490D01*
X252550816Y-25806026D01*
X252550500Y-25797180D01*
X252550500Y-25505249D01*
X252550499Y-25505247D01*
X252536485Y-25434790D01*
X252537762Y-25434535D01*
X252531680Y-25377991D01*
X252538694Y-25354100D01*
X252547875Y-25307943D01*
X252550500Y-25294748D01*
X252550500Y-24705252D01*
X252550500Y-24705249D01*
X252550499Y-24705247D01*
X252538868Y-24646770D01*
X252538867Y-24646769D01*
X252494552Y-24580447D01*
X252428230Y-24536132D01*
X252428229Y-24536131D01*
X252369752Y-24524500D01*
X252369748Y-24524500D01*
X250830252Y-24524500D01*
X250830247Y-24524500D01*
X250771770Y-24536131D01*
X250771766Y-24536133D01*
X250721318Y-24569842D01*
X250654641Y-24590720D01*
X250587261Y-24572235D01*
X250564747Y-24554421D01*
X249011819Y-23001493D01*
X248978334Y-22940170D01*
X248975500Y-22913812D01*
X248975500Y-22330345D01*
X248995185Y-22263306D01*
X249047989Y-22217551D01*
X249117147Y-22207607D01*
X249180703Y-22236632D01*
X249187181Y-22242664D01*
X249214461Y-22269944D01*
X249214465Y-22269947D01*
X249361188Y-22360448D01*
X249361199Y-22360453D01*
X249524847Y-22414680D01*
X249625851Y-22424999D01*
X249725000Y-22424998D01*
X249725000Y-21324000D01*
X249744685Y-21256961D01*
X249797489Y-21211206D01*
X249849000Y-21200000D01*
X250101000Y-21200000D01*
X250168039Y-21219685D01*
G37*
G04 #@! TD.AperFunction*
G04 #@! TA.AperFunction,Conductor*
G36*
X282776355Y-14799646D02*
G01*
X282843338Y-14819522D01*
X282888941Y-14872457D01*
X282900000Y-14923645D01*
X282900000Y-56275645D01*
X282880315Y-56342684D01*
X282827511Y-56388439D01*
X282775645Y-56399644D01*
X230623645Y-56250353D01*
X230556662Y-56230477D01*
X230511059Y-56177542D01*
X230500000Y-56126354D01*
X230500000Y-52350000D01*
X247319000Y-52350000D01*
X247319000Y-52909844D01*
X247325401Y-52969372D01*
X247325403Y-52969379D01*
X247375645Y-53104086D01*
X247375649Y-53104093D01*
X247461809Y-53219187D01*
X247461812Y-53219190D01*
X247576906Y-53305350D01*
X247576913Y-53305354D01*
X247711620Y-53355596D01*
X247711627Y-53355598D01*
X247771155Y-53361999D01*
X247771172Y-53362000D01*
X247950000Y-53362000D01*
X247950000Y-52350000D01*
X248450000Y-52350000D01*
X248450000Y-53362000D01*
X248628828Y-53362000D01*
X248628844Y-53361999D01*
X248688372Y-53355598D01*
X248688379Y-53355596D01*
X248823086Y-53305354D01*
X248823093Y-53305350D01*
X248938187Y-53219190D01*
X248938190Y-53219187D01*
X249024350Y-53104093D01*
X249024354Y-53104086D01*
X249074596Y-52969379D01*
X249074598Y-52969372D01*
X249080999Y-52909844D01*
X249081000Y-52909827D01*
X249081000Y-52881752D01*
X251428500Y-52881752D01*
X251440131Y-52940229D01*
X251440132Y-52940230D01*
X251484447Y-53006552D01*
X251550769Y-53050867D01*
X251550770Y-53050868D01*
X251609247Y-53062499D01*
X251609250Y-53062500D01*
X251609252Y-53062500D01*
X252410750Y-53062500D01*
X252410751Y-53062499D01*
X252425568Y-53059552D01*
X252469229Y-53050868D01*
X252469229Y-53050867D01*
X252469231Y-53050867D01*
X252535552Y-53006552D01*
X252579867Y-52940231D01*
X252579867Y-52940229D01*
X252579868Y-52940229D01*
X252591499Y-52881752D01*
X252591500Y-52881750D01*
X252591500Y-51318249D01*
X252591499Y-51318247D01*
X252579868Y-51259770D01*
X252579867Y-51259769D01*
X252535552Y-51193447D01*
X252469230Y-51149132D01*
X252469229Y-51149131D01*
X252410752Y-51137500D01*
X252410748Y-51137500D01*
X251609252Y-51137500D01*
X251609247Y-51137500D01*
X251550770Y-51149131D01*
X251550769Y-51149132D01*
X251484447Y-51193447D01*
X251440132Y-51259769D01*
X251440131Y-51259770D01*
X251428500Y-51318247D01*
X251428500Y-52881752D01*
X249081000Y-52881752D01*
X249081000Y-52350000D01*
X248450000Y-52350000D01*
X247950000Y-52350000D01*
X247319000Y-52350000D01*
X230500000Y-52350000D01*
X230500000Y-34968321D01*
X231321038Y-34968321D01*
X231340061Y-35234306D01*
X231384274Y-35437545D01*
X231396744Y-35494867D01*
X231410159Y-35530833D01*
X231489932Y-35744716D01*
X231489934Y-35744720D01*
X231617725Y-35978751D01*
X231617730Y-35978759D01*
X231777526Y-36192222D01*
X231777542Y-36192240D01*
X231966079Y-36380777D01*
X231966097Y-36380793D01*
X232179560Y-36540589D01*
X232179568Y-36540594D01*
X232413599Y-36668385D01*
X232413603Y-36668387D01*
X232413605Y-36668388D01*
X232663453Y-36761576D01*
X232789615Y-36789021D01*
X232924013Y-36818258D01*
X232924015Y-36818258D01*
X232924019Y-36818259D01*
X233160386Y-36835164D01*
X233189999Y-36837282D01*
X233190000Y-36837282D01*
X233190001Y-36837282D01*
X233216647Y-36835376D01*
X233455981Y-36818259D01*
X233477086Y-36813668D01*
X233493413Y-36810115D01*
X233716547Y-36761576D01*
X233966395Y-36668388D01*
X234200437Y-36540591D01*
X234413910Y-36380787D01*
X234602467Y-36192230D01*
X234762271Y-35978757D01*
X234890068Y-35744715D01*
X234983256Y-35494867D01*
X235039939Y-35234301D01*
X235058432Y-34975736D01*
X235058962Y-34968321D01*
X235058962Y-34968318D01*
X235052086Y-34872184D01*
X235039939Y-34702339D01*
X234983256Y-34441773D01*
X234890068Y-34191925D01*
X234882459Y-34177991D01*
X234762274Y-33957888D01*
X234762269Y-33957880D01*
X234602473Y-33744417D01*
X234602457Y-33744399D01*
X234413920Y-33555862D01*
X234413902Y-33555846D01*
X234200439Y-33396050D01*
X234200431Y-33396045D01*
X233966400Y-33268254D01*
X233966396Y-33268252D01*
X233846235Y-33223435D01*
X233716547Y-33175064D01*
X233716543Y-33175063D01*
X233716540Y-33175062D01*
X233455986Y-33118381D01*
X233190001Y-33099358D01*
X233189999Y-33099358D01*
X232924013Y-33118381D01*
X232663459Y-33175062D01*
X232663454Y-33175063D01*
X232663453Y-33175064D01*
X232603048Y-33197593D01*
X232413603Y-33268252D01*
X232413599Y-33268254D01*
X232179568Y-33396045D01*
X232179560Y-33396050D01*
X231966097Y-33555846D01*
X231966079Y-33555862D01*
X231777542Y-33744399D01*
X231777526Y-33744417D01*
X231617730Y-33957880D01*
X231617725Y-33957888D01*
X231489934Y-34191919D01*
X231489932Y-34191923D01*
X231435260Y-34338507D01*
X231412325Y-34400000D01*
X231396742Y-34441779D01*
X231340061Y-34702333D01*
X231321038Y-34968318D01*
X231321038Y-34968321D01*
X230500000Y-34968321D01*
X230500000Y-32150000D01*
X235401450Y-32150000D01*
X235401450Y-32397424D01*
X235407851Y-32456952D01*
X235407853Y-32456959D01*
X235458095Y-32591666D01*
X235458099Y-32591673D01*
X235544259Y-32706767D01*
X235544262Y-32706770D01*
X235659356Y-32792930D01*
X235659363Y-32792934D01*
X235794070Y-32843176D01*
X235794077Y-32843178D01*
X235853605Y-32849579D01*
X235853622Y-32849580D01*
X237151320Y-32849580D01*
X237151320Y-32150000D01*
X237651320Y-32150000D01*
X237651320Y-32849580D01*
X238949018Y-32849580D01*
X238949034Y-32849579D01*
X239008562Y-32843178D01*
X239008569Y-32843176D01*
X239143276Y-32792934D01*
X239143283Y-32792930D01*
X239258377Y-32706770D01*
X239258380Y-32706767D01*
X239344540Y-32591673D01*
X239344544Y-32591666D01*
X239394786Y-32456959D01*
X239394788Y-32456952D01*
X239401189Y-32397424D01*
X239401190Y-32397407D01*
X239401190Y-32150000D01*
X237651320Y-32150000D01*
X237151320Y-32150000D01*
X235401450Y-32150000D01*
X230500000Y-32150000D01*
X230500000Y-31650000D01*
X235401450Y-31650000D01*
X237151320Y-31650000D01*
X237151320Y-30950420D01*
X237651320Y-30950420D01*
X237651320Y-31650000D01*
X239401190Y-31650000D01*
X239401190Y-31402592D01*
X239401189Y-31402575D01*
X239394788Y-31343047D01*
X239394786Y-31343040D01*
X239344544Y-31208333D01*
X239344540Y-31208326D01*
X239258380Y-31093232D01*
X239258377Y-31093229D01*
X239143283Y-31007069D01*
X239143276Y-31007065D01*
X239008569Y-30956823D01*
X239008562Y-30956821D01*
X238949034Y-30950420D01*
X237651320Y-30950420D01*
X237151320Y-30950420D01*
X235853605Y-30950420D01*
X235794077Y-30956821D01*
X235794070Y-30956823D01*
X235659363Y-31007065D01*
X235659356Y-31007069D01*
X235544262Y-31093229D01*
X235544259Y-31093232D01*
X235458099Y-31208326D01*
X235458095Y-31208333D01*
X235407853Y-31343040D01*
X235407851Y-31343047D01*
X235401450Y-31402575D01*
X235401450Y-31650000D01*
X230500000Y-31650000D01*
X230500000Y-24904844D01*
X235696182Y-24904844D01*
X235715226Y-25158976D01*
X235715226Y-25158978D01*
X235771932Y-25407424D01*
X235771938Y-25407443D01*
X235865041Y-25644666D01*
X235865044Y-25644674D01*
X235938749Y-25772332D01*
X235992469Y-25865378D01*
X236101756Y-26002420D01*
X236151368Y-26064632D01*
X236293916Y-26196896D01*
X236338184Y-26237971D01*
X236548751Y-26381533D01*
X236548756Y-26381535D01*
X236548757Y-26381536D01*
X236548758Y-26381537D01*
X236645075Y-26427920D01*
X236778359Y-26492106D01*
X236778360Y-26492106D01*
X236778363Y-26492108D01*
X236841649Y-26511629D01*
X236899908Y-26550200D01*
X236928066Y-26614145D01*
X236917182Y-26683161D01*
X236870713Y-26735338D01*
X236805099Y-26754120D01*
X235881697Y-26754120D01*
X235823220Y-26765751D01*
X235823219Y-26765752D01*
X235756897Y-26810067D01*
X235712582Y-26876389D01*
X235712581Y-26876390D01*
X235700950Y-26934867D01*
X235700950Y-27873532D01*
X235712581Y-27932009D01*
X235712582Y-27932010D01*
X235756897Y-27998332D01*
X235823219Y-28042647D01*
X235823220Y-28042648D01*
X235881697Y-28054279D01*
X235881700Y-28054280D01*
X235881702Y-28054280D01*
X238920940Y-28054280D01*
X238920941Y-28054279D01*
X238935758Y-28051332D01*
X238979419Y-28042648D01*
X238979419Y-28042647D01*
X238979421Y-28042647D01*
X239045742Y-27998332D01*
X239090057Y-27932011D01*
X239090057Y-27932009D01*
X239090058Y-27932009D01*
X239100022Y-27881914D01*
X239101690Y-27873528D01*
X239101690Y-27853700D01*
X239121375Y-27786661D01*
X239174179Y-27740906D01*
X239225690Y-27729700D01*
X239749738Y-27729700D01*
X239816777Y-27749385D01*
X239862532Y-27802189D01*
X239866779Y-27812745D01*
X239878729Y-27846895D01*
X239878729Y-27846896D01*
X239957133Y-27953130D01*
X239957134Y-27953131D01*
X240063368Y-28031535D01*
X240063369Y-28031535D01*
X240063370Y-28031536D01*
X240187996Y-28075145D01*
X240187995Y-28075145D01*
X240217585Y-28077920D01*
X240217589Y-28077920D01*
X240823105Y-28077920D01*
X240852694Y-28075145D01*
X240977320Y-28031536D01*
X241083556Y-27953131D01*
X241161961Y-27846895D01*
X241205570Y-27722269D01*
X241205765Y-27720185D01*
X241208345Y-27692680D01*
X241208345Y-27112159D01*
X241205570Y-27082570D01*
X241178850Y-27006211D01*
X241161961Y-26957945D01*
X241159566Y-26954700D01*
X241083556Y-26851709D01*
X241083555Y-26851708D01*
X240977321Y-26773304D01*
X240928889Y-26756357D01*
X240872114Y-26715635D01*
X240846367Y-26650682D01*
X240845845Y-26639316D01*
X240845845Y-26528646D01*
X240865530Y-26461607D01*
X240918334Y-26415852D01*
X240928890Y-26411605D01*
X240956123Y-26402074D01*
X241014820Y-26381536D01*
X241121056Y-26303131D01*
X241121061Y-26303123D01*
X241126730Y-26297455D01*
X241188052Y-26263968D01*
X241257744Y-26268949D01*
X241313679Y-26310819D01*
X241319953Y-26320035D01*
X241400399Y-26450457D01*
X241522306Y-26572364D01*
X241522310Y-26572367D01*
X241669033Y-26662868D01*
X241669046Y-26662874D01*
X241709600Y-26676312D01*
X241767045Y-26716084D01*
X241793869Y-26780599D01*
X241781555Y-26849375D01*
X241770368Y-26867651D01*
X241703728Y-26957945D01*
X241660119Y-27082570D01*
X241657345Y-27112159D01*
X241657345Y-27692680D01*
X241660119Y-27722269D01*
X241703729Y-27846896D01*
X241782133Y-27953130D01*
X241782134Y-27953131D01*
X241888368Y-28031535D01*
X241888369Y-28031535D01*
X241888370Y-28031536D01*
X242012996Y-28075145D01*
X242012995Y-28075145D01*
X242042585Y-28077920D01*
X242042589Y-28077920D01*
X242648105Y-28077920D01*
X242677694Y-28075145D01*
X242802320Y-28031536D01*
X242908556Y-27953131D01*
X242986961Y-27846895D01*
X243009129Y-27783544D01*
X243049851Y-27726769D01*
X243114804Y-27701022D01*
X243126170Y-27700500D01*
X245449476Y-27700500D01*
X245516515Y-27720185D01*
X245562270Y-27772989D01*
X245572214Y-27842147D01*
X245543189Y-27905703D01*
X245499567Y-27937932D01*
X245477236Y-27947793D01*
X245472336Y-27952693D01*
X245449942Y-27970431D01*
X245444048Y-27974080D01*
X245425359Y-27998827D01*
X245419717Y-28005310D01*
X244852040Y-28572989D01*
X244311848Y-29113181D01*
X244250525Y-29146666D01*
X244224167Y-29149500D01*
X243141972Y-29149500D01*
X243074933Y-29129815D01*
X243029178Y-29077011D01*
X243024931Y-29066455D01*
X243002604Y-29002651D01*
X242986961Y-28957945D01*
X242967668Y-28931804D01*
X242908556Y-28851709D01*
X242908555Y-28851708D01*
X242802321Y-28773304D01*
X242677693Y-28729694D01*
X242677694Y-28729694D01*
X242648105Y-28726920D01*
X242648101Y-28726920D01*
X242042589Y-28726920D01*
X242042585Y-28726920D01*
X242012995Y-28729694D01*
X241888368Y-28773304D01*
X241782134Y-28851708D01*
X241782133Y-28851709D01*
X241703729Y-28957943D01*
X241660119Y-29082570D01*
X241657345Y-29112159D01*
X241657345Y-29692680D01*
X241660119Y-29722269D01*
X241703729Y-29846896D01*
X241782133Y-29953130D01*
X241788705Y-29959702D01*
X241786721Y-29961685D01*
X241820047Y-30005578D01*
X241825504Y-30075234D01*
X241792437Y-30136783D01*
X241743166Y-30167405D01*
X241669044Y-30191966D01*
X241669033Y-30191971D01*
X241522310Y-30282472D01*
X241522306Y-30282475D01*
X241400399Y-30404382D01*
X241319953Y-30534804D01*
X241268005Y-30581528D01*
X241199042Y-30592749D01*
X241134960Y-30564905D01*
X241126734Y-30557387D01*
X241121055Y-30551708D01*
X241014821Y-30473304D01*
X240928889Y-30443234D01*
X240872113Y-30402511D01*
X240846367Y-30337558D01*
X240845845Y-30326193D01*
X240845845Y-30165523D01*
X240865530Y-30098484D01*
X240918334Y-30052729D01*
X240928867Y-30048490D01*
X240977320Y-30031536D01*
X241083556Y-29953131D01*
X241161961Y-29846895D01*
X241205570Y-29722269D01*
X241206506Y-29712290D01*
X241208345Y-29692680D01*
X241208345Y-29112159D01*
X241205570Y-29082570D01*
X241161960Y-28957943D01*
X241083556Y-28851709D01*
X241083555Y-28851708D01*
X240977321Y-28773304D01*
X240852693Y-28729694D01*
X240852694Y-28729694D01*
X240823105Y-28726920D01*
X240823101Y-28726920D01*
X240217589Y-28726920D01*
X240217585Y-28726920D01*
X240187995Y-28729694D01*
X240063368Y-28773304D01*
X239957134Y-28851708D01*
X239957133Y-28851709D01*
X239878729Y-28957943D01*
X239878729Y-28957944D01*
X239866779Y-28992095D01*
X239826057Y-29048871D01*
X239761104Y-29074618D01*
X239749738Y-29075140D01*
X239225690Y-29075140D01*
X239158651Y-29055455D01*
X239112896Y-29002651D01*
X239101690Y-28951140D01*
X239101690Y-28931309D01*
X239101689Y-28931307D01*
X239090058Y-28872830D01*
X239090057Y-28872829D01*
X239045742Y-28806507D01*
X238979420Y-28762192D01*
X238979419Y-28762191D01*
X238920942Y-28750560D01*
X238920938Y-28750560D01*
X235881702Y-28750560D01*
X235881697Y-28750560D01*
X235823220Y-28762191D01*
X235823219Y-28762192D01*
X235756897Y-28806507D01*
X235712582Y-28872829D01*
X235712581Y-28872830D01*
X235700950Y-28931307D01*
X235700950Y-29869972D01*
X235712581Y-29928449D01*
X235712582Y-29928450D01*
X235756897Y-29994772D01*
X235823219Y-30039087D01*
X235823220Y-30039088D01*
X235881697Y-30050719D01*
X235881700Y-30050720D01*
X235881702Y-30050720D01*
X238920940Y-30050720D01*
X238920941Y-30050719D01*
X238935758Y-30047772D01*
X238979419Y-30039088D01*
X238979419Y-30039087D01*
X238979421Y-30039087D01*
X239045742Y-29994772D01*
X239090057Y-29928451D01*
X239090057Y-29928449D01*
X239090058Y-29928449D01*
X239099243Y-29882270D01*
X239101690Y-29869968D01*
X239101690Y-29850140D01*
X239121375Y-29783101D01*
X239174179Y-29737346D01*
X239225690Y-29726140D01*
X239748492Y-29726140D01*
X239815531Y-29745825D01*
X239861286Y-29798629D01*
X239865533Y-29809184D01*
X239878729Y-29846896D01*
X239957133Y-29953130D01*
X239957134Y-29953131D01*
X240062643Y-30031000D01*
X240063370Y-30031536D01*
X240111802Y-30048483D01*
X240168575Y-30089202D01*
X240194323Y-30154155D01*
X240194845Y-30165523D01*
X240194845Y-30326193D01*
X240175160Y-30393232D01*
X240122356Y-30438987D01*
X240111801Y-30443234D01*
X240025868Y-30473304D01*
X239919634Y-30551708D01*
X239919633Y-30551709D01*
X239841229Y-30657943D01*
X239797619Y-30782570D01*
X239794845Y-30812159D01*
X239794845Y-31392680D01*
X239797619Y-31422269D01*
X239841229Y-31546896D01*
X239919633Y-31653130D01*
X239919634Y-31653131D01*
X240025868Y-31731535D01*
X240025869Y-31731535D01*
X240025870Y-31731536D01*
X240150496Y-31775145D01*
X240150495Y-31775145D01*
X240180085Y-31777920D01*
X240180089Y-31777920D01*
X240860605Y-31777920D01*
X240890194Y-31775145D01*
X240902517Y-31770833D01*
X241014820Y-31731536D01*
X241121056Y-31653131D01*
X241121061Y-31653123D01*
X241126730Y-31647455D01*
X241188052Y-31613968D01*
X241257744Y-31618949D01*
X241313679Y-31660819D01*
X241319953Y-31670035D01*
X241400399Y-31800457D01*
X241522306Y-31922364D01*
X241522310Y-31922367D01*
X241669033Y-32012868D01*
X241669044Y-32012873D01*
X241729161Y-32032794D01*
X241786606Y-32072567D01*
X241813429Y-32137082D01*
X241801114Y-32205858D01*
X241753571Y-32257058D01*
X241690157Y-32274500D01*
X241666913Y-32274500D01*
X241661511Y-32274264D01*
X241654126Y-32273618D01*
X241621192Y-32270736D01*
X241621191Y-32270736D01*
X241582099Y-32281211D01*
X241576819Y-32282382D01*
X241536954Y-32289412D01*
X241531962Y-32291229D01*
X241515117Y-32298206D01*
X241510313Y-32300446D01*
X241477163Y-32323658D01*
X241472602Y-32326564D01*
X241437548Y-32346804D01*
X241437545Y-32346806D01*
X241437543Y-32346807D01*
X241437542Y-32346809D01*
X241411523Y-32377815D01*
X241407869Y-32381803D01*
X239791803Y-33997870D01*
X239787814Y-34001525D01*
X239756805Y-34027545D01*
X239736562Y-34062606D01*
X239733656Y-34067166D01*
X239710446Y-34100313D01*
X239708206Y-34105117D01*
X239701229Y-34121961D01*
X239699410Y-34126959D01*
X239692383Y-34166811D01*
X239691212Y-34172091D01*
X239680735Y-34211191D01*
X239684264Y-34251513D01*
X239684500Y-34256920D01*
X239684500Y-40459417D01*
X239664815Y-40526456D01*
X239612011Y-40572211D01*
X239607951Y-40573979D01*
X239606045Y-40574768D01*
X239513263Y-40624362D01*
X239423550Y-40672315D01*
X239423548Y-40672316D01*
X239423547Y-40672317D01*
X239263589Y-40803589D01*
X239133189Y-40962485D01*
X239132315Y-40963550D01*
X239103492Y-41017474D01*
X239034769Y-41146043D01*
X238974699Y-41344067D01*
X238954417Y-41550000D01*
X238974699Y-41755932D01*
X238994088Y-41819849D01*
X239034768Y-41953954D01*
X239132315Y-42136450D01*
X239220689Y-42244135D01*
X239263590Y-42296410D01*
X239273626Y-42304647D01*
X239312960Y-42362393D01*
X239314831Y-42432238D01*
X239278643Y-42492006D01*
X239215887Y-42522722D01*
X239194961Y-42524500D01*
X239116922Y-42524500D01*
X239111518Y-42524264D01*
X239106107Y-42523790D01*
X239071192Y-42520735D01*
X239071191Y-42520735D01*
X239032091Y-42531212D01*
X239026811Y-42532383D01*
X238986959Y-42539410D01*
X238981961Y-42541229D01*
X238965117Y-42548206D01*
X238960313Y-42550446D01*
X238927166Y-42573656D01*
X238922606Y-42576562D01*
X238887548Y-42596804D01*
X238887540Y-42596810D01*
X238861523Y-42627815D01*
X238857869Y-42631804D01*
X238381803Y-43107870D01*
X238377814Y-43111525D01*
X238346805Y-43137545D01*
X238326562Y-43172606D01*
X238323656Y-43177166D01*
X238300446Y-43210313D01*
X238298206Y-43215117D01*
X238291229Y-43231961D01*
X238289410Y-43236959D01*
X238282383Y-43276811D01*
X238281212Y-43282091D01*
X238270735Y-43321191D01*
X238272977Y-43346806D01*
X238273702Y-43355098D01*
X238274264Y-43361513D01*
X238274500Y-43366920D01*
X238274500Y-44833078D01*
X238274264Y-44838485D01*
X238270735Y-44878808D01*
X238281212Y-44917910D01*
X238282383Y-44923190D01*
X238289411Y-44963043D01*
X238291235Y-44968055D01*
X238298197Y-44984861D01*
X238300445Y-44989681D01*
X238300446Y-44989684D01*
X238311041Y-45004815D01*
X238323655Y-45022831D01*
X238326561Y-45027392D01*
X238346806Y-45062455D01*
X238377815Y-45088475D01*
X238381805Y-45092131D01*
X238907868Y-45618195D01*
X238911523Y-45622184D01*
X238937541Y-45653190D01*
X238937542Y-45653191D01*
X238937545Y-45653194D01*
X238962681Y-45667706D01*
X238972604Y-45673435D01*
X238977154Y-45676333D01*
X239010316Y-45699553D01*
X239010318Y-45699553D01*
X239010319Y-45699554D01*
X239015168Y-45701815D01*
X239031947Y-45708765D01*
X239036952Y-45710587D01*
X239036953Y-45710587D01*
X239036955Y-45710588D01*
X239076829Y-45717618D01*
X239082092Y-45718786D01*
X239093907Y-45721951D01*
X239121193Y-45729263D01*
X239121198Y-45729262D01*
X239132005Y-45730209D01*
X239131804Y-45732499D01*
X239185860Y-45743358D01*
X239236048Y-45791968D01*
X239251989Y-45859995D01*
X239228620Y-45925841D01*
X239224033Y-45931789D01*
X239132317Y-46043546D01*
X239034769Y-46226043D01*
X238974699Y-46424067D01*
X238954417Y-46630000D01*
X238974699Y-46835932D01*
X238987808Y-46879145D01*
X239034768Y-47033954D01*
X239132315Y-47216450D01*
X239150445Y-47238542D01*
X239263589Y-47376410D01*
X239332366Y-47432853D01*
X239423550Y-47507685D01*
X239606046Y-47605232D01*
X239804066Y-47665300D01*
X239804065Y-47665300D01*
X239822529Y-47667118D01*
X240010000Y-47685583D01*
X240215934Y-47665300D01*
X240413954Y-47605232D01*
X240413969Y-47605223D01*
X240415843Y-47604448D01*
X240416918Y-47604332D01*
X240419784Y-47603463D01*
X240419948Y-47604005D01*
X240485311Y-47596969D01*
X240547795Y-47628234D01*
X240550994Y-47631321D01*
X241037868Y-48118195D01*
X241041523Y-48122184D01*
X241067541Y-48153190D01*
X241067543Y-48153191D01*
X241067545Y-48153194D01*
X241102605Y-48173435D01*
X241107160Y-48176338D01*
X241127662Y-48190694D01*
X241140316Y-48199554D01*
X241140319Y-48199554D01*
X241145168Y-48201816D01*
X241168487Y-48211473D01*
X241173511Y-48214373D01*
X241221731Y-48264936D01*
X241234961Y-48333542D01*
X241229227Y-48360768D01*
X241210496Y-48417295D01*
X241210493Y-48417309D01*
X241200000Y-48520013D01*
X241200000Y-48672813D01*
X241180315Y-48739852D01*
X241127511Y-48785607D01*
X241058353Y-48795551D01*
X240994797Y-48766526D01*
X240966642Y-48731267D01*
X240887685Y-48583550D01*
X240814305Y-48494136D01*
X240756410Y-48423589D01*
X240628570Y-48318675D01*
X240596450Y-48292315D01*
X240413954Y-48194768D01*
X240215934Y-48134700D01*
X240215932Y-48134699D01*
X240215934Y-48134699D01*
X240010000Y-48114417D01*
X239804067Y-48134699D01*
X239606043Y-48194769D01*
X239538961Y-48230626D01*
X239423550Y-48292315D01*
X239423548Y-48292316D01*
X239423547Y-48292317D01*
X239263589Y-48423589D01*
X239132317Y-48583547D01*
X239034769Y-48766043D01*
X239034768Y-48766045D01*
X239034768Y-48766046D01*
X239028834Y-48785607D01*
X238974699Y-48964067D01*
X238954417Y-49170000D01*
X238974699Y-49375932D01*
X238974700Y-49375934D01*
X239034768Y-49573954D01*
X239132315Y-49756450D01*
X239166969Y-49798677D01*
X239263589Y-49916410D01*
X239423548Y-50047684D01*
X239423550Y-50047685D01*
X239516471Y-50097353D01*
X239553453Y-50117120D01*
X239603298Y-50166082D01*
X239619000Y-50226478D01*
X239619000Y-50748072D01*
X239619000Y-50871928D01*
X239625613Y-50892284D01*
X239630152Y-50911189D01*
X239633501Y-50932330D01*
X239633502Y-50932335D01*
X239643213Y-50951394D01*
X239650657Y-50969364D01*
X239657272Y-50989721D01*
X239657272Y-50989722D01*
X239669849Y-51007032D01*
X239680014Y-51023620D01*
X239689729Y-51042686D01*
X239689731Y-51042689D01*
X239777311Y-51130269D01*
X239777312Y-51130269D01*
X240529730Y-51882688D01*
X240529731Y-51882689D01*
X240617311Y-51970269D01*
X240636381Y-51979985D01*
X240652965Y-51990149D01*
X240670277Y-52002727D01*
X240690633Y-52009340D01*
X240708601Y-52016783D01*
X240727668Y-52026499D01*
X240748806Y-52029846D01*
X240767725Y-52034388D01*
X240788071Y-52041000D01*
X240788074Y-52041000D01*
X245940955Y-52041000D01*
X245940956Y-52041000D01*
X245961304Y-52034388D01*
X245980215Y-52029847D01*
X246001360Y-52026499D01*
X246020424Y-52016784D01*
X246038399Y-52009339D01*
X246058751Y-52002727D01*
X246076059Y-51990150D01*
X246092648Y-51979984D01*
X246111717Y-51970269D01*
X246199297Y-51882689D01*
X246199297Y-51882687D01*
X246209501Y-51872484D01*
X246209504Y-51872479D01*
X246231983Y-51850000D01*
X247319000Y-51850000D01*
X247950000Y-51850000D01*
X247950000Y-50838000D01*
X248450000Y-50838000D01*
X248450000Y-51850000D01*
X249081000Y-51850000D01*
X249081000Y-51290172D01*
X249080999Y-51290155D01*
X249074598Y-51230627D01*
X249074596Y-51230620D01*
X249024354Y-51095913D01*
X249024350Y-51095906D01*
X248938190Y-50980812D01*
X248938187Y-50980809D01*
X248823093Y-50894649D01*
X248823086Y-50894645D01*
X248688379Y-50844403D01*
X248688372Y-50844401D01*
X248628844Y-50838000D01*
X248450000Y-50838000D01*
X247950000Y-50838000D01*
X247771155Y-50838000D01*
X247711627Y-50844401D01*
X247711620Y-50844403D01*
X247576913Y-50894645D01*
X247576906Y-50894649D01*
X247461812Y-50980809D01*
X247461809Y-50980812D01*
X247375649Y-51095906D01*
X247375645Y-51095913D01*
X247325403Y-51230620D01*
X247325401Y-51230627D01*
X247319000Y-51290155D01*
X247319000Y-51850000D01*
X246231983Y-51850000D01*
X250898240Y-47183746D01*
X250920269Y-47161717D01*
X250929985Y-47142646D01*
X250940144Y-47126068D01*
X250952727Y-47108751D01*
X250959340Y-47088396D01*
X250966782Y-47070428D01*
X250976499Y-47051360D01*
X250979846Y-47030221D01*
X250984385Y-47011316D01*
X250991001Y-46990956D01*
X250991001Y-46867099D01*
X250991001Y-46862935D01*
X250991000Y-46862917D01*
X250991000Y-46313319D01*
X251010685Y-46246280D01*
X251027319Y-46225638D01*
X251216819Y-46036138D01*
X251278142Y-46002653D01*
X251347834Y-46007637D01*
X251403767Y-46049509D01*
X251428184Y-46114973D01*
X251428500Y-46123819D01*
X251428500Y-47293752D01*
X251440131Y-47352229D01*
X251440132Y-47352230D01*
X251484447Y-47418552D01*
X251550769Y-47462867D01*
X251550770Y-47462868D01*
X251609247Y-47474499D01*
X251609250Y-47474500D01*
X251609252Y-47474500D01*
X252410750Y-47474500D01*
X252410751Y-47474499D01*
X252425568Y-47471552D01*
X252469229Y-47462868D01*
X252469229Y-47462867D01*
X252469231Y-47462867D01*
X252535552Y-47418552D01*
X252579867Y-47352231D01*
X252579867Y-47352229D01*
X252579868Y-47352229D01*
X252591499Y-47293752D01*
X252591500Y-47293750D01*
X252591500Y-45780500D01*
X252611185Y-45713461D01*
X252663989Y-45667706D01*
X252715500Y-45656500D01*
X254483812Y-45656500D01*
X254550851Y-45676185D01*
X254596606Y-45728989D01*
X254606550Y-45798147D01*
X254577525Y-45861703D01*
X254571494Y-45868178D01*
X253905908Y-46533765D01*
X253281803Y-47157870D01*
X253277814Y-47161525D01*
X253246805Y-47187545D01*
X253226562Y-47222606D01*
X253223656Y-47227166D01*
X253200446Y-47260313D01*
X253198206Y-47265117D01*
X253191229Y-47281961D01*
X253189410Y-47286959D01*
X253182383Y-47326811D01*
X253181212Y-47332091D01*
X253170735Y-47371191D01*
X253174264Y-47411513D01*
X253174500Y-47416920D01*
X253174500Y-49083078D01*
X253174264Y-49088485D01*
X253170735Y-49128808D01*
X253181212Y-49167910D01*
X253182383Y-49173190D01*
X253189411Y-49213043D01*
X253191235Y-49218055D01*
X253198197Y-49234861D01*
X253200445Y-49239681D01*
X253200446Y-49239684D01*
X253214452Y-49259687D01*
X253223655Y-49272831D01*
X253226561Y-49277392D01*
X253246806Y-49312455D01*
X253277815Y-49338475D01*
X253281805Y-49342131D01*
X253688181Y-49748507D01*
X253721666Y-49809830D01*
X253724500Y-49836188D01*
X253724500Y-50015260D01*
X253727274Y-50044849D01*
X253770884Y-50169476D01*
X253849288Y-50275710D01*
X253849289Y-50275711D01*
X253955523Y-50354115D01*
X253955524Y-50354115D01*
X253955525Y-50354116D01*
X254080151Y-50397725D01*
X254080150Y-50397725D01*
X254109740Y-50400500D01*
X254109744Y-50400500D01*
X254690260Y-50400500D01*
X254719849Y-50397725D01*
X254731652Y-50393595D01*
X254844475Y-50354116D01*
X254950711Y-50275711D01*
X254950713Y-50275707D01*
X254957282Y-50269140D01*
X254958220Y-50270078D01*
X255006242Y-50233616D01*
X255050366Y-50225500D01*
X255733078Y-50225500D01*
X255738481Y-50225735D01*
X255778807Y-50229264D01*
X255817940Y-50218777D01*
X255823162Y-50217619D01*
X255863045Y-50210588D01*
X255863050Y-50210584D01*
X255868099Y-50208747D01*
X255884824Y-50201819D01*
X255889681Y-50199554D01*
X255889684Y-50199554D01*
X255922841Y-50176335D01*
X255927390Y-50173438D01*
X255962455Y-50153194D01*
X255969502Y-50144796D01*
X256027673Y-50106093D01*
X256064493Y-50100500D01*
X257719750Y-50100500D01*
X257719751Y-50100499D01*
X257735569Y-50097353D01*
X257778229Y-50088868D01*
X257778229Y-50088867D01*
X257778231Y-50088867D01*
X257823324Y-50058735D01*
X257854707Y-50037767D01*
X257857209Y-50041512D01*
X257897087Y-50019594D01*
X257966792Y-50024386D01*
X258022841Y-50066103D01*
X258039961Y-50097353D01*
X258056646Y-50142087D01*
X258056649Y-50142093D01*
X258142809Y-50257187D01*
X258142812Y-50257190D01*
X258257906Y-50343350D01*
X258257913Y-50343354D01*
X258392620Y-50393596D01*
X258392627Y-50393598D01*
X258452155Y-50399999D01*
X258452172Y-50400000D01*
X259300000Y-50400000D01*
X259300000Y-48874000D01*
X259319685Y-48806961D01*
X259372489Y-48761206D01*
X259424000Y-48750000D01*
X259676000Y-48750000D01*
X259743039Y-48769685D01*
X259788794Y-48822489D01*
X259800000Y-48874000D01*
X259800000Y-50400000D01*
X260647828Y-50400000D01*
X260647844Y-50399999D01*
X260707372Y-50393598D01*
X260707383Y-50393595D01*
X260818880Y-50352009D01*
X260888571Y-50347024D01*
X260949895Y-50380508D01*
X260967752Y-50403092D01*
X260980055Y-50423038D01*
X261101965Y-50544947D01*
X261248688Y-50635448D01*
X261248699Y-50635453D01*
X261412347Y-50689680D01*
X261513352Y-50699999D01*
X261550000Y-50699999D01*
X261550000Y-49912500D01*
X262050000Y-49912500D01*
X262050000Y-50699999D01*
X262086640Y-50699999D01*
X262086654Y-50699998D01*
X262187652Y-50689680D01*
X262351300Y-50635453D01*
X262351311Y-50635448D01*
X262498034Y-50544947D01*
X262498038Y-50544944D01*
X262619944Y-50423038D01*
X262619947Y-50423034D01*
X262710448Y-50276311D01*
X262710453Y-50276300D01*
X262764680Y-50112652D01*
X262774999Y-50011654D01*
X262775000Y-50011641D01*
X262775000Y-49912500D01*
X262050000Y-49912500D01*
X261550000Y-49912500D01*
X261550000Y-49536500D01*
X261569685Y-49469461D01*
X261622489Y-49423706D01*
X261674000Y-49412500D01*
X262774999Y-49412500D01*
X262774999Y-49313360D01*
X262774998Y-49313345D01*
X262764680Y-49212347D01*
X262710453Y-49048699D01*
X262710448Y-49048688D01*
X262619947Y-48901965D01*
X262619944Y-48901961D01*
X262498038Y-48780055D01*
X262498034Y-48780052D01*
X262395179Y-48716610D01*
X262348454Y-48664662D01*
X262337233Y-48595700D01*
X262360505Y-48537440D01*
X262429116Y-48444475D01*
X262472725Y-48319849D01*
X262475500Y-48290256D01*
X262475500Y-47584744D01*
X262474539Y-47574500D01*
X262472725Y-47555150D01*
X262431083Y-47436146D01*
X262429116Y-47430525D01*
X262419075Y-47416920D01*
X262350711Y-47324289D01*
X262350710Y-47324288D01*
X262244476Y-47245884D01*
X262244477Y-47245884D01*
X262208544Y-47233311D01*
X262151769Y-47192589D01*
X262126022Y-47127636D01*
X262125500Y-47116270D01*
X262125500Y-46116909D01*
X262125736Y-46111502D01*
X262129263Y-46071191D01*
X262118786Y-46032092D01*
X262117617Y-46026824D01*
X262110588Y-45986955D01*
X262110587Y-45986954D01*
X262110587Y-45986951D01*
X262108765Y-45981947D01*
X262101815Y-45965168D01*
X262099554Y-45960319D01*
X262099553Y-45960318D01*
X262099553Y-45960316D01*
X262076333Y-45927154D01*
X262073435Y-45922604D01*
X262057539Y-45895071D01*
X262053194Y-45887545D01*
X262053191Y-45887542D01*
X262053190Y-45887541D01*
X262029079Y-45867310D01*
X262022182Y-45861522D01*
X262018210Y-45857883D01*
X260174319Y-44013992D01*
X260140834Y-43952669D01*
X260138000Y-43926311D01*
X260138000Y-42450603D01*
X260157685Y-42383564D01*
X260210489Y-42337809D01*
X260221022Y-42333570D01*
X260269475Y-42316616D01*
X260375711Y-42238211D01*
X260454116Y-42131975D01*
X260497725Y-42007349D01*
X260498636Y-41997634D01*
X260500500Y-41977760D01*
X260500500Y-41397239D01*
X260497725Y-41367650D01*
X260470993Y-41291257D01*
X260454116Y-41243025D01*
X260454110Y-41243017D01*
X260375711Y-41136789D01*
X260375710Y-41136788D01*
X260269476Y-41058384D01*
X260144848Y-41014774D01*
X260144849Y-41014774D01*
X260115260Y-41012000D01*
X260115256Y-41012000D01*
X260073688Y-41012000D01*
X260006649Y-40992315D01*
X259986007Y-40975681D01*
X259261819Y-40251493D01*
X259228334Y-40190170D01*
X259225500Y-40163812D01*
X259225500Y-39765839D01*
X259245185Y-39698800D01*
X259297989Y-39653045D01*
X259367147Y-39643101D01*
X259373668Y-39644217D01*
X259405252Y-39650500D01*
X259994748Y-39650500D01*
X260028002Y-39643885D01*
X260097592Y-39650111D01*
X260152770Y-39692973D01*
X260171970Y-39733412D01*
X260181212Y-39767911D01*
X260182383Y-39773190D01*
X260189411Y-39813043D01*
X260191235Y-39818055D01*
X260198197Y-39834861D01*
X260200445Y-39839681D01*
X260200446Y-39839684D01*
X260205433Y-39846806D01*
X260223655Y-39872831D01*
X260226561Y-39877392D01*
X260246806Y-39912455D01*
X260277815Y-39938475D01*
X260281805Y-39942131D01*
X261088181Y-40748507D01*
X261121666Y-40809830D01*
X261124500Y-40836188D01*
X261124500Y-43133078D01*
X261124264Y-43138485D01*
X261120735Y-43178808D01*
X261131212Y-43217910D01*
X261132383Y-43223190D01*
X261139411Y-43263043D01*
X261141235Y-43268055D01*
X261148197Y-43284861D01*
X261150445Y-43289681D01*
X261150446Y-43289684D01*
X261155433Y-43296806D01*
X261173655Y-43322831D01*
X261176561Y-43327392D01*
X261196806Y-43362455D01*
X261227815Y-43388475D01*
X261231805Y-43392131D01*
X265078216Y-47238542D01*
X265111701Y-47299865D01*
X265109195Y-47362219D01*
X265063253Y-47513666D01*
X265063252Y-47513668D01*
X265044901Y-47700000D01*
X265063252Y-47886331D01*
X265063253Y-47886333D01*
X265117604Y-48065502D01*
X265205862Y-48230623D01*
X265205864Y-48230626D01*
X265324642Y-48375357D01*
X265469373Y-48494135D01*
X265469376Y-48494137D01*
X265575220Y-48550711D01*
X265634499Y-48582396D01*
X265813666Y-48636746D01*
X265813668Y-48636747D01*
X265830374Y-48638392D01*
X266000000Y-48655099D01*
X266186331Y-48636747D01*
X266365501Y-48582396D01*
X266530625Y-48494136D01*
X266675357Y-48375357D01*
X266794136Y-48230625D01*
X266882396Y-48065501D01*
X266936747Y-47886331D01*
X266955099Y-47700000D01*
X266936747Y-47513669D01*
X266882396Y-47334499D01*
X266863884Y-47299865D01*
X266794137Y-47169376D01*
X266794135Y-47169373D01*
X266675357Y-47024642D01*
X266530626Y-46905864D01*
X266530623Y-46905862D01*
X266365502Y-46817604D01*
X266186333Y-46763253D01*
X266186331Y-46763252D01*
X266000000Y-46744901D01*
X265813668Y-46763252D01*
X265813666Y-46763253D01*
X265662219Y-46809195D01*
X265592352Y-46809819D01*
X265538542Y-46778216D01*
X264937487Y-46177161D01*
X264904002Y-46115838D01*
X264908986Y-46046146D01*
X264950858Y-45990213D01*
X265016322Y-45965796D01*
X265061164Y-45970820D01*
X265113666Y-45986746D01*
X265113668Y-45986747D01*
X265130374Y-45988392D01*
X265300000Y-46005099D01*
X265486331Y-45986747D01*
X265665501Y-45932396D01*
X265830625Y-45844136D01*
X265975357Y-45725357D01*
X266094136Y-45580625D01*
X266182396Y-45415501D01*
X266236747Y-45236331D01*
X266255099Y-45050000D01*
X266236747Y-44863669D01*
X266182396Y-44684499D01*
X266170273Y-44661819D01*
X266094137Y-44519376D01*
X266094135Y-44519373D01*
X265975357Y-44374642D01*
X265830626Y-44255864D01*
X265830623Y-44255862D01*
X265665500Y-44167603D01*
X265659877Y-44165274D01*
X265660528Y-44163700D01*
X265608895Y-44129860D01*
X265580440Y-44066047D01*
X265591002Y-43996981D01*
X265637228Y-43944588D01*
X265703331Y-43925500D01*
X266863812Y-43925500D01*
X266930851Y-43945185D01*
X266951492Y-43961818D01*
X267295443Y-44305770D01*
X267328928Y-44367092D01*
X267323944Y-44436784D01*
X267308424Y-44463763D01*
X267309247Y-44464313D01*
X267305860Y-44469381D01*
X267217604Y-44634497D01*
X267163253Y-44813666D01*
X267163252Y-44813668D01*
X267144901Y-45000000D01*
X267163252Y-45186331D01*
X267163253Y-45186333D01*
X267217604Y-45365502D01*
X267305862Y-45530623D01*
X267305864Y-45530626D01*
X267424642Y-45675357D01*
X267569373Y-45794135D01*
X267569376Y-45794137D01*
X267706825Y-45867604D01*
X267734499Y-45882396D01*
X267899326Y-45932396D01*
X267913666Y-45936746D01*
X267913668Y-45936747D01*
X267930374Y-45938392D01*
X268100000Y-45955099D01*
X268286331Y-45936747D01*
X268465501Y-45882396D01*
X268630625Y-45794136D01*
X268775357Y-45675357D01*
X268894136Y-45530625D01*
X268982396Y-45365501D01*
X269036747Y-45186331D01*
X269055099Y-45000000D01*
X269036747Y-44813669D01*
X268982396Y-44634499D01*
X268979597Y-44629263D01*
X268894137Y-44469376D01*
X268894135Y-44469373D01*
X268775357Y-44324642D01*
X268630626Y-44205864D01*
X268630623Y-44205862D01*
X268465500Y-44117603D01*
X268459877Y-44115274D01*
X268460528Y-44113700D01*
X268408895Y-44079860D01*
X268380440Y-44016047D01*
X268391002Y-43946981D01*
X268437228Y-43894588D01*
X268503331Y-43875500D01*
X268663812Y-43875500D01*
X268730851Y-43895185D01*
X268751493Y-43911819D01*
X270238181Y-45398507D01*
X270271666Y-45459830D01*
X270274500Y-45486188D01*
X270274500Y-45771899D01*
X270254815Y-45838938D01*
X270208954Y-45881257D01*
X270069373Y-45955865D01*
X269924642Y-46074642D01*
X269805864Y-46219373D01*
X269805862Y-46219376D01*
X269717604Y-46384497D01*
X269663253Y-46563666D01*
X269663252Y-46563668D01*
X269644901Y-46750000D01*
X269663252Y-46936331D01*
X269663253Y-46936333D01*
X269717604Y-47115502D01*
X269805862Y-47280623D01*
X269805864Y-47280626D01*
X269924642Y-47425357D01*
X270069373Y-47544135D01*
X270069376Y-47544137D01*
X270183678Y-47605232D01*
X270234499Y-47632396D01*
X270409829Y-47685582D01*
X270413666Y-47686746D01*
X270413668Y-47686747D01*
X270430374Y-47688392D01*
X270600000Y-47705099D01*
X270786331Y-47686747D01*
X270965501Y-47632396D01*
X271130625Y-47544136D01*
X271275357Y-47425357D01*
X271394136Y-47280625D01*
X271482396Y-47115501D01*
X271536747Y-46936331D01*
X271555099Y-46750000D01*
X271536747Y-46563669D01*
X271482396Y-46384499D01*
X271429848Y-46286188D01*
X271394137Y-46219376D01*
X271394135Y-46219373D01*
X271275357Y-46074642D01*
X271136050Y-45960316D01*
X271130625Y-45955864D01*
X271072781Y-45924946D01*
X270991046Y-45881257D01*
X270941202Y-45832294D01*
X270925500Y-45771899D01*
X270925500Y-45316920D01*
X270925736Y-45311513D01*
X270929264Y-45271193D01*
X270925823Y-45258353D01*
X270918782Y-45232076D01*
X270917616Y-45226818D01*
X270910588Y-45186955D01*
X270910586Y-45186951D01*
X270910586Y-45186950D01*
X270908760Y-45181933D01*
X270901820Y-45165176D01*
X270899554Y-45160319D01*
X270899554Y-45160316D01*
X270876339Y-45127162D01*
X270873433Y-45122599D01*
X270853196Y-45087548D01*
X270853195Y-45087547D01*
X270853194Y-45087545D01*
X270822177Y-45061518D01*
X270818193Y-45057867D01*
X270541365Y-44781039D01*
X270507880Y-44719716D01*
X270512864Y-44650024D01*
X270554736Y-44594091D01*
X270620200Y-44569674D01*
X270678067Y-44581993D01*
X270678867Y-44580064D01*
X270684495Y-44582395D01*
X270753466Y-44603317D01*
X270856258Y-44634499D01*
X270863666Y-44636746D01*
X270863668Y-44636747D01*
X270880374Y-44638392D01*
X271050000Y-44655099D01*
X271236331Y-44636747D01*
X271415501Y-44582396D01*
X271580625Y-44494136D01*
X271725357Y-44375357D01*
X271844136Y-44230625D01*
X271932396Y-44065501D01*
X271986747Y-43886331D01*
X272005099Y-43700000D01*
X271987964Y-43526022D01*
X271986747Y-43513668D01*
X271986746Y-43513666D01*
X271978548Y-43486641D01*
X271932396Y-43334499D01*
X271917935Y-43307444D01*
X271844137Y-43169376D01*
X271844135Y-43169373D01*
X271725357Y-43024642D01*
X271580626Y-42905864D01*
X271580623Y-42905862D01*
X271415502Y-42817604D01*
X271236332Y-42763253D01*
X271187345Y-42758428D01*
X271122558Y-42732267D01*
X271082200Y-42675232D01*
X271075500Y-42635025D01*
X271075500Y-41538504D01*
X271095185Y-41471465D01*
X271147989Y-41425710D01*
X271217147Y-41415766D01*
X271280703Y-41444791D01*
X271318159Y-41502505D01*
X271358756Y-41636333D01*
X271367606Y-41665507D01*
X271455862Y-41830623D01*
X271455864Y-41830626D01*
X271574642Y-41975357D01*
X271719373Y-42094135D01*
X271719376Y-42094137D01*
X271869468Y-42174362D01*
X271884499Y-42182396D01*
X272047892Y-42231961D01*
X272063666Y-42236746D01*
X272063668Y-42236747D01*
X272078523Y-42238210D01*
X272250000Y-42255099D01*
X272436331Y-42236747D01*
X272615501Y-42182396D01*
X272780625Y-42094136D01*
X272925357Y-41975357D01*
X273044136Y-41830625D01*
X273132396Y-41665501D01*
X273186747Y-41486331D01*
X273205099Y-41300000D01*
X273186747Y-41113669D01*
X273132396Y-40934499D01*
X273115663Y-40903193D01*
X273044137Y-40769376D01*
X273044135Y-40769373D01*
X272925357Y-40624642D01*
X272787520Y-40511523D01*
X272780625Y-40505864D01*
X272700516Y-40463045D01*
X272641046Y-40431257D01*
X272591202Y-40382294D01*
X272575500Y-40321899D01*
X272575500Y-40166921D01*
X272575736Y-40161516D01*
X272575996Y-40158544D01*
X272578742Y-40127151D01*
X272604193Y-40062084D01*
X272660783Y-40021104D01*
X272730545Y-40017225D01*
X272789951Y-40050277D01*
X273538181Y-40798507D01*
X273571666Y-40859830D01*
X273574500Y-40886188D01*
X273574500Y-42633078D01*
X273574264Y-42638485D01*
X273570735Y-42678808D01*
X273581212Y-42717910D01*
X273582383Y-42723190D01*
X273589411Y-42763043D01*
X273591235Y-42768055D01*
X273598197Y-42784861D01*
X273600445Y-42789681D01*
X273600446Y-42789684D01*
X273614452Y-42809687D01*
X273623655Y-42822831D01*
X273626561Y-42827392D01*
X273646806Y-42862455D01*
X273677815Y-42888475D01*
X273681805Y-42892131D01*
X274207868Y-43418195D01*
X274211523Y-43422184D01*
X274237541Y-43453190D01*
X274237542Y-43453191D01*
X274237545Y-43453194D01*
X274266387Y-43469845D01*
X274272604Y-43473435D01*
X274277154Y-43476333D01*
X274310316Y-43499553D01*
X274310318Y-43499553D01*
X274310319Y-43499554D01*
X274315168Y-43501815D01*
X274331947Y-43508765D01*
X274336952Y-43510587D01*
X274336953Y-43510587D01*
X274336955Y-43510588D01*
X274376829Y-43517618D01*
X274382092Y-43518786D01*
X274393907Y-43521951D01*
X274421193Y-43529263D01*
X274461510Y-43525735D01*
X274466912Y-43525500D01*
X274828770Y-43525500D01*
X274895809Y-43545185D01*
X274941564Y-43597989D01*
X274945811Y-43608544D01*
X274958384Y-43644476D01*
X275036788Y-43750710D01*
X275036789Y-43750711D01*
X275143023Y-43829115D01*
X275143024Y-43829115D01*
X275143025Y-43829116D01*
X275267651Y-43872725D01*
X275267650Y-43872725D01*
X275297240Y-43875500D01*
X275297244Y-43875500D01*
X275902760Y-43875500D01*
X275932349Y-43872725D01*
X275967034Y-43860588D01*
X276056975Y-43829116D01*
X276163211Y-43750711D01*
X276241616Y-43644475D01*
X276285225Y-43519849D01*
X276285805Y-43513666D01*
X276288000Y-43490260D01*
X276288000Y-42909739D01*
X276285225Y-42880150D01*
X276253569Y-42789684D01*
X276241616Y-42755525D01*
X276235628Y-42747412D01*
X276163211Y-42649289D01*
X276163210Y-42649288D01*
X276056976Y-42570884D01*
X275932348Y-42527274D01*
X275932349Y-42527274D01*
X275902760Y-42524500D01*
X275902756Y-42524500D01*
X275297244Y-42524500D01*
X275297240Y-42524500D01*
X275267650Y-42527274D01*
X275143023Y-42570884D01*
X275036789Y-42649288D01*
X275036788Y-42649289D01*
X274958384Y-42755523D01*
X274945811Y-42791456D01*
X274905089Y-42848231D01*
X274840136Y-42873978D01*
X274828770Y-42874500D01*
X274636189Y-42874500D01*
X274569150Y-42854815D01*
X274548508Y-42838181D01*
X274261819Y-42551492D01*
X274228334Y-42490169D01*
X274225500Y-42463811D01*
X274225500Y-40785188D01*
X274245185Y-40718149D01*
X274297989Y-40672394D01*
X274367147Y-40662450D01*
X274430703Y-40691475D01*
X274437167Y-40697494D01*
X274875682Y-41136009D01*
X274909166Y-41197330D01*
X274912000Y-41223688D01*
X274912000Y-41790260D01*
X274914774Y-41819849D01*
X274958384Y-41944476D01*
X275036788Y-42050710D01*
X275036789Y-42050711D01*
X275143023Y-42129115D01*
X275143024Y-42129115D01*
X275143025Y-42129116D01*
X275267651Y-42172725D01*
X275267650Y-42172725D01*
X275297240Y-42175500D01*
X275297244Y-42175500D01*
X275902760Y-42175500D01*
X275932349Y-42172725D01*
X275938656Y-42170518D01*
X276056975Y-42129116D01*
X276163211Y-42050711D01*
X276241616Y-41944475D01*
X276285225Y-41819849D01*
X276287602Y-41794499D01*
X276288000Y-41790260D01*
X276288000Y-41209739D01*
X276285225Y-41180150D01*
X276252614Y-41086955D01*
X276241616Y-41055525D01*
X276239575Y-41052760D01*
X276163211Y-40949289D01*
X276163210Y-40949288D01*
X276056976Y-40870884D01*
X275932348Y-40827274D01*
X275932349Y-40827274D01*
X275902760Y-40824500D01*
X275902756Y-40824500D01*
X275536189Y-40824500D01*
X275469150Y-40804815D01*
X275448508Y-40788181D01*
X275297508Y-40637181D01*
X275264023Y-40575858D01*
X275269007Y-40506166D01*
X275310879Y-40450233D01*
X275376343Y-40425816D01*
X275385189Y-40425500D01*
X275902760Y-40425500D01*
X275932349Y-40422725D01*
X275981663Y-40405469D01*
X276056975Y-40379116D01*
X276163211Y-40300711D01*
X276241616Y-40194475D01*
X276285225Y-40069849D01*
X276285953Y-40062084D01*
X276288000Y-40040260D01*
X276288000Y-39459739D01*
X276285225Y-39430150D01*
X276251996Y-39335188D01*
X276241616Y-39305525D01*
X276194345Y-39241475D01*
X276163211Y-39199289D01*
X276163210Y-39199288D01*
X276056976Y-39120884D01*
X275932348Y-39077274D01*
X275932349Y-39077274D01*
X275902760Y-39074500D01*
X275902756Y-39074500D01*
X275297244Y-39074500D01*
X275297240Y-39074500D01*
X275267650Y-39077274D01*
X275143023Y-39120884D01*
X275036787Y-39199290D01*
X275035871Y-39200206D01*
X275034623Y-39200887D01*
X275029312Y-39204807D01*
X275028775Y-39204079D01*
X274974543Y-39233683D01*
X274904852Y-39228689D01*
X274860520Y-39200194D01*
X269397507Y-33737181D01*
X269364022Y-33675858D01*
X269369006Y-33606166D01*
X269410878Y-33550233D01*
X269476342Y-33525816D01*
X269485188Y-33525500D01*
X269513812Y-33525500D01*
X269580851Y-33545185D01*
X269601493Y-33561819D01*
X274307863Y-38268189D01*
X274311518Y-38272178D01*
X274337541Y-38303190D01*
X274337543Y-38303191D01*
X274337545Y-38303194D01*
X274337547Y-38303195D01*
X274337548Y-38303196D01*
X274372599Y-38323433D01*
X274377162Y-38326339D01*
X274410316Y-38349554D01*
X274410319Y-38349554D01*
X274415176Y-38351820D01*
X274431933Y-38358760D01*
X274436953Y-38360587D01*
X274436955Y-38360588D01*
X274472806Y-38366909D01*
X274476808Y-38367615D01*
X274482080Y-38368783D01*
X274521193Y-38379264D01*
X274561522Y-38375735D01*
X274566924Y-38375500D01*
X274828770Y-38375500D01*
X274895809Y-38395185D01*
X274941564Y-38447989D01*
X274945811Y-38458544D01*
X274958384Y-38494476D01*
X275036788Y-38600710D01*
X275036789Y-38600711D01*
X275143023Y-38679115D01*
X275143024Y-38679115D01*
X275143025Y-38679116D01*
X275267651Y-38722725D01*
X275267650Y-38722725D01*
X275297240Y-38725500D01*
X275297244Y-38725500D01*
X275902760Y-38725500D01*
X275932349Y-38722725D01*
X275950396Y-38716410D01*
X276056975Y-38679116D01*
X276163211Y-38600711D01*
X276241616Y-38494475D01*
X276285225Y-38369849D01*
X276285390Y-38368085D01*
X276288000Y-38340260D01*
X276288000Y-37759739D01*
X276285225Y-37730150D01*
X276254189Y-37641456D01*
X276241616Y-37605525D01*
X276232233Y-37592812D01*
X276163211Y-37499289D01*
X276163210Y-37499288D01*
X276056976Y-37420884D01*
X275932348Y-37377274D01*
X275932349Y-37377274D01*
X275902760Y-37374500D01*
X275902756Y-37374500D01*
X275297244Y-37374500D01*
X275297240Y-37374500D01*
X275267650Y-37377274D01*
X275143023Y-37420884D01*
X275036789Y-37499288D01*
X275036788Y-37499289D01*
X274958384Y-37605523D01*
X274945811Y-37641456D01*
X274905089Y-37698231D01*
X274840136Y-37723978D01*
X274828770Y-37724500D01*
X274736188Y-37724500D01*
X274669149Y-37704815D01*
X274648507Y-37688181D01*
X269997507Y-33037181D01*
X269964022Y-32975858D01*
X269969006Y-32906166D01*
X270010878Y-32850233D01*
X270076342Y-32825816D01*
X270085188Y-32825500D01*
X270113812Y-32825500D01*
X270180851Y-32845185D01*
X270201492Y-32861818D01*
X272207868Y-34868195D01*
X273907868Y-36568195D01*
X273911523Y-36572184D01*
X273937541Y-36603190D01*
X273937543Y-36603191D01*
X273937545Y-36603194D01*
X273972605Y-36623435D01*
X273977160Y-36626338D01*
X274006338Y-36646769D01*
X274010316Y-36649554D01*
X274010319Y-36649554D01*
X274015176Y-36651820D01*
X274031933Y-36658760D01*
X274036953Y-36660587D01*
X274036955Y-36660588D01*
X274076830Y-36667618D01*
X274082087Y-36668784D01*
X274121193Y-36679263D01*
X274161510Y-36675735D01*
X274166912Y-36675500D01*
X274803770Y-36675500D01*
X274870809Y-36695185D01*
X274916564Y-36747989D01*
X274920811Y-36758544D01*
X274933384Y-36794476D01*
X275011788Y-36900710D01*
X275011789Y-36900711D01*
X275118023Y-36979115D01*
X275118024Y-36979115D01*
X275118025Y-36979116D01*
X275242651Y-37022725D01*
X275242650Y-37022725D01*
X275272240Y-37025500D01*
X275272244Y-37025500D01*
X275877760Y-37025500D01*
X275907349Y-37022725D01*
X276031975Y-36979116D01*
X276138211Y-36900711D01*
X276216616Y-36794475D01*
X276260225Y-36669849D01*
X276260435Y-36667613D01*
X276263000Y-36640260D01*
X276263000Y-36059739D01*
X276260225Y-36030150D01*
X276216615Y-35905523D01*
X276138211Y-35799289D01*
X276138210Y-35799288D01*
X276031976Y-35720884D01*
X275907348Y-35677274D01*
X275907349Y-35677274D01*
X275877760Y-35674500D01*
X275877756Y-35674500D01*
X275272244Y-35674500D01*
X275272240Y-35674500D01*
X275242650Y-35677274D01*
X275118023Y-35720884D01*
X275011789Y-35799288D01*
X275011788Y-35799289D01*
X274933384Y-35905523D01*
X274920811Y-35941456D01*
X274880089Y-35998231D01*
X274815136Y-36023978D01*
X274803770Y-36024500D01*
X274336189Y-36024500D01*
X274269150Y-36004815D01*
X274248508Y-35988181D01*
X272482350Y-34222023D01*
X270697506Y-32437180D01*
X270664022Y-32375858D01*
X270669006Y-32306166D01*
X270710878Y-32250233D01*
X270776342Y-32225816D01*
X270785188Y-32225500D01*
X271113812Y-32225500D01*
X271180851Y-32245185D01*
X271201492Y-32261818D01*
X272518788Y-33579115D01*
X273807868Y-34868195D01*
X273811523Y-34872184D01*
X273837541Y-34903190D01*
X273837543Y-34903191D01*
X273837545Y-34903194D01*
X273872605Y-34923435D01*
X273877159Y-34926337D01*
X273910316Y-34949554D01*
X273910319Y-34949554D01*
X273915176Y-34951820D01*
X273931933Y-34958760D01*
X273936953Y-34960587D01*
X273936955Y-34960588D01*
X273976830Y-34967618D01*
X273982087Y-34968784D01*
X274021193Y-34979263D01*
X274061510Y-34975735D01*
X274066912Y-34975500D01*
X274803770Y-34975500D01*
X274870809Y-34995185D01*
X274916564Y-35047989D01*
X274920811Y-35058544D01*
X274933384Y-35094476D01*
X275011788Y-35200710D01*
X275011789Y-35200711D01*
X275118023Y-35279115D01*
X275118024Y-35279115D01*
X275118025Y-35279116D01*
X275242651Y-35322725D01*
X275242650Y-35322725D01*
X275272240Y-35325500D01*
X275272244Y-35325500D01*
X275877760Y-35325500D01*
X275907349Y-35322725D01*
X276031975Y-35279116D01*
X276138211Y-35200711D01*
X276216616Y-35094475D01*
X276260225Y-34969849D01*
X276261006Y-34961525D01*
X276263000Y-34940260D01*
X276263000Y-34359739D01*
X276260225Y-34330150D01*
X276218599Y-34211193D01*
X276216616Y-34205525D01*
X276212538Y-34200000D01*
X276138211Y-34099289D01*
X276138210Y-34099288D01*
X276031976Y-34020884D01*
X275907348Y-33977274D01*
X275907349Y-33977274D01*
X275877760Y-33974500D01*
X275877756Y-33974500D01*
X275272244Y-33974500D01*
X275272240Y-33974500D01*
X275242650Y-33977274D01*
X275118023Y-34020884D01*
X275011789Y-34099288D01*
X275011788Y-34099289D01*
X274933384Y-34205523D01*
X274920811Y-34241456D01*
X274880089Y-34298231D01*
X274815136Y-34323978D01*
X274803770Y-34324500D01*
X274236189Y-34324500D01*
X274169150Y-34304815D01*
X274148508Y-34288181D01*
X272927474Y-33067147D01*
X271697506Y-31837180D01*
X271664022Y-31775858D01*
X271669006Y-31706166D01*
X271710878Y-31650233D01*
X271776342Y-31625816D01*
X271785188Y-31625500D01*
X272213812Y-31625500D01*
X272280851Y-31645185D01*
X272301492Y-31661818D01*
X273068781Y-32429108D01*
X273807868Y-33168195D01*
X273811523Y-33172184D01*
X273837541Y-33203190D01*
X273837542Y-33203191D01*
X273837545Y-33203194D01*
X273866387Y-33219845D01*
X273872604Y-33223435D01*
X273877154Y-33226333D01*
X273910316Y-33249553D01*
X273910318Y-33249553D01*
X273910319Y-33249554D01*
X273915168Y-33251815D01*
X273931947Y-33258765D01*
X273936952Y-33260587D01*
X273936953Y-33260587D01*
X273936955Y-33260588D01*
X273976829Y-33267618D01*
X273982092Y-33268786D01*
X273993907Y-33271951D01*
X274021193Y-33279263D01*
X274061510Y-33275735D01*
X274066912Y-33275500D01*
X274791270Y-33275500D01*
X274858309Y-33295185D01*
X274904064Y-33347989D01*
X274908311Y-33358544D01*
X274920884Y-33394476D01*
X274999288Y-33500710D01*
X274999289Y-33500711D01*
X275105523Y-33579115D01*
X275105524Y-33579115D01*
X275105525Y-33579116D01*
X275230151Y-33622725D01*
X275230150Y-33622725D01*
X275259740Y-33625500D01*
X275259744Y-33625500D01*
X275865260Y-33625500D01*
X275894849Y-33622725D01*
X275942171Y-33606166D01*
X276019475Y-33579116D01*
X276125711Y-33500711D01*
X276204116Y-33394475D01*
X276247725Y-33269849D01*
X276247935Y-33267614D01*
X276250500Y-33240260D01*
X276699500Y-33240260D01*
X276702274Y-33269849D01*
X276745884Y-33394476D01*
X276824288Y-33500710D01*
X276824289Y-33500711D01*
X276930523Y-33579115D01*
X276930524Y-33579115D01*
X276930525Y-33579116D01*
X277055151Y-33622725D01*
X277055150Y-33622725D01*
X277084740Y-33625500D01*
X277084744Y-33625500D01*
X277690260Y-33625500D01*
X277719849Y-33622725D01*
X277767171Y-33606166D01*
X277844475Y-33579116D01*
X277950711Y-33500711D01*
X278029116Y-33394475D01*
X278041689Y-33358543D01*
X278082411Y-33301769D01*
X278147364Y-33276022D01*
X278158730Y-33275500D01*
X278591270Y-33275500D01*
X278658309Y-33295185D01*
X278704064Y-33347989D01*
X278708311Y-33358544D01*
X278720884Y-33394476D01*
X278799288Y-33500710D01*
X278799289Y-33500711D01*
X278905523Y-33579115D01*
X278905524Y-33579115D01*
X278905525Y-33579116D01*
X279030151Y-33622725D01*
X279030150Y-33622725D01*
X279059740Y-33625500D01*
X279059744Y-33625500D01*
X279740260Y-33625500D01*
X279769849Y-33622725D01*
X279817171Y-33606166D01*
X279894475Y-33579116D01*
X280000711Y-33500711D01*
X280000716Y-33500703D01*
X280006385Y-33495035D01*
X280067707Y-33461548D01*
X280137399Y-33466529D01*
X280193334Y-33508399D01*
X280199608Y-33517615D01*
X280280053Y-33648035D01*
X280344336Y-33712319D01*
X280377820Y-33773643D01*
X280372835Y-33843334D01*
X280344336Y-33887681D01*
X280280053Y-33951964D01*
X280199608Y-34082384D01*
X280147660Y-34129108D01*
X280078697Y-34140329D01*
X280014615Y-34112485D01*
X280006389Y-34104967D01*
X280000710Y-34099288D01*
X279894476Y-34020884D01*
X279769848Y-33977274D01*
X279769849Y-33977274D01*
X279740260Y-33974500D01*
X279740256Y-33974500D01*
X279059744Y-33974500D01*
X279059740Y-33974500D01*
X279030150Y-33977274D01*
X278905523Y-34020884D01*
X278799289Y-34099288D01*
X278799288Y-34099289D01*
X278720884Y-34205523D01*
X278708311Y-34241456D01*
X278667589Y-34298231D01*
X278602636Y-34323978D01*
X278591270Y-34324500D01*
X278171230Y-34324500D01*
X278104191Y-34304815D01*
X278058436Y-34252011D01*
X278054189Y-34241456D01*
X278043599Y-34211193D01*
X278041616Y-34205525D01*
X278037538Y-34200000D01*
X277963211Y-34099289D01*
X277963210Y-34099288D01*
X277856976Y-34020884D01*
X277732348Y-33977274D01*
X277732349Y-33977274D01*
X277702760Y-33974500D01*
X277702756Y-33974500D01*
X277097244Y-33974500D01*
X277097240Y-33974500D01*
X277067650Y-33977274D01*
X276943023Y-34020884D01*
X276836789Y-34099288D01*
X276836788Y-34099289D01*
X276758384Y-34205523D01*
X276714774Y-34330150D01*
X276712000Y-34359739D01*
X276712000Y-34940260D01*
X276714774Y-34969849D01*
X276758384Y-35094476D01*
X276836788Y-35200710D01*
X276836789Y-35200711D01*
X276943023Y-35279115D01*
X276943024Y-35279115D01*
X276943025Y-35279116D01*
X277067651Y-35322725D01*
X277067650Y-35322725D01*
X277097240Y-35325500D01*
X277097244Y-35325500D01*
X277702760Y-35325500D01*
X277732349Y-35322725D01*
X277856975Y-35279116D01*
X277963211Y-35200711D01*
X278041616Y-35094475D01*
X278054189Y-35058543D01*
X278094911Y-35001769D01*
X278159864Y-34976022D01*
X278171230Y-34975500D01*
X278591270Y-34975500D01*
X278658309Y-34995185D01*
X278704064Y-35047989D01*
X278708311Y-35058544D01*
X278720884Y-35094476D01*
X278799288Y-35200710D01*
X278799289Y-35200711D01*
X278905523Y-35279115D01*
X278905524Y-35279115D01*
X278905525Y-35279116D01*
X279030151Y-35322725D01*
X279030150Y-35322725D01*
X279059740Y-35325500D01*
X279059744Y-35325500D01*
X279740260Y-35325500D01*
X279769849Y-35322725D01*
X279894475Y-35279116D01*
X280000711Y-35200711D01*
X280000716Y-35200703D01*
X280006385Y-35195035D01*
X280067707Y-35161548D01*
X280137399Y-35166529D01*
X280193334Y-35208399D01*
X280199608Y-35217615D01*
X280280054Y-35348037D01*
X280331835Y-35399818D01*
X280365320Y-35461141D01*
X280360336Y-35530833D01*
X280331836Y-35575179D01*
X280255055Y-35651961D01*
X280255054Y-35651962D01*
X280174608Y-35782384D01*
X280122660Y-35829108D01*
X280053697Y-35840329D01*
X279989615Y-35812485D01*
X279981389Y-35804967D01*
X279975710Y-35799288D01*
X279869476Y-35720884D01*
X279744848Y-35677274D01*
X279744849Y-35677274D01*
X279715260Y-35674500D01*
X279715256Y-35674500D01*
X279034744Y-35674500D01*
X279034740Y-35674500D01*
X279005150Y-35677274D01*
X278880523Y-35720884D01*
X278774289Y-35799288D01*
X278774288Y-35799289D01*
X278695884Y-35905523D01*
X278683311Y-35941456D01*
X278642589Y-35998231D01*
X278577636Y-36023978D01*
X278566270Y-36024500D01*
X278171230Y-36024500D01*
X278104191Y-36004815D01*
X278058436Y-35952011D01*
X278054189Y-35941456D01*
X278052614Y-35936955D01*
X278041616Y-35905525D01*
X278041412Y-35905249D01*
X277963211Y-35799289D01*
X277963210Y-35799288D01*
X277856976Y-35720884D01*
X277732348Y-35677274D01*
X277732349Y-35677274D01*
X277702760Y-35674500D01*
X277702756Y-35674500D01*
X277097244Y-35674500D01*
X277097240Y-35674500D01*
X277067650Y-35677274D01*
X276943023Y-35720884D01*
X276836789Y-35799288D01*
X276836788Y-35799289D01*
X276758384Y-35905523D01*
X276714774Y-36030150D01*
X276712000Y-36059739D01*
X276712000Y-36640260D01*
X276714774Y-36669849D01*
X276758384Y-36794476D01*
X276836788Y-36900710D01*
X276836789Y-36900711D01*
X276943023Y-36979115D01*
X276943024Y-36979115D01*
X276943025Y-36979116D01*
X277067651Y-37022725D01*
X277067650Y-37022725D01*
X277097240Y-37025500D01*
X277097244Y-37025500D01*
X277702760Y-37025500D01*
X277732349Y-37022725D01*
X277856975Y-36979116D01*
X277963211Y-36900711D01*
X278041616Y-36794475D01*
X278054189Y-36758543D01*
X278094911Y-36701769D01*
X278159864Y-36676022D01*
X278171230Y-36675500D01*
X278566270Y-36675500D01*
X278633309Y-36695185D01*
X278679064Y-36747989D01*
X278683311Y-36758544D01*
X278695884Y-36794476D01*
X278774288Y-36900710D01*
X278774289Y-36900711D01*
X278880523Y-36979115D01*
X278880524Y-36979115D01*
X278880525Y-36979116D01*
X279005151Y-37022725D01*
X279005150Y-37022725D01*
X279034740Y-37025500D01*
X279034744Y-37025500D01*
X279715260Y-37025500D01*
X279744849Y-37022725D01*
X279869475Y-36979116D01*
X279975711Y-36900711D01*
X279975716Y-36900703D01*
X279981385Y-36895035D01*
X280042707Y-36861548D01*
X280112399Y-36866529D01*
X280168334Y-36908399D01*
X280174608Y-36917615D01*
X280255053Y-37048035D01*
X280319336Y-37112319D01*
X280352820Y-37173643D01*
X280347835Y-37243334D01*
X280319336Y-37287681D01*
X280255053Y-37351964D01*
X280174608Y-37482384D01*
X280122660Y-37529108D01*
X280053697Y-37540329D01*
X279989615Y-37512485D01*
X279981389Y-37504967D01*
X279975710Y-37499288D01*
X279869476Y-37420884D01*
X279744848Y-37377274D01*
X279744849Y-37377274D01*
X279715260Y-37374500D01*
X279715256Y-37374500D01*
X279034744Y-37374500D01*
X279034740Y-37374500D01*
X279005150Y-37377274D01*
X278880523Y-37420884D01*
X278774289Y-37499288D01*
X278774288Y-37499289D01*
X278695884Y-37605523D01*
X278683311Y-37641456D01*
X278642589Y-37698231D01*
X278577636Y-37723978D01*
X278566270Y-37724500D01*
X278196230Y-37724500D01*
X278129191Y-37704815D01*
X278083436Y-37652011D01*
X278079189Y-37641456D01*
X278066615Y-37605523D01*
X277988211Y-37499289D01*
X277988210Y-37499288D01*
X277881976Y-37420884D01*
X277757348Y-37377274D01*
X277757349Y-37377274D01*
X277727760Y-37374500D01*
X277727756Y-37374500D01*
X277122244Y-37374500D01*
X277122240Y-37374500D01*
X277092650Y-37377274D01*
X276968023Y-37420884D01*
X276861789Y-37499288D01*
X276861788Y-37499289D01*
X276783384Y-37605523D01*
X276739774Y-37730150D01*
X276737000Y-37759739D01*
X276737000Y-38340260D01*
X276739774Y-38369849D01*
X276783384Y-38494476D01*
X276861788Y-38600710D01*
X276861789Y-38600711D01*
X276968023Y-38679115D01*
X276968024Y-38679115D01*
X276968025Y-38679116D01*
X277092651Y-38722725D01*
X277092650Y-38722725D01*
X277122240Y-38725500D01*
X277122244Y-38725500D01*
X277727760Y-38725500D01*
X277757349Y-38722725D01*
X277775396Y-38716410D01*
X277881975Y-38679116D01*
X277988211Y-38600711D01*
X278066616Y-38494475D01*
X278079189Y-38458543D01*
X278119911Y-38401769D01*
X278184864Y-38376022D01*
X278196230Y-38375500D01*
X278566270Y-38375500D01*
X278633309Y-38395185D01*
X278679064Y-38447989D01*
X278683311Y-38458544D01*
X278695884Y-38494476D01*
X278774288Y-38600710D01*
X278774289Y-38600711D01*
X278880523Y-38679115D01*
X278880524Y-38679115D01*
X278880525Y-38679116D01*
X279005151Y-38722725D01*
X279005150Y-38722725D01*
X279034740Y-38725500D01*
X279034744Y-38725500D01*
X279715260Y-38725500D01*
X279744849Y-38722725D01*
X279762896Y-38716410D01*
X279869475Y-38679116D01*
X279975711Y-38600711D01*
X279975716Y-38600703D01*
X279981385Y-38595035D01*
X280042707Y-38561548D01*
X280112399Y-38566529D01*
X280168334Y-38608399D01*
X280174608Y-38617615D01*
X280255053Y-38748035D01*
X280319336Y-38812319D01*
X280352820Y-38873643D01*
X280347835Y-38943334D01*
X280319336Y-38987681D01*
X280255053Y-39051964D01*
X280174608Y-39182384D01*
X280122660Y-39229108D01*
X280053697Y-39240329D01*
X279989615Y-39212485D01*
X279981389Y-39204967D01*
X279975710Y-39199288D01*
X279869476Y-39120884D01*
X279744848Y-39077274D01*
X279744849Y-39077274D01*
X279715260Y-39074500D01*
X279715256Y-39074500D01*
X279034744Y-39074500D01*
X279034740Y-39074500D01*
X279005150Y-39077274D01*
X278880523Y-39120884D01*
X278774289Y-39199288D01*
X278774288Y-39199289D01*
X278695884Y-39305523D01*
X278683311Y-39341456D01*
X278642589Y-39398231D01*
X278577636Y-39423978D01*
X278566270Y-39424500D01*
X278196230Y-39424500D01*
X278129191Y-39404815D01*
X278083436Y-39352011D01*
X278079189Y-39341456D01*
X278066615Y-39305523D01*
X277988211Y-39199289D01*
X277988210Y-39199288D01*
X277881976Y-39120884D01*
X277757348Y-39077274D01*
X277757349Y-39077274D01*
X277727760Y-39074500D01*
X277727756Y-39074500D01*
X277122244Y-39074500D01*
X277122240Y-39074500D01*
X277092650Y-39077274D01*
X276968023Y-39120884D01*
X276861789Y-39199288D01*
X276861788Y-39199289D01*
X276783384Y-39305523D01*
X276739774Y-39430150D01*
X276737000Y-39459739D01*
X276737000Y-40040260D01*
X276739774Y-40069849D01*
X276783384Y-40194476D01*
X276861788Y-40300710D01*
X276861789Y-40300711D01*
X276968023Y-40379115D01*
X276968024Y-40379115D01*
X276968025Y-40379116D01*
X277092651Y-40422725D01*
X277092650Y-40422725D01*
X277122240Y-40425500D01*
X277122244Y-40425500D01*
X277727760Y-40425500D01*
X277757349Y-40422725D01*
X277806663Y-40405469D01*
X277881975Y-40379116D01*
X277988211Y-40300711D01*
X278066616Y-40194475D01*
X278079189Y-40158543D01*
X278119911Y-40101769D01*
X278184864Y-40076022D01*
X278196230Y-40075500D01*
X278566270Y-40075500D01*
X278633309Y-40095185D01*
X278679064Y-40147989D01*
X278683311Y-40158544D01*
X278695884Y-40194476D01*
X278774288Y-40300710D01*
X278774289Y-40300711D01*
X278880523Y-40379115D01*
X278880524Y-40379115D01*
X278880525Y-40379116D01*
X279005151Y-40422725D01*
X279005150Y-40422725D01*
X279034740Y-40425500D01*
X279034744Y-40425500D01*
X279715260Y-40425500D01*
X279744849Y-40422725D01*
X279794163Y-40405469D01*
X279869475Y-40379116D01*
X279975711Y-40300711D01*
X279975716Y-40300703D01*
X279981385Y-40295035D01*
X280042707Y-40261548D01*
X280112399Y-40266529D01*
X280168334Y-40308399D01*
X280174608Y-40317615D01*
X280255054Y-40448037D01*
X280344336Y-40537319D01*
X280377821Y-40598642D01*
X280372837Y-40668334D01*
X280344336Y-40712681D01*
X280255055Y-40801961D01*
X280255054Y-40801962D01*
X280174608Y-40932384D01*
X280122660Y-40979108D01*
X280053697Y-40990329D01*
X279989615Y-40962485D01*
X279981389Y-40954967D01*
X279975710Y-40949288D01*
X279869476Y-40870884D01*
X279744848Y-40827274D01*
X279744849Y-40827274D01*
X279715260Y-40824500D01*
X279715256Y-40824500D01*
X279034744Y-40824500D01*
X279034740Y-40824500D01*
X279005150Y-40827274D01*
X278880523Y-40870884D01*
X278774289Y-40949288D01*
X278774288Y-40949289D01*
X278695884Y-41055523D01*
X278683311Y-41091456D01*
X278642589Y-41148231D01*
X278577636Y-41173978D01*
X278566270Y-41174500D01*
X278196230Y-41174500D01*
X278129191Y-41154815D01*
X278083436Y-41102011D01*
X278079189Y-41091456D01*
X278076002Y-41082349D01*
X278066616Y-41055525D01*
X278064575Y-41052760D01*
X277988211Y-40949289D01*
X277988210Y-40949288D01*
X277881976Y-40870884D01*
X277757348Y-40827274D01*
X277757349Y-40827274D01*
X277727760Y-40824500D01*
X277727756Y-40824500D01*
X277122244Y-40824500D01*
X277122240Y-40824500D01*
X277092650Y-40827274D01*
X276968023Y-40870884D01*
X276861789Y-40949288D01*
X276861788Y-40949289D01*
X276783384Y-41055523D01*
X276739774Y-41180150D01*
X276737000Y-41209739D01*
X276737000Y-41790260D01*
X276739774Y-41819849D01*
X276783384Y-41944476D01*
X276861788Y-42050710D01*
X276861789Y-42050711D01*
X276968023Y-42129115D01*
X276968024Y-42129115D01*
X276968025Y-42129116D01*
X277092651Y-42172725D01*
X277092650Y-42172725D01*
X277122240Y-42175500D01*
X277122244Y-42175500D01*
X277727760Y-42175500D01*
X277757349Y-42172725D01*
X277763656Y-42170518D01*
X277881975Y-42129116D01*
X277988211Y-42050711D01*
X278066616Y-41944475D01*
X278079189Y-41908543D01*
X278119911Y-41851769D01*
X278184864Y-41826022D01*
X278196230Y-41825500D01*
X278566270Y-41825500D01*
X278633309Y-41845185D01*
X278679064Y-41897989D01*
X278683311Y-41908544D01*
X278695884Y-41944476D01*
X278774288Y-42050710D01*
X278774289Y-42050711D01*
X278880523Y-42129115D01*
X278880524Y-42129115D01*
X278880525Y-42129116D01*
X279005151Y-42172725D01*
X279005150Y-42172725D01*
X279034740Y-42175500D01*
X279034744Y-42175500D01*
X279715260Y-42175500D01*
X279744849Y-42172725D01*
X279751156Y-42170518D01*
X279869475Y-42129116D01*
X279975711Y-42050711D01*
X279975716Y-42050703D01*
X279981385Y-42045035D01*
X280042707Y-42011548D01*
X280112399Y-42016529D01*
X280168334Y-42058399D01*
X280174608Y-42067615D01*
X280255053Y-42198035D01*
X280319336Y-42262319D01*
X280352820Y-42323643D01*
X280347835Y-42393334D01*
X280319336Y-42437681D01*
X280255053Y-42501964D01*
X280174608Y-42632384D01*
X280122660Y-42679108D01*
X280053697Y-42690329D01*
X279989615Y-42662485D01*
X279981389Y-42654967D01*
X279975710Y-42649288D01*
X279869476Y-42570884D01*
X279744848Y-42527274D01*
X279744849Y-42527274D01*
X279715260Y-42524500D01*
X279715256Y-42524500D01*
X279034744Y-42524500D01*
X279034740Y-42524500D01*
X279005150Y-42527274D01*
X278880523Y-42570884D01*
X278774289Y-42649288D01*
X278774288Y-42649289D01*
X278695884Y-42755523D01*
X278683311Y-42791456D01*
X278642589Y-42848231D01*
X278577636Y-42873978D01*
X278566270Y-42874500D01*
X278196230Y-42874500D01*
X278129191Y-42854815D01*
X278083436Y-42802011D01*
X278079189Y-42791456D01*
X278076257Y-42783078D01*
X278066616Y-42755525D01*
X278060628Y-42747412D01*
X277988211Y-42649289D01*
X277988210Y-42649288D01*
X277881976Y-42570884D01*
X277757348Y-42527274D01*
X277757349Y-42527274D01*
X277727760Y-42524500D01*
X277727756Y-42524500D01*
X277122244Y-42524500D01*
X277122240Y-42524500D01*
X277092650Y-42527274D01*
X276968023Y-42570884D01*
X276861789Y-42649288D01*
X276861788Y-42649289D01*
X276783384Y-42755523D01*
X276739774Y-42880150D01*
X276737000Y-42909739D01*
X276737000Y-43490260D01*
X276739774Y-43519849D01*
X276783384Y-43644476D01*
X276861788Y-43750710D01*
X276861789Y-43750711D01*
X276968023Y-43829115D01*
X276968024Y-43829115D01*
X276968025Y-43829116D01*
X277092651Y-43872725D01*
X277092650Y-43872725D01*
X277122240Y-43875500D01*
X277122244Y-43875500D01*
X277727760Y-43875500D01*
X277757349Y-43872725D01*
X277792034Y-43860588D01*
X277881975Y-43829116D01*
X277988211Y-43750711D01*
X278066616Y-43644475D01*
X278079189Y-43608543D01*
X278119911Y-43551769D01*
X278184864Y-43526022D01*
X278196230Y-43525500D01*
X278566270Y-43525500D01*
X278633309Y-43545185D01*
X278679064Y-43597989D01*
X278683311Y-43608544D01*
X278695884Y-43644476D01*
X278774288Y-43750710D01*
X278774289Y-43750711D01*
X278880523Y-43829115D01*
X278880524Y-43829115D01*
X278880525Y-43829116D01*
X279005151Y-43872725D01*
X279005150Y-43872725D01*
X279034740Y-43875500D01*
X279034744Y-43875500D01*
X279715260Y-43875500D01*
X279744849Y-43872725D01*
X279779534Y-43860588D01*
X279869475Y-43829116D01*
X279975711Y-43750711D01*
X279975716Y-43750703D01*
X279981385Y-43745035D01*
X280042707Y-43711548D01*
X280112399Y-43716529D01*
X280168334Y-43758399D01*
X280174608Y-43767615D01*
X280255054Y-43898037D01*
X280376961Y-44019944D01*
X280376965Y-44019947D01*
X280523688Y-44110448D01*
X280523699Y-44110453D01*
X280687347Y-44164680D01*
X280788351Y-44174999D01*
X280875000Y-44174998D01*
X280875000Y-43450000D01*
X281375000Y-43450000D01*
X281375000Y-44174999D01*
X281461640Y-44174999D01*
X281461654Y-44174998D01*
X281562652Y-44164680D01*
X281726300Y-44110453D01*
X281726311Y-44110448D01*
X281873034Y-44019947D01*
X281873038Y-44019944D01*
X281994944Y-43898038D01*
X281994947Y-43898034D01*
X282085448Y-43751311D01*
X282085453Y-43751300D01*
X282139680Y-43587652D01*
X282149999Y-43486654D01*
X282150000Y-43486641D01*
X282150000Y-43450000D01*
X281375000Y-43450000D01*
X280875000Y-43450000D01*
X280875000Y-41750000D01*
X281375000Y-41750000D01*
X281375000Y-42950000D01*
X282149999Y-42950000D01*
X282149999Y-42913360D01*
X282149998Y-42913345D01*
X282139680Y-42812347D01*
X282085453Y-42648699D01*
X282085448Y-42648688D01*
X281994947Y-42501965D01*
X281994944Y-42501961D01*
X281930664Y-42437681D01*
X281897179Y-42376358D01*
X281902163Y-42306666D01*
X281930664Y-42262319D01*
X281994944Y-42198038D01*
X281994947Y-42198034D01*
X282085448Y-42051311D01*
X282085453Y-42051300D01*
X282139680Y-41887652D01*
X282149999Y-41786654D01*
X282150000Y-41786641D01*
X282150000Y-41750000D01*
X281375000Y-41750000D01*
X280875000Y-41750000D01*
X280875000Y-40000000D01*
X281375000Y-40000000D01*
X281375000Y-41250000D01*
X282149999Y-41250000D01*
X282149999Y-41213360D01*
X282149998Y-41213345D01*
X282139680Y-41112347D01*
X282085453Y-40948699D01*
X282085448Y-40948688D01*
X281994947Y-40801965D01*
X281994944Y-40801961D01*
X281905664Y-40712681D01*
X281872179Y-40651358D01*
X281877163Y-40581666D01*
X281905664Y-40537319D01*
X281994944Y-40448038D01*
X281994947Y-40448034D01*
X282085448Y-40301311D01*
X282085453Y-40301300D01*
X282139680Y-40137652D01*
X282149999Y-40036654D01*
X282150000Y-40036641D01*
X282150000Y-40000000D01*
X281375000Y-40000000D01*
X280875000Y-40000000D01*
X280875000Y-38300000D01*
X281375000Y-38300000D01*
X281375000Y-39500000D01*
X282149999Y-39500000D01*
X282149999Y-39463360D01*
X282149998Y-39463345D01*
X282139680Y-39362347D01*
X282085453Y-39198699D01*
X282085448Y-39198688D01*
X281994947Y-39051965D01*
X281994944Y-39051961D01*
X281930664Y-38987681D01*
X281897179Y-38926358D01*
X281902163Y-38856666D01*
X281930664Y-38812319D01*
X281994944Y-38748038D01*
X281994947Y-38748034D01*
X282085448Y-38601311D01*
X282085453Y-38601300D01*
X282139680Y-38437652D01*
X282149999Y-38336654D01*
X282150000Y-38336641D01*
X282150000Y-38300000D01*
X281375000Y-38300000D01*
X280875000Y-38300000D01*
X280875000Y-36600000D01*
X281375000Y-36600000D01*
X281375000Y-37800000D01*
X282149999Y-37800000D01*
X282149999Y-37763360D01*
X282149998Y-37763345D01*
X282139680Y-37662347D01*
X282085453Y-37498699D01*
X282085448Y-37498688D01*
X281994947Y-37351965D01*
X281994944Y-37351961D01*
X281930664Y-37287681D01*
X281897179Y-37226358D01*
X281902163Y-37156666D01*
X281930664Y-37112319D01*
X281994944Y-37048038D01*
X281994947Y-37048034D01*
X282085448Y-36901311D01*
X282085453Y-36901300D01*
X282139680Y-36737652D01*
X282149999Y-36636654D01*
X282150000Y-36636641D01*
X282150000Y-36600000D01*
X281375000Y-36600000D01*
X280875000Y-36600000D01*
X280875000Y-36100000D01*
X281375000Y-36100000D01*
X282149999Y-36100000D01*
X282149999Y-36063360D01*
X282149998Y-36063345D01*
X282139680Y-35962347D01*
X282085453Y-35798699D01*
X282085448Y-35798688D01*
X281994947Y-35651965D01*
X281994944Y-35651961D01*
X281943164Y-35600181D01*
X281909679Y-35538858D01*
X281914663Y-35469166D01*
X281943164Y-35424819D01*
X282019944Y-35348038D01*
X282019947Y-35348034D01*
X282110448Y-35201311D01*
X282110453Y-35201300D01*
X282164680Y-35037652D01*
X282174999Y-34936654D01*
X282175000Y-34936641D01*
X282175000Y-34900000D01*
X281400000Y-34900000D01*
X281400000Y-35588638D01*
X281380315Y-35655677D01*
X281375000Y-35662272D01*
X281375000Y-36100000D01*
X280875000Y-36100000D01*
X280875000Y-35411362D01*
X280894685Y-35344323D01*
X280900000Y-35337727D01*
X280900000Y-33200000D01*
X281400000Y-33200000D01*
X281400000Y-34400000D01*
X282174999Y-34400000D01*
X282174999Y-34363360D01*
X282174998Y-34363345D01*
X282164680Y-34262347D01*
X282110453Y-34098699D01*
X282110448Y-34098688D01*
X282019947Y-33951965D01*
X282019944Y-33951961D01*
X281955664Y-33887681D01*
X281922179Y-33826358D01*
X281927163Y-33756666D01*
X281955664Y-33712319D01*
X282019944Y-33648038D01*
X282019947Y-33648034D01*
X282110448Y-33501311D01*
X282110453Y-33501300D01*
X282164680Y-33337652D01*
X282174999Y-33236654D01*
X282175000Y-33236641D01*
X282175000Y-33200000D01*
X281400000Y-33200000D01*
X280900000Y-33200000D01*
X280900000Y-31500000D01*
X281400000Y-31500000D01*
X281400000Y-32700000D01*
X282174999Y-32700000D01*
X282174999Y-32663360D01*
X282174998Y-32663345D01*
X282164680Y-32562347D01*
X282110453Y-32398699D01*
X282110448Y-32398688D01*
X282019947Y-32251965D01*
X282019944Y-32251961D01*
X281955664Y-32187681D01*
X281922179Y-32126358D01*
X281927163Y-32056666D01*
X281955664Y-32012319D01*
X282019944Y-31948038D01*
X282019947Y-31948034D01*
X282110448Y-31801311D01*
X282110453Y-31801300D01*
X282164680Y-31637652D01*
X282174999Y-31536654D01*
X282175000Y-31536641D01*
X282175000Y-31500000D01*
X281400000Y-31500000D01*
X280900000Y-31500000D01*
X280900000Y-31124000D01*
X280919685Y-31056961D01*
X280972489Y-31011206D01*
X281024000Y-31000000D01*
X282174999Y-31000000D01*
X282174999Y-30963360D01*
X282174998Y-30963345D01*
X282164680Y-30862347D01*
X282110453Y-30698699D01*
X282110448Y-30698688D01*
X282019947Y-30551965D01*
X282019944Y-30551961D01*
X281898038Y-30430055D01*
X281898034Y-30430052D01*
X281751311Y-30339551D01*
X281751300Y-30339546D01*
X281587651Y-30285319D01*
X281519517Y-30278358D01*
X281454825Y-30251962D01*
X281414674Y-30194781D01*
X281411811Y-30124970D01*
X281447145Y-30064693D01*
X281509458Y-30033088D01*
X281532120Y-30031000D01*
X281909828Y-30031000D01*
X281909844Y-30030999D01*
X281969372Y-30024598D01*
X281969379Y-30024596D01*
X282104086Y-29974354D01*
X282104093Y-29974350D01*
X282219187Y-29888190D01*
X282219190Y-29888187D01*
X282305350Y-29773093D01*
X282305354Y-29773086D01*
X282355596Y-29638379D01*
X282355598Y-29638372D01*
X282361999Y-29578844D01*
X282362000Y-29578827D01*
X282362000Y-29400000D01*
X279838000Y-29400000D01*
X279838000Y-29578844D01*
X279844401Y-29638372D01*
X279844403Y-29638379D01*
X279894645Y-29773086D01*
X279894649Y-29773093D01*
X279980809Y-29888187D01*
X279980812Y-29888190D01*
X280095906Y-29974350D01*
X280095913Y-29974354D01*
X280230620Y-30024596D01*
X280230627Y-30024598D01*
X280290155Y-30030999D01*
X280290172Y-30031000D01*
X280767889Y-30031000D01*
X280834928Y-30050685D01*
X280880683Y-30103489D01*
X280890627Y-30172647D01*
X280861602Y-30236203D01*
X280802824Y-30273977D01*
X280780491Y-30278358D01*
X280712347Y-30285319D01*
X280548699Y-30339546D01*
X280548688Y-30339551D01*
X280401965Y-30430052D01*
X280401961Y-30430055D01*
X280280054Y-30551962D01*
X280199608Y-30682384D01*
X280147660Y-30729108D01*
X280078697Y-30740329D01*
X280014615Y-30712485D01*
X280006389Y-30704967D01*
X280000710Y-30699288D01*
X279894476Y-30620884D01*
X279769848Y-30577274D01*
X279769849Y-30577274D01*
X279740260Y-30574500D01*
X279740256Y-30574500D01*
X279059744Y-30574500D01*
X279059740Y-30574500D01*
X279030150Y-30577274D01*
X278905523Y-30620884D01*
X278799289Y-30699288D01*
X278799288Y-30699289D01*
X278720884Y-30805523D01*
X278708311Y-30841456D01*
X278667589Y-30898231D01*
X278602636Y-30923978D01*
X278591270Y-30924500D01*
X278158730Y-30924500D01*
X278091691Y-30904815D01*
X278045936Y-30852011D01*
X278041689Y-30841456D01*
X278029115Y-30805523D01*
X277950711Y-30699289D01*
X277950710Y-30699288D01*
X277844476Y-30620884D01*
X277719848Y-30577274D01*
X277719849Y-30577274D01*
X277690260Y-30574500D01*
X277690256Y-30574500D01*
X277084744Y-30574500D01*
X277084740Y-30574500D01*
X277055150Y-30577274D01*
X276930523Y-30620884D01*
X276824289Y-30699288D01*
X276824288Y-30699289D01*
X276745884Y-30805523D01*
X276702274Y-30930150D01*
X276699500Y-30959739D01*
X276699500Y-31540260D01*
X276702274Y-31569849D01*
X276745884Y-31694476D01*
X276824288Y-31800710D01*
X276824289Y-31800711D01*
X276930523Y-31879115D01*
X276930524Y-31879115D01*
X276930525Y-31879116D01*
X277055151Y-31922725D01*
X277055150Y-31922725D01*
X277084740Y-31925500D01*
X277084744Y-31925500D01*
X277690260Y-31925500D01*
X277719849Y-31922725D01*
X277769783Y-31905252D01*
X277844475Y-31879116D01*
X277950711Y-31800711D01*
X278029116Y-31694475D01*
X278041689Y-31658543D01*
X278082411Y-31601769D01*
X278147364Y-31576022D01*
X278158730Y-31575500D01*
X278591270Y-31575500D01*
X278658309Y-31595185D01*
X278704064Y-31647989D01*
X278708311Y-31658544D01*
X278720884Y-31694476D01*
X278799288Y-31800710D01*
X278799289Y-31800711D01*
X278905523Y-31879115D01*
X278905524Y-31879115D01*
X278905525Y-31879116D01*
X279030151Y-31922725D01*
X279030150Y-31922725D01*
X279059740Y-31925500D01*
X279059744Y-31925500D01*
X279740260Y-31925500D01*
X279769849Y-31922725D01*
X279819783Y-31905252D01*
X279894475Y-31879116D01*
X280000711Y-31800711D01*
X280000716Y-31800703D01*
X280006385Y-31795035D01*
X280067707Y-31761548D01*
X280137399Y-31766529D01*
X280193334Y-31808399D01*
X280199608Y-31817615D01*
X280280053Y-31948035D01*
X280344336Y-32012319D01*
X280377820Y-32073643D01*
X280372835Y-32143334D01*
X280344336Y-32187681D01*
X280280053Y-32251964D01*
X280199608Y-32382384D01*
X280147660Y-32429108D01*
X280078697Y-32440329D01*
X280014615Y-32412485D01*
X280006389Y-32404967D01*
X280000710Y-32399288D01*
X279894476Y-32320884D01*
X279769848Y-32277274D01*
X279769849Y-32277274D01*
X279740260Y-32274500D01*
X279740256Y-32274500D01*
X279059744Y-32274500D01*
X279059740Y-32274500D01*
X279030150Y-32277274D01*
X278905523Y-32320884D01*
X278799289Y-32399288D01*
X278799288Y-32399289D01*
X278720884Y-32505523D01*
X278708311Y-32541456D01*
X278667589Y-32598231D01*
X278602636Y-32623978D01*
X278591270Y-32624500D01*
X278158730Y-32624500D01*
X278091691Y-32604815D01*
X278045936Y-32552011D01*
X278041689Y-32541456D01*
X278029115Y-32505523D01*
X277950711Y-32399289D01*
X277950710Y-32399288D01*
X277844476Y-32320884D01*
X277719848Y-32277274D01*
X277719849Y-32277274D01*
X277690260Y-32274500D01*
X277690256Y-32274500D01*
X277084744Y-32274500D01*
X277084740Y-32274500D01*
X277055150Y-32277274D01*
X276930523Y-32320884D01*
X276824289Y-32399288D01*
X276824288Y-32399289D01*
X276745884Y-32505523D01*
X276702274Y-32630150D01*
X276699500Y-32659739D01*
X276699500Y-33240260D01*
X276250500Y-33240260D01*
X276250500Y-32659739D01*
X276247725Y-32630150D01*
X276216689Y-32541456D01*
X276204116Y-32505525D01*
X276196165Y-32494752D01*
X276125711Y-32399289D01*
X276125710Y-32399288D01*
X276019476Y-32320884D01*
X275894848Y-32277274D01*
X275894849Y-32277274D01*
X275865260Y-32274500D01*
X275865256Y-32274500D01*
X275259744Y-32274500D01*
X275259740Y-32274500D01*
X275230150Y-32277274D01*
X275105523Y-32320884D01*
X274999289Y-32399288D01*
X274999288Y-32399289D01*
X274920884Y-32505523D01*
X274908311Y-32541456D01*
X274867589Y-32598231D01*
X274802636Y-32623978D01*
X274791270Y-32624500D01*
X274236189Y-32624500D01*
X274169150Y-32604815D01*
X274148508Y-32588181D01*
X273482691Y-31922364D01*
X272797506Y-31237180D01*
X272764022Y-31175858D01*
X272769006Y-31106166D01*
X272810878Y-31050233D01*
X272876342Y-31025816D01*
X272885188Y-31025500D01*
X274750500Y-31025500D01*
X274817539Y-31045185D01*
X274863294Y-31097989D01*
X274874500Y-31149500D01*
X274874500Y-31540260D01*
X274877274Y-31569849D01*
X274920884Y-31694476D01*
X274999288Y-31800710D01*
X274999289Y-31800711D01*
X275105523Y-31879115D01*
X275105524Y-31879115D01*
X275105525Y-31879116D01*
X275230151Y-31922725D01*
X275230150Y-31922725D01*
X275259740Y-31925500D01*
X275259744Y-31925500D01*
X275865260Y-31925500D01*
X275894849Y-31922725D01*
X275944783Y-31905252D01*
X276019475Y-31879116D01*
X276125711Y-31800711D01*
X276204116Y-31694475D01*
X276247725Y-31569849D01*
X276248465Y-31561957D01*
X276250500Y-31540260D01*
X276250500Y-30959739D01*
X276247725Y-30930150D01*
X276204115Y-30805523D01*
X276125711Y-30699289D01*
X276125710Y-30699288D01*
X276019476Y-30620884D01*
X275894848Y-30577274D01*
X275894849Y-30577274D01*
X275865260Y-30574500D01*
X275865256Y-30574500D01*
X275398688Y-30574500D01*
X275331649Y-30554815D01*
X275311007Y-30538181D01*
X275285144Y-30512318D01*
X275254619Y-30481793D01*
X275250974Y-30477814D01*
X275224956Y-30446807D01*
X275224955Y-30446806D01*
X275213558Y-30440226D01*
X275189892Y-30426561D01*
X275185331Y-30423655D01*
X275172187Y-30414452D01*
X275152184Y-30400446D01*
X275152181Y-30400445D01*
X275147361Y-30398197D01*
X275130555Y-30391235D01*
X275125543Y-30389411D01*
X275085690Y-30382383D01*
X275080410Y-30381212D01*
X275041308Y-30370735D01*
X275006392Y-30373790D01*
X275000981Y-30374264D01*
X274995578Y-30374500D01*
X272835187Y-30374500D01*
X272768148Y-30354815D01*
X272722393Y-30302011D01*
X272712449Y-30232853D01*
X272741474Y-30169297D01*
X272747506Y-30162819D01*
X273018769Y-29891557D01*
X273398507Y-29511819D01*
X273459830Y-29478334D01*
X273486188Y-29475500D01*
X274432768Y-29475500D01*
X274499807Y-29495185D01*
X274545562Y-29547989D01*
X274554385Y-29575307D01*
X274561133Y-29609229D01*
X274561133Y-29609231D01*
X274605447Y-29675552D01*
X274671769Y-29719867D01*
X274671770Y-29719868D01*
X274730247Y-29731499D01*
X274730250Y-29731500D01*
X274730252Y-29731500D01*
X276293750Y-29731500D01*
X276293751Y-29731499D01*
X276320695Y-29726140D01*
X276352229Y-29719868D01*
X276352229Y-29719867D01*
X276352231Y-29719867D01*
X276418552Y-29675552D01*
X276462867Y-29609231D01*
X276462867Y-29609229D01*
X276462868Y-29609229D01*
X276474499Y-29550752D01*
X276474500Y-29550750D01*
X276474500Y-28900000D01*
X279838000Y-28900000D01*
X280850000Y-28900000D01*
X280850000Y-28269000D01*
X281350000Y-28269000D01*
X281350000Y-28900000D01*
X282362000Y-28900000D01*
X282362000Y-28721172D01*
X282361999Y-28721155D01*
X282355598Y-28661627D01*
X282355596Y-28661620D01*
X282305354Y-28526913D01*
X282305350Y-28526906D01*
X282219190Y-28411812D01*
X282219187Y-28411809D01*
X282104093Y-28325649D01*
X282104086Y-28325645D01*
X281969379Y-28275403D01*
X281969372Y-28275401D01*
X281909844Y-28269000D01*
X281350000Y-28269000D01*
X280850000Y-28269000D01*
X280290155Y-28269000D01*
X280230627Y-28275401D01*
X280230620Y-28275403D01*
X280095913Y-28325645D01*
X280095906Y-28325649D01*
X279980812Y-28411809D01*
X279980809Y-28411812D01*
X279894649Y-28526906D01*
X279894645Y-28526913D01*
X279844403Y-28661620D01*
X279844401Y-28661627D01*
X279838000Y-28721155D01*
X279838000Y-28900000D01*
X276474500Y-28900000D01*
X276474500Y-28749249D01*
X276474499Y-28749247D01*
X276462868Y-28690770D01*
X276462867Y-28690769D01*
X276418552Y-28624447D01*
X276352230Y-28580132D01*
X276352229Y-28580131D01*
X276293752Y-28568500D01*
X276293748Y-28568500D01*
X275961500Y-28568500D01*
X275894461Y-28548815D01*
X275848706Y-28496011D01*
X275837500Y-28444500D01*
X275837500Y-27378920D01*
X275837736Y-27373513D01*
X275841264Y-27333193D01*
X275836032Y-27313668D01*
X275830782Y-27294076D01*
X275829616Y-27288818D01*
X275822588Y-27248955D01*
X275822586Y-27248952D01*
X275822586Y-27248950D01*
X275820760Y-27243933D01*
X275813820Y-27227176D01*
X275811554Y-27222319D01*
X275811554Y-27222316D01*
X275788339Y-27189162D01*
X275785433Y-27184599D01*
X275765196Y-27149548D01*
X275765195Y-27149547D01*
X275765194Y-27149545D01*
X275734177Y-27123518D01*
X275730193Y-27119867D01*
X274743507Y-26133181D01*
X274710022Y-26071858D01*
X274715006Y-26002166D01*
X274756878Y-25946233D01*
X274822342Y-25921816D01*
X274831188Y-25921500D01*
X276293750Y-25921500D01*
X276293751Y-25921499D01*
X276311796Y-25917910D01*
X276352229Y-25909868D01*
X276352229Y-25909867D01*
X276352231Y-25909867D01*
X276418552Y-25865552D01*
X276462867Y-25799231D01*
X276462867Y-25799229D01*
X276462868Y-25799229D01*
X276474499Y-25740752D01*
X280137500Y-25740752D01*
X280149131Y-25799229D01*
X280149132Y-25799230D01*
X280193447Y-25865552D01*
X280259769Y-25909867D01*
X280259770Y-25909868D01*
X280318247Y-25921499D01*
X280318250Y-25921500D01*
X280318252Y-25921500D01*
X281881750Y-25921500D01*
X281881751Y-25921499D01*
X281899796Y-25917910D01*
X281940229Y-25909868D01*
X281940229Y-25909867D01*
X281940231Y-25909867D01*
X282006552Y-25865552D01*
X282050867Y-25799231D01*
X282050867Y-25799229D01*
X282050868Y-25799229D01*
X282062499Y-25740752D01*
X282062500Y-25740750D01*
X282062500Y-24939249D01*
X282062499Y-24939247D01*
X282050868Y-24880770D01*
X282050867Y-24880769D01*
X282006552Y-24814447D01*
X281940230Y-24770132D01*
X281940229Y-24770131D01*
X281881752Y-24758500D01*
X281881748Y-24758500D01*
X280318252Y-24758500D01*
X280318247Y-24758500D01*
X280259770Y-24770131D01*
X280259769Y-24770132D01*
X280193447Y-24814447D01*
X280149132Y-24880769D01*
X280149131Y-24880770D01*
X280137500Y-24939247D01*
X280137500Y-25740752D01*
X276474499Y-25740752D01*
X276474500Y-25740750D01*
X276474500Y-24939249D01*
X276474499Y-24939247D01*
X276462868Y-24880770D01*
X276462867Y-24880769D01*
X276418552Y-24814447D01*
X276352230Y-24770132D01*
X276352229Y-24770131D01*
X276293752Y-24758500D01*
X276293748Y-24758500D01*
X274730252Y-24758500D01*
X274730247Y-24758500D01*
X274671770Y-24770131D01*
X274671769Y-24770132D01*
X274605447Y-24814447D01*
X274554348Y-24890923D01*
X274551639Y-24889113D01*
X274520218Y-24928104D01*
X274453924Y-24950168D01*
X274386225Y-24932888D01*
X274338615Y-24881750D01*
X274325500Y-24826247D01*
X274325500Y-22663103D01*
X274345185Y-22596064D01*
X274397989Y-22550309D01*
X274408522Y-22546070D01*
X274456975Y-22529116D01*
X274563211Y-22450711D01*
X274641616Y-22344475D01*
X274685225Y-22219849D01*
X274685440Y-22217552D01*
X274688000Y-22190260D01*
X274688000Y-21609739D01*
X274685225Y-21580150D01*
X274660603Y-21509786D01*
X274641616Y-21455525D01*
X274635685Y-21447489D01*
X274563211Y-21349289D01*
X274563210Y-21349288D01*
X274456976Y-21270884D01*
X274332348Y-21227274D01*
X274332349Y-21227274D01*
X274302760Y-21224500D01*
X274302756Y-21224500D01*
X273697244Y-21224500D01*
X273697240Y-21224500D01*
X273667650Y-21227274D01*
X273543023Y-21270884D01*
X273436789Y-21349288D01*
X273436788Y-21349289D01*
X273358384Y-21455523D01*
X273314774Y-21580150D01*
X273312000Y-21609739D01*
X273312000Y-22190260D01*
X273314774Y-22219849D01*
X273358384Y-22344476D01*
X273436788Y-22450710D01*
X273436789Y-22450711D01*
X273468290Y-22473960D01*
X273543025Y-22529116D01*
X273591457Y-22546063D01*
X273648230Y-22586782D01*
X273673978Y-22651735D01*
X273674500Y-22663103D01*
X273674500Y-24161495D01*
X273654815Y-24228534D01*
X273602011Y-24274289D01*
X273532853Y-24284233D01*
X273469297Y-24255208D01*
X273431840Y-24197491D01*
X273396779Y-24081914D01*
X273382396Y-24034499D01*
X273370031Y-24011365D01*
X273294137Y-23869376D01*
X273294135Y-23869373D01*
X273175357Y-23724642D01*
X273030626Y-23605864D01*
X273030623Y-23605862D01*
X272865502Y-23517604D01*
X272686333Y-23463253D01*
X272686331Y-23463252D01*
X272500000Y-23444901D01*
X272313668Y-23463252D01*
X272313666Y-23463253D01*
X272134497Y-23517604D01*
X271969376Y-23605862D01*
X271969373Y-23605864D01*
X271824642Y-23724642D01*
X271705864Y-23869373D01*
X271705862Y-23869376D01*
X271631258Y-24008953D01*
X271582296Y-24058797D01*
X271521900Y-24074500D01*
X270857408Y-24074500D01*
X270790369Y-24054815D01*
X270744614Y-24002011D01*
X270734670Y-23932853D01*
X270763695Y-23869297D01*
X270778743Y-23854647D01*
X270875357Y-23775357D01*
X270927412Y-23711928D01*
X270994136Y-23630625D01*
X271082396Y-23465501D01*
X271136747Y-23286331D01*
X271155099Y-23100000D01*
X271136747Y-22913669D01*
X271082396Y-22734499D01*
X271065004Y-22701961D01*
X270994137Y-22569376D01*
X270994135Y-22569373D01*
X270875357Y-22424642D01*
X270730626Y-22305864D01*
X270730623Y-22305862D01*
X270565502Y-22217604D01*
X270386333Y-22163253D01*
X270386331Y-22163252D01*
X270200000Y-22144901D01*
X270013668Y-22163252D01*
X270013666Y-22163253D01*
X269834497Y-22217604D01*
X269669376Y-22305862D01*
X269669373Y-22305864D01*
X269524642Y-22424642D01*
X269405864Y-22569373D01*
X269405862Y-22569376D01*
X269317604Y-22734497D01*
X269263253Y-22913666D01*
X269263252Y-22913668D01*
X269244901Y-23100000D01*
X269261098Y-23264462D01*
X269248079Y-23333108D01*
X269225376Y-23364296D01*
X268035251Y-24554421D01*
X267973928Y-24587906D01*
X267904236Y-24582922D01*
X267878678Y-24569841D01*
X267828231Y-24536132D01*
X267828229Y-24536131D01*
X267769752Y-24524500D01*
X267769748Y-24524500D01*
X266230252Y-24524500D01*
X266230247Y-24524500D01*
X266171770Y-24536131D01*
X266171769Y-24536132D01*
X266105447Y-24580447D01*
X266061132Y-24646769D01*
X266061131Y-24646770D01*
X266049500Y-24705247D01*
X266049500Y-25294752D01*
X266063515Y-25365209D01*
X266062239Y-25365462D01*
X266068317Y-25422023D01*
X266061303Y-25445910D01*
X266049500Y-25505247D01*
X266049500Y-26094752D01*
X266063515Y-26165209D01*
X266062239Y-26165462D01*
X266068317Y-26222023D01*
X266061303Y-26245910D01*
X266049500Y-26305247D01*
X266049500Y-26894752D01*
X266063515Y-26965209D01*
X266062239Y-26965462D01*
X266068317Y-27022023D01*
X266061303Y-27045910D01*
X266049500Y-27105247D01*
X266049500Y-27694752D01*
X266063515Y-27765209D01*
X266062239Y-27765462D01*
X266068317Y-27822023D01*
X266061303Y-27845910D01*
X266049500Y-27905247D01*
X266049500Y-28494752D01*
X266063515Y-28565209D01*
X266062239Y-28565462D01*
X266068317Y-28622023D01*
X266061303Y-28645910D01*
X266049500Y-28705247D01*
X266049500Y-29294752D01*
X266063515Y-29365209D01*
X266062239Y-29365462D01*
X266068317Y-29422023D01*
X266061303Y-29445910D01*
X266049500Y-29505247D01*
X266049500Y-30094752D01*
X266063515Y-30165209D01*
X266062239Y-30165462D01*
X266068317Y-30222023D01*
X266061303Y-30245910D01*
X266049500Y-30305247D01*
X266049500Y-30894752D01*
X266063515Y-30965209D01*
X266062239Y-30965462D01*
X266068317Y-31022023D01*
X266061303Y-31045910D01*
X266049500Y-31105247D01*
X266049500Y-31694752D01*
X266063515Y-31765209D01*
X266062239Y-31765462D01*
X266068317Y-31822023D01*
X266061303Y-31845910D01*
X266049500Y-31905247D01*
X266049500Y-32494752D01*
X266063515Y-32565209D01*
X266062239Y-32565462D01*
X266068317Y-32622023D01*
X266061303Y-32645910D01*
X266049500Y-32705247D01*
X266049500Y-33294752D01*
X266063515Y-33365209D01*
X266062239Y-33365462D01*
X266068317Y-33422023D01*
X266061303Y-33445910D01*
X266049500Y-33505247D01*
X266049500Y-34094752D01*
X266063515Y-34165209D01*
X266062239Y-34165462D01*
X266068317Y-34222023D01*
X266061303Y-34245910D01*
X266049500Y-34305247D01*
X266049500Y-34894752D01*
X266063515Y-34965209D01*
X266062239Y-34965462D01*
X266068317Y-35022023D01*
X266061303Y-35045910D01*
X266049500Y-35105247D01*
X266049500Y-35694752D01*
X266063515Y-35765209D01*
X266062239Y-35765462D01*
X266068317Y-35822023D01*
X266061303Y-35845910D01*
X266049500Y-35905247D01*
X266049500Y-36494752D01*
X266063515Y-36565209D01*
X266062239Y-36565462D01*
X266068317Y-36622023D01*
X266061303Y-36645910D01*
X266049500Y-36705247D01*
X266049500Y-37294752D01*
X266061131Y-37353229D01*
X266061132Y-37353230D01*
X266105447Y-37419552D01*
X266171769Y-37463867D01*
X266171770Y-37463868D01*
X266230247Y-37475499D01*
X266230250Y-37475500D01*
X266230252Y-37475500D01*
X266963812Y-37475500D01*
X267030851Y-37495185D01*
X267051493Y-37511819D01*
X270388181Y-40848507D01*
X270421666Y-40909830D01*
X270424500Y-40936188D01*
X270424500Y-42925079D01*
X270404815Y-42992118D01*
X270379169Y-43020928D01*
X270375163Y-43024216D01*
X270374638Y-43024647D01*
X270255864Y-43169373D01*
X270255862Y-43169376D01*
X270167604Y-43334497D01*
X270113253Y-43513666D01*
X270113252Y-43513668D01*
X270094901Y-43700000D01*
X270113252Y-43886331D01*
X270113253Y-43886333D01*
X270167604Y-44065504D01*
X270169936Y-44071133D01*
X270167968Y-44071947D01*
X270180240Y-44130916D01*
X270155233Y-44196157D01*
X270098923Y-44237521D01*
X270029190Y-44241876D01*
X269968960Y-44208634D01*
X269530851Y-43770525D01*
X269092119Y-43331793D01*
X269088474Y-43327814D01*
X269062454Y-43296804D01*
X269054148Y-43289835D01*
X269055615Y-43288086D01*
X269017520Y-43248123D01*
X269004305Y-43179514D01*
X269030281Y-43114653D01*
X269087199Y-43074131D01*
X269091687Y-43072674D01*
X269191501Y-43042396D01*
X269356625Y-42954136D01*
X269501357Y-42835357D01*
X269620136Y-42690625D01*
X269708396Y-42525501D01*
X269762747Y-42346331D01*
X269781099Y-42160000D01*
X269762747Y-41973669D01*
X269708396Y-41794499D01*
X269703988Y-41786252D01*
X269620137Y-41629376D01*
X269620135Y-41629373D01*
X269501357Y-41484642D01*
X269356626Y-41365864D01*
X269356623Y-41365862D01*
X269191502Y-41277604D01*
X269012333Y-41223253D01*
X269012331Y-41223252D01*
X268913664Y-41213534D01*
X268848877Y-41187372D01*
X268838138Y-41177812D01*
X267495187Y-39834861D01*
X266142119Y-38481793D01*
X266138474Y-38477814D01*
X266112456Y-38446807D01*
X266112455Y-38446806D01*
X266096600Y-38437652D01*
X266077392Y-38426561D01*
X266072831Y-38423655D01*
X266041573Y-38401769D01*
X266039684Y-38400446D01*
X266039681Y-38400445D01*
X266034861Y-38398197D01*
X266018055Y-38391235D01*
X266013043Y-38389411D01*
X265973190Y-38382383D01*
X265967910Y-38381212D01*
X265928808Y-38370735D01*
X265910308Y-38372354D01*
X265841808Y-38358587D01*
X265791624Y-38309972D01*
X265775500Y-38248826D01*
X265775500Y-37930249D01*
X265775499Y-37930247D01*
X265763868Y-37871770D01*
X265763867Y-37871769D01*
X265719552Y-37805447D01*
X265653230Y-37761132D01*
X265653229Y-37761131D01*
X265594752Y-37749500D01*
X265594748Y-37749500D01*
X265005252Y-37749500D01*
X265005249Y-37749500D01*
X264934791Y-37763515D01*
X264934537Y-37762239D01*
X264877977Y-37768317D01*
X264854089Y-37761303D01*
X264794751Y-37749500D01*
X264794748Y-37749500D01*
X264205252Y-37749500D01*
X264205249Y-37749500D01*
X264134791Y-37763515D01*
X264134537Y-37762239D01*
X264077977Y-37768317D01*
X264054089Y-37761303D01*
X263994751Y-37749500D01*
X263994748Y-37749500D01*
X263405252Y-37749500D01*
X263405249Y-37749500D01*
X263334791Y-37763515D01*
X263334537Y-37762239D01*
X263277977Y-37768317D01*
X263254089Y-37761303D01*
X263194751Y-37749500D01*
X263194748Y-37749500D01*
X262605252Y-37749500D01*
X262605249Y-37749500D01*
X262534791Y-37763515D01*
X262534537Y-37762239D01*
X262477977Y-37768317D01*
X262454089Y-37761303D01*
X262394751Y-37749500D01*
X262394748Y-37749500D01*
X261805252Y-37749500D01*
X261805249Y-37749500D01*
X261734791Y-37763515D01*
X261734537Y-37762239D01*
X261677977Y-37768317D01*
X261654089Y-37761303D01*
X261594751Y-37749500D01*
X261594748Y-37749500D01*
X261005252Y-37749500D01*
X261005249Y-37749500D01*
X260934791Y-37763515D01*
X260934537Y-37762239D01*
X260877977Y-37768317D01*
X260854089Y-37761303D01*
X260794751Y-37749500D01*
X260794748Y-37749500D01*
X260205252Y-37749500D01*
X260205249Y-37749500D01*
X260134791Y-37763515D01*
X260134537Y-37762239D01*
X260077977Y-37768317D01*
X260054089Y-37761303D01*
X259994751Y-37749500D01*
X259994748Y-37749500D01*
X259405252Y-37749500D01*
X259405249Y-37749500D01*
X259334791Y-37763515D01*
X259334537Y-37762239D01*
X259277977Y-37768317D01*
X259254089Y-37761303D01*
X259194751Y-37749500D01*
X259194748Y-37749500D01*
X258605252Y-37749500D01*
X258605249Y-37749500D01*
X258534791Y-37763515D01*
X258534537Y-37762239D01*
X258477977Y-37768317D01*
X258454089Y-37761303D01*
X258394751Y-37749500D01*
X258394748Y-37749500D01*
X258111556Y-37749500D01*
X258044517Y-37729815D01*
X258012290Y-37699811D01*
X257932190Y-37592812D01*
X257932187Y-37592809D01*
X257817093Y-37506649D01*
X257817086Y-37506645D01*
X257682379Y-37456403D01*
X257682372Y-37456401D01*
X257622844Y-37450000D01*
X257550000Y-37450000D01*
X257550000Y-39950000D01*
X257622828Y-39950000D01*
X257622829Y-39949999D01*
X257637238Y-39948450D01*
X257705998Y-39960852D01*
X257757138Y-40008460D01*
X257774500Y-40071739D01*
X257774500Y-40890667D01*
X257754815Y-40957706D01*
X257702011Y-41003461D01*
X257662077Y-41014125D01*
X257655151Y-41014774D01*
X257530523Y-41058384D01*
X257424289Y-41136788D01*
X257394917Y-41176586D01*
X257339270Y-41218836D01*
X257269613Y-41224293D01*
X257208064Y-41191226D01*
X257174164Y-41130131D01*
X257174054Y-41090052D01*
X257172021Y-41089862D01*
X257175500Y-41052760D01*
X257175500Y-40347239D01*
X257172725Y-40317650D01*
X257149575Y-40251493D01*
X257129116Y-40193025D01*
X257055687Y-40093532D01*
X257031718Y-40027907D01*
X257047033Y-39959737D01*
X257050000Y-39955801D01*
X257050000Y-37450000D01*
X257015000Y-37450000D01*
X256947961Y-37430315D01*
X256902206Y-37377511D01*
X256891000Y-37326000D01*
X256891000Y-31338074D01*
X256891000Y-31338072D01*
X256884385Y-31317714D01*
X256879847Y-31298808D01*
X256876499Y-31277668D01*
X256866781Y-31258596D01*
X256859339Y-31240628D01*
X256852727Y-31220277D01*
X256840148Y-31202964D01*
X256829979Y-31186369D01*
X256820269Y-31167311D01*
X256732689Y-31079731D01*
X256732688Y-31079730D01*
X256730356Y-31077398D01*
X256730345Y-31077388D01*
X256340637Y-30687680D01*
X256307152Y-30626357D01*
X256312136Y-30556665D01*
X256340633Y-30512323D01*
X256722479Y-30130476D01*
X256722484Y-30130473D01*
X256732687Y-30120269D01*
X256732689Y-30120269D01*
X256820269Y-30032689D01*
X256829984Y-30013620D01*
X256840150Y-29997031D01*
X256852727Y-29979723D01*
X256859339Y-29959371D01*
X256866784Y-29941396D01*
X256876499Y-29922332D01*
X256879847Y-29901187D01*
X256884388Y-29882276D01*
X256891000Y-29861928D01*
X256891000Y-29738071D01*
X256891000Y-27563319D01*
X256910685Y-27496280D01*
X256927319Y-27475638D01*
X257375638Y-27027319D01*
X257436961Y-26993834D01*
X257463319Y-26991000D01*
X261761927Y-26991000D01*
X261761928Y-26991000D01*
X261782276Y-26984388D01*
X261801187Y-26979847D01*
X261822332Y-26976499D01*
X261841396Y-26966784D01*
X261859371Y-26959339D01*
X261879723Y-26952727D01*
X261897031Y-26940150D01*
X261913620Y-26929984D01*
X261932689Y-26920269D01*
X262020269Y-26832689D01*
X262020269Y-26832687D01*
X262030473Y-26822484D01*
X262030477Y-26822479D01*
X263122479Y-25730477D01*
X263122484Y-25730473D01*
X263132687Y-25720269D01*
X263132689Y-25720269D01*
X263220269Y-25632689D01*
X263229984Y-25613620D01*
X263240150Y-25597031D01*
X263252727Y-25579723D01*
X263259339Y-25559369D01*
X263266787Y-25541391D01*
X263270300Y-25534497D01*
X263276499Y-25522332D01*
X263279845Y-25501196D01*
X263284386Y-25482280D01*
X263291000Y-25461929D01*
X263291000Y-25338072D01*
X263291000Y-24374500D01*
X263310685Y-24307461D01*
X263363489Y-24261706D01*
X263415000Y-24250500D01*
X263994750Y-24250500D01*
X263994751Y-24250499D01*
X264009485Y-24247568D01*
X264065210Y-24236485D01*
X264065464Y-24237762D01*
X264122009Y-24231680D01*
X264145899Y-24238694D01*
X264205247Y-24250499D01*
X264205250Y-24250500D01*
X264205252Y-24250500D01*
X264794750Y-24250500D01*
X264794751Y-24250499D01*
X264809485Y-24247568D01*
X264865210Y-24236485D01*
X264865464Y-24237762D01*
X264922009Y-24231680D01*
X264945899Y-24238694D01*
X265005247Y-24250499D01*
X265005250Y-24250500D01*
X265005252Y-24250500D01*
X265594750Y-24250500D01*
X265594751Y-24250499D01*
X265609568Y-24247552D01*
X265653229Y-24238868D01*
X265653229Y-24238867D01*
X265653231Y-24238867D01*
X265719552Y-24194552D01*
X265763867Y-24128231D01*
X265763867Y-24128229D01*
X265763868Y-24128229D01*
X265775499Y-24069752D01*
X265775500Y-24069750D01*
X265775500Y-22530249D01*
X265764303Y-22473960D01*
X265770530Y-22404368D01*
X265798240Y-22362086D01*
X265848509Y-22311818D01*
X265909832Y-22278334D01*
X265936189Y-22275500D01*
X268883078Y-22275500D01*
X268888481Y-22275735D01*
X268928807Y-22279264D01*
X268967940Y-22268777D01*
X268973162Y-22267619D01*
X269013045Y-22260588D01*
X269013050Y-22260584D01*
X269018099Y-22258747D01*
X269034824Y-22251819D01*
X269039681Y-22249554D01*
X269039684Y-22249554D01*
X269072841Y-22226335D01*
X269077390Y-22223438D01*
X269112455Y-22203194D01*
X269138481Y-22172176D01*
X269142122Y-22168202D01*
X269618204Y-21692120D01*
X269622166Y-21688489D01*
X269653194Y-21662455D01*
X269673438Y-21627390D01*
X269676335Y-21622841D01*
X269699554Y-21589684D01*
X269699554Y-21589681D01*
X269701819Y-21584824D01*
X269708747Y-21568099D01*
X269710584Y-21563050D01*
X269710588Y-21563045D01*
X269717619Y-21523162D01*
X269718777Y-21517940D01*
X269729264Y-21478807D01*
X269725735Y-21438478D01*
X269725500Y-21433075D01*
X269725500Y-20978099D01*
X269745185Y-20911060D01*
X269791045Y-20868742D01*
X269930625Y-20794136D01*
X270075357Y-20675357D01*
X270194136Y-20530625D01*
X270282396Y-20365501D01*
X270336747Y-20186331D01*
X270355099Y-20000000D01*
X270337731Y-19823658D01*
X270336747Y-19813668D01*
X270336746Y-19813666D01*
X270319753Y-19757648D01*
X270282396Y-19634499D01*
X270276518Y-19623502D01*
X270194137Y-19469376D01*
X270194135Y-19469373D01*
X270075357Y-19324642D01*
X269930626Y-19205864D01*
X269930623Y-19205862D01*
X269765502Y-19117604D01*
X269586333Y-19063253D01*
X269586331Y-19063252D01*
X269400000Y-19044901D01*
X269213668Y-19063252D01*
X269213666Y-19063253D01*
X269034497Y-19117604D01*
X268869376Y-19205862D01*
X268869373Y-19205864D01*
X268724642Y-19324642D01*
X268605864Y-19469373D01*
X268605862Y-19469376D01*
X268517604Y-19634497D01*
X268463253Y-19813666D01*
X268463252Y-19813668D01*
X268444901Y-20000000D01*
X268463252Y-20186331D01*
X268463253Y-20186333D01*
X268517604Y-20365502D01*
X268605862Y-20530623D01*
X268605864Y-20530626D01*
X268724642Y-20675357D01*
X268817984Y-20751960D01*
X268869375Y-20794136D01*
X269008954Y-20868742D01*
X269058797Y-20917702D01*
X269074500Y-20978099D01*
X269074500Y-21263812D01*
X269054815Y-21330851D01*
X269038181Y-21351493D01*
X268801493Y-21588181D01*
X268740170Y-21621666D01*
X268713812Y-21624500D01*
X266985187Y-21624500D01*
X266918148Y-21604815D01*
X266872393Y-21552011D01*
X266862449Y-21482853D01*
X266891474Y-21419297D01*
X266897488Y-21412836D01*
X266918203Y-21392121D01*
X266922183Y-21388475D01*
X266953194Y-21362455D01*
X266973438Y-21327390D01*
X266976335Y-21322841D01*
X266999554Y-21289684D01*
X266999554Y-21289681D01*
X267001819Y-21284824D01*
X267008747Y-21268099D01*
X267010584Y-21263050D01*
X267010588Y-21263045D01*
X267017619Y-21223162D01*
X267018777Y-21217940D01*
X267029264Y-21178807D01*
X267025735Y-21138478D01*
X267025500Y-21133075D01*
X267025500Y-20978099D01*
X267045185Y-20911060D01*
X267091045Y-20868742D01*
X267230625Y-20794136D01*
X267375357Y-20675357D01*
X267494136Y-20530625D01*
X267582396Y-20365501D01*
X267636747Y-20186331D01*
X267655099Y-20000000D01*
X267637731Y-19823658D01*
X267636747Y-19813668D01*
X267636746Y-19813666D01*
X267619753Y-19757648D01*
X267582396Y-19634499D01*
X267576518Y-19623502D01*
X267494137Y-19469376D01*
X267494135Y-19469373D01*
X267375357Y-19324642D01*
X267230626Y-19205864D01*
X267230623Y-19205862D01*
X267065502Y-19117604D01*
X266886333Y-19063253D01*
X266886331Y-19063252D01*
X266700000Y-19044901D01*
X266513668Y-19063252D01*
X266513666Y-19063253D01*
X266334497Y-19117604D01*
X266169376Y-19205862D01*
X266169373Y-19205864D01*
X266024642Y-19324642D01*
X265905864Y-19469373D01*
X265905862Y-19469376D01*
X265858858Y-19557316D01*
X265809896Y-19607161D01*
X265741758Y-19622621D01*
X265676078Y-19598789D01*
X265633710Y-19543232D01*
X265625500Y-19498863D01*
X265625500Y-18286188D01*
X265645185Y-18219149D01*
X265661819Y-18198507D01*
X265748507Y-18111819D01*
X265809830Y-18078334D01*
X265836188Y-18075500D01*
X267071900Y-18075500D01*
X267138939Y-18095185D01*
X267181258Y-18141047D01*
X267255862Y-18280623D01*
X267255864Y-18280626D01*
X267374642Y-18425357D01*
X267519373Y-18544135D01*
X267519376Y-18544137D01*
X267599484Y-18586955D01*
X267684499Y-18632396D01*
X267823768Y-18674643D01*
X267863666Y-18686746D01*
X267863668Y-18686747D01*
X267880374Y-18688392D01*
X268050000Y-18705099D01*
X268236331Y-18686747D01*
X268415501Y-18632396D01*
X268580625Y-18544136D01*
X268725357Y-18425357D01*
X268844136Y-18280625D01*
X268932396Y-18115501D01*
X268986747Y-17936331D01*
X269005099Y-17750000D01*
X268986747Y-17563669D01*
X268932396Y-17384499D01*
X268932395Y-17384497D01*
X268844137Y-17219376D01*
X268844135Y-17219373D01*
X268725357Y-17074642D01*
X268580626Y-16955864D01*
X268580623Y-16955862D01*
X268415500Y-16867603D01*
X268409877Y-16865274D01*
X268410324Y-16864192D01*
X268357118Y-16829325D01*
X268328660Y-16765513D01*
X268339219Y-16696446D01*
X268385442Y-16644052D01*
X268451550Y-16624960D01*
X270414036Y-16624960D01*
X270481075Y-16644645D01*
X270501717Y-16661279D01*
X270688721Y-16848283D01*
X270722206Y-16909606D01*
X270725040Y-16935964D01*
X270725040Y-21583100D01*
X270724804Y-21588507D01*
X270721281Y-21628757D01*
X270731738Y-21667787D01*
X270732909Y-21673066D01*
X270739926Y-21712856D01*
X270741774Y-21717934D01*
X270748661Y-21734560D01*
X270750942Y-21739452D01*
X270774114Y-21772544D01*
X270777023Y-21777109D01*
X270797226Y-21812103D01*
X270828185Y-21838081D01*
X270832175Y-21841737D01*
X271108263Y-22117825D01*
X271111919Y-22121815D01*
X271137897Y-22152774D01*
X271172894Y-22172980D01*
X271177459Y-22175888D01*
X271210541Y-22199054D01*
X271215476Y-22201355D01*
X271232043Y-22208216D01*
X271237141Y-22210072D01*
X271237143Y-22210073D01*
X271269366Y-22215754D01*
X271276920Y-22217087D01*
X271282206Y-22218258D01*
X271321241Y-22228718D01*
X271361500Y-22225195D01*
X271366902Y-22224960D01*
X271403581Y-22224960D01*
X271470620Y-22244645D01*
X271516375Y-22297449D01*
X271520622Y-22308004D01*
X271533384Y-22344476D01*
X271611788Y-22450710D01*
X271611789Y-22450711D01*
X271718023Y-22529115D01*
X271718024Y-22529115D01*
X271718025Y-22529116D01*
X271842651Y-22572725D01*
X271842650Y-22572725D01*
X271872240Y-22575500D01*
X271872244Y-22575500D01*
X272477760Y-22575500D01*
X272507349Y-22572725D01*
X272516928Y-22569373D01*
X272631975Y-22529116D01*
X272738211Y-22450711D01*
X272816616Y-22344475D01*
X272860225Y-22219849D01*
X272860440Y-22217552D01*
X272863000Y-22190260D01*
X272863000Y-21609739D01*
X272860225Y-21580150D01*
X272835603Y-21509786D01*
X272816616Y-21455525D01*
X272810685Y-21447489D01*
X272738211Y-21349289D01*
X272738210Y-21349288D01*
X272631976Y-21270884D01*
X272507348Y-21227274D01*
X272507349Y-21227274D01*
X272477760Y-21224500D01*
X272477756Y-21224500D01*
X271872244Y-21224500D01*
X271872240Y-21224500D01*
X271842650Y-21227274D01*
X271718023Y-21270884D01*
X271611790Y-21349287D01*
X271598730Y-21366984D01*
X271543083Y-21409234D01*
X271473427Y-21414693D01*
X271411877Y-21381626D01*
X271377976Y-21320532D01*
X271374960Y-21293350D01*
X271374960Y-16766899D01*
X271375196Y-16761492D01*
X271378718Y-16721241D01*
X271368258Y-16682204D01*
X271367087Y-16676920D01*
X271362340Y-16650000D01*
X271360073Y-16637143D01*
X271360072Y-16637141D01*
X271358216Y-16632043D01*
X271351355Y-16615476D01*
X271349057Y-16610550D01*
X271349057Y-16610547D01*
X271325880Y-16577449D01*
X271322979Y-16572894D01*
X271302773Y-16537896D01*
X271271813Y-16511918D01*
X271267834Y-16508272D01*
X270841723Y-16082161D01*
X270838084Y-16078190D01*
X270812103Y-16047226D01*
X270808292Y-16045025D01*
X270777108Y-16027021D01*
X270772545Y-16024114D01*
X270739455Y-16000943D01*
X270734560Y-15998661D01*
X270717934Y-15991774D01*
X270712856Y-15989926D01*
X270673066Y-15982909D01*
X270667787Y-15981738D01*
X270628756Y-15971281D01*
X270594481Y-15974280D01*
X270588499Y-15974804D01*
X270583098Y-15975040D01*
X265266899Y-15975040D01*
X265261495Y-15974804D01*
X265255137Y-15974247D01*
X265221239Y-15971281D01*
X265182214Y-15981738D01*
X265176935Y-15982909D01*
X265137145Y-15989925D01*
X265132080Y-15991769D01*
X265115438Y-15998662D01*
X265110549Y-16000942D01*
X265110547Y-16000942D01*
X265110547Y-16000943D01*
X265101556Y-16007238D01*
X265077446Y-16024119D01*
X265072884Y-16027025D01*
X265037899Y-16047223D01*
X265037896Y-16047226D01*
X265011923Y-16078179D01*
X265008268Y-16082168D01*
X264632717Y-16457720D01*
X264628729Y-16461374D01*
X264597764Y-16487358D01*
X264577561Y-16522352D01*
X264574654Y-16526916D01*
X264551481Y-16560009D01*
X264549206Y-16564887D01*
X264542309Y-16581540D01*
X264540465Y-16586605D01*
X264533449Y-16626395D01*
X264532278Y-16631674D01*
X264521821Y-16670699D01*
X264521821Y-16670700D01*
X264525344Y-16710954D01*
X264525580Y-16716361D01*
X264525580Y-18333235D01*
X264505895Y-18400274D01*
X264453091Y-18446029D01*
X264383933Y-18455973D01*
X264320377Y-18426948D01*
X264313899Y-18420916D01*
X264248038Y-18355055D01*
X264248034Y-18355052D01*
X264101311Y-18264551D01*
X264101300Y-18264546D01*
X263937652Y-18210319D01*
X263836654Y-18200000D01*
X263800000Y-18200000D01*
X263800000Y-19363500D01*
X263780315Y-19430539D01*
X263727511Y-19476294D01*
X263676000Y-19487500D01*
X263424000Y-19487500D01*
X263356961Y-19467815D01*
X263311206Y-19415011D01*
X263300000Y-19363500D01*
X263300000Y-18200000D01*
X263263361Y-18200000D01*
X263263340Y-18200001D01*
X263212101Y-18205236D01*
X263143408Y-18192466D01*
X263092524Y-18144585D01*
X263075500Y-18081878D01*
X263075500Y-17469899D01*
X263095185Y-17402860D01*
X263147989Y-17357105D01*
X263187345Y-17346496D01*
X263286331Y-17336747D01*
X263465501Y-17282396D01*
X263630625Y-17194136D01*
X263775357Y-17075357D01*
X263894136Y-16930625D01*
X263982396Y-16765501D01*
X264036747Y-16586331D01*
X264055099Y-16400000D01*
X264036747Y-16213669D01*
X263982396Y-16034499D01*
X263963240Y-15998661D01*
X263894137Y-15869376D01*
X263894135Y-15869373D01*
X263775357Y-15724642D01*
X263630626Y-15605864D01*
X263630623Y-15605862D01*
X263465502Y-15517604D01*
X263286333Y-15463253D01*
X263286331Y-15463252D01*
X263100000Y-15444901D01*
X262913668Y-15463252D01*
X262913666Y-15463253D01*
X262734497Y-15517604D01*
X262569376Y-15605862D01*
X262569373Y-15605864D01*
X262424642Y-15724642D01*
X262305864Y-15869373D01*
X262305862Y-15869376D01*
X262217604Y-16034497D01*
X262163253Y-16213666D01*
X262163252Y-16213668D01*
X262144901Y-16400000D01*
X262163252Y-16586331D01*
X262163253Y-16586333D01*
X262217604Y-16765502D01*
X262305860Y-16930619D01*
X262305864Y-16930626D01*
X262396353Y-17040885D01*
X262423666Y-17105194D01*
X262424500Y-17119550D01*
X262424500Y-18264812D01*
X262404815Y-18331851D01*
X262352011Y-18377606D01*
X262282853Y-18387550D01*
X262219297Y-18358525D01*
X262212819Y-18352493D01*
X261621784Y-17761458D01*
X261588299Y-17700135D01*
X261590805Y-17637781D01*
X261606286Y-17586746D01*
X261636747Y-17486331D01*
X261655099Y-17300000D01*
X261636747Y-17113669D01*
X261582396Y-16934499D01*
X261545395Y-16865274D01*
X261494137Y-16769376D01*
X261494135Y-16769373D01*
X261375357Y-16624642D01*
X261230626Y-16505864D01*
X261230623Y-16505862D01*
X261065502Y-16417604D01*
X260886333Y-16363253D01*
X260886331Y-16363252D01*
X260700000Y-16344901D01*
X260513668Y-16363252D01*
X260513666Y-16363253D01*
X260334497Y-16417604D01*
X260169376Y-16505862D01*
X260169373Y-16505864D01*
X260024642Y-16624642D01*
X259905864Y-16769373D01*
X259905862Y-16769376D01*
X259817604Y-16934497D01*
X259763253Y-17113666D01*
X259763252Y-17113668D01*
X259744901Y-17300000D01*
X259763252Y-17486331D01*
X259763253Y-17486333D01*
X259817604Y-17665502D01*
X259905862Y-17830623D01*
X259905864Y-17830626D01*
X260024642Y-17975357D01*
X260169373Y-18094135D01*
X260169376Y-18094137D01*
X260305545Y-18166920D01*
X260334499Y-18182396D01*
X260513666Y-18236746D01*
X260513668Y-18236747D01*
X260530374Y-18238392D01*
X260700000Y-18255099D01*
X260886331Y-18236747D01*
X260991708Y-18204780D01*
X261037781Y-18190805D01*
X261107648Y-18190181D01*
X261161458Y-18221784D01*
X261788181Y-18848507D01*
X261821666Y-18909830D01*
X261824500Y-18936188D01*
X261824500Y-19596669D01*
X261804815Y-19663708D01*
X261752011Y-19709463D01*
X261682853Y-19719407D01*
X261619297Y-19690382D01*
X261586264Y-19639485D01*
X261584726Y-19640123D01*
X261582396Y-19634499D01*
X261494137Y-19469376D01*
X261494135Y-19469373D01*
X261375357Y-19324642D01*
X261230626Y-19205864D01*
X261230623Y-19205862D01*
X261065502Y-19117604D01*
X260886333Y-19063253D01*
X260886331Y-19063252D01*
X260700000Y-19044901D01*
X260513668Y-19063252D01*
X260513666Y-19063253D01*
X260334497Y-19117604D01*
X260169376Y-19205862D01*
X260169373Y-19205864D01*
X260024642Y-19324642D01*
X259905865Y-19469373D01*
X259902601Y-19474258D01*
X259848988Y-19519062D01*
X259779663Y-19527768D01*
X259716636Y-19497612D01*
X259679918Y-19438168D01*
X259675500Y-19405365D01*
X259675500Y-18716920D01*
X259675736Y-18711513D01*
X259676298Y-18705098D01*
X259679264Y-18671193D01*
X259668782Y-18632076D01*
X259667616Y-18626818D01*
X259660588Y-18586955D01*
X259660586Y-18586952D01*
X259660586Y-18586950D01*
X259658760Y-18581933D01*
X259651820Y-18565176D01*
X259649554Y-18560319D01*
X259649554Y-18560316D01*
X259626339Y-18527162D01*
X259623433Y-18522599D01*
X259603196Y-18487548D01*
X259603195Y-18487547D01*
X259603194Y-18487545D01*
X259572177Y-18461518D01*
X259568193Y-18457867D01*
X258871784Y-17761458D01*
X258838299Y-17700135D01*
X258840805Y-17637781D01*
X258856286Y-17586746D01*
X258886747Y-17486331D01*
X258905099Y-17300000D01*
X258886747Y-17113669D01*
X258832396Y-16934499D01*
X258795395Y-16865274D01*
X258744137Y-16769376D01*
X258744135Y-16769373D01*
X258625357Y-16624642D01*
X258480626Y-16505864D01*
X258480623Y-16505862D01*
X258315502Y-16417604D01*
X258136333Y-16363253D01*
X258136331Y-16363252D01*
X257950000Y-16344901D01*
X257763668Y-16363252D01*
X257763666Y-16363253D01*
X257584497Y-16417604D01*
X257419376Y-16505862D01*
X257419373Y-16505864D01*
X257274642Y-16624642D01*
X257155864Y-16769373D01*
X257155862Y-16769376D01*
X257067604Y-16934497D01*
X257013253Y-17113666D01*
X257013252Y-17113668D01*
X256994901Y-17300000D01*
X257013252Y-17486331D01*
X257013253Y-17486333D01*
X257067604Y-17665502D01*
X257155862Y-17830623D01*
X257155864Y-17830626D01*
X257274642Y-17975357D01*
X257419373Y-18094135D01*
X257419376Y-18094137D01*
X257555545Y-18166920D01*
X257584499Y-18182396D01*
X257763666Y-18236746D01*
X257763668Y-18236747D01*
X257780374Y-18238392D01*
X257950000Y-18255099D01*
X258136331Y-18236747D01*
X258241708Y-18204780D01*
X258287781Y-18190805D01*
X258357648Y-18190181D01*
X258411458Y-18221784D01*
X258988181Y-18798507D01*
X259021666Y-18859830D01*
X259024500Y-18886188D01*
X259024500Y-19405365D01*
X259004815Y-19472404D01*
X258952011Y-19518159D01*
X258882853Y-19528103D01*
X258819297Y-19499078D01*
X258797399Y-19474258D01*
X258794138Y-19469379D01*
X258794136Y-19469375D01*
X258758013Y-19425359D01*
X258675357Y-19324642D01*
X258530626Y-19205864D01*
X258530623Y-19205862D01*
X258365502Y-19117604D01*
X258186333Y-19063253D01*
X258186331Y-19063252D01*
X258000000Y-19044901D01*
X257813668Y-19063252D01*
X257813666Y-19063253D01*
X257634497Y-19117604D01*
X257469376Y-19205862D01*
X257469373Y-19205864D01*
X257324642Y-19324642D01*
X257205865Y-19469373D01*
X257202601Y-19474258D01*
X257148988Y-19519062D01*
X257079663Y-19527768D01*
X257016636Y-19497612D01*
X256979918Y-19438168D01*
X256975500Y-19405365D01*
X256975500Y-18716920D01*
X256975736Y-18711513D01*
X256976298Y-18705098D01*
X256979264Y-18671193D01*
X256968782Y-18632076D01*
X256967616Y-18626818D01*
X256960588Y-18586955D01*
X256960586Y-18586952D01*
X256960586Y-18586950D01*
X256958760Y-18581933D01*
X256951820Y-18565176D01*
X256949554Y-18560319D01*
X256949554Y-18560316D01*
X256926339Y-18527162D01*
X256923433Y-18522599D01*
X256903196Y-18487548D01*
X256903195Y-18487547D01*
X256903194Y-18487545D01*
X256872177Y-18461518D01*
X256868193Y-18457867D01*
X256171784Y-17761458D01*
X256138299Y-17700135D01*
X256140805Y-17637781D01*
X256156286Y-17586746D01*
X256186747Y-17486331D01*
X256205099Y-17300000D01*
X256186747Y-17113669D01*
X256132396Y-16934499D01*
X256095395Y-16865274D01*
X256044137Y-16769376D01*
X256044135Y-16769373D01*
X255925357Y-16624642D01*
X255780626Y-16505864D01*
X255780623Y-16505862D01*
X255615502Y-16417604D01*
X255436333Y-16363253D01*
X255436331Y-16363252D01*
X255250000Y-16344901D01*
X255063668Y-16363252D01*
X255063666Y-16363253D01*
X254884497Y-16417604D01*
X254719376Y-16505862D01*
X254719373Y-16505864D01*
X254574642Y-16624642D01*
X254455864Y-16769373D01*
X254455862Y-16769376D01*
X254367604Y-16934497D01*
X254313253Y-17113666D01*
X254313252Y-17113668D01*
X254294901Y-17300000D01*
X254313252Y-17486331D01*
X254313253Y-17486333D01*
X254367604Y-17665502D01*
X254455862Y-17830623D01*
X254455864Y-17830626D01*
X254574642Y-17975357D01*
X254719373Y-18094135D01*
X254719376Y-18094137D01*
X254855545Y-18166920D01*
X254884499Y-18182396D01*
X255063666Y-18236746D01*
X255063668Y-18236747D01*
X255080374Y-18238392D01*
X255250000Y-18255099D01*
X255436331Y-18236747D01*
X255541708Y-18204780D01*
X255587781Y-18190805D01*
X255657648Y-18190181D01*
X255711458Y-18221784D01*
X256288181Y-18798507D01*
X256321666Y-18859830D01*
X256324500Y-18886188D01*
X256324500Y-19405365D01*
X256304815Y-19472404D01*
X256252011Y-19518159D01*
X256182853Y-19528103D01*
X256119297Y-19499078D01*
X256097399Y-19474258D01*
X256094138Y-19469379D01*
X256094136Y-19469375D01*
X256058013Y-19425359D01*
X255975357Y-19324642D01*
X255830626Y-19205864D01*
X255830623Y-19205862D01*
X255665502Y-19117604D01*
X255486333Y-19063253D01*
X255486331Y-19063252D01*
X255300000Y-19044901D01*
X255113668Y-19063252D01*
X255113666Y-19063253D01*
X254934497Y-19117604D01*
X254769376Y-19205862D01*
X254769373Y-19205864D01*
X254624642Y-19324642D01*
X254505864Y-19469373D01*
X254505862Y-19469376D01*
X254417604Y-19634497D01*
X254363253Y-19813666D01*
X254363252Y-19813668D01*
X254344901Y-20000000D01*
X254363252Y-20186331D01*
X254373256Y-20219308D01*
X254373879Y-20289175D01*
X254336630Y-20348287D01*
X254273336Y-20377878D01*
X254204091Y-20368551D01*
X254166914Y-20342983D01*
X254111819Y-20287888D01*
X254078334Y-20226565D01*
X254075500Y-20200207D01*
X254075500Y-18066920D01*
X254075736Y-18061513D01*
X254077885Y-18036959D01*
X254079264Y-18021193D01*
X254068782Y-17982076D01*
X254067616Y-17976818D01*
X254060588Y-17936955D01*
X254060586Y-17936952D01*
X254060586Y-17936950D01*
X254058760Y-17931933D01*
X254051820Y-17915176D01*
X254049554Y-17910319D01*
X254049554Y-17910316D01*
X254026339Y-17877162D01*
X254023433Y-17872599D01*
X254003196Y-17837548D01*
X254003195Y-17837547D01*
X254003194Y-17837545D01*
X253972177Y-17811518D01*
X253968193Y-17807867D01*
X253271784Y-17111458D01*
X253238299Y-17050135D01*
X253240805Y-16987781D01*
X253264519Y-16909606D01*
X253286747Y-16836331D01*
X253305099Y-16650000D01*
X253286747Y-16463669D01*
X253232396Y-16284499D01*
X253194537Y-16213669D01*
X253144137Y-16119376D01*
X253144135Y-16119373D01*
X253025357Y-15974642D01*
X252880626Y-15855864D01*
X252880623Y-15855862D01*
X252715502Y-15767604D01*
X252536333Y-15713253D01*
X252536331Y-15713252D01*
X252350000Y-15694901D01*
X252163668Y-15713252D01*
X252163666Y-15713253D01*
X251984497Y-15767604D01*
X251819376Y-15855862D01*
X251819373Y-15855864D01*
X251674642Y-15974642D01*
X251555864Y-16119373D01*
X251555862Y-16119376D01*
X251467604Y-16284497D01*
X251413253Y-16463666D01*
X251413252Y-16463668D01*
X251394901Y-16650000D01*
X251413252Y-16836331D01*
X251413253Y-16836333D01*
X251467604Y-17015502D01*
X251555862Y-17180623D01*
X251555864Y-17180626D01*
X251674642Y-17325357D01*
X251819373Y-17444135D01*
X251819376Y-17444137D01*
X251947633Y-17512691D01*
X251984499Y-17532396D01*
X252144704Y-17580994D01*
X252163666Y-17586746D01*
X252163668Y-17586747D01*
X252180374Y-17588392D01*
X252350000Y-17605099D01*
X252536331Y-17586747D01*
X252641708Y-17554780D01*
X252687781Y-17540805D01*
X252757648Y-17540181D01*
X252811458Y-17571784D01*
X253388181Y-18148507D01*
X253421666Y-18209830D01*
X253424500Y-18236188D01*
X253424500Y-18755365D01*
X253404815Y-18822404D01*
X253352011Y-18868159D01*
X253282853Y-18878103D01*
X253219297Y-18849078D01*
X253197399Y-18824258D01*
X253194138Y-18819379D01*
X253194136Y-18819375D01*
X253110053Y-18716920D01*
X253075357Y-18674642D01*
X252930626Y-18555864D01*
X252930623Y-18555862D01*
X252765502Y-18467604D01*
X252586333Y-18413253D01*
X252586331Y-18413252D01*
X252400000Y-18394901D01*
X252213668Y-18413252D01*
X252213666Y-18413253D01*
X252034497Y-18467604D01*
X251869376Y-18555862D01*
X251869373Y-18555864D01*
X251724642Y-18674642D01*
X251605864Y-18819373D01*
X251605862Y-18819376D01*
X251517604Y-18984497D01*
X251463253Y-19163666D01*
X251463252Y-19163668D01*
X251444901Y-19350000D01*
X251463252Y-19536331D01*
X251463253Y-19536333D01*
X251517604Y-19715502D01*
X251605862Y-19880623D01*
X251605864Y-19880626D01*
X251724642Y-20025357D01*
X251869373Y-20144135D01*
X251869376Y-20144137D01*
X252023590Y-20226565D01*
X252034499Y-20232396D01*
X252164340Y-20271783D01*
X252213666Y-20286746D01*
X252213668Y-20286747D01*
X252232020Y-20288554D01*
X252400000Y-20305099D01*
X252498197Y-20295427D01*
X252566841Y-20308446D01*
X252598031Y-20331149D01*
X253114201Y-20847319D01*
X253147686Y-20908642D01*
X253142702Y-20978334D01*
X253100830Y-21034267D01*
X253035366Y-21058684D01*
X253026520Y-21059000D01*
X252493680Y-21059000D01*
X252426641Y-21039315D01*
X252393910Y-21008633D01*
X252313211Y-20899289D01*
X252313210Y-20899288D01*
X252206976Y-20820884D01*
X252082348Y-20777274D01*
X252082349Y-20777274D01*
X252052760Y-20774500D01*
X252052756Y-20774500D01*
X251347244Y-20774500D01*
X251347240Y-20774500D01*
X251317650Y-20777274D01*
X251193025Y-20820883D01*
X251100060Y-20889494D01*
X251034430Y-20913464D01*
X250966260Y-20898148D01*
X250920888Y-20854820D01*
X250857443Y-20751960D01*
X250735538Y-20630055D01*
X250735534Y-20630052D01*
X250588811Y-20539551D01*
X250588800Y-20539546D01*
X250425152Y-20485319D01*
X250324154Y-20475000D01*
X250101681Y-20475000D01*
X250034642Y-20455315D01*
X249988887Y-20402511D01*
X249978943Y-20333353D01*
X250007968Y-20269797D01*
X250060329Y-20235817D01*
X250059877Y-20234726D01*
X250065497Y-20232397D01*
X250065501Y-20232396D01*
X250230625Y-20144136D01*
X250375357Y-20025357D01*
X250494136Y-19880625D01*
X250582396Y-19715501D01*
X250636747Y-19536331D01*
X250655099Y-19350000D01*
X250636747Y-19163669D01*
X250582396Y-18984499D01*
X250582395Y-18984497D01*
X250494137Y-18819376D01*
X250494135Y-18819373D01*
X250375357Y-18674642D01*
X250230626Y-18555864D01*
X250230623Y-18555862D01*
X250065502Y-18467604D01*
X249886333Y-18413253D01*
X249886331Y-18413252D01*
X249700000Y-18394901D01*
X249513668Y-18413252D01*
X249513666Y-18413253D01*
X249334497Y-18467604D01*
X249169376Y-18555862D01*
X249169373Y-18555864D01*
X249024642Y-18674642D01*
X248905864Y-18819373D01*
X248905862Y-18819376D01*
X248817604Y-18984497D01*
X248763253Y-19163666D01*
X248763252Y-19163668D01*
X248744901Y-19350000D01*
X248763252Y-19536329D01*
X248809195Y-19687781D01*
X248809818Y-19757648D01*
X248778216Y-19811457D01*
X248687179Y-19902493D01*
X248625859Y-19935977D01*
X248556167Y-19930993D01*
X248500233Y-19889122D01*
X248475816Y-19823658D01*
X248475500Y-19814811D01*
X248475500Y-18336187D01*
X248495185Y-18269148D01*
X248511815Y-18248510D01*
X249188543Y-17571781D01*
X249249864Y-17538298D01*
X249312216Y-17540803D01*
X249461131Y-17585977D01*
X249463666Y-17586746D01*
X249463668Y-17586747D01*
X249480374Y-17588392D01*
X249650000Y-17605099D01*
X249836331Y-17586747D01*
X250015501Y-17532396D01*
X250180625Y-17444136D01*
X250325357Y-17325357D01*
X250444136Y-17180625D01*
X250532396Y-17015501D01*
X250586747Y-16836331D01*
X250605099Y-16650000D01*
X250586747Y-16463669D01*
X250532396Y-16284499D01*
X250494537Y-16213669D01*
X250444137Y-16119376D01*
X250444135Y-16119373D01*
X250325357Y-15974642D01*
X250180626Y-15855864D01*
X250180623Y-15855862D01*
X250015502Y-15767604D01*
X249836333Y-15713253D01*
X249836331Y-15713252D01*
X249650000Y-15694901D01*
X249463668Y-15713252D01*
X249463666Y-15713253D01*
X249284497Y-15767604D01*
X249119376Y-15855862D01*
X249119373Y-15855864D01*
X248974642Y-15974642D01*
X248855864Y-16119373D01*
X248855862Y-16119376D01*
X248767604Y-16284497D01*
X248713253Y-16463666D01*
X248713252Y-16463668D01*
X248694901Y-16650000D01*
X248713252Y-16836329D01*
X248759195Y-16987781D01*
X248759818Y-17057648D01*
X248728215Y-17111457D01*
X247931803Y-17907870D01*
X247927814Y-17911525D01*
X247896805Y-17937545D01*
X247876562Y-17972606D01*
X247873656Y-17977166D01*
X247850446Y-18010313D01*
X247848206Y-18015117D01*
X247841229Y-18031961D01*
X247839410Y-18036959D01*
X247832383Y-18076811D01*
X247831212Y-18082091D01*
X247820735Y-18121191D01*
X247824264Y-18161513D01*
X247824500Y-18166920D01*
X247824500Y-22194655D01*
X247804815Y-22261694D01*
X247752011Y-22307449D01*
X247682853Y-22317393D01*
X247619297Y-22288368D01*
X247612819Y-22282336D01*
X247548038Y-22217555D01*
X247548034Y-22217552D01*
X247401311Y-22127051D01*
X247401300Y-22127046D01*
X247237652Y-22072819D01*
X247136654Y-22062500D01*
X247100000Y-22062500D01*
X247100000Y-23226000D01*
X247080315Y-23293039D01*
X247027511Y-23338794D01*
X246976000Y-23350000D01*
X245875001Y-23350000D01*
X245875001Y-23449154D01*
X245885319Y-23550152D01*
X245939546Y-23713800D01*
X245939551Y-23713811D01*
X246030052Y-23860534D01*
X246030055Y-23860538D01*
X246151960Y-23982443D01*
X246254820Y-24045888D01*
X246301544Y-24097836D01*
X246312767Y-24166799D01*
X246289494Y-24225060D01*
X246220883Y-24318026D01*
X246209361Y-24350955D01*
X246168639Y-24407731D01*
X246103687Y-24433478D01*
X246092320Y-24434000D01*
X245988319Y-24434000D01*
X245921280Y-24414315D01*
X245900638Y-24397681D01*
X245027319Y-23524362D01*
X244993834Y-23463039D01*
X244991000Y-23436681D01*
X244991000Y-22850000D01*
X245875000Y-22850000D01*
X246600000Y-22850000D01*
X246600000Y-22062500D01*
X246563361Y-22062500D01*
X246563343Y-22062501D01*
X246462347Y-22072819D01*
X246298699Y-22127046D01*
X246298688Y-22127051D01*
X246151965Y-22217552D01*
X246151961Y-22217555D01*
X246030055Y-22339461D01*
X246030052Y-22339465D01*
X245939551Y-22486188D01*
X245939546Y-22486199D01*
X245885319Y-22649847D01*
X245875000Y-22750845D01*
X245875000Y-22850000D01*
X244991000Y-22850000D01*
X244991000Y-21338074D01*
X244991000Y-21338072D01*
X244984385Y-21317714D01*
X244979847Y-21298808D01*
X244976499Y-21277668D01*
X244966781Y-21258596D01*
X244959339Y-21240628D01*
X244952727Y-21220277D01*
X244940148Y-21202964D01*
X244929979Y-21186369D01*
X244926126Y-21178807D01*
X244920269Y-21167311D01*
X244832689Y-21079731D01*
X244832688Y-21079730D01*
X244830356Y-21077398D01*
X244830345Y-21077388D01*
X243527339Y-19774382D01*
X243527336Y-19774378D01*
X243527336Y-19774379D01*
X243520269Y-19767312D01*
X243520269Y-19767311D01*
X243432689Y-19679731D01*
X243432687Y-19679730D01*
X243432686Y-19679729D01*
X243413620Y-19670014D01*
X243397032Y-19659849D01*
X243379722Y-19647272D01*
X243359364Y-19640657D01*
X243341394Y-19633213D01*
X243322335Y-19623502D01*
X243322333Y-19623501D01*
X243322332Y-19623501D01*
X243301186Y-19620151D01*
X243282284Y-19615613D01*
X243261928Y-19609000D01*
X243230774Y-19609000D01*
X239011928Y-19609000D01*
X238888071Y-19609000D01*
X238888069Y-19609000D01*
X238888065Y-19609001D01*
X238867722Y-19615611D01*
X238848803Y-19620153D01*
X238827668Y-19623500D01*
X238808606Y-19633213D01*
X238790634Y-19640658D01*
X238770279Y-19647272D01*
X238770274Y-19647274D01*
X238752957Y-19659855D01*
X238736381Y-19670013D01*
X238717310Y-19679731D01*
X238629731Y-19767311D01*
X237168631Y-21228411D01*
X237081051Y-21315990D01*
X237071333Y-21335061D01*
X237061175Y-21351637D01*
X237048594Y-21368955D01*
X237048592Y-21368958D01*
X237046422Y-21375637D01*
X237042347Y-21388181D01*
X237041981Y-21389306D01*
X237034536Y-21407279D01*
X237024821Y-21426345D01*
X237024820Y-21426349D01*
X237021471Y-21447489D01*
X237016932Y-21466395D01*
X237010320Y-21486748D01*
X237010320Y-23154506D01*
X236990635Y-23221545D01*
X236937831Y-23267300D01*
X236922870Y-23272997D01*
X236778359Y-23317573D01*
X236548758Y-23428142D01*
X236548757Y-23428143D01*
X236338183Y-23571709D01*
X236151368Y-23745047D01*
X235992469Y-23944302D01*
X235865044Y-24165005D01*
X235865041Y-24165013D01*
X235771938Y-24402236D01*
X235771932Y-24402255D01*
X235715226Y-24650701D01*
X235715226Y-24650703D01*
X235696182Y-24904835D01*
X235696182Y-24904844D01*
X230500000Y-24904844D01*
X230500000Y-21836521D01*
X231321038Y-21836521D01*
X231340061Y-22102506D01*
X231396742Y-22363060D01*
X231396744Y-22363067D01*
X231437287Y-22471768D01*
X231489932Y-22612916D01*
X231489934Y-22612920D01*
X231617725Y-22846951D01*
X231617730Y-22846959D01*
X231777526Y-23060422D01*
X231777542Y-23060440D01*
X231966079Y-23248977D01*
X231966097Y-23248993D01*
X232179560Y-23408789D01*
X232179568Y-23408794D01*
X232413599Y-23536585D01*
X232413603Y-23536587D01*
X232413605Y-23536588D01*
X232663453Y-23629776D01*
X232793736Y-23658117D01*
X232924013Y-23686458D01*
X232924015Y-23686458D01*
X232924019Y-23686459D01*
X233160386Y-23703364D01*
X233189999Y-23705482D01*
X233190000Y-23705482D01*
X233190001Y-23705482D01*
X233216647Y-23703576D01*
X233455981Y-23686459D01*
X233716547Y-23629776D01*
X233966395Y-23536588D01*
X234200437Y-23408791D01*
X234413910Y-23248987D01*
X234602467Y-23060430D01*
X234762271Y-22846957D01*
X234890068Y-22612915D01*
X234983256Y-22363067D01*
X235035540Y-22122725D01*
X235039938Y-22102506D01*
X235039938Y-22102505D01*
X235039939Y-22102501D01*
X235058962Y-21836520D01*
X235039939Y-21570539D01*
X235039408Y-21568099D01*
X235007038Y-21419297D01*
X234983256Y-21309973D01*
X234890068Y-21060125D01*
X234875948Y-21034267D01*
X234762274Y-20826088D01*
X234762269Y-20826080D01*
X234602473Y-20612617D01*
X234602457Y-20612599D01*
X234413920Y-20424062D01*
X234413902Y-20424046D01*
X234200439Y-20264250D01*
X234200431Y-20264245D01*
X233966400Y-20136454D01*
X233966396Y-20136452D01*
X233871673Y-20101122D01*
X233716547Y-20043264D01*
X233716543Y-20043263D01*
X233716540Y-20043262D01*
X233455986Y-19986581D01*
X233190001Y-19967558D01*
X233189999Y-19967558D01*
X232924013Y-19986581D01*
X232663459Y-20043262D01*
X232663454Y-20043263D01*
X232663453Y-20043264D01*
X232603048Y-20065793D01*
X232413603Y-20136452D01*
X232413599Y-20136454D01*
X232179568Y-20264245D01*
X232179560Y-20264250D01*
X231966097Y-20424046D01*
X231966079Y-20424062D01*
X231777542Y-20612599D01*
X231777526Y-20612617D01*
X231617730Y-20826080D01*
X231617725Y-20826088D01*
X231489934Y-21060119D01*
X231489932Y-21060123D01*
X231422612Y-21240618D01*
X231403362Y-21292231D01*
X231396742Y-21309979D01*
X231340061Y-21570533D01*
X231321038Y-21836518D01*
X231321038Y-21836521D01*
X230500000Y-21836521D01*
X230500000Y-14774354D01*
X230519685Y-14707315D01*
X230572489Y-14661560D01*
X230624350Y-14650355D01*
X282776355Y-14799646D01*
G37*
G04 #@! TD.AperFunction*
M02*
